<?xml version="1.0" encoding="UTF-8"?>
<svg width="378px" height="273px" viewBox="0 0 378 273" version="1.1" xmlns="http://www.w3.org/2000/svg" xmlns:xlink="http://www.w3.org/1999/xlink">
    <!-- Generator: Sketch 54.1 (76490) - https://sketchapp.com -->
    <title>undraw_fatherhood_7i19 (1)</title>
    <desc>Created with Sketch.</desc>
    <defs>
        <linearGradient x1="50.0018299%" y1="100.05197%" x2="50.0018299%" y2="0.0067543714%" id="linearGradient-1">
            <stop stop-color="#808080" stop-opacity="0.25" offset="0%"></stop>
            <stop stop-color="#808080" stop-opacity="0.12" offset="54%"></stop>
            <stop stop-color="#808080" stop-opacity="0.1" offset="100%"></stop>
        </linearGradient>
    </defs>
    <g id="Website" stroke="none" stroke-width="1" fill="none" fill-rule="evenodd">
        <g id="how-it-works" transform="translate(-849.000000, -3771.000000)">
            <g id="undraw_fatherhood_7i19-(1)" transform="translate(849.000000, 3771.000000)">
                <path d="M5,149 C10.9782687,174.578979 23.6338778,196.689972 43.6314621,207.421423 C85.200403,229.694439 178.941447,218.204583 248.900277,205.008311 C284.251973,198.362299 316.340778,180.000086 340,152.878214 L5,149 Z" id="Path" fill="#FABEBA" fill-rule="nonzero" opacity="0.1"></path>
                <path d="M371.334154,27.7621626 L332.934055,27.7621626 C331.101894,27.7621626 329.616634,26.2791679 329.616634,24.4498012 C329.616634,22.6204345 331.101894,21.1374397 332.934055,21.1374397 L339.572343,21.1374397 C337.780842,21.079805 336.35842,19.6130549 336.35842,17.8233585 C336.35842,16.0336621 337.780842,14.566912 339.572343,14.5092773 L334.832185,14.5092773 C333.040684,14.4516425 331.618263,12.9848924 331.618263,11.195196 C331.618263,9.40549968 333.040684,7.93874956 334.832185,7.8811148 L354.874508,7.8811148 C350.427165,5.81733821 345.228839,4.3486172 339.238189,3.57814061 C284.588583,-3.4283809 265.076772,1.20823716 258.193898,5.98587996 C249.702264,11.8676432 240.228839,16.1946948 230.104331,18.2791092 C196.385827,25.2237174 133.327264,33.5820126 76.1732283,15.6030789 C47.7667323,6.66004698 26.6564961,21.7668916 14,47 L378,47 C377.524606,39.6667139 376.10187,32.8975267 373.49065,26.9676086 C372.890723,27.482473 372.12523,27.7645165 371.334154,27.7621626 Z" id="Path" fill="#FABEBA" fill-rule="nonzero" opacity="0.1"></path>
                <path d="M0.826862276,95 C-0.648472664,109.884326 -0.147898388,124.898682 2.31552827,139.651437 L339.567295,152 C348.956088,141.189507 356.838655,129.155806 363,116.22711 L0.826862276,95 Z M134.214092,126.851014 L127.573677,126.851014 C129.406425,126.851014 130.892161,128.338187 130.892161,130.172708 C130.892161,132.007229 129.406425,133.494402 127.573677,133.494402 L89.1612696,133.494402 C87.9756892,133.494403 86.8801677,132.861291 86.2873774,131.833555 C85.6945872,130.805819 85.6945872,129.539597 86.2873774,128.511861 C86.8801677,127.484125 87.9756892,126.851014 89.1612696,126.851014 L95.8016848,126.851014 C94.00961,126.793216 92.5867325,125.322334 92.5867325,123.527595 C92.5867325,121.732856 94.00961,120.261973 95.8016848,120.204175 L91.060008,120.204175 C89.2679332,120.146378 87.8450557,118.675495 87.8450557,116.880756 C87.8450557,115.086017 89.2679332,113.615135 91.060008,113.557337 L129.472415,113.557337 C131.26449,113.615135 132.687367,115.086017 132.687367,116.880756 C132.687367,118.675495 131.26449,120.146378 129.472415,120.204175 L134.214092,120.204175 C136.006167,120.261973 137.429044,121.732856 137.429044,123.527595 C137.429044,125.322334 136.006167,126.793216 134.214092,126.851014 L134.214092,126.851014 Z" id="Shape" fill="#FABEBA" fill-rule="nonzero" opacity="0.1"></path>
                <path d="M377.829012,48 L9.80720062,56.9635443 C5.3295468,68.4816988 2.37773964,81.4960757 1,95 L371.381191,95 C373.798642,87.0712874 375.587218,78.9639932 376.730265,70.7536126 C377.832456,62.8208758 378.273333,55.1467029 377.829012,48 Z M75.7148204,77.3590552 L69.0775597,77.3590552 C70.2625769,77.3590552 71.357578,77.9918357 71.9500866,79.0190346 C72.5425953,80.0462335 72.5425953,81.3117948 71.9500866,82.3389937 C71.357578,83.3661926 70.2625769,83.9989732 69.0775597,83.9989731 L30.6834004,83.9989731 C28.8515227,83.998973 27.3664925,82.5125768 27.3664925,80.6790142 C27.3664925,78.8454516 28.8515227,77.3590553 30.6834004,77.3590552 L37.3206611,77.3590552 C35.5294377,77.3012883 34.1072361,75.8311739 34.1072361,74.0373726 C34.1072361,72.2435712 35.5294377,70.7734568 37.3206611,70.7156899 L32.5812368,70.7156899 C30.7900133,70.6579229 29.3678118,69.1878085 29.3678118,67.3940072 C29.3678118,65.6002058 30.7900133,64.1300915 32.5812368,64.0723245 L70.9753961,64.0723245 C72.7666196,64.1300915 74.1888211,65.6002058 74.1888211,67.3940072 C74.1888211,69.1878085 72.7666196,70.6579229 70.9753961,70.7156899 L75.7148204,70.7156899 C77.5060439,70.7734568 78.9282455,72.2435712 78.9282455,74.0373726 C78.9282455,75.8311739 77.5060439,77.3012883 75.7148204,77.3590552 L75.7148204,77.3590552 Z" id="Shape" fill="#FABEBA" fill-rule="nonzero" opacity="0.1"></path>
                <ellipse id="Oval" fill="#FABEBA" fill-rule="nonzero" opacity="0.1" cx="194.5" cy="266.5" rx="120.5" ry="6.5"></ellipse>
                <path d="M294.958323,219 C294.958323,219 296.757061,221.408979 294.12612,225.030824 C291.495179,228.652669 289.32621,231.73174 290.194453,234 C290.194453,234 294.16216,227.248827 297.40251,227.155015 C300.642859,227.061202 298.509929,223.060755 294.958323,219 Z" id="Path" fill="#FABEBA" fill-rule="nonzero"></path>
                <path d="M294.904721,219 C295.061685,219.232949 295.186552,219.486389 295.275889,219.753348 C298.463957,223.540179 300.160725,227.072545 297.098589,227.159598 C294.241921,227.243304 290.818558,232.399554 290,233.702009 C290.026016,233.803219 290.058111,233.902733 290.096106,234 C290.096106,234 294.109361,227.253348 297.386907,227.159598 C300.664453,227.065848 298.497097,223.058036 294.904721,219 Z" id="Path" fill="#000000" fill-rule="nonzero" opacity="0.1"></path>
                <path d="M298.218985,221.522485 C298.218985,222.338667 298.122425,223 298.001724,223 C297.881024,223 297.781015,222.338667 297.781015,221.522485 C297.781015,220.706304 297.905164,221.0902 298.025864,221.0902 C298.146565,221.0902 298.218985,220.706304 298.218985,221.522485 Z" id="Path" fill="#FFD037" fill-rule="nonzero"></path>
                <path d="M299.523931,222.505465 C298.742953,222.857193 298.063995,223.069393 298.00419,222.979281 C297.944385,222.889168 298.531878,222.531627 299.312856,222.179899 C300.093834,221.828171 299.784257,222.083973 299.844062,222.179899 C299.903866,222.275824 300.304909,222.153737 299.523931,222.505465 Z" id="Path" fill="#FFD037" fill-rule="nonzero"></path>
                <path d="M285.041782,219 C285.041782,219 283.242692,221.408979 285.874149,225.030824 C288.505605,228.652669 290.671723,231.73174 289.806587,234 C289.806587,234 285.834824,227.248827 282.597117,227.155015 C279.359409,227.061202 281.486203,223.060755 285.041782,219 Z" id="Path" fill="#FABEBA" fill-rule="nonzero"></path>
                <path d="M284.0949,219 C283.936361,219.232021 283.811371,219.485688 283.723703,219.753348 C280.535388,223.540179 278.835174,227.072545 281.900862,227.159598 C284.754437,227.243304 288.19795,232.399554 289,233.702009 C288.973486,233.802455 288.940343,233.899554 288.903887,234 C288.903887,234 284.887007,227.253348 281.612521,227.159598 C278.338035,227.065848 280.498931,223.058036 284.0949,219 Z" id="Path" fill="#000000" fill-rule="nonzero" opacity="0.1"></path>
                <path d="M280.781015,221.522485 C280.781015,222.338667 280.877575,223 280.998276,223 C281.118976,223 281.218985,222.338667 281.218985,221.522485 C281.218985,220.706304 281.094836,221.0902 280.974136,221.0902 C280.853435,221.0902 280.781015,220.706304 280.781015,221.522485 Z" id="Path" fill="#FFD037" fill-rule="nonzero"></path>
                <path d="M279.47399,222.505465 C280.254232,222.857193 280.936066,223.069393 280.995814,222.979281 C281.055562,222.889168 280.468623,222.531627 279.688381,222.179899 C278.908138,221.828171 279.217424,222.083973 279.157675,222.179899 C279.097927,222.275824 278.693747,222.153737 279.47399,222.505465 Z" id="Path" fill="#FFD037" fill-rule="nonzero"></path>
                <path d="M282,233.869719 C282,233.869719 287.373671,233.704099 288.996968,232.568912 C290.620264,231.433724 297.263885,230.070808 297.666211,231.878828 C298.068536,233.686847 305.740711,240.949978 299.67434,240.998284 C293.607969,241.04659 285.578949,240.066671 283.962649,239.097104 C282.34635,238.127536 282,233.869719 282,233.869719 Z" id="Path" fill="#A8A8A8" fill-rule="nonzero"></path>
                <path d="M299.783129,240.3833 C293.714256,240.430609 285.681923,239.470918 284.064957,238.521364 C282.832983,237.794837 282.342993,235.196235 282.178496,234 L282,234 C282,234 282.349993,238.183444 283.956459,239.136377 C285.562926,240.08931 293.605758,241.045623 299.674632,240.998314 C301.424595,240.998314 302.033582,240.3833 301.998583,239.491193 C301.753588,240.038623 301.085102,240.373163 299.783129,240.3833 Z" id="Path" fill="#000000" fill-rule="nonzero" opacity="0.2"></path>
                <path d="M92.6513981,235.730372 C93.2758364,235.186405 93.7313218,234.453384 93.9579023,233.627789 C94.1246177,232.796197 93.7911869,231.812087 93.0460713,231.488892 C92.2090921,231.14754 91.3142728,231.76851 90.6338019,232.393112 C89.953331,233.017713 89.1809965,233.7331 88.292982,233.598738 C89.22198,232.700911 89.6406005,231.348093 89.3953449,230.03633 C89.3566295,229.769154 89.2508094,229.518168 89.0891329,229.310049 C88.6230104,228.779864 87.7826288,229.005011 87.2246427,229.422623 C85.4554183,230.751717 84.9620769,233.31912 84.9518698,235.625062 C84.7749474,234.79347 84.924651,233.925564 84.9212486,233.083078 C84.9178463,232.240593 84.6966933,231.267376 84.0230271,230.820713 C83.6049615,230.582405 83.1358403,230.46474 82.6620852,230.479361 C81.8659343,230.446679 80.9813221,230.533833 80.4369454,231.151171 C79.7564745,231.92466 79.9367993,233.21744 80.5254066,234.056295 C81.1140139,234.895149 82.0054308,235.43986 82.8253983,236.024516 C83.485296,236.443244 84.0481828,237.015475 84.4721379,237.698593 C84.5203069,237.795479 84.5612615,237.896259 84.5946226,238 L89.579072,238 C90.6943966,237.394808 91.7278788,236.631341 92.6513981,235.730372 L92.6513981,235.730372 Z" id="Path" fill="#FABEBA" fill-rule="nonzero"></path>
                <path d="M52.7645574,241 C52.7645574,241 48.2837627,224.709239 53.6027146,212.720796 C55.8669648,207.706415 56.5513696,202.040199 55.5531032,196.573445 C55.0606149,193.984275 54.3469287,191.449117 53.4210608,189" id="Path" stroke="#535461" stroke-width="2"></path>
                <path d="M57,181.41382 C57,183.35942 53.5016533,189 53.5016533,189 C53.5016533,189 50,183.346117 50,181.41382 C50.0581335,179.511686 51.6079811,178 53.5,178 C55.3920189,178 56.9418665,179.511686 57,181.41382 L57,181.41382 Z" id="Path" fill="#FABEBA" fill-rule="nonzero"></path>
                <path d="M63.4575314,192.459717 C62.3466115,194.1246 56,197 56,197 C56,197 56.1156478,190.218397 57.2300721,188.556904 C58.3687308,186.954376 60.6189498,186.520116 62.3058966,187.577343 C63.9928435,188.63457 64.5033872,190.799028 63.4575314,192.459717 L63.4575314,192.459717 Z" id="Path" fill="#FABEBA" fill-rule="nonzero"></path>
                <path d="M62.8752154,210.537962 C61.0316569,211.391669 54,210.80089 54,210.80089 C54,210.80089 57.6659266,205.253417 59.5094851,204.39971 C60.7062553,203.817184 62.1521463,203.874766 63.2896099,204.550252 C64.4270734,205.225738 65.0783997,206.413595 64.9924316,207.655774 C64.9064635,208.897953 64.0966321,210.000384 62.8752154,210.537962 L62.8752154,210.537962 Z" id="Path" fill="#FABEBA" fill-rule="nonzero"></path>
                <path d="M59.4051259,225.365345 C57.8012245,226.503065 51,227 51,227 C51,227 53.5048163,220.922353 55.0950674,219.784633 C56.1264139,218.974731 57.5395075,218.774777 58.7712135,219.264454 C60.0029195,219.754131 60.8530439,220.853851 60.9828019,222.125361 C61.1125599,223.396872 60.5008614,224.63351 59.3914757,225.34246 L59.4051259,225.365345 Z" id="Path" fill="#FABEBA" fill-rule="nonzero"></path>
                <path d="M48.1365141,197.199527 C49.5249678,198.572771 56,200 56,200 C56,200 54.4127224,193.450942 53.0176412,192.074324 C52.1258562,191.14629 50.8098419,190.783841 49.5802006,191.127606 C48.3505592,191.471371 47.4008251,192.467244 47.0994869,193.728834 C46.7981487,194.990424 47.1926343,196.319169 48.1298866,197.199527 L48.1365141,197.199527 Z" id="Path" fill="#FABEBA" fill-rule="nonzero"></path>
                <path d="M44.0150397,213.533843 C45.8813944,214.39516 53,213.799116 53,213.799116 C53,213.799116 49.288743,208.20547 47.4223884,207.340879 C45.563254,206.525416 43.3335342,207.221996 42.4058568,208.908079 C41.4781794,210.594162 42.19342,212.650196 44.0150397,213.533843 L44.0150397,213.533843 Z" id="Path" fill="#FABEBA" fill-rule="nonzero"></path>
                <path d="M43.3513947,231.322915 C45.0024282,232.486812 52,233 52,233 C52,233 49.4250903,226.764599 47.7845953,225.597348 C46.1345502,224.546404 43.9111658,224.916378 42.7307151,226.438319 C41.5502643,227.960261 41.8279599,230.098842 43.3619332,231.299436 L43.3513947,231.322915 Z" id="Path" fill="#FABEBA" fill-rule="nonzero"></path>
                <path d="M57,181.41382 C57,183.35942 53.5016533,189 53.5016533,189 C53.5016533,189 50,183.346117 50,181.41382 C50.0581335,179.511686 51.6079811,178 53.5,178 C55.3920189,178 56.9418665,179.511686 57,181.41382 L57,181.41382 Z" id="Path" fill="#FABEBA" fill-rule="nonzero"></path>
                <path d="M63.4575314,192.459717 C62.3466115,194.1246 56,197 56,197 C56,197 56.1156478,190.218397 57.2300721,188.556904 C58.3687308,186.954376 60.6189498,186.520116 62.3058966,187.577343 C63.9928435,188.63457 64.5033872,190.799028 63.4575314,192.459717 L63.4575314,192.459717 Z" id="Path" fill="#FABEBA" fill-rule="nonzero"></path>
                <path d="M62.8752154,210.537962 C61.0316569,211.391669 54,210.80089 54,210.80089 C54,210.80089 57.6659266,205.253417 59.5094851,204.39971 C60.7062553,203.817184 62.1521463,203.874766 63.2896099,204.550252 C64.4270734,205.225738 65.0783997,206.413595 64.9924316,207.655774 C64.9064635,208.897953 64.0966321,210.000384 62.8752154,210.537962 L62.8752154,210.537962 Z" id="Path" fill="#FABEBA" fill-rule="nonzero"></path>
                <path d="M59.4051259,225.365345 C57.8012245,226.503065 51,227 51,227 C51,227 53.5048163,220.922353 55.0950674,219.784633 C56.1264139,218.974731 57.5395075,218.774777 58.7712135,219.264454 C60.0029195,219.754131 60.8530439,220.853851 60.9828019,222.125361 C61.1125599,223.396872 60.5008614,224.63351 59.3914757,225.34246 L59.4051259,225.365345 Z" id="Path" fill="#FABEBA" fill-rule="nonzero"></path>
                <path d="M48.1365141,197.199527 C49.5249678,198.572771 56,200 56,200 C56,200 54.4127224,193.450942 53.0176412,192.074324 C52.1258562,191.14629 50.8098419,190.783841 49.5802006,191.127606 C48.3505592,191.471371 47.4008251,192.467244 47.0994869,193.728834 C46.7981487,194.990424 47.1926343,196.319169 48.1298866,197.199527 L48.1365141,197.199527 Z" id="Path" fill="#FABEBA" fill-rule="nonzero"></path>
                <path d="M44.0150397,213.533843 C45.8813944,214.39516 53,213.799116 53,213.799116 C53,213.799116 49.288743,208.20547 47.4223884,207.340879 C45.563254,206.525416 43.3335342,207.221996 42.4058568,208.908079 C41.4781794,210.594162 42.19342,212.650196 44.0150397,213.533843 L44.0150397,213.533843 Z" id="Path" fill="#FABEBA" fill-rule="nonzero"></path>
                <path d="M43.3513947,231.322915 C45.0024282,232.486812 52,233 52,233 C52,233 49.4250903,226.764599 47.7845953,225.597348 C46.1345502,224.546404 43.9111658,224.916378 42.7307151,226.438319 C41.5502643,227.960261 41.8279599,230.098842 43.3619332,231.299436 L43.3513947,231.322915 Z" id="Path" fill="#FABEBA" fill-rule="nonzero"></path>
                <path d="M42,239.939533 C42,239.939533 47.8609285,238.729763 49.422017,237.117923 C50.9831054,235.506082 58.0148503,232.684472 58.7953945,234.698383 C59.5759387,236.712294 69.3395884,243.565285 62.6981156,244.775054 C56.0566429,245.984824 47.0769609,246.386895 45.1256003,245.579196 C43.1742398,244.771496 42,239.939533 42,239.939533 Z" id="Path" fill="#A8A8A8" fill-rule="nonzero"></path>
                <path d="M62.7100464,244.05694 C56.0714648,245.246044 47.0876391,245.641246 45.1361221,244.850842 C43.6502302,244.245798 42.6162685,241.353479 42.2088466,240 L42,240.045466 C42,240.045466 43.1743339,244.798381 45.1258509,245.588785 C47.077368,246.379189 56.0611937,245.983987 62.6997752,244.798381 C64.6170551,244.448645 65.1648494,243.647749 64.9594265,242.630017 C64.8053594,243.291018 64.1377351,243.801633 62.7100464,244.05694 Z" id="Path" fill="#000000" fill-rule="nonzero" opacity="0.2"></path>
                <path d="M249.735163,90.4287545 C251.583637,88.3571112 250.86077,85.1288003 250.86077,85.1288003 C250.86077,85.1288003 242.138176,62.8310124 241.170911,62.5858679 C240.203647,62.3407234 237.776879,56.7162118 237.776879,56.7162118 C237.776879,56.7162118 214.517776,34.5392697 213.681316,34.5392697 C212.844856,34.5392697 204.352891,28.4141108 203.265148,28.293265 C202.177406,28.1724191 200.476948,27.5578316 198.659454,26.5668955 C196.84196,25.5759595 178.426065,26.6911941 177.699756,27.5474734 C176.973447,28.4037526 173.569088,29.0183402 173.569088,29.0183402 C173.569088,29.0183402 166.663988,29.3843305 165.693281,30.6100528 C164.722574,31.8357751 157.579961,32.48489 157.579961,32.48489 C157.579961,32.48489 154.065451,33.7969308 158.836372,37.2807444 L158.836372,37.2807444 C157.308025,37.5224361 155.521511,37.708884 153.70746,37.8400881 C153.253086,37.8711627 152.791828,37.9022374 152.33057,37.9264066 L152.058635,37.9264066 C151.75399,37.0025022 151.159979,36.202012 150.365061,35.6441461 C149.845297,35.3610685 149.308412,35.1108331 148.757543,34.8949018 C147.904518,34.4399031 147.105449,33.8897334 146.375524,33.2548508 C142.843939,30.4378598 139.07551,27.9333021 135.112569,25.7693128 C134.500805,25.3851236 133.818391,25.1279965 133.105753,25.013163 C131.629039,24.8716007 130.310668,25.9108751 128.864934,26.2596018 C126.324573,26.8707366 123.763559,25.317004 121.150912,25.2928349 C117.887684,25.2617602 114.917045,27.8098815 113.922243,30.951874 C113.553925,32.115447 113.388698,33.4102241 112.593545,34.3321054 C111.560878,35.5371112 109.81567,35.7132009 108.400917,36.4279179 C106.311415,37.5211014 105.000828,39.6885808 105,42.0524296 L105,42.0800515 C105,42.2630466 105,42.4460418 105.03098,42.629037 C105.192765,44.1068092 105.874325,45.4706411 106.373447,46.8724531 C106.886368,48.3087972 107.210374,49.8060978 107.33727,51.3264863 C107.338978,51.3425535 107.338978,51.3587574 107.33727,51.3748246 C107.357923,51.6268746 107.375134,51.8789245 107.385461,52.1344272 C107.385461,52.1862183 107.385461,52.2414621 107.385461,52.2967059 C107.385461,52.5383977 107.385461,52.7835421 107.385461,53.0286866 C107.385461,54.3476329 107.340712,55.6769373 107.344154,56.9958836 L107.344154,57.0649384 L107.344154,57.6622622 C107.344154,57.7106006 107.344154,57.7589389 107.344154,57.8072773 C107.344154,57.9833669 107.344154,58.1525511 107.364807,58.338999 L107.364807,58.5254469 C107.364807,58.6877257 107.388903,58.8534571 107.406114,59.0157359 C107.406114,59.0847907 107.406114,59.1572982 107.423325,59.2263529 C107.423325,59.3851789 107.46119,59.5405522 107.481843,59.6959254 L107.512823,59.9169007 C107.536919,60.072274 107.564456,60.2276472 107.591994,60.3830205 L107.633301,60.5970903 C107.667723,60.7628218 107.70903,60.9423642 107.750336,61.0942847 C107.767548,61.1529813 107.777874,61.2082251 107.791643,61.2669216 C107.853603,61.4971042 107.922448,61.7180795 107.998176,61.9298475 C109.0437,64.8707969 111.432809,67.1297897 114.421365,68.0032153 C114.976067,68.1566258 115.549978,68.2287293 116.125266,68.2172851 C117.157933,68.1931159 118.145851,67.8720112 118.758567,67.1641997 C118.910024,67.3368367 119.05804,67.5094736 119.216382,67.6821106 C123.772825,72.6525567 130.460446,75.0804051 137.132925,74.1864647 C143.805405,73.2925243 149.623345,69.1892527 152.719542,63.19355 C153.080975,63.114137 153.438966,63.0416294 153.8004,62.9725747 C154.426884,62.8551815 155.056811,62.7446939 155.69018,62.6273008 L156.299454,62.5306241 L156.299454,62.5306241 L156.540409,62.4891912 C159.63841,61.9989023 162.646914,61.6708921 164.801745,61.4533695 L156.285685,62.5133604 C156.285685,62.5133604 154.220351,72.4607012 153.624846,73.5621249 C153.029342,74.6635486 155.69018,76.5004057 155.69018,76.5004057 C155.69018,76.5004057 157.993028,79.3178407 157.993028,80.1775727 C157.993028,81.0373047 160.657308,83.4852966 161.383618,84.8318648 C161.475997,85.0026619 161.591873,85.159573 161.72784,85.2979845 C161.190131,85.5066677 160.69363,85.8094529 160.261453,86.1922439 C158.578206,87.790862 159.139288,90.594486 158.36823,92.790428 C157.886319,94.1715235 156.877747,95.2902109 155.90704,96.3778237 C155.558442,96.7328721 155.265925,97.139222 155.0396,97.5828296 C154.9134,97.8767544 154.835514,98.1892485 154.808971,98.5081636 L154.808971,98.5081636 C154.791713,98.6848457 154.784817,98.8623921 154.788318,99.0398854 L154.788318,99.1020347 C154.788318,99.2401443 154.788318,99.3748011 154.815856,99.5094579 C154.815856,99.5681545 154.815856,99.626851 154.815856,99.6855476 C154.984524,101.128792 155.47332,102.523699 155.621336,103.966944 C155.769351,105.410189 155.590356,106.863792 155.886387,108.269057 C155.988978,108.759055 156.148405,109.235322 156.361414,109.688132 L151.43215,115.212514 C151.43215,115.212514 151.40117,115.485281 151.390843,115.934137 C147.280829,119.355801 140.926485,125.812423 143.19491,131.505989 C143.44275,132.129784 143.672231,132.727108 143.883354,133.297961 C142.213876,134.364857 141.66312,135.632012 144.165617,136.895715 C144.561472,137.095974 144.943559,137.268611 145.318761,137.423984 C146.602711,141.204733 147.105275,142.257818 149.256665,139.471458 C149.487294,139.167617 149.755787,138.78091 150.048376,138.363129 C153.077533,138.30098 154.829624,136.895715 154.829624,136.895715 C154.829624,136.895715 163.30782,136.405426 165.500517,137.755447 C166.598586,138.445995 169.180253,138.584104 171.46589,138.566841 C171.435226,141.036746 171.550167,143.50631 171.810112,145.962607 C171.810112,145.962607 171.445236,156.376068 172.415943,158.582368 C173.38665,160.788668 173.923637,164.586681 173.923637,164.586681 C173.923637,164.586681 172.295465,168.260395 173.26273,170.221551 C174.229995,172.182707 172.415943,175.000142 172.415943,175.000142 L172.415943,182.226724 L173.104388,182.178386 C173.052755,182.665222 172.987352,183.176227 172.901297,183.663064 C172.701648,184.792109 172.402174,185.803762 171.940916,186.131772 C170.729254,187.005315 170.608776,191.656154 170.608776,191.656154 C170.608776,191.656154 168.670804,197.294477 169.032238,198.275055 C169.393671,199.255632 166.732833,201.213335 167.338664,202.684202 C167.944495,204.155069 169.183696,213.463653 170.261111,216.149884 C171.338527,218.836115 168.064973,218.11104 168.064973,218.11104 L169.032238,225.092478 C169.032238,225.092478 170.002945,232.198214 169.276636,232.688503 C168.550326,233.178792 164.371467,236.731661 167.245724,238.813662 C167.469468,238.975941 167.696655,239.124409 167.934169,239.265971 C167.946958,239.58841 167.93891,239.911342 167.910073,240.232738 C167.854997,240.781723 167.717308,241.220221 167.410951,241.26856 C166.557279,241.392858 164.860263,242.249137 164.502272,241.883147 C164.144281,241.517157 162.092716,242.808481 160.027382,243.229715 L159.741677,243.274601 L157.060185,242.584053 C153.180506,241.101539 148.921691,240.943772 144.943559,242.135197 C144.943559,242.135197 142.998703,242.439038 142.055534,243.896094 C141.577065,244.641886 141.367089,245.691518 141.793925,247.155479 C143.088201,251.485214 151.910619,252.976797 151.910619,252.976797 C151.910619,252.976797 154.967313,253.608649 158.640166,254.444211 C158.519688,254.444211 158.395768,254.444211 158.271848,254.444211 C156.170452,254.429641 154.406767,256.029091 154.210122,258.127707 C154.013477,260.226324 155.449156,262.127395 157.516457,262.50583 C159.583758,262.884265 161.596366,261.614429 162.151445,259.581426 C162.706524,257.548424 161.619797,255.427184 159.648737,254.696261 C163.779405,255.649217 168.35412,256.809337 170.21292,257.627637 C171.596873,258.150361 173.014958,258.577202 174.457182,258.90515 C174.603185,260.663743 175.870308,262.123762 177.586712,262.511093 C179.303117,262.898424 181.071537,262.12342 181.954344,260.596992 C187.575495,261.774376 192.990112,262.772218 192.990112,262.772218 L202.032832,262.920685 L202.094793,262.920685 C199.875947,262.935904 198.087367,264.748444 198.094953,266.974107 C198.102539,269.199769 199.903433,271 202.12233,271 C204.341227,271 206.142122,269.199769 206.149708,266.974107 C206.157294,264.748444 204.368713,262.935904 202.149868,262.920685 L215.83959,263.145113 C215.390735,264.671472 215.873814,266.320072 217.074673,267.360066 C218.275531,268.40006 219.971986,268.63903 221.411975,267.971035 C222.851964,267.30304 223.769061,265.851675 223.756704,264.260348 C223.756029,263.927329 223.714408,263.595664 223.632784,263.272865 L235.708103,263.469671 L238.117659,260.811062 C238.252311,260.552735 238.333123,260.269616 238.355173,259.978952 C238.427459,259.105409 237.976528,257.779557 234.892296,257.216761 C234.665109,257.175328 228.372725,257.275457 222.813535,257.368681 L222.813535,255.179645 C222.813535,255.179645 222.658634,253.974639 222.562252,252.555563 C222.534714,252.137782 222.510619,251.702737 222.500292,251.274597 C222.814802,251.490723 223.164157,251.650749 223.532959,251.747622 C225.835807,252.117065 228.985441,245.377319 228.985441,245.377319 C228.985441,245.377319 228.985441,241.579306 229.71175,238.516727 C230.438059,235.454147 231.777084,225.161533 231.777084,225.161533 L234.689205,212.790369 C234.689205,212.790369 235.893983,187.550848 235.288152,186.57027 C234.68232,185.589692 236.017903,183.873681 236.017903,183.873681 C236.017903,183.873681 236.985168,178.483955 235.53255,176.647098 C234.079931,174.810241 236.379337,172.969931 236.379337,172.969931 C236.379337,172.969931 236.985168,166.599628 235.288152,164.151636 C233.591136,161.703644 236.083305,159.987633 236.083305,159.987633 L236.689137,150.064461 C239.23294,147.492171 241.532345,132.179274 241.656265,128.87155 C241.688076,127.00961 242.10047,125.174025 242.867927,123.478371 C242.867927,123.478371 244.561501,120.906081 244.805899,119.19007 C245.050297,117.474058 246.871233,113.924643 246.871233,113.924643 L250.020867,102.161161 C251.291048,97.4170981 250.967479,93.9091154 250.124134,91.4093324 C250.000214,91.057153 249.86941,90.7360483 249.735163,90.4287545 Z M192.83177,91.1193023 C194.769741,92.3450246 194.16391,92.711015 194.769741,93.4464484 C195.375573,94.1818817 194.890219,94.0575831 194.404866,95.2833055 C193.919512,96.5090278 194.284388,96.1430374 194.525343,97.4896056 C194.766299,98.8361738 194.649264,98.8361738 194.649264,98.8361738 L195.255095,98.9224923 L194.41175,104.609153 C193.034861,105.510318 192.404934,107.236688 192.119229,109.018301 C191.306865,107.954857 190.487616,106.849981 189.754422,105.821065 C190.005704,105.258268 189.957513,104.588437 189.964398,103.956586 C189.991935,101.884942 190.762993,99.9065229 191.117542,97.8659542 C191.479659,95.7901611 191.412877,93.6618867 190.921336,91.613044 C190.74487,90.8421195 190.473128,90.0963133 190.112413,89.3929329 C190.89724,89.9177492 191.892043,90.5392422 192.83177,91.1331133 L192.83177,91.1193023 Z M195.010697,211.181393 C195.010697,211.181393 196.542486,210.145571 198.029527,209.202973 C198.528649,212.838707 199.000234,216.619456 199.334129,220.037668 C198.800585,218.849926 198.428825,218.041985 198.428825,218.041985 C197.882418,217.383191 197.555049,216.569512 197.49254,215.714839 C197.434022,214.382082 195.010697,211.195204 195.010697,211.195204 L195.010697,211.181393 Z M185.92667,85.2530989 C186.270892,85.3014372 186.759688,85.7399351 187.220946,86.2647514 C186.79411,85.9194775 186.363832,85.5742036 185.923227,85.2496462 L185.92667,85.2530989 Z M163.755309,130.580655 C162.357767,131.022606 157.621268,130.957004 154.805529,130.791272 C155.858849,128.98549 156.905285,127.148633 157.834685,125.501676 C158.382801,125.644024 158.940896,125.744442 159.504164,125.802065 L168.72588,117.67777 C172.194755,118.898122 175.978253,118.873717 179.431194,117.608715 L179.682477,118.002328 C179.789186,118.174964 179.902779,118.347601 180.026699,118.540955 L179.79607,118.164606 C179.79607,118.164606 176.236811,120.291493 176.598245,121.272071 C176.959678,122.252649 176.116333,124.700641 174.784193,127.324723 C174.439971,127.980743 174.140497,128.629858 173.85135,129.282426 C170.835963,129.56555 165.152852,130.138705 163.755309,130.580655 Z M181.25213,243.775248 L181.200497,242.805028 C181.785675,242.677277 182.171204,242.559884 182.171204,242.559884 C182.05023,241.120113 181.847961,239.688381 181.565373,238.271582 C181.200497,236.800715 181.389819,237.291004 182.808015,236.199939 C184.226211,235.108873 182.808015,222.734257 182.808015,222.734257 C182.808015,222.734257 183.49646,221.874525 184.587645,224.080825 C185.67883,226.287125 186.773457,227.633694 187.138332,227.754539 C187.503208,227.875385 185.682272,230.330283 187.138332,232.657429 C188.042397,234.16278 188.657667,235.824518 188.952384,237.556865 C188.952384,237.556865 187.985119,241.448102 189.437737,243.177924 C189.633952,243.379503 189.867905,243.54025 190.126182,243.650949 C190.126182,243.972054 190.126182,244.313875 190.126182,244.63498 C190.126182,245.280642 190.126182,245.83308 190.095202,245.950474 C190.066555,246.118788 189.952092,246.259745 189.793557,246.32194 C189.635022,246.384134 189.455591,246.358473 189.320702,246.254315 C188.9455,246.00917 186.566923,246.558156 186.728708,248.094624 C186.166234,248.761295 185.528609,249.360315 184.8286,249.87969 L181.527508,249.023411 L181.25213,243.775248 Z" id="Shape" fill="url(#linearGradient-1)" fill-rule="nonzero"></path>
                <path d="M152.044697,117.41958 C152.044697,117.41958 150.942557,127.017483 159.684011,128 L161,121.356643 L158.246294,117.41958 L154.301618,116 L152.044697,117.41958 Z" id="Path" fill="#FABEBA" fill-rule="nonzero"></path>
                <path d="M154.396267,116 L152.046535,117.416497 C152.046535,117.416497 150.899072,127.017196 160,128" id="Path" fill="#000000" fill-rule="nonzero" opacity="0.1"></path>
                <path d="M168,64.0591423 C168,64.0591423 161.845797,64.4416405 155.674433,65.477863 C155.042881,65.586817 154.414761,65.7027256 153.790073,65.8255886 C153.426244,65.8951338 153.06928,65.9681562 152.712316,66.0481331 C149.479043,66.7227208 146.534087,67.5989895 144.817912,68.7186661 C142.758502,70.0574099 142.072032,66.4514948 142.006818,61.4407681 C141.979359,59.677799 142.037709,57.7444444 142.130382,55.7902262 C142.250515,53.5300094 142.425564,51.2419746 142.610911,49.1834387 C143.019361,44.6212781 143.489593,41.0744764 143.489593,41.0744764 C143.489593,41.0744764 145.645108,41.0744764 148.524849,40.973636 L149.451584,40.9388634 C150.354292,40.9040909 151.311917,40.8554093 152.276407,40.7962959 C152.73291,40.7719551 153.192845,40.7441371 153.649347,40.7093645 C155.475357,40.5772287 157.27734,40.3894569 158.797871,40.1460489 C160.41794,39.8817774 161.73253,39.5479608 162.446459,39.102872 C165.707191,37.1347447 168,64.0591423 168,64.0591423 Z" id="Path" fill="#F8BDC5" fill-rule="nonzero"></path>
                <path d="M195.570413,98.1790935 L194.347712,106.163375 C194.347712,106.163375 191.682223,109.428578 192.031567,111.243344 C192.38091,113.058109 195.455129,193.258375 195.455129,193.258375 C195.455129,193.258375 201.481299,227.127125 199.388733,231.481875 C197.296168,235.836625 199.266463,246 199.266463,246 L211.807882,244.064937 L216,96 L195.570413,98.1790935 Z" id="Path" fill="#474463" fill-rule="nonzero"></path>
                <path d="M195.570413,98.1790935 L194.347712,106.163375 C194.347712,106.163375 191.682223,109.428578 192.031567,111.243344 C192.38091,113.058109 195.455129,193.258375 195.455129,193.258375 C195.455129,193.258375 201.481299,227.127125 199.388733,231.481875 C197.296168,235.836625 199.266463,246 199.266463,246 L211.807882,244.064937 L216,96 L195.570413,98.1790935 Z" id="Path" fill="#000000" fill-rule="nonzero" opacity="0.1"></path>
                <path d="M222.96192,249.194232 C222.573054,249.835454 222.603754,251.721798 222.71291,253.326548 C222.808421,254.707379 222.96192,255.881255 222.96192,255.881255 L222.96192,264 C222.96192,264 209.876911,259.463953 202.672652,254.687023 C199.701577,252.715861 198.855622,250.8838 199.019356,249.418151 C199.258133,247.331637 201.543575,245.971162 202.672652,245.971162 C203.750562,245.971162 207.154847,244.101781 209.945134,242.449534 C212.138476,241.156913 213.960007,240 213.960007,240 C213.960007,240 223.681664,248 222.96192,249.194232 Z" id="Path" fill="#575988" fill-rule="nonzero"></path>
                <path d="M222.96208,248.658859 C222.574849,249.332485 222.605419,251.314155 222.714116,253 C219.81667,251.574338 210.845796,242.442974 210,241.57332 C212.184124,240.215377 213.998,239 213.998,239 C213.998,239 223.678799,247.404277 222.96208,248.658859 Z" id="Path" fill="#000000" fill-rule="nonzero" opacity="0.1"></path>
                <path d="M250.155268,103.767798 L247.002993,115.421207 C247.002993,115.421207 245.183976,118.938957 244.935928,120.639203 C244.68788,122.339449 242.996331,124.888094 242.996331,124.888094 C242.230747,126.565611 241.817971,128.38282 241.783653,130.226797 C241.663074,133.506581 239.372076,148.677741 236.81236,151.226385 L236.206021,161.058842 C236.206021,161.058842 233.794445,162.755639 235.479103,165.197371 C237.163761,167.639104 236.571203,173.936566 236.571203,173.936566 C236.571203,173.936566 234.266424,175.757519 235.723706,177.578472 C237.180987,179.399425 236.206021,184.741577 236.206021,184.741577 C236.206021,184.741577 234.872764,186.438374 235.479103,187.410929 C236.085442,188.383483 234.879654,213.387099 234.879654,213.387099 L231.965091,225.644045 C231.965091,225.644045 230.628389,235.842071 229.898026,238.876993 C229.167663,241.911915 229.171108,245.671079 229.171108,245.671079 C229.171108,245.671079 226.018833,252.347907 223.714055,251.985785 C221.409277,251.623664 210.257458,240.694497 210.257458,240.694497 L211.831873,203.792608 C211.831873,203.792608 213.16513,188.135172 212.317633,185.10025 C211.470136,182.065328 210.863797,166.894169 210.863797,166.894169 L209.165358,142.983814 L192.20853,116.279952 C192.20853,116.279952 190.978626,108.509863 194.492638,106.206081 L195.129983,102.008923 L195.705316,98.1945778 L215.83509,96.0080547 L246.630922,88 C246.630922,88 249.004602,89.4657292 250.248286,93.1248791 C251.099228,95.590753 251.426514,99.0671178 250.155268,103.767798 Z" id="Path" fill="#474463" fill-rule="nonzero"></path>
                <path d="M197,116.710559 C197,116.710559 183.037729,133.972606 183.629436,129.149387 C183.999253,126.120067 182.089653,122.420573 180.603661,120.081735 C179.726186,118.690617 179,117.780129 179,117.780129 C179,117.780129 187.519238,102.058127 187.993276,104.200652 C188.144565,104.877595 189.129623,106.431179 190.397086,108.20477 C193.069854,111.921187 197,116.710559 197,116.710559 Z" id="Path" fill="#FFC1C8" fill-rule="nonzero"></path>
                <path d="M223,262.255002 L223,264 C223,264 209.894197,259.333876 202.678488,254.419963 C199.702692,252.392275 198.855393,250.507678 199.019386,249 C203.003059,251.059097 210.413509,254.985342 212.658168,256.75477 C214.564591,258.255468 219.491225,260.632154 223,262.255002 Z" id="Path" fill="#FFFFFF" fill-rule="nonzero" opacity="0.3"></path>
                <circle id="Oval" fill="#474463" fill-rule="nonzero" cx="220" cy="265" r="4"></circle>
                <circle id="Oval" fill="#474463" fill-rule="nonzero" cx="179" cy="259" r="4"></circle>
                <path d="M238.99308,260.52879 C238.970356,260.81811 238.889412,261.099784 238.755152,261.356753 L236.341395,264 L202.603969,263.456108 L193.531691,263.307144 C193.531691,263.307144 174.435425,259.815148 170.714791,258.186936 C166.994157,256.558723 152.36679,253.579441 152.36679,253.579441 C152.36679,253.579441 143.532439,252.0898 142.235907,247.783698 C141.797983,246.325236 142.018669,245.282487 142.497972,244.541131 C143.439337,243.089597 145.391032,242.78474 145.391032,242.78474 C149.377656,241.601693 153.639878,241.759838 157.528782,243.235097 L214.079659,257.8509 L214.955508,258.076079 C214.955508,258.076079 235.113827,257.698472 235.520718,257.771222 C238.613775,258.339364 239.065492,259.659255 238.99308,260.52879 Z" id="Path" fill="#FABEBA" fill-rule="nonzero"></path>
                <path d="M238.993082,260.059524 C235.600029,259.614103 229.682876,258.95641 228.158761,259.589744 C228.158761,259.589744 217.396853,258.24652 202.590178,263 L193.531692,262.850366 C193.531692,262.850366 174.435426,259.342674 170.714792,257.707143 C166.994158,256.071612 152.36679,253.078938 152.36679,253.078938 C152.36679,253.078938 143.532439,251.582601 142.235907,247.257143 C141.797983,245.792125 142.018669,244.744689 142.497972,244 C143.101411,245.774725 144.263463,248.346337 146.118608,249.066667 C149.032357,250.197619 161.00804,252.501282 161.00804,252.501282 L184.711134,258.357875 C184.711134,258.357875 198.397137,261.354029 203.724643,259.401832 C205.907369,258.608425 210.00386,257.902015 214.069316,257.348718 L214.945165,257.574908 C214.945165,257.574908 235.103485,257.195604 235.510375,257.268681 C238.613777,257.860256 239.065495,259.186081 238.993082,260.059524 Z" id="Path" fill="#FFFFFF" fill-rule="nonzero" opacity="0.3"></path>
                <path d="M205.967215,256.367128 C205.938018,256.878014 205.873664,257.386337 205.7746,257.888561 C205.7746,257.888561 192.158477,258.370291 185.070249,257.330587 C183.112581,257.042935 182.005921,256.422578 181.456093,255.680923 C180.957223,254.968751 180.860789,254.053655 181.20044,253.254947 C181.278819,253.029015 181.378483,252.810873 181.498118,252.603399 C182.026933,251.68846 182.839418,251.040377 183.284183,251.127019 C184.516919,251.373083 186.632181,248.870862 186.632181,248.870862 C186.46408,247.342497 188.891028,246.791454 189.269254,247.040983 C189.406489,247.145531 189.589041,247.171289 189.750333,247.108861 C189.911625,247.046434 190.028079,246.904948 190.057224,246.736003 C190.081738,246.621636 190.088743,246.070592 190.088743,245.425976 C190.088743,244.351615 190.057224,243 190.057224,243 L203.743389,244.646198 L204.286212,247.235061 C204.783509,249.543204 205.476923,252.714301 205.7746,253.799059 C205.981539,254.638703 206.046623,255.506451 205.967215,256.367128 L205.967215,256.367128 Z" id="Path" fill="#474463" fill-rule="nonzero"></path>
                <path d="M206,255.640311 C205.971412,256.065725 205.9084,256.489004 205.811402,256.907205 C205.811402,256.907205 192.479211,257.30834 185.538791,256.442581 C183.621946,256.203054 182.538363,255.686485 182,255.06891 C183.779683,254.979449 186.094299,254.930389 187.527647,255.224747 C189.571367,255.651855 201.795971,255.651855 206,255.640311 Z" id="Path" fill="#000000" fill-rule="nonzero" opacity="0.1"></path>
                <path d="M181.995244,252.787626 C182.025162,253.043399 181.912324,253.294884 181.701993,253.4412 C180.004585,254.762254 171.8591,253.326477 171.8591,253.326477 C171.8591,253.326477 155.216227,252.28354 152.728766,250.573124 C152.504249,250.424433 152.316583,250.225814 152.180214,249.992555 C151.14521,248.108316 154.891926,244.944741 155.216227,244.944741 C155.540529,244.944741 160.015198,244.329408 160.31535,244.270308 C162.385359,243.849657 164.455368,242.556415 164.800369,242.924919 C165.145371,243.293424 166.870378,242.434739 167.712182,242.313063 C168.019233,242.267869 168.160684,241.829836 168.212434,241.270126 C168.260955,240.512738 168.235533,239.75238 168.136534,239 L181.429442,242.605085 L181.546742,244.73963 L181.929694,251.845507 L181.977994,252.718097 C181.986339,252.74054 181.992126,252.763866 181.995244,252.787626 L181.995244,252.787626 Z" id="Path" fill="#474463" fill-rule="nonzero"></path>
                <path d="M171.803615,252.325796 C171.803615,252.325796 155.055256,251.285401 152.552029,249.579153 C152.326089,249.430825 152.137234,249.23269 152,249 C155.392029,249.277439 161.047725,249.745616 162.068458,250.005715 C163.537064,250.352513 171.789728,250.858839 171.789728,250.858839 L181.938039,250.858839 L181.986645,251.729303 C182.427574,254.184635 171.803615,252.325796 171.803615,252.325796 Z" id="Path" fill="#000000" fill-rule="nonzero" opacity="0.1"></path>
                <circle id="Oval" fill="#474463" fill-rule="nonzero" cx="159" cy="259" r="4"></circle>
                <circle id="Oval" fill="#474463" fill-rule="nonzero" cx="202" cy="267" r="4"></circle>
                <path d="M161,121.002339 C161,121.002339 160.247754,122.367283 159.115996,124.394224 C156.4052,129.212475 151.529154,137.753609 149.431675,140.456197 C146.449799,144.298514 146.690382,140.698475 143.467923,132.652133 C141.075645,126.666855 148.438846,119.818251 152.376278,116.706179 C153.731677,115.624462 154.680455,115 154.680455,115 L161,121.002339 Z" id="Path" fill="#F8BDC5" fill-rule="nonzero"></path>
                <path d="M175.97265,131 C175.97265,131 165.98632,131.810157 164.061532,132.389781 C162.136745,132.969406 153.835886,132.620314 153.121356,132.389781 C152.406825,132.159249 138.198271,135.287904 144.69742,138.416559 C151.196568,141.545214 155.295716,138.416559 155.295716,138.416559 C155.295716,138.416559 163.719652,137.952201 165.894012,139.230009 C168.068372,140.507818 176,139.809634 176,139.809634 L175.97265,131 Z" id="Path" fill="#FFC1C8" fill-rule="nonzero"></path>
                <path d="M154.402366,56.0045675 C155.600494,59.1985452 154.851664,61.9798373 153.440535,64.8339563 C149.906058,65.5275453 146.581254,66.4812303 144.730812,67.7192867 C139.45905,71.2600589 143.442825,40.1352499 143.442825,40.1352499 C143.442825,40.1352499 145.992174,40.1352499 149.223791,40 C148.24532,44.6539826 151.95286,49.4848304 154.402366,56.0045675 Z" id="Path" fill="#000000" fill-rule="nonzero" opacity="0.1"></path>
                <path d="M154.999983,55.5272409 C154.986689,65.9528197 147.14946,74.7075445 136.788512,75.8707073 C126.427565,77.0338701 116.844059,70.2348693 114.519195,60.0717817 C112.194332,49.9086941 117.868849,39.6196371 127.705144,36.1629676 C137.541438,32.7062982 148.405515,37.1833649 152.950137,46.566385 C154.303036,49.3596366 155.003941,52.4236277 154.999983,55.5272409 Z" id="Path" fill="#F8BDC5" fill-rule="nonzero"></path>
                <path d="M250,93.1506029 C249.346779,94.1088031 248.368406,94.793023 247.249312,95.0742802 C242.528445,96.4156553 209.248562,104.467372 207.072081,103.978654 C205.150038,103.548859 196.901413,102.353059 195,102.079239 L195.574206,98.2457483 L215.664541,96.0482502 L246.400038,88 C246.400038,88 248.758752,89.4730863 250,93.1506029 Z" id="Path" fill="#000000" fill-rule="nonzero" opacity="0.1"></path>
                <path d="M168,63.6987799 C163.986965,63.9335965 159.988796,64.3678997 156.021046,65 C156.077422,64.823747 156.069991,64.6339293 156,64.4623906 L164.208126,63.4727785 C164.208126,63.4727785 163.008477,44.6393294 158.595732,40.1261501 C160.251388,39.8659061 161.594855,39.5371768 162.324467,39.0988711 C165.656825,37.1847078 168,63.6987799 168,63.6987799 Z" id="Path" fill="#000000" fill-rule="nonzero" opacity="0.1"></path>
                <path d="M157.995251,35.2487475 C157.995251,35.2487475 165.189223,34.6034699 166.162505,33.3888297 C167.135787,32.1741895 174.087305,31.8118679 174.087305,31.8118679 C174.087305,31.8118679 177.498987,31.2045478 178.243669,30.3522293 C178.98835,29.4999107 197.501486,28.4094951 199.330286,29.3825875 C201.159086,30.35568 202.866659,30.9595494 203.964632,31.0837739 C205.062604,31.2079985 213.593541,37.274298 214.445595,37.274298 C215.29765,37.274298 238.691049,59.2585949 238.691049,59.2585949 C238.691049,59.2585949 241.115595,64.8452496 242.106195,65.0867973 C243.096795,65.3283451 251.859794,87.4334159 251.859794,87.4334159 C251.859794,87.4334159 253.078994,92.7750721 248.326885,94.1139369 C243.574776,95.4528016 210.046777,103.465286 207.854295,102.97874 C205.661814,102.492194 195.298614,101.036006 195.298614,101.036006 C195.298614,101.036006 195.419841,101.036006 195.177386,99.7005915 C194.934932,98.3651775 194.567786,98.7274991 195.052696,97.512859 C195.537605,96.2982188 196.029441,96.4189927 195.419841,95.6908987 C194.810241,94.9628047 195.419841,94.5970324 193.469814,93.3823922 C191.519787,92.1677521 189.31345,90.832338 189.202614,90.4700164 C189.091778,90.1076947 187.373814,87.6749637 186.521759,87.5541898 C185.669705,87.4334159 161.774078,80.752895 161.774078,80.752895 L156.166451,78.9309347 C156.166451,78.9309347 153.485596,77.1089745 154.088269,76.0185589 C154.690942,74.9281433 156.76566,65.0626426 156.76566,65.0626426 L165.33816,64.0101845 C165.33816,64.0101845 164.060078,43.4441179 159.259478,39.9934356 C154.458878,36.5427533 157.995251,35.2487475 157.995251,35.2487475 Z" id="Path" fill="#FABEBA" fill-rule="nonzero"></path>
                <path d="M161,121.750454 C161,121.750454 160.214931,123.058118 159.033792,125 C158.849902,118.997821 154.309234,117.833999 152,117.63458 C153.414538,116.598256 154.404715,116 154.404715,116 L161,121.750454 Z" id="Path" fill="#000000" fill-rule="nonzero" opacity="0.1"></path>
                <path d="M155.675095,75 L156.263942,78.2719566 C156.263942,78.2719566 158.581226,81.06173 158.581226,81.9089946 C158.581226,82.7562591 161.26221,85.1809511 161.996536,86.5138429 C162.730862,87.8467347 165.287149,88.0912704 164.310357,90.3954166 C163.333564,92.6995629 157.729131,110.275136 157.729131,110.275136 L152,116.577957 C152,116.577957 161.50814,115.727249 160.042951,127 L172.356772,116.323089 L182,98.8783945 C182,98.8783945 172.613093,81.1822758 172.249394,79.7288383 C171.885694,78.2754007 155.675095,75 155.675095,75 Z" id="Path" fill="#FABEBA" fill-rule="nonzero"></path>
                <path d="M184,81 C184,81 192,75.6344853 192,75.0383171 C192,74.4421488 184,81 184,81 Z" id="Path" fill="#000000" fill-rule="nonzero" opacity="0.1"></path>
                <path d="M197,88 C197,88 201.597303,86.942888 201.980412,84.5700089 C202.36352,82.1971298 197,88 197,88 Z" id="Path" fill="#000000" fill-rule="nonzero" opacity="0.1"></path>
                <path d="M200,94 C200,94 206.254718,91.4760807 205.991946,91.0388426 C205.729174,90.6016044 200,94 200,94 Z" id="Path" fill="#000000" fill-rule="nonzero" opacity="0.1"></path>
                <path d="M231,76 C231,76 228.361567,77.4122818 229.145559,78.7349439 C229.92955,80.057606 231,76 231,76 Z" id="Path" fill="#000000" fill-rule="nonzero" opacity="0.1"></path>
                <path d="M239,76 C239,76 231.566194,82.8681071 233.247561,82.9982397 C234.928929,83.1283723 239,76 239,76 Z" id="Path" fill="#000000" fill-rule="nonzero" opacity="0.1"></path>
                <path d="M223,178 C223,178 231.756848,179.422558 231.995454,179.930409 C232.23406,180.438259 223,178 223,178 Z" id="Path" fill="#000000" fill-rule="nonzero" opacity="0.1"></path>
                <path d="M226,183 C226,183 230.87345,186.01459 230.997773,186.89221 C231.122096,187.76983 226,183 226,183 Z" id="Path" fill="#000000" fill-rule="nonzero" opacity="0.1"></path>
                <path d="M225,190 C225,190 225.65569,193.447521 226.749543,193.959206 C227.843396,194.470891 225,190 225,190 Z" id="Path" fill="#000000" fill-rule="nonzero" opacity="0.1"></path>
                <path d="M153.88329,46.6359997 C153.88329,46.6706131 153.88329,46.7086877 153.865853,46.7433011 C153.69845,47.8266984 153.252043,49.0000904 152.226703,49.3600691 C151.607213,49.5330262 150.94517,49.4726206 150.367837,49.1904638 C148.62406,48.4324318 147.072099,46.6117704 145.209746,47.0513597 C144.323907,47.2590397 143.703123,47.9270771 143.263691,48.7474131 C142.959024,49.3379082 142.724932,49.961718 142.56618,50.6061491 C142.217425,51.9629918 141.938421,53.4375198 142.472016,54.7285972 C142.559784,54.9397927 142.664758,55.1435328 142.785896,55.3377918 C143.281129,56.1235145 143.978639,56.7915519 144.466897,57.5841972 C145.073731,58.5741385 145.230671,60.0590506 144.285544,60.7374719 C143.805286,61.0507393 143.208645,61.133336 142.660344,60.9624586 C141.967981,60.746553 141.302314,60.4539576 140.675927,60.0902026 C139.441333,59.4498559 137.885884,59.0518025 136.714066,59.7925279 C136.30951,60.0417439 135.985168,60.4017226 135.598049,60.6647839 C134.793401,61.1593724 133.838865,61.3566879 132.902171,61.2220586 C130.684087,60.9970719 129.854049,59.6021546 128.159098,58.5222185 C126.917529,57.7261119 124.32279,57.3869012 123.583429,59.0137279 C123.109121,60.0521279 123.813607,61.3605119 123.349762,62.4196799 C122.885918,63.4788479 121.410683,63.8042133 120.727122,64.7872319 C119.827334,66.0817706 120.664347,67.954352 120.005199,69.3908053 C119.904238,69.6133321 119.768922,69.8188675 119.60413,70 C111.923093,61.7856349 112.166959,49.0120978 120.156019,41.092417 C128.14508,33.1727361 141.015655,32.9457226 149.283208,40.5786663 L150.224847,40.544053 C151.142074,40.5094397 152.115101,40.460981 153.095103,40.4021383 C153.326815,40.8891148 153.50794,41.3982514 153.635674,41.9216637 C154.015096,43.4638314 154.099093,45.0630367 153.88329,46.6359997 Z" id="Path" fill="#000000" fill-rule="nonzero" opacity="0.1"></path>
                <path d="M122.809996,58.9866151 C122.335835,60.0258314 123.034962,61.3352439 122.578107,62.3917804 C122.121251,63.4483169 120.646853,63.7774021 119.975414,64.7611935 C119.079008,66.0602138 119.909654,67.9342671 119.258981,69.3683855 C118.511399,71.0068831 116.254809,71.2632231 114.524295,70.7851837 C111.525032,69.9279342 109.121375,67.6781752 108.066018,64.7404091 C106.892729,61.3975968 107.650694,57.7187713 107.346124,54.1889001 C107.216437,52.6762439 106.890674,51.1869028 106.377036,49.7583748 C105.875187,48.3727532 105.189904,47.0079158 105.027236,45.5356928 C104.789029,42.979938 106.129595,40.5365475 108.412121,39.3662123 C109.838064,38.6734015 111.592805,38.4759504 112.631113,37.2877798 C113.42715,36.3663414 113.59674,35.0811773 113.96707,33.9207192 C114.967307,30.8030704 117.954174,28.2604546 121.235228,28.2916311 C123.858687,28.3124154 126.426769,29.8608477 128.991391,29.2511741 C130.441561,28.9047687 131.760213,27.8655525 133.255377,28.0145068 C133.971498,28.1272257 134.65768,28.3828544 135.273156,28.7662065 C139.25387,30.9181914 143.041597,33.4100089 146.594177,36.213923 C147.329041,36.8473542 148.133747,37.3947543 148.99267,37.8454925 C149.545795,38.0612626 150.085526,38.3099642 150.60897,38.5902642 C151.726881,39.283075 152.311795,40.6028797 152.63021,41.8845797 C153.012435,43.4269707 153.099338,45.0278618 152.886326,46.6026215 C152.734041,47.7145829 152.297951,48.9616424 151.242338,49.3322962 C150.625669,49.5044694 149.967108,49.4415181 149.394149,49.1556294 C147.663635,48.4039296 146.126939,46.5818372 144.27875,47.018308 C142.769742,47.3647134 142.042926,49.0759562 141.648369,50.5758916 C141.302266,51.9338008 141.018462,53.4094879 141.554921,54.7050442 C141.997933,55.778901 142.939332,56.5652413 143.531168,57.5594248 C144.123004,58.5536084 144.292594,60.0396876 143.351195,60.7151782 C142.312886,61.4668779 140.904248,60.6666814 139.76557,60.0708641 C138.547288,59.4300141 136.996748,59.0316478 135.837304,59.7694914 C135.439285,60.0189033 135.11741,60.3791649 134.729775,60.6458971 C133.930669,61.1361023 132.9858,61.3321015 132.057861,61.2001458 C129.853187,60.9749822 129.029462,59.5789684 127.350864,58.4981835 C126.115277,57.6945229 123.547194,57.3550456 122.809996,58.9866151 Z" id="Path" fill="#474463" fill-rule="nonzero"></path>
                <path d="M190,108.169929 C189.904425,108.675056 189.175221,108.732304 189.026549,109.223961 C187.610619,113.97552 184.495575,118.248894 179.688496,120 C178.764602,118.615952 178,117.710092 178,117.710092 C178,117.710092 186.969912,102.067997 187.469027,104.199632 C187.628319,104.863032 188.665487,106.405353 190,108.169929 Z" id="Path" fill="#000000" fill-rule="nonzero" opacity="0.1"></path>
                <path d="M189.999904,103.996377 C190.001297,110.467969 186.103974,116.303102 180.1254,118.780638 C174.146825,121.258175 167.264496,119.890158 162.687895,115.314543 C158.111293,110.738928 156.741794,103.856897 159.218045,97.8777912 C161.694295,91.8986856 167.528591,88.0001082 174.000186,88.000108 C178.247748,87.9844833 182.325901,89.664671 185.329725,92.6678471 C188.333549,95.6710233 190.014615,99.7488124 189.999904,103.996377 Z" id="Path" fill="#FFC1C8" fill-rule="nonzero"></path>
                <path d="M180.886288,242.545553 L181,244.644848 C179.638796,244.952562 177.050167,245.35601 175.541806,244.412353 C173.591973,243.191753 170.712375,242.894296 168.073579,241.232638 C168.120616,240.487758 168.095971,239.739955 168,239 L180.886288,242.545553 Z" id="Path" fill="#000000" fill-rule="nonzero" opacity="0.1"></path>
                <path d="M204,247.236351 C203.906919,247.709744 203.820734,248 203.820734,248 C203.820734,248 193.116474,246.901175 190.031027,245.418798 C190.031027,244.347616 190,243 190,243 L203.472544,244.641327 L204,247.236351 Z" id="Path" fill="#000000" fill-rule="nonzero" opacity="0.1"></path>
                <path d="M202.466552,198.763913 C201.737924,200.717788 201.371883,201.085658 202.103964,202.060861 C202.836045,203.036063 202.466552,208.168891 201.306272,208.654757 C200.145993,209.140623 195.781131,212.073172 195.781131,212.073172 C195.781131,212.073172 198.19838,215.248654 198.270898,216.584785 C198.334399,217.438443 198.662933,218.250532 199.210172,218.906531 C199.210172,218.906531 202.953455,226.968437 203.699349,229.533115 C204.445242,232.097794 205.128979,236.127012 205.128979,236.127012 C205.128979,236.127012 203.820211,239.79183 204.724953,241.870643 C205.629694,243.949455 204.724953,247 204.724953,247 C204.724953,247 191.668355,245.656927 190.221459,243.932103 C188.774563,242.207278 189.738009,238.327291 189.738009,238.327291 C189.439645,236.598225 188.821184,234.940753 187.914713,233.440867 C186.454004,231.119121 188.260034,228.679379 187.914713,228.554442 C187.569391,228.429505 186.454004,227.089903 185.355882,224.893095 C184.25776,222.696286 183.574024,223.546552 183.574024,223.546552 C183.574024,223.546552 184.996748,235.884079 183.574024,236.984218 C182.1513,238.084358 181.95792,237.595021 182.323961,239.066501 C182.607556,240.478887 182.810476,241.906429 182.931726,243.342123 C182.931726,243.342123 178.556506,244.685195 176.370622,243.342123 C174.184738,241.99905 170.893827,241.752647 168.003487,239.677305 C165.113148,237.601962 169.312255,234.058611 170.040883,233.569274 C170.769511,233.079938 169.799158,225.996705 169.799158,225.996705 L168.825352,219.034938 C168.825352,219.034938 172.105904,219.767208 171.028502,217.081063 C169.951099,214.394917 168.70449,205.111405 168.096724,203.646866 C167.488959,202.182327 170.168652,200.224981 169.799158,199.249779 C169.429664,198.274576 171.377276,192.655882 171.377276,192.655882 C171.377276,192.655882 171.501592,188.015861 172.71367,187.144773 C173.1764,186.818549 173.47683,185.805171 173.677116,184.684208 C173.889615,183.361276 174.015353,182.025735 174.053516,180.686225 C174.053516,180.686225 201.882959,178.732349 206.379042,181.418494 C208.402624,182.626219 208.261043,184.850791 207.415006,187.103127 C206.379042,189.851741 204.251863,192.655882 203.716615,193.67273 C202.71173,195.546785 203.195179,196.810037 202.466552,198.763913 Z" id="Path" fill="#575988" fill-rule="nonzero"></path>
                <path d="M206.412221,186.782591 C202.991291,187.713787 198.434612,189.082412 197.692271,189.867797 C196.488103,191.153576 192.393251,182.636948 192.393251,182.636948 C192.393251,182.636948 192.636137,189.039332 187.217384,186.36173 C182.527289,184.042026 174.956772,184.346902 173,184.472828 C173.210512,183.209595 173.335075,181.934322 173.372881,180.655258 C173.372881,180.655258 200.942154,178.789553 205.396204,181.354483 C207.400869,182.507708 207.260611,184.631894 206.412221,186.782591 Z" id="Path" fill="#000000" fill-rule="nonzero" opacity="0.1"></path>
                <path d="M193.112783,114.057019 C193.112783,114.057019 195.541933,111.15594 196.045114,112.244273 C196.548295,113.332607 199.414692,115.505842 199.414692,115.505842 C199.414692,115.505842 200.237132,118.042998 201.684211,118.406921 C203.131291,118.770843 214,133.269372 214,133.269372 L210.089069,141.121168 L206.913824,160.213358 C206.913824,160.213358 207.052632,163.2346 206.188549,164.333234 C205.324466,165.431867 202.024292,165.177808 203.554657,166.506468 C205.085021,167.835128 207.281666,169.043625 208.503181,175.089543 C209.724697,181.13546 211.189127,184.633921 211.189127,184.633921 C211.189127,184.633921 199.70966,187.535 198.488145,188.86366 C197.266629,190.19232 193.112783,181.372353 193.112783,181.372353 C193.112783,181.372353 193.359169,188.001919 187.86235,185.231303 C182.365532,182.460687 172.961252,183.305261 172.961252,183.305261 L172.961252,176.164143 C172.961252,176.164143 174.793525,173.383227 173.818395,171.450319 C172.843265,169.517411 174.484676,165.89192 174.484676,165.89192 C174.484676,165.89192 173.939853,162.146267 172.961252,159.973032 C171.982652,157.799798 172.350495,147.527575 172.350495,147.527575 C172.350495,147.527575 171.607869,140.880842 172.284561,137.495678 C172.858805,134.561561 173.872889,131.728781 175.293236,129.091131 C176.636209,126.502476 177.486411,124.085483 177.122039,123.117312 C176.757666,122.149141 180.345867,120.054871 180.345867,120.054871 L182.3343,123.237475 L182.840951,125.139484 C182.840951,125.139484 193.359169,117.682509 193.112783,114.057019 Z" id="Path" fill="#DCE6F2" fill-rule="nonzero"></path>
                <path d="M209.893932,131 C209.893932,131 216.687814,137.770359 217.415115,138.879509 C218.142415,139.988658 220.579389,145.754835 217.425456,147.504282 C214.271522,149.253729 201.914308,151.951376 200.687204,151.02067 C199.4601,150.089965 192.0699,152.070338 192.0699,152.070338 C192.0699,152.070338 179.709238,155.149365 182.377156,150.100461 C185.045073,145.051557 191.356387,145.901789 191.356387,145.901789 C191.356387,145.901789 201.552381,145.884294 202.641609,144.852121 C203.730836,143.819947 211.948297,141.605147 210.086959,137.04259 C208.225622,132.480032 209.893932,131 209.893932,131 Z" id="Path" fill="#FFC1C8" fill-rule="nonzero"></path>
                <path d="M190,160 C190,160 174.571723,174 176.107494,174 C177.643264,174 190,160 190,160 Z" id="Path" fill="#000000" fill-rule="nonzero" opacity="0.1"></path>
                <path d="M201,166 C201,166 196.189509,167.170533 197.119296,167.877522 C198.049082,168.584511 201,166 201,166 Z" id="Path" fill="#000000" fill-rule="nonzero" opacity="0.1"></path>
                <path d="M183,133 C183,133 188.920226,133.557412 187.876627,135.506646 C186.833029,137.455879 183,133 183,133 Z" id="Path" fill="#000000" fill-rule="nonzero" opacity="0.1"></path>
                <path d="M179.358447,192 C179.358447,192 178.551941,194.459918 179.358447,195.779203 C180.164953,197.098488 179.358447,200.245534 179.358447,200.245534 L179.358447,211.239579 C179.358447,211.239579 179.24743,219.220568 182,222 L179.358447,192 Z" id="Path" fill="#000000" fill-rule="nonzero" opacity="0.1"></path>
                <path d="M171,226 C171,226 172.730727,228.822899 172.980486,229.856526 C173.230245,230.890153 171,226 171,226 Z" id="Path" fill="#000000" fill-rule="nonzero" opacity="0.1"></path>
                <path d="M171,221.210098 C171,221.210098 175.286587,220.482787 175.946061,220.906764 C176.605536,221.330742 171,221.210098 171,221.210098 Z" id="Path" fill="#000000" fill-rule="nonzero" opacity="0.1"></path>
                <path d="M170.27889,236 C170.27889,236 169.164993,236.127172 171.389462,237.453389 C173.613931,238.779607 177.943167,240.458272 177.999693,239.884183 C178.056219,239.310095 170.27889,236 170.27889,236 Z" id="Path" fill="#000000" fill-rule="nonzero" opacity="0.1"></path>
                <path d="M187,224.071509 C187.390848,224.071509 192.269819,223.692854 191.988276,224.678216 C191.706733,225.663578 187,224.071509 187,224.071509 Z" id="Path" fill="#000000" fill-rule="nonzero" opacity="0.1"></path>
                <path d="M194,217 C194,217 195.408918,215.530889 195.927771,216.153995 C196.446625,216.7771 194,217 194,217 Z" id="Path" fill="#000000" fill-rule="nonzero" opacity="0.1"></path>
                <path d="M189.996556,103.95588 C189.998379,105.43712 189.792045,106.911326 189.383556,108.335607 C188.715454,108.939235 187.561774,108.946094 186.738701,108.496803 C185.774431,107.968629 185.144211,107.008313 184.517436,106.096013 C183.89066,105.183712 183.177789,104.271412 182.15153,103.880426 C180.853209,103.393409 179.372366,103.880426 178.242792,104.689835 C177.113219,105.499245 176.210937,106.569311 175.143353,107.433596 C174.075768,108.29788 172.715458,108.997539 171.355148,108.784898 C170.476974,108.65114 169.69867,108.157263 168.944473,107.680534 C167.911327,107.032321 166.802416,106.023989 165.669399,105.588417 C164.536381,105.152845 163.603105,105.931387 162.525189,105.931387 C161.667678,106.24006 160.734402,106.943149 160.906593,107.831441 C160.998827,108.160993 161.147992,108.472028 161.347402,108.750601 C162.055068,110.13904 161.855404,111.815017 160.84116,113 C156.923893,107.359936 157.069493,99.856422 161.202635,94.3712912 C165.335778,88.8861604 172.529273,86.6498964 179.061671,88.8193976 C185.594069,90.9888989 189.999951,97.0774794 190,103.935301 L189.996556,103.95588 Z" id="Path" fill="#000000" fill-rule="nonzero" opacity="0.1"></path>
                <path d="M162.759714,105.807548 C161.890953,106.116942 160.945433,106.821673 161.116394,107.715477 C161.213333,108.044057 161.365467,108.354308 161.566475,108.633346 C162.585264,110.424394 161.72348,112.995801 159.821974,113.827727 C159.523944,113.980696 159.183437,114.033797 158.852031,113.978987 C158.589235,113.898574 158.34991,113.75709 158.15423,113.566461 C157.13155,112.665858 156.426445,111.467824 156.141076,110.145939 C155.841021,108.770855 156.025939,107.313265 155.872422,105.900366 C155.718906,104.487467 155.226957,103.095194 155.055996,101.671982 C154.934971,100.968542 155.010968,100.245899 155.275803,99.5818536 C155.505922,99.1437074 155.802394,98.7426304 156.155032,98.3924057 C157.135441,97.3164022 158.157719,96.2163347 158.649669,94.8515635 C159.427716,92.6789302 158.862498,89.911573 160.565131,88.3199128 C161.353646,87.5911181 162.456171,87.319539 163.433092,86.8588857 C164.352923,86.3777198 165.233614,85.8271909 166.067289,85.2122222 C169.224837,83.0739661 173.06274,81.4307403 176.816907,82.1870367 C178.316839,82.5448574 179.75314,83.1243768 181.07698,83.9058921 C183.535941,85.2414685 185.870937,86.787518 188.054986,88.5261755 C188.999431,89.2144787 189.824253,90.0492331 190.497288,90.9978896 C190.998684,91.810122 191.359485,92.6988636 191.564923,93.6277384 C192.066265,95.6543404 192.135173,97.7614192 191.767285,99.8156179 C191.418385,101.830117 190.626381,103.786174 190.59498,105.831612 C190.59498,106.519154 190.650804,107.2617 190.291437,107.852986 C189.715751,108.794919 188.288749,108.884299 187.311828,108.361767 C186.334908,107.839235 185.69642,106.869801 185.06491,105.95537 C184.433401,105.040938 183.707688,104.126507 182.667965,103.738046 C181.352611,103.246453 179.85234,103.738046 178.707947,104.545908 C177.563554,105.35377 176.652924,106.429774 175.567844,107.296077 C174.482764,108.16238 173.125542,108.863673 171.729941,108.650535 C170.840245,108.516464 170.051731,108.024871 169.287639,107.54703 C168.240938,106.893865 167.117479,105.883178 165.973086,105.450026 C164.828693,105.016874 163.848283,105.807548 162.759714,105.807548 Z" id="Path" fill="#794F6A" fill-rule="nonzero"></path>
                <path d="M199.771821,131 C199.771821,131 181.833781,147.330016 185.492129,155.495024 C189.150476,163.660032 205.257608,149.250994 205.257608,149.250994 L211,136.176062 L199.771821,131 Z" id="Path" fill="#F8BDC5" fill-rule="nonzero"></path>
                <g id="Group" opacity="0.1" transform="translate(155.000000, 96.000000)" fill="#000000" fill-rule="nonzero">
                    <path d="M4.99672897,16.7435294 C4.70259092,16.900554 4.36621075,16.9550905 4.0388785,16.8988235 C3.77727373,16.8170834 3.53963883,16.6703429 3.34728972,16.4717647 C2.33363023,15.5480978 1.63372819,14.3195836 1.34859813,12.9635294 C1.0546729,11.5341176 1.23794393,10.0517647 1.08579439,8.60117647 C0.93364486,7.15058824 0.442616822,5.72470588 0.276635514,4.26 C0.276635514,4.18941176 0.276635514,4.11529412 0.259345794,4.04117647 C0.22187674,4.44532164 0.22767421,4.85243117 0.276635514,5.25529412 C0.442616822,6.71647059 0.93364486,8.12823529 1.08579439,9.59647059 C1.23794393,11.0647059 1.0546729,12.5294118 1.34859813,13.9552941 C1.63282035,15.3127084 2.33281398,16.5426195 3.34728972,17.4670588 C3.54071943,17.6634398 3.77808413,17.8088021 4.0388785,17.8905882 C4.36621075,17.9468552 4.70259092,17.8923187 4.99672897,17.7352941 C6.48364486,17.0611765 7.32392523,15.2858824 7.12682243,13.6623529 C6.98027538,14.9938296 6.17664425,16.1562807 4.99672897,16.7435294 L4.99672897,16.7435294 Z" id="Path"></path>
                    <path d="M36.6403738,2.36117647 C36.2945794,4.42941176 35.5096262,6.43764706 35.4819626,8.53764706 C35.4819626,9.24352941 35.5372897,10.0058824 35.1776636,10.6129412 C34.6105607,11.58 33.1962617,11.6717647 32.2280374,11.1352941 C31.2598131,10.5988235 30.6270093,9.60705882 29.9976636,8.66470588 C29.3683178,7.72235294 28.6559813,6.78705882 27.6220561,6.38823529 C26.3218692,5.88705882 24.8349533,6.38823529 23.7007477,7.22117647 C22.5665421,8.05411765 21.6605607,9.15176471 20.5885981,10.0447059 C19.5166355,10.9376471 18.1507477,11.6541176 16.7848598,11.4388235 C15.9030841,11.2976471 15.1215888,10.7929412 14.3642991,10.3023529 C13.3269159,9.63176471 12.2134579,8.59764706 11.0792523,8.14941176 C9.94504673,7.70117647 9.00448598,8.50235294 7.92214953,8.50235294 C7.0611215,8.82352941 6.12401869,9.54352941 6.29,10.4647059 C6.31115477,10.5642338 6.34244635,10.6612316 6.38336449,10.7541176 C6.72213674,10.1517268 7.27198695,9.70275532 7.92214953,9.49764706 C9.00102804,9.49764706 9.95542056,8.70705882 11.0792523,9.14470588 C12.2030841,9.58235294 13.3372897,10.6270588 14.3642991,11.2976471 C15.1146729,11.7882353 15.8961682,12.2929412 16.7848598,12.4305882 C18.1680374,12.6494118 19.5235514,11.94 20.5885981,11.04 C21.6536449,10.14 22.57,9.02823529 23.7007477,8.21647059 C24.8314953,7.40470588 26.3218692,6.88235294 27.6220561,7.38705882 C28.6594393,7.78588235 29.3717757,8.73529412 29.9976636,9.66352941 C30.6235514,10.5917647 31.2598131,11.5764706 32.2280374,12.1341176 C33.1962617,12.6917647 34.6105607,12.5788235 35.1776636,11.6117647 C35.5234579,11.0047059 35.4715888,10.2458824 35.4819626,9.53647059 C35.5096262,7.43647059 36.2842056,5.42823529 36.6403738,3.36 C36.8228317,2.29773581 36.8969969,1.21903879 36.8616822,0.141176471 C36.8397042,0.885604733 36.7657472,1.62748599 36.6403738,2.36117647 Z" id="Path"></path>
                </g>
                <path d="M178.295883,46.8779625 C178.295883,46.8779625 171.783461,58.7490555 180.695197,64.8067892 C189.606933,70.8645229 190.467258,70.2587495 190.467258,70.2587495 C190.467258,70.2587495 190.343865,71.7112288 190.467258,72.0760696 C190.590652,72.4409104 192.866572,73.2841745 192.866572,73.2841745 C192.866572,73.2841745 195.639493,77.7586369 199.618926,79.706749 C203.598359,81.6548611 204.325008,86.2463478 204.325008,86.2463478 C204.325008,86.2463478 204.325008,87.8227354 206.381562,89.2752147 C208.438117,90.727694 210.021664,94.9681076 210.021664,94.9681076 L210.021664,98.8471223 C210.021664,99.4528957 210.744886,101.256448 209.178477,101.449194 C207.612068,101.64194 208.935118,105.266255 208.935118,105.266255 C208.935118,105.266255 207.248743,107.331391 207.60864,108.295122 C207.968537,109.258852 206.885418,111.20008 206.885418,111.20008 C206.885418,111.20008 205.558941,113.137867 205.678906,113.502708 C205.798872,113.867548 204.232463,115.199561 204.59236,116.046267 C204.952257,116.892973 202.78602,117.984054 203.145917,118.954668 C203.505814,119.925282 201.603501,120.407147 201.603501,120.407147 L196.390135,132.522615 C196.390135,132.522615 207.358426,134.931941 210.189616,141 L224.016517,115.56096 C224.016517,115.56096 231.735452,96.5444951 231.978811,95.3329484 C232.22217,94.1214017 230.289008,89.7605218 230.289008,89.7605218 L220.880272,72.551051 L206.765453,52.5639717 C206.765453,52.5639717 195.546948,28.587737 178.295883,46.8779625 Z" id="Path" fill="#000000" fill-rule="nonzero" opacity="0.1"></path>
                <path d="M192.640971,51.5931914 C192.640971,51.5931914 175.657428,57.5735574 184.602643,63.6400957 C193.547859,69.706634 194.396349,69.0965333 194.396349,69.0965333 C194.396349,69.0965333 194.276117,70.5545706 194.396349,70.9164948 C194.51658,71.278419 196.800977,72.1298025 196.800977,72.1298025 C196.800977,72.1298025 199.583474,76.6107683 203.571721,78.5617119 C207.559968,80.5126555 208.288227,85.1108158 208.288227,85.1108158 C208.288227,85.1108158 208.288227,86.6894945 210.349336,88.1440849 C212.410446,89.5986754 213.976889,93.8452522 213.976889,93.8452522 L213.976889,97.726458 C213.976889,98.3331118 214.701713,100.139286 213.128399,100.335759 C211.555085,100.532232 212.887936,104.158367 212.887936,104.158367 C212.887936,104.158367 211.194391,106.226505 211.558521,107.18819 C211.92265,108.149874 210.833697,110.100817 210.833697,110.100817 C210.833697,110.100817 209.504281,112.04142 209.624513,112.406791 C209.744744,112.772162 208.171431,114.106112 208.53556,114.954048 C208.899689,115.801985 206.721784,116.894651 207.085913,117.866676 C207.450042,118.838701 205.536646,119.321266 205.536646,119.321266 L200.315168,131.450896 C200.315168,131.450896 209.370309,131.919674 212.228381,138 L227.999304,114.481823 C227.999304,114.481823 235.73877,95.4377185 235.979233,94.2244109 C236.219696,93.0111032 234.292558,88.6300974 234.292558,88.6300974 L224.862982,71.3956135 L203.35187,58.9454223 C203.35187,58.9454223 209.930244,33.272935 192.640971,51.5931914 Z" id="Path" fill="#000000" fill-rule="nonzero" opacity="0.1"></path>
                <path d="M179.296046,46.8767657 C179.296046,46.8767657 172.783162,58.7480095 181.695529,64.8058203 C190.607896,70.863631 191.468282,70.2578499 191.468282,70.2578499 C191.468282,70.2578499 191.348308,71.7103477 191.468282,72.0751932 C191.588257,72.4400386 193.867766,73.2833134 193.867766,73.2833134 C193.867766,73.2833134 196.644311,77.7578327 200.624025,79.7059695 C204.60374,81.6541064 205.330441,86.2456516 205.330441,86.2456516 C205.330441,86.2456516 205.330441,87.8220591 207.387141,89.2745569 C209.443841,90.7270547 211.024072,94.9675223 211.024072,94.9675223 L211.024072,98.8465863 C211.024072,99.4523674 211.747345,101.255943 210.177397,101.448691 C208.60745,101.64144 209.937449,105.265801 209.937449,105.265801 C209.937449,105.265801 208.247527,107.330963 208.610877,108.294706 C208.974228,109.258449 207.887605,111.199701 207.887605,111.199701 C207.887605,111.199701 206.561033,113.137513 206.681007,113.502358 C206.800981,113.867203 205.231034,115.199233 205.594384,116.04595 C205.957734,116.892667 203.784488,117.983761 204.147838,118.954388 C204.511189,119.925014 202.601885,120.406885 202.601885,120.406885 L197.391579,132.522507 C197.391579,132.522507 208.340079,134.931863 211.188608,141 L225.016488,115.560637 C225.016488,115.560637 232.739397,96.5439298 232.979345,95.3323677 C233.219294,94.1208055 231.289423,89.7598702 231.289423,89.7598702 L221.880021,72.5501806 L207.76763,52.569731 C207.76763,52.569731 196.544904,28.5863075 179.296046,46.8767657 Z" id="Path" fill="#FABEBA" fill-rule="nonzero"></path>
                <g id="Group" opacity="0.1" transform="translate(105.000000, 44.000000)" fill="#000000" fill-rule="nonzero">
                    <path d="M2.61257143,9.01384615 C2.48575345,7.5009097 2.16300275,6.01129108 1.65257143,4.58307692 C1.15542857,3.19846154 0.476571429,1.83461538 0.315428571,0.363461538 C0.315428571,0.318461538 0.315428571,0.276923077 0.315428571,0.231923077 C0.279443345,0.600260124 0.279443345,0.971278338 0.315428571,1.33961538 C0.476571429,2.81076923 1.15542857,4.16423077 1.65257143,5.55923077 C2.16301486,6.98624883 2.48577029,8.47472546 2.61257143,9.98653846 C2.66057143,10.5542308 2.68114286,11.1288462 2.688,11.7173077 C2.69828571,10.8 2.688,9.90346154 2.61257143,9.01384615 Z" id="Path"></path>
                    <path d="M14.4137143,24.1823077 C13.6765714,25.8161538 11.4377143,26.0757692 9.72342857,25.5946154 C6.75477202,24.7356342 4.37499615,22.4900629 3.32571429,19.5576923 C2.84914735,18.0701112 2.61750047,16.513678 2.64,14.9503846 C2.61942857,16.8576923 2.69142857,18.7407692 3.32571429,20.5303846 C4.3745665,23.4637619 6.75429298,25.7105742 9.72342857,26.5707692 C11.4377143,27.0484615 13.6765714,26.7923077 14.4137143,25.155 C14.7257143,24.4626923 14.6948571,23.6596154 14.6811429,22.8703846 C14.6748085,23.3208134 14.5840678,23.7659594 14.4137143,24.1823077 Z" id="Path"></path>
                    <path d="M47.7257143,1.42615385 C47.5782857,2.53384615 47.1428571,3.78 46.0971429,4.15038462 C45.4877107,4.32228047 44.8368491,4.26063695 44.2697143,3.97730769 C42.5554286,3.22269231 41.0297143,1.40192308 39.1988571,1.84153846 C37.704,2.18769231 36.9874286,3.89423077 36.5931429,5.39653846 C36.307173,6.34579499 36.1831201,7.33722611 36.2262857,8.32846154 C36.2917743,7.66583713 36.4145275,7.01026339 36.5931429,6.36923077 C36.9874286,4.87038462 37.704,3.17423077 39.1988571,2.81423077 C41.0297143,2.37807692 42.5417143,4.19884615 44.2697143,4.95 C44.8360487,5.23577404 45.4874084,5.29869854 46.0971429,5.12653846 C47.1428571,4.75615385 47.5782857,3.51 47.7257143,2.39884615 C47.8199621,1.69115931 47.8543721,0.976656932 47.8285714,0.263076923 C47.8114286,0.650769231 47.7771429,1.04192308 47.7257143,1.42615385 Z" id="Path"></path>
                    <path d="M38.28,15.5284615 C37.2514286,16.2796154 35.856,15.48 34.728,14.8811538 C33.5211429,14.2407692 31.9851429,13.8426923 30.8365714,14.58 C30.4422857,14.8292308 30.1234286,15.1892308 29.7394286,15.4557692 C28.9492331,15.9492181 28.011925,16.1453467 27.0925714,16.0096154 C24.9085714,15.7846154 24.0925714,14.3896154 22.4297143,13.3096154 C21.2091429,12.5169231 18.6582857,12.1776923 17.9314286,13.8046154 C17.7570776,14.2835738 17.7086461,14.7999761 17.7908571,15.3034615 C17.8133887,15.1234742 17.8607027,14.9475449 17.9314286,14.7807692 C18.6617143,13.1503846 21.2091429,13.4896154 22.4297143,14.2857692 C24.0925714,15.3657692 24.9085714,16.7607692 27.0925714,16.9857692 C28.0122757,17.1186724 28.9490082,16.9214392 29.7394286,16.4284615 C30.1234286,16.1653846 30.4422857,15.8053846 30.8365714,15.5561538 C31.9954286,14.8292308 33.5211429,15.21 34.728,15.8573077 C35.856,16.4526923 37.2445714,17.2419231 38.28,16.5011538 C38.8834286,16.065 39.0274286,15.2896154 38.8937143,14.5246154 C38.8233234,14.9259644 38.6038024,15.2850326 38.28,15.5284615 Z" id="Path"></path>
                    <path d="M17.7017143,17.2107692 C17.232,18.2976923 15.7885714,18.5953846 15.1234286,19.575 C14.6262857,20.3019231 14.6674286,21.2088462 14.6845714,22.1192308 C14.6782947,21.5647843 14.8306807,21.0202953 15.1234286,20.5511538 C15.7885714,19.5715385 17.232,19.2703846 17.7017143,18.1834615 C17.8659999,17.7105259 17.9107816,17.2036724 17.832,16.7088462 C17.8108842,16.8812612 17.7670688,17.0500593 17.7017143,17.2107692 Z" id="Path"></path>
                </g>
            </g>
        </g>
    </g>
</svg>