<?xml version="1.0" encoding="UTF-8"?>
<svg width="196px" height="177px" viewBox="0 0 196 177" version="1.1" xmlns="http://www.w3.org/2000/svg" xmlns:xlink="http://www.w3.org/1999/xlink">
    <!-- Generator: Sketch 54.1 (76490) - https://sketchapp.com -->
    <title>undraw_super_woman_dv0y</title>
    <desc>Created with Sketch.</desc>
    <g id="Website" stroke="none" stroke-width="1" fill="none" fill-rule="evenodd">
        <g id="about" transform="translate(-577.000000, -1344.000000)">
            <g id="Group-5" transform="translate(263.000000, 1345.000000)">
                <g id="undraw_super_woman_dv0y" transform="translate(314.000000, 0.000000)">
                    <ellipse id="Oval" fill="#F2F2F2" fill-rule="nonzero" cx="101.5625" cy="165.401786" rx="64.4196429" ry="9.86607143"></ellipse>
                    <path d="M142.343353,130.881085 C144.196157,131.554731 146.272308,130.984464 147.521178,129.458865 C148.770048,127.933267 148.919189,125.785155 147.893129,124.101573 C146.867069,122.417991 144.889648,121.566222 142.961533,121.9773 L143.077722,124.366842 L141.947319,122.318981 C140.837892,122.840331 139.980812,123.78087 139.564425,124.933913 C139.416549,125.337809 139.326653,125.760627 139.297416,126.189753 C139.150799,128.258474 140.394134,130.17345 142.343353,130.881085 L142.343353,130.881085 Z" id="Path" fill="#48439F" fill-rule="nonzero"></path>
                    <path d="M148.260071,159.017857 C147.872509,156.932007 149.551906,155.082838 151.210767,153.880884 C152.869628,152.67893 154.807916,151.49796 155.373918,149.45818 C156.187365,146.526659 153.764353,143.841939 151.878446,141.526748 C150.479283,139.808614 149.277731,137.921263 148.298933,135.90419 C147.906598,135.095403 147.546016,134.249922 147.442761,133.347609 C147.294066,132.048179 147.689057,130.755124 148.087001,129.515637 C149.41267,125.386543 150.830042,121.292045 152.339117,117.232143" id="Path" stroke="#3F3D56"></path>
                    <path d="M142.343353,129.720371 C144.196157,130.394017 146.272308,129.82375 147.521178,128.298151 C148.770048,126.772552 148.919189,124.624441 147.893129,122.940859 C146.867069,121.257277 144.889648,120.405508 142.961533,120.816586 L143.077722,123.206128 L141.947317,121.158269 C140.83789,121.679618 139.98081,122.620157 139.564422,123.773199 C139.416549,124.177095 139.326653,124.599913 139.297416,125.029039 C139.150799,127.097759 140.394134,129.012735 142.343353,129.720371 Z" id="Path" stroke="#3F3D56"></path>
                    <path d="M147.689437,116.808857 C148.228408,115.321556 149.48816,114.211553 151.031337,113.864212 L151.413632,116.136409 L152.122395,113.75 C154.141614,113.779949 155.909869,115.11193 156.496144,117.044632 C157.08242,118.977334 156.352223,121.067393 154.690016,122.214358 C153.027808,123.361323 150.814902,123.302078 149.216429,122.067818 C147.617956,120.833558 147.000609,118.707422 147.68943,116.808857 L147.689437,116.808857 Z" id="Path" fill="#48439F" fill-rule="nonzero"></path>
                    <path d="M147.689437,115.648143 C148.228406,114.16084 149.488158,113.050836 151.031337,112.703498 L151.41363,114.975695 L152.122393,112.589286 C154.141612,112.619234 155.909867,113.951214 156.496144,115.883916 C157.08242,117.816618 156.352224,119.906677 154.690017,121.053643 C153.027809,122.200608 150.814902,122.141364 149.216429,120.907104 C147.617956,119.672844 147.000609,117.546708 147.68943,115.648143 L147.689437,115.648143 Z" id="Path" stroke="#3F3D56"></path>
                    <path d="M150.472064,141.328145 C152.690203,142.13285 155.159012,141.144987 156.210023,139.032174 C157.261035,136.91936 156.559693,134.35414 154.579979,133.070138 L154.035525,134.903466 L153.649454,132.605171 C153.645637,132.603372 153.641684,132.601874 153.637634,132.60069 C152.078528,132.03399 150.335541,132.342571 149.065695,133.410112 C147.795848,134.477654 147.192223,136.141837 147.482356,137.775343 C147.77249,139.408849 148.912268,140.763305 150.472048,141.328145 L150.472064,141.328145 Z" id="Path" fill="#48439F" fill-rule="nonzero"></path>
                    <path d="M151.633132,141.328151 C153.851145,142.132839 156.319814,141.144997 157.370765,139.032228 C158.421717,136.91946 157.720415,134.354294 155.740813,133.070319 L155.196391,134.903608 L154.810355,132.605362 C154.806538,132.603563 154.802586,132.602064 154.798535,132.600881 C153.23946,132.033952 151.496385,132.342411 150.226461,133.409966 C148.956538,134.477521 148.352891,136.141823 148.643101,137.775418 C148.93331,139.409013 150.073241,140.763471 151.633132,141.328151 Z" id="Path" stroke="#3F3D56"></path>
                    <path d="M146.321344,149.375175 C146.701254,151.537271 148.543352,153.137739 150.737001,153.211626 C152.930651,153.285514 154.876235,151.812625 155.400724,149.680991 C155.925213,147.549358 154.885242,145.341647 152.907829,144.388929 C150.930416,143.43621 148.556072,143.998903 147.216334,145.73775 L149.285597,148.852729 L146.458209,147.199396 C146.238982,147.90322 146.192043,148.649422 146.321344,149.375175 Z" id="Path" fill="#48439F" fill-rule="nonzero"></path>
                    <path d="M146.321345,149.375181 C146.701257,151.537275 148.543356,153.137741 150.737005,153.211626 C152.930654,153.285512 154.876237,151.812622 155.400725,149.680989 C155.925213,147.549357 154.885241,145.341646 152.907828,144.388928 C150.930416,143.436211 148.556072,143.998903 147.216334,145.737748 L149.285595,148.852728 L146.458207,147.199395 C146.238981,147.903221 146.192043,148.649425 146.321345,149.375181 L146.321345,149.375181 Z" id="Path" stroke="#3F3D56"></path>
                    <path d="M133.482143,25.5357143 C133.851169,18.6179385 139.67604,13.1944769 146.736933,13.1943421 C147.140332,13.1943421 147.538675,13.2149837 147.932909,13.2495585 C151.088299,7.92382782 156.892071,4.64577158 163.171002,4.64285909 C169.449933,4.63994659 175.256863,7.91261718 178.417384,13.2354182 C178.749976,13.2109115 179.084807,13.194351 179.423782,13.194351 C186.484675,13.1944858 192.309545,18.6179474 192.678571,25.5357143" id="Path" fill="#F2F2F2" fill-rule="nonzero"></path>
                    <path d="M135.803571,24.375 C136.172599,17.4572243 141.997469,12.0337634 149.058361,12.0336287 C149.461761,12.0336287 149.860104,12.0542681 150.254337,12.0888451 C153.409727,6.76311389 159.2135,3.48505729 165.492431,3.4821448 C171.771361,3.4792323 177.578291,6.75190325 180.738813,12.0747048 C181.071404,12.0501981 181.406233,12.0336376 181.74521,12.0336376 C188.806102,12.0337723 194.630973,17.4572332 195,24.375" id="Path" stroke="#3F3D56"></path>
                    <path d="M37.1428571,88.2142857 C37.5118834,81.2965099 43.3367529,75.8730483 50.3976445,75.8729135 C50.8010438,75.8729135 51.1993869,75.8935551 51.5936314,75.9281299 C54.7490209,70.6023993 60.5527926,67.324343 66.8317221,67.3214305 C73.1106515,67.318518 78.9175802,70.5911886 82.0781015,75.9139896 C82.4106925,75.8894829 82.7455235,75.8729224 83.0844984,75.8729224 C90.14539,75.8730572 95.9702595,81.2965188 96.3392857,88.2142857" id="Path" fill="#F2F2F2" fill-rule="nonzero"></path>
                    <path d="M39.4642857,88.2142857 C39.8333132,81.29651 45.6581835,75.8730491 52.7190756,75.8729144 C53.122475,75.8729144 53.5208182,75.8935538 53.9150514,75.9281308 C57.0704415,70.6023996 62.8742143,67.324343 69.153145,67.3214305 C75.4320756,67.318518 81.2390054,70.591189 84.3995273,75.9139905 C84.7321184,75.8894838 85.0669472,75.8729233 85.4059244,75.8729233 C92.4668165,75.873058 98.2916868,81.296519 98.6607143,88.2142857" id="Path" stroke="#3F3D56"></path>
                    <path d="M8.125,22.0535714 C8.49402626,15.1357956 14.3188957,9.712334 21.3797873,9.71219923 C21.7831867,9.71219923 22.1815297,9.7328408 22.5757742,9.7674156 C25.7311638,4.44168497 31.5349355,1.16362872 37.8138649,1.16071623 C44.0927944,1.15780373 49.899723,4.43047433 53.0602444,9.75327531 C53.3928354,9.7287686 53.7276663,9.71220814 54.0666413,9.71220814 C61.1275328,9.7123429 66.9524023,15.1358045 67.3214286,22.0535714" id="Path" fill="#F2F2F2" fill-rule="nonzero"></path>
                    <path d="M11.6071429,20.8928571 C11.9761704,13.9750815 17.8010406,8.55162056 24.8619327,8.55148586 C25.2653321,8.55148586 25.6636753,8.5721252 26.0579085,8.60670223 C29.2132987,3.28097103 35.0170715,0.00291443779 41.2960021,1.94234864e-06 C47.5749328,-0.0029105531 53.3818626,3.26976039 56.5423845,8.59256194 C56.8749756,8.56805522 57.2098043,8.55149477 57.5487816,8.55149477 C64.6096737,8.55162947 70.4345439,13.9750904 70.8035714,20.8928571" id="Path" stroke="#3F3D56"></path>
                    <path d="M67.3214286,48.8407302 C67.3214286,48.8407302 91.0146445,60.6846613 95.2630892,59.0396702 C99.5115339,57.3946791 100.982143,42.7542657 100.982143,42.7542657 L83.4981791,39.4642857 L67.3214286,48.8407302 Z" id="Path" fill="#FABEBA" fill-rule="nonzero"></path>
                    <path d="M67.3214286,48.8407302 C67.3214286,48.8407302 91.0146445,60.6846613 95.2630892,59.0396702 C99.5115339,57.3946791 100.982143,42.7542657 100.982143,42.7542657 L83.4981791,39.4642857 L67.3214286,48.8407302 Z" id="Path" fill="#F98B55" fill-rule="nonzero" opacity="0.1"></path>
                    <rect id="Rectangle" fill="#FF6584" fill-rule="nonzero" x="100.982143" y="31.3392857" width="15.0892857" height="13.9285714"></rect>
                    <rect id="Rectangle" fill="#000000" fill-rule="nonzero" opacity="0.1" x="100.982143" y="31.3392857" width="15.0892857" height="13.9285714"></rect>
                    <path d="M85.9273039,89.375 C85.9273039,89.375 85.2679738,103.625606 89.7184425,103.298009 C94.1689112,102.970411 89.7184425,89.866401 89.7184425,89.866401 L85.9273039,89.375 Z" id="Path" fill="#FBBEBE" fill-rule="nonzero"></path>
                    <path d="M104.674204,33.6607143 C104.674204,33.6607143 105.637352,39.7867072 103.871582,40.5927591 C102.105812,41.398811 100.982143,42.0436517 100.982143,42.0436517 L104.995244,44.7842255 L112.379367,45.2678571 L114.305661,43.8169646 L116.071429,42.2048607 C116.071429,42.2048607 113.18199,41.5600201 113.18199,40.1091275 C113.18199,38.6582349 113.021457,34.3055572 113.021457,34.3055572 L104.674204,33.6607143 Z" id="Path" fill="#FBBEBE" fill-rule="nonzero"></path>
                    <path d="M104.674204,33.6607143 C104.674204,33.6607143 105.637352,39.7867072 103.871582,40.5927591 C102.105812,41.398811 100.982143,42.0436517 100.982143,42.0436517 L104.995244,44.7842255 L112.379367,45.2678571 L114.305661,43.8169646 L116.071429,42.2048607 C116.071429,42.2048607 113.18199,41.5600201 113.18199,40.1091275 C113.18199,38.6582349 113.021457,34.3055572 113.021457,34.3055572 L104.674204,33.6607143 Z" id="Path" fill="#000000" fill-rule="nonzero" opacity="0.1"></path>
                    <path d="M94.5945376,91.6964286 C94.5945376,91.6964286 89.7594536,107.040434 89.7594536,118.259708 C89.7594536,118.259708 81.7565549,136.078555 82.0900087,144.822988 L80.0892857,156.867208 L82.9236444,157.857143 L85.0910954,156.042261 C85.0910954,156.042261 85.7580054,149.607678 87.9254564,146.472882 C90.0929075,143.338087 95.0947195,128.489048 95.0947195,128.489048 C95.0947195,128.489048 108.432886,100.770843 107.932705,96.8110985 C107.432523,92.8513539 94.5945376,91.6964286 94.5945376,91.6964286 Z" id="Path" fill="#FBBEBE" fill-rule="nonzero"></path>
                    <path d="M123.150722,89.375 C123.150722,89.375 126.210355,90.8444463 121.862454,116.967939 C121.862454,116.967939 124.277956,134.274754 122.184521,143.744521 L121.862454,153.214286 L118.480752,153.214286 L117.836619,152.234653 C117.836619,152.234653 117.675578,143.744519 116.548353,141.458713 C115.421128,139.172907 114.454917,125.947888 114.454917,125.947888 C114.454917,125.947888 109.301848,99.0080353 110.429082,96.7222294 C111.556316,94.4364235 123.150722,89.375 123.150722,89.375 Z" id="Path" fill="#FBBEBE" fill-rule="nonzero"></path>
                    <path d="M80.1575641,154.375 C80.1575641,154.375 81.2727602,157.028061 83.3438378,156.364796 C85.4149153,155.701532 85.8928571,155.701532 85.8928571,155.701532 C85.8928571,155.701532 84.4590339,163.329082 84.9369757,166.97704 C85.4149175,170.624998 84.6183485,172.946429 81.4320727,172.946429 C78.2457968,172.946429 77.7678571,168.966836 77.7678571,168.966836 L79.2016804,159.515316 L80.1575641,154.375 Z" id="Path" fill="#2F2E41" fill-rule="nonzero"></path>
                    <path d="M117.232143,149.732143 C117.232143,149.732143 118.410284,152.071441 120.261649,151.570163 C122.113013,151.068885 122.786237,150.233425 122.786237,150.233425 C122.786237,150.233425 122.617923,155.413287 123.291155,157.75258 C123.964387,160.091873 125.479133,166.775568 121.944709,167.109752 C119.951421,167.35015 118.03551,166.263236 117.232152,164.436275 L117.232143,149.732143 L117.232143,149.732143 Z" id="Path" fill="#2F2E41" fill-rule="nonzero"></path>
                    <circle id="Oval" fill="#FBBEBE" fill-rule="nonzero" cx="109.107143" cy="31.3392857" r="6.96428571"></circle>
                    <path d="M122.562767,44.16218 C122.562767,44.16218 116.848316,41.9219445 114.786803,42.223587 C112.990732,43.7472911 110.637592,44.450361 108.298427,44.16218 C104.363438,43.6710937 102.82471,41.7857143 102.82471,41.7857143 C102.82471,41.7857143 92.2305514,44.16218 92.8863825,45.1443503 C93.5422136,46.1265207 96.4934559,62.1686521 96.4934559,62.1686521 C96.4934559,62.1686521 98.4609515,76.0827443 96.1655403,80.8299066 C93.8701292,85.5770689 92.7224236,93.4344362 93.7061725,94.0892164 C94.6899215,94.7439966 105.675101,97.6905122 106.986765,98.5089886 C108.29843,99.327465 108.790302,96.5446456 109.610092,97.0357319 C110.429882,97.5268182 112.233419,98.3452924 113.381124,97.6905122 C114.52883,97.0357319 125.677968,91.1427031 125.350052,89.9968366 C125.022137,88.8509701 120.759239,74.9368778 119.283609,72.1540607 C117.807979,69.3712436 118.955693,63.4782148 119.775483,62.3323483 C120.595273,61.1864817 122.234851,59.876919 122.562767,56.6030156 C122.890682,53.3291122 122.562767,44.16218 122.562767,44.16218 Z" id="Path" fill="#2F2E41" fill-rule="nonzero"></path>
                    <path d="M93.5645318,44.1071429 C93.5645318,44.1071429 92.2624542,45.1103851 91.7863129,47.2517611 C91.3101716,49.393137 90.6753179,66.5241356 90.6753179,66.5241356 C90.6753179,66.5241356 84.8029163,90.0792529 86.0726258,90.5734215 C87.3423352,91.06759 90.9927447,92.0559113 91.4688861,91.5617473 C91.9450274,91.0675832 97.3412877,71.1363294 96.8651464,68.9949557 C96.389005,66.8535821 97.5,60.5941786 97.5,60.5941786 L93.5645318,44.1071429 Z" id="Path" fill="#2F2E41" fill-rule="nonzero"></path>
                    <path d="M123.462696,74.4133757 C123.462696,74.4133757 114.779575,70.0594379 113.814784,72.9620631 C112.849994,75.8646883 122.980291,78.9285714 122.980291,78.9285714 C122.980291,78.9285714 126.517857,77.6385146 126.517857,76.8322293 C126.517857,76.025944 123.462696,74.4133757 123.462696,74.4133757 Z" id="Path" fill="#FBBEBE" fill-rule="nonzero"></path>
                    <path d="M120.86186,44.8517018 L122.731919,44.1874999 C122.731919,44.1874999 123.751953,43.5232981 124.941991,46.0140562 C126.132029,48.5048144 139.052442,63.1172693 136.672366,67.766687 C134.29229,72.4161047 126.47204,81.8809894 126.132029,81.2167875 C125.792019,80.5525857 121.881894,75.571067 122.561915,75.0729145 C123.241936,74.5747619 131.062186,67.766687 130.042154,66.7703842 C129.022123,65.7740814 124.771985,57.3055087 122.391909,56.9733917 C120.011832,56.6412747 120.86186,44.8517018 120.86186,44.8517018 Z" id="Path" fill="#2F2E41" fill-rule="nonzero"></path>
                    <path d="M100.883245,29.9387792 C100.883245,29.9387792 75.8892605,19.7941104 54.2534447,10.0321689 C54.2534447,10.0321689 42.9438142,7.21940495 37.0431382,12.5140175 C37.0431382,12.5140175 41.9603758,11.8521915 41.9603758,14.6649555 C41.9603758,14.6649555 46.2219741,20.290481 32.9454531,21.28322 C23.6993034,21.9745946 20.0179657,27.5611299 18.6349511,30.8892415 C17.555212,33.5608015 15.6571818,35.8136462 13.2183457,37.3184178 C10.022641,39.2464055 5.39106173,40.6648424 0,38.1597899 C0,38.1597899 0.306485725,38.6354147 0.887845232,39.4279212 C11.2966575,53.6172793 50.0581858,65.9663163 63.7459967,54.974298 C72.2051103,48.1811934 85.6152439,39.5952297 95.2284309,43.9198575 C110.307938,50.7035797 113.094368,47.7253604 113.094368,47.7253604 L113.75,45.9053378 C113.75,45.9053378 99.1622028,41.9343772 98.8343991,36.8052223 C98.5065953,31.6760674 100.883245,29.9387792 100.883245,29.9387792 Z" id="Path" fill="#EF8D76" fill-rule="nonzero"></path>
                    <path d="M116.275059,32.5 C116.275059,32.5 119.726056,33.8692869 120.368101,38.3798782 C120.368101,38.3798782 124.059862,45.6290411 119.886566,47.4010584 C115.713269,49.1730758 114.910714,48.6897998 114.910714,48.6897998 L114.910714,47.8843367 C114.910714,47.8843367 119.405024,45.1457628 118.441964,43.051554 C117.478903,40.9573452 116.275059,32.5 116.275059,32.5 Z" id="Path" fill="#F98B55" fill-rule="nonzero"></path>
                    <path d="M109.107143,53.3928571 C109.107143,53.3928571 110.136963,50.1687293 109.842729,50.1687293 C109.548495,50.1687293 111.039682,48.1857347 111.618141,48.9085543 C112.196601,49.6313739 113.226423,51.7807932 112.049485,52.3181388 C110.872547,52.8554844 109.107143,53.3928571 109.107143,53.3928571 Z" id="Path" fill="#F98B55" fill-rule="nonzero"></path>
                    <path d="M117.232143,51.0714286 C117.232143,51.0714286 114.033065,50.1348871 114.04786,50.435132 C114.062655,50.7353769 112.051935,49.284028 112.728442,48.6681136 C113.404949,48.0521992 115.451362,46.9251149 116.035092,48.1070534 C116.618822,49.2889919 117.232143,51.0714286 117.232143,51.0714286 Z" id="Path" fill="#F98B55" fill-rule="nonzero"></path>
                    <path d="M112.592611,46.708729 C112.592611,46.708729 113.921092,45.8144523 114.711899,47.2213832 C115.502706,48.628314 113.75665,51.0714286 112.592611,51.0714286 C111.428571,51.0714286 111.428571,48.1047917 111.428571,48.1047917 L112.592611,46.708729 Z" id="Path" fill="#F98B55" fill-rule="nonzero"></path>
                    <path d="M112.592611,46.708729 C112.592611,46.708729 113.921092,45.8144523 114.711899,47.2213832 C115.502706,48.628314 113.75665,51.0714286 112.592611,51.0714286 C111.428571,51.0714286 111.428571,48.1047917 111.428571,48.1047917 L112.592611,46.708729 Z" id="Path" fill="#000000" fill-rule="nonzero" opacity="0.1"></path>
                    <path d="M102.581668,18.4595817 C101.703971,19.1879481 100.871632,20.0041971 100.325844,21.0088444 C100.039627,21.5723079 99.8003577,22.1587141 99.6105007,22.7620245 C98.9373383,24.7123661 97.2639743,26.6876731 97.972202,28.6253888 C98.1742933,29.1783089 98.4893946,29.7612914 98.308231,30.3215138 C98.1473382,30.8190432 97.6507402,31.109381 97.2915586,31.4875621 C96.5206353,32.2992642 96.3910398,33.517171 96.3439469,34.6392063 C96.2577015,36.6940164 97.3800245,39.1154912 98.7361334,40.6536688 C99.0305684,40.94303 99.3033494,41.25391 99.552246,41.5837667 C99.8918727,42.115971 99.9851544,42.7704323 99.8078825,43.3773029 L101.783402,42.9622285 C101.854678,43.6964588 101.876949,44.4346755 101.850065,45.171907 C102.815638,45.2787309 103.723034,44.6883702 104.022909,43.7582325 C104.13472,44.2839621 104.317313,44.7918612 104.565626,45.2678571 C105.145115,44.5382088 105.589551,43.7096039 105.877719,42.8215973 C106.255768,41.6841788 106.336909,40.4679992 106.113349,39.2899019 C105.904131,38.4294673 105.619491,37.5894175 105.262775,36.7796337 C104.564728,35.0036842 103.994698,33.17994 103.42531,31.3580613 C103.129586,30.411826 102.830292,29.4348255 102.919915,28.4469744 L103.621865,28.3701135 C103.629645,27.9799189 103.704609,27.5940412 103.843424,27.2296454 C104.254836,27.3172713 104.650657,27.467242 105.017368,27.6744355 L105.826578,25.6073392 C106.360652,26.164938 107.127114,26.4173261 107.861016,26.6499593 L110.650553,27.5341857 L110.667534,26.9784177 C111.844983,28.027737 113.186102,28.8746153 114.637023,29.4850359 C114.471343,29.2835325 114.399911,29.019949 114.440984,28.7616603 C115.128411,30.0014049 114.853507,31.5458631 114.42926,32.8999213 C114.005013,34.2539794 113.44216,35.632499 113.613009,37.0418577 C113.740789,38.095934 114.277157,39.1040117 114.17772,40.1611787 C114.128751,40.6817733 113.926496,41.177169 113.863599,41.6962449 C113.713595,42.9342303 114.360165,44.1131265 114.984298,45.1904507 L116.197928,43.5125619 C116.642099,42.8984813 117.099928,42.2710143 117.72884,41.8512751 C118.374432,41.4203916 119.174645,41.2269726 119.737245,40.6909966 C120.741569,39.7341996 120.614056,38.1041564 120.287451,36.7515292 C120.11383,36.0324901 119.903739,35.3032499 119.967568,34.5660671 C120.075775,33.3163733 120.938374,32.2823825 121.424198,31.1272196 C122.12598,29.420307 122.003274,27.4824802 121.091878,25.8790917 C120.48905,24.8381476 119.578157,23.9998042 119.010072,22.9392438 C118.444565,21.8834985 118.228848,20.6273137 117.453989,19.7161524 C117.075618,19.3015226 116.635571,18.9485713 116.149583,18.6699194 C113.947337,17.3378949 111.473906,16.5255366 108.915068,16.2938607 C106.488415,16.0384583 104.441225,16.9164064 102.581668,18.4595817 Z" id="Path" fill="#444C65" fill-rule="nonzero"></path>
                </g>
            </g>
        </g>
    </g>
</svg>