<?xml version="1.0" encoding="UTF-8"?>
<svg width="195px" height="145px" viewBox="0 0 195 145" version="1.1" xmlns="http://www.w3.org/2000/svg" xmlns:xlink="http://www.w3.org/1999/xlink">
    <!-- Generator: Sketch 54.1 (76490) - https://sketchapp.com -->
    <title>undraw_in_progress_ql66</title>
    <desc>Created with Sketch.</desc>
    <defs>
        <linearGradient x1="49.9914162%" y1="100.005755%" x2="49.9914162%" y2="-0.0122493752%" id="linearGradient-1">
            <stop stop-color="#808080" stop-opacity="0.25" offset="0%"></stop>
            <stop stop-color="#808080" stop-opacity="0.12" offset="54%"></stop>
            <stop stop-color="#808080" stop-opacity="0.1" offset="100%"></stop>
        </linearGradient>
    </defs>
    <g id="Website" stroke="none" stroke-width="1" fill="none" fill-rule="evenodd">
        <g id="about" transform="translate(-849.000000, -1626.000000)">
            <g id="Group-7" transform="translate(525.000000, 1626.000000)">
                <g id="undraw_in_progress_ql66" transform="translate(324.000000, 0.000000)">
                    <path d="M113.325668,20.2908012 C100.842582,19.9686944 88.9535608,16.9752226 77.6007418,13.7001484 C66.2479228,10.4250742 55.0031157,6.78931751 42.8189911,5.05341246 C34.9823442,3.93664688 26.0192878,3.77848665 19.7063798,6.90118694 C13.6287834,9.90237389 11.6652819,15.0830861 10.6102374,19.9050445 C9.81557864,23.5253709 9.34881306,27.3347181 11.5244807,30.7235905 C13.0366469,33.0767062 15.7176558,35.0537092 17.5731454,37.308457 C24.0287834,45.1508902 19.4652819,54.8198813 12.4715134,62.4771513 C9.1925816,66.068546 5.38323442,69.4940653 2.85074184,73.3188427 C0.318249258,77.1436202 -0.852522255,81.5219585 1.36364985,85.4238872 C3.55860534,89.281454 8.79139466,92.1919881 14.460089,94.2345697 C25.972997,98.3833828 39.534273,99.5695846 52.7676558,100.24273 C82.0523739,101.731751 111.491395,101.085608 140.853264,100.435608 C151.72003,100.196439 162.633086,99.9553412 173.322404,98.6997033 C179.259199,98.00727 185.386944,96.9059347 189.697774,94.25 C195.167804,90.8784866 196.523739,85.1692878 192.857122,80.9413947 C186.70816,73.8492582 169.711721,72.0863501 165.408605,64.4753709 C163.043917,60.2860534 165.472255,55.6203264 168.911276,51.7338279 C176.286944,43.3995549 188.648516,36.0875371 189.298516,26.5593472 C189.745994,20.0169139 183.803412,13.462908 174.614688,10.3672107 C164.984273,7.12299703 151.627448,7.52997033 144.525668,12.901632 C137.205935,18.4391691 124.348665,20.568546 113.325668,20.2908012 Z" id="Path" fill="#FABEBA" fill-rule="nonzero" opacity="0.1"></path>
                    <g id="Group" opacity="0.8" transform="translate(140.029674, 0.000000)">
                        <path d="M41.2316024,34.4827893 C41.2316024,34.4827893 39.0559347,33.5994065 32.1354599,36.774184 C25.2149852,39.9489614 24.3508902,39.5458457 22.5590504,39.0597923 C20.7672107,38.5737389 19.7681009,38.4599407 17.8470326,35.8097923 C17.8470326,35.8097923 16.4968843,28.4669139 15.181454,27.3231454 C13.8660237,26.1793769 8.2995549,27.9731454 8.2995549,27.9731454 C8.2995549,27.9731454 1.62210682,29.508457 0.341394659,20.5801187 C0.341394659,20.5801187 1.24406528,13.8525223 0.0135014837,11.7867953 C0.0135014837,11.7867953 2.49777448,12.85727 6.59451039,11.1290801 C10.6912463,9.40089021 13.970178,12.9922849 13.970178,12.9922849 C13.970178,12.9922849 15.0040059,15.6675074 14.8959941,17.2606825 C14.7879822,18.8538576 15.4418398,19.455638 17.4034125,18.6841246 C17.4034125,18.6841246 18.3678042,17.318546 17.0041543,15.0618694 C15.6405045,12.8051929 14.674184,11.1232938 15.0541543,9.37002967 C15.4341246,7.61676558 16.5238872,5.1884273 20.0284866,3.9694362 C23.5330861,2.7504451 28.2952522,2.52284866 30.5808605,1.58160237 C32.8664688,0.640356083 33.4181009,0.00964391691 33.4181009,0.00964391691 C33.4181009,0.00964391691 32.0120178,1.41958457 35.3256677,7.39109792 C38.6393175,13.3626113 36.5272997,15.9568249 36.5272997,15.9568249 C36.5272997,15.9568249 34.7643917,20.1577151 26.9836795,19.8143917 C26.9836795,19.8143917 19.4864985,20.0882789 23.5735905,23.2669139 C23.5735905,23.2669139 26.1909496,22.7345697 30.1063798,21.4905045 C34.0218101,20.2464392 36.8436202,25.3808605 37.5456973,28.9529674 C38.2477745,32.5250742 41.2316024,34.4827893 41.2316024,34.4827893 Z" id="Path" fill="#EF8D76" fill-rule="nonzero"></path>
                        <path d="M31.155638,4.53071217 L31.1961424,4.51913947 C31.4970326,5.65905045 28.1467359,10.2379822 25.2824926,13.8795252 L25.2497033,13.854451 C29.2885757,8.71810089 31.3948071,5.40637982 31.155638,4.53071217 Z" id="Path" fill="#444053" fill-rule="nonzero"></path>
                        <path d="M25.3075668,13.7792285 L25.3249258,13.8255193 C23.0373887,16.7341246 20.1596439,20.2059347 17.8566766,22.777003 C17.6367953,23.0219585 17.4188427,23.2784866 17.2105341,23.5485163 L17.1430267,23.4964392 C17.3551929,23.2321958 17.5731454,22.9737389 17.7930267,22.7249258 C20.0959941,20.15 23.0219585,16.685905 25.3075668,13.7792285 Z" id="Path" fill="#444053" fill-rule="nonzero"></path>
                        <path d="M17.1989614,23.4192878 L17.2452522,23.4964392 C13.0540059,28.7292285 12.7762611,36.8532641 12.7666172,36.9246291 L11.8832344,35.9139466 C11.8928783,35.8329377 12.9787834,28.6867953 17.1989614,23.4192878 Z" id="Path" fill="#444053" fill-rule="nonzero"></path>
                        <path d="M36.372997,31.645549 C36.372997,31.645549 31.431454,29.0764095 27.5796736,29.998368 C23.7278932,30.9203264 15.0580119,26.738724 15.0580119,26.738724 C15.0580119,26.738724 11.3759644,25.2439169 10.6353116,23.5388724 C10.6353116,23.5388724 8.11053412,20.8675074 7.96587537,19.4884273 C7.82121662,18.1093472 5.35623145,14.629822 3.75919881,14.504451" id="Path" stroke="#444053"></path>
                        <path d="M35.6574184,34.1182493 C35.6574184,34.1182493 33.1692878,32.4421365 33.4586053,30.4863501" id="Path" stroke="#444053"></path>
                        <path d="M31.8403561,36.284273 C31.8403561,36.284273 28.279822,34.9919881 27.922997,29.9192878" id="Path" stroke="#444053"></path>
                        <path d="M26.0964392,37.5958457 C26.0964392,37.5958457 22.6940653,34.7740356 23.8243323,29.8421365" id="Path" stroke="#444053"></path>
                        <path d="M19.1933234,36.2167656 C19.1933234,36.2167656 16.9289318,31.4661721 18.9445104,28.3762611" id="Path" stroke="#444053"></path>
                        <path d="M36.4308605,28.5132047 C36.4308605,28.5132047 33.8559347,29.3310089 34.4094955,30.6850148" id="Path" stroke="#444053"></path>
                        <path d="M33.3235905,23.8416914 C33.3235905,23.8416914 29.8787834,24.9333828 29.7977745,29.8074184" id="Path" stroke="#444053"></path>
                        <path d="M28.5209199,22.7172107 C28.5209199,22.7172107 25.3866469,26.5863501 25.608457,30.1025223" id="Path" stroke="#444053"></path>
                        <path d="M23.0316024,24.2351632 C23.0316024,24.2351632 19.9166172,27.211276 20.3139466,28.8642433" id="Path" stroke="#444053"></path>
                        <path d="M21.1529674,23.1839763 C21.1529674,23.1839763 18.2327893,23.7066766 17.825816,22.7480712" id="Path" stroke="#444053"></path>
                        <path d="M17.3590504,19.6581602 C17.3590504,19.6581602 18.8345697,21.6120178 19.2145401,21.174184" id="Path" stroke="#444053"></path>
                        <path d="M31.9830861,18.4218101 C31.9830861,18.4218101 24.6228487,18.9560831 22.9583086,16.7379822" id="Path" stroke="#444053"></path>
                        <path d="M15.8102374,9.81364985 C15.8102374,9.81364985 19.2646884,17.2259644 21.7721068,18.1710682" id="Path" stroke="#444053"></path>
                        <path d="M19.4363501,6.28204748 C19.4363501,6.28204748 21.5580119,13.1002967 24.1850148,15.2296736" id="Path" stroke="#444053"></path>
                        <path d="M35.0807122,12.795549 C35.0807122,12.795549 29.4872404,15.1968843 26.1234421,12.7666172" id="Path" stroke="#444053" stroke-width="0.75"></path>
                        <path d="M24.4203264,4.82774481 C24.4203264,4.82774481 25.6991098,9.8425816 27.4215134,11.0519288" id="Path" stroke="#444053" stroke-width="0.75"></path>
                        <path d="M34.235905,7.17507418 C34.235905,7.17507418 31.0900593,8.36513353 29.9154303,7.45281899" id="Path" stroke="#444053" stroke-width="0.75"></path>
                        <path d="M14.6645401,21.2956973 C14.6645401,21.2956973 14.6645401,25.6643917 13.4744807,25.9749258" id="Path" stroke="#444053"></path>
                        <path d="M4.93961424,26.9566766 C4.93961424,26.9566766 9.66513353,27.3617211 11.84273,24.9237389" id="Path" stroke="#444053"></path>
                        <path d="M13.445549,16.134273 C13.445549,16.134273 12.3037092,20.5704748 9.15014837,21.7586053" id="Path" stroke="#444053"></path>
                        <path d="M2.10623145,22.2890208 C2.10623145,22.2890208 5.45074184,23.4462908 8.32655786,20.4913947" id="Path" stroke="#444053"></path>
                        <path d="M9.72878338,12.3249258 C9.72878338,12.3249258 9.41246291,16.0879822 7.36602374,17.8489614" id="Path" stroke="#444053"></path>
                        <path d="M2.23353116,16.5547478 C2.23353116,16.5547478 5.00905045,16.5721068 5.65905045,15.6694362" id="Path" stroke="#444053"></path>
                    </g>
                    <ellipse id="Oval" fill="#FABEBA" fill-rule="nonzero" opacity="0.1" cx="50.8948071" cy="141.744362" rx="42.0474777" ry="2.98961424"></ellipse>
                    <path d="M75.2534125,125.467359 C75.8320475,124.427745 76.5244807,123.447923 77.0838279,122.394807 C77.5949555,121.430415 77.9942136,120.40816 78.4551929,119.416766 C79.2440653,117.719436 80.2161721,116.114688 81.1014837,114.46365 C81.6801187,113.381602 82.2394659,112.203116 82.1275964,110.980267 C82.0215134,109.822997 81.3425816,108.82003 81.0802671,107.701335 C80.0117211,103.108902 77.4406528,98.8925816 75.8725519,94.4505935 C75.471365,93.324184 75.0817507,92.1900593 74.5802671,91.1022255 C73.6158754,89.0094955 72.265727,87.1289318 70.9155786,85.2637982 C70.429042,84.5512209 69.8873186,83.8779361 69.2954006,83.2501484 C68.811276,82.7660237 68.2673591,82.3397626 67.8275964,81.8151335 C66.9210682,80.7350148 66.4967359,79.1804154 65.3626113,78.3433234 C65.3433234,78.3934718 65.3221068,78.4416914 65.3008902,78.4918398 C64.4888724,76.4183976 61.7654303,75.0508902 60.1857567,73.3323442 C59.2661497,72.2827983 58.4199801,71.1711132 57.6532641,70.0051929 L54.2142433,65.0347181 C53.6221068,64.1783383 53.0183976,63.2988131 52.7792285,62.2784866 C52.4860534,61.0479228 52.7580119,59.7363501 52.4686944,58.5057864 C52.2836901,57.7650233 51.923145,57.0796569 51.4175074,56.5075668 C51.4502967,56.4979228 51.4850148,56.4844214 51.5197329,56.4767062 C52.1755193,56.3011869 52.8698813,56.2703264 53.5198813,56.114095 C54.9375371,55.7765579 56.1700297,54.8700297 57.5818991,54.5074184 C58.3032641,54.3145401 59.0728487,54.2759644 59.7267062,53.9287834 C60.3785888,53.5387183 60.7115577,52.7783103 60.5560831,52.0347181 C60.0989614,49.614095 61.375816,47.1606825 61.1597923,44.7053412 C61.1019288,44.0264095 60.9283383,43.3648368 60.8164688,42.6916914 C60.5560831,41.1293769 60.6043027,39.5284866 60.6968843,37.9430267 C61.1370661,37.2285417 61.6651792,36.5721264 62.2688427,35.9891691 C63.1367953,35.1520772 64.1725519,34.4461424 64.7762611,33.3988131 C65.302819,32.4710682 65.4301187,31.3504451 65.2970326,30.2896142 C65.2025223,29.5181009 64.9402077,28.7060831 64.3326409,28.2373887 C63.7250742,27.7686944 62.8532641,27.7339763 62.1183976,27.9789318 C62.0161721,28.0117211 61.9158754,28.0522255 61.8175074,28.0946588 C61.1967825,27.7839837 60.4756384,27.7421378 59.8231454,27.9789318 C59.0902077,28.2219585 58.4614243,28.7060831 57.8712166,29.2094955 C57.5214014,29.4838066 57.2145498,29.8088613 56.9608309,30.1738872 C56.5885757,30.7525223 56.4805638,31.4661721 56.3397626,32.1470326 C56.0403656,33.4613866 55.6040045,34.7407325 55.0378338,35.964095 C54.9336795,36.1801187 54.6520772,36.5678042 54.4244807,36.9381306 L54.0117211,36.8532641 C53.8323442,38.5718101 52.3934718,39.8332344 51.5178042,41.3183976 C51.091543,42.0397626 50.7925816,42.828635 50.4087537,43.5750742 C49.9707872,44.3876218 49.4818274,45.1716324 48.9448071,45.9224036 C48.4240356,46.6939169 47.9026212,47.4583581 47.3805638,48.215727 C46.7262883,49.2104328 46.0180063,50.1685452 45.2589021,51.0857567 C44.5510386,51.0278932 43.8431751,50.975816 43.1372404,50.9642433 C41.9523584,50.9472618 40.7688876,51.0526172 39.605638,51.278635 C39.5378319,50.8695725 39.4959581,50.456632 39.4802671,50.0422849 C39.4802671,50.0172107 39.4802671,49.9921365 39.4802671,49.9670623 C39.4802671,49.8667656 39.4918398,49.747181 39.5053412,49.6179525 C41.5430199,48.2533396 42.737283,45.9380394 42.6679694,43.4866116 C42.5986559,41.0351837 41.2754764,38.7910636 39.1639466,37.5437685 C39.2022626,37.326949 39.2267433,37.107911 39.2372404,36.8879822 C39.2372404,36.7587537 39.2372404,36.6275964 39.2372404,36.5022255 C39.2372404,36.4366469 39.2372404,36.3710682 39.2237389,36.3093472 C39.2117923,36.1792717 39.1898682,36.0503065 39.1581602,35.9235905 C39.14273,35.8618694 39.1253709,35.8001484 39.1041543,35.7307122 C39.0631093,35.6096932 39.0094512,35.4933262 38.9440653,35.3835312 C38.9400273,35.3767902 38.9355155,35.3703447 38.9305638,35.3642433 C38.9054896,35.3237389 38.8804154,35.2832344 38.8514837,35.2446588 C38.8225519,35.2060831 38.8264095,35.2137982 38.8148368,35.198368 C38.7945223,35.17015 38.7726278,35.1431038 38.7492582,35.1173591 L38.7010386,35.0672107 C38.679822,35.0440653 38.6586053,35.0209199 38.6354599,34.9997033 L38.581454,34.9514837 L38.5139466,34.8916914 L38.4522255,34.8454006 L38.3827893,34.7933234 L38.3152819,34.7489614 L38.2458457,34.7045994 C38.2227003,34.6891691 38.1976261,34.6756677 38.1725519,34.6621662 L38.1011869,34.6216617 L38.0240356,34.5830861 L37.9526706,34.548368 L37.8678042,34.5117211 L37.798368,34.4808605 L37.7057864,34.4461424 L37.6402077,34.4210682 L37.539911,34.3863501 L37.4801187,34.3670623 L37.370178,34.3323442 L37.3181009,34.3169139 L37.1985163,34.2841246 L37.1522255,34.2706231 L37.0268546,34.2397626 L36.9902077,34.2301187 L36.8513353,34.1992582 L36.8281899,34.1992582 L36.6237389,34.1548961 C35.7789318,33.9813056 34.9289812,33.8315035 34.0738872,33.7054896 C33.3737389,33.6013353 32.6562315,33.5126113 31.965727,33.6688427 C31.012908,33.8810089 30.2182493,34.5252226 29.3271513,34.9244807 C28.2740356,35.3989614 27.1051929,35.5243323 25.9826409,35.7847181 C24.860089,36.0451039 23.7047478,36.4906528 23.0007418,37.4106825 C22.4645401,38.1127596 22.2504451,39.0057864 22.0903561,39.8756677 C20.755638,47.1356083 22.1945104,54.5826409 22.4664688,61.9621662 C22.5725519,64.8341246 22.4433234,67.9047478 20.8154303,70.2559347 L25.5563798,70.1305638 C25.7839763,70.1305638 26.0135015,70.1170623 26.2449555,70.1035608 C26.4764095,70.0900593 26.7078635,70.0727003 26.9354599,70.0456973 C27.5367211,69.9893369 28.1208362,69.814299 28.6540059,69.5307122 C28.9009057,69.3900926 29.1263073,69.2147081 29.3232938,69.0099407 C29.9675074,68.3464392 30.3108309,67.4186944 30.6252226,66.531454 C30.7313056,66.2324926 30.8373887,65.9296736 30.9318991,65.6249258 C30.9704748,65.4976261 31.0071217,65.3703264 31.039911,65.2391691 L31.0553412,65.1774481 L31.1093472,65.2025223 C31.3022255,65.5651335 31.520178,65.9200297 31.751632,66.2633531 C32.5790801,67.4823442 33.6283383,68.5238872 34.6698813,69.5596439 C36.7394659,71.6137982 38.8553412,73.7045994 41.4495549,75.0238872 C42.3252226,75.4655786 43.2722552,75.8378338 43.9396142,76.5669139 C44.2675074,76.9198813 44.5510386,77.3731454 45.0158754,77.4946588 C45.3051929,77.5698813 45.6234421,77.4946588 45.8992582,77.6181009 C46.3043027,77.7878338 46.452819,78.275816 46.639911,78.677003 C46.827003,79.0781899 47.2494065,79.487092 47.6505935,79.3038576 C47.4971768,80.0638427 47.7906794,80.8447692 48.4066766,81.3155786 C48.6009764,81.4234543 48.7684368,81.5737732 48.8965875,81.7553412 C48.9583558,81.9209193 48.9922475,82.0955919 48.9968843,82.2722552 C49.0793171,82.7648549 49.3393767,83.2101812 49.7278932,83.5240356 C49.3517804,84.1470326 49.6526706,85.0400593 49.6623145,85.8173591 C49.6623145,86.4692878 49.4482196,87.0980712 49.301632,87.7326409 C48.8753709,89.5939169 49.1087537,91.5419881 49.4559347,93.4186944 C49.6488131,94.454451 49.8937685,95.5268546 50.5688427,96.3311573 C50.788724,96.591543 51.0510386,96.8172107 51.2824926,97.0698813 C51.7243164,97.5676979 52.0914105,98.1271105 52.3722552,98.7305638 C52.957626,99.9254383 53.3563716,101.202986 53.5545994,102.518694 C53.6477777,103.178882 53.8361868,103.822072 54.1139466,104.42819 C54.5363501,105.350148 54.1505935,106.484273 54.528635,107.425519 C54.7002967,107.847923 55.0166172,108.208605 55.1188427,108.650297 C55.2635015,109.292582 54.9259644,109.934866 54.8353116,110.588724 C54.6154303,112.120178 55.7206231,113.541691 55.8209199,115.084718 C55.8373456,115.175232 55.8179829,115.268588 55.7669139,115.345104 C55.6916914,115.42997 55.5624629,115.428042 55.4602374,115.476261 C55.2673591,115.568843 55.2152819,115.829228 55.1535608,116.045252 C55.0918398,116.261276 54.9182493,116.506231 54.7041543,116.440653 C51.5351632,118.136053 48.2543027,119.702226 45.0853116,121.397626 L43.638724,122.169139 L35.9023739,126.302522 C35.7107215,126.397702 35.5901671,126.593884 35.5918398,126.807864 C35.5918398,126.900445 35.6034125,127.000742 35.6111276,127.087537 C35.0691395,127.222552 34.548368,127.38457 34.1780415,127.452077 C34.0256677,127.481009 33.8732938,127.509941 33.7228487,127.54273 C33.759443,127.484105 33.7831148,127.41835 33.7922849,127.349852 C33.7935905,127.152991 33.6464497,126.98673 33.4508902,126.964095 C33.261921,126.945395 33.0711838,126.970474 32.8934718,127.037389 C32.4512427,127.158246 31.9995833,127.24148 31.5433234,127.286202 C31.0013353,127.338279 30.4497033,127.33635 29.9250742,127.47908 C29.4004451,127.62181 28.8835312,127.940059 28.671365,128.443472 C28.5652173,128.734736 28.5180122,129.044192 28.5324926,129.353858 C28.520744,130.54612 28.6620565,131.73496 28.9529674,132.891246 C28.9622992,132.984256 29.014329,133.067646 29.0937685,133.116914 C29.161276,133.143917 29.2422849,133.116914 29.3097923,133.147774 C29.3692123,133.183737 29.4137121,133.239875 29.4351632,133.305935 C29.7591988,134.04273 29.8344214,134.864392 29.9212166,135.666766 C30.0498022,136.856182 30.2124629,138.042384 30.4091988,139.225371 C30.5249258,139.915875 30.6676558,140.63724 31.1170623,141.169585 C31.6108309,141.74822 32.3919881,142.004748 33.1461424,142.106973 C34.7373887,142.321068 36.3440653,141.998961 37.914095,141.669139 C38.20727,141.607418 38.5216617,141.532196 38.7183976,141.304599 C38.8622516,141.122939 38.9312502,140.893173 38.911276,140.662315 C38.8746291,139.869585 38.1532641,139.312166 37.4974777,138.866617 L36.6025223,138.247478 C36.4454082,138.164033 36.3657328,137.983967 36.4096439,137.811573 L36.4675074,136.640801 L36.2939169,136.640801 C36.4867953,135.815282 36.7973294,135.022552 37.4048961,134.45549 C37.8234421,134.069733 38.3692878,133.799703 38.8071217,133.448665 C39.3688644,133.880602 40.049327,134.130307 40.7571217,134.164243 C41.9143917,132.605786 43.5442136,131.544955 45.1740356,130.499555 C46.4977971,129.663337 47.8660374,128.899698 49.2727003,128.212018 C50.4119683,127.648813 51.5692384,127.120969 52.7445104,126.628487 C54.4032641,125.930267 56.0928783,125.30727 57.7844214,124.699703 C58.9127596,124.294659 60.0507418,123.895401 61.0903561,123.297478 C63.7906528,121.737092 65.6982196,118.622107 65.3336795,115.503264 C64.8746291,111.568546 65.8563798,107.467953 65.7908012,103.506231 C65.7715134,102.348961 65.7290801,101.191691 65.3780415,100.082641 C65.4597007,100.140542 65.5364671,100.205052 65.6075668,100.275519 C66.3096439,100.931306 66.4793769,101.972849 67.1505935,102.721217 C67.6732938,103.309496 68.4679525,103.685608 68.784273,104.403116 C69.0253709,104.952819 68.9906528,105.695401 69.4940653,106.011721 C69.6367953,106.102374 69.8065282,106.14095 69.9492582,106.229674 C70.1200112,106.351362 70.2638119,106.506981 70.3716617,106.686795 C70.9059347,107.448665 71.4594955,108.26454 71.5173591,109.194214 C71.5424332,109.562611 71.5077151,109.988872 71.7777448,110.237685 C71.8548961,110.30905 71.9532641,110.361128 71.9937685,110.457567 C72.078635,110.650445 71.8548961,110.854896 71.8163205,111.068991 C71.7603858,111.366024 72.0535608,111.591691 72.2348665,111.840504 C72.5452673,112.266354 72.5452673,112.843883 72.2348665,113.269733 C70.6532641,115.323887 70.3678042,118.091691 68.9848665,120.288576 C68.5065282,121.046588 67.974184,121.764095 67.511276,122.531751 C66.0878338,124.888724 65.3683976,127.596736 64.670178,130.264243 C64.9684686,130.783558 65.3726103,131.234356 65.8563798,131.587389 C65.5950412,132.485619 65.1445537,133.317541 64.5351632,134.0273 C64.3796229,134.20083 64.2340858,134.383074 64.0992582,134.573145 C63.9861438,134.429935 63.8379975,134.318327 63.6691395,134.24911 C63.4154996,135.356399 63.2861147,136.488517 63.2833828,137.624481 C63.2833828,138.372849 63.3856083,139.2273 63.9931751,139.659347 C64.2356575,139.812121 64.5024502,139.92236 64.7820475,139.985312 L66.1051929,140.371068 C66.3379757,140.460312 66.5905539,140.48497 66.8362018,140.442433 C66.9924332,140.398071 67.1313056,140.301632 67.2913947,140.270772 C67.4653401,140.252794 67.6410764,140.275918 67.804451,140.338279 L68.9482196,140.671958 C69.334948,140.774922 69.7128912,140.908427 70.0784866,141.071217 C70.404451,141.227448 70.7053412,141.42997 71.0255193,141.603561 C71.5579692,141.872611 72.1106429,142.099614 72.6784866,142.282493 L74.6497033,142.961424 C75.1988963,143.179104 75.772877,143.328105 76.3586053,143.405045 C76.7636499,143.439763 77.1744807,143.405045 77.5737389,143.474481 C77.8784866,143.526558 78.1735905,143.636499 78.4802671,143.667359 C78.9892078,143.682483 79.4895484,143.533733 79.9075668,143.243027 C80.0708566,143.150808 80.2117921,143.023703 80.3203264,142.870772 C80.6096439,142.419436 80.3608309,141.823442 80.0792285,141.368249 C79.5565282,140.523442 78.9026706,139.732641 78.0405045,139.246588 C77.6913947,139.053709 77.3133531,138.910979 76.9526706,138.733531 C75.9265579,138.232047 75.1531157,137.394955 74.1829377,136.822107 C73.9278521,136.640481 73.580087,136.663881 73.351632,136.878042 C72.5454006,136.355341 71.6735905,135.844214 71.2299703,134.99362 C71.0323314,134.583165 70.9020785,134.143561 70.8442136,133.691691 C71.2974777,133.799703 71.7545994,133.88457 72.2155786,133.959792 C72.9658754,131.051187 73.7856083,128.090504 75.2534125,125.467359 Z M56.7235905,43.2066766 C56.6850148,43.4246291 56.6425816,43.6406528 56.5962908,43.8566766 C56.2105341,45.6678042 55.6589021,47.6968843 54.3974777,49.0451039 C53.9825753,49.4402966 53.5005572,49.7583763 52.9740356,49.9844214 L52.8332344,50.0538576 C53.7416914,47.6274481 55.1882789,45.3784866 56.7235905,43.2066766 Z" id="Shape" fill="url(#linearGradient-1)" fill-rule="nonzero"></path>
                    <path d="M58.5906528,32.4633531 C58.7333828,31.7902077 58.8413947,31.084273 59.2136499,30.5037092 C59.4681356,30.1386909 59.7756205,29.813654 60.1259644,29.5393175 C60.7161721,29.0397626 61.3468843,28.5594955 62.0817507,28.3164688 C62.8166172,28.0734421 63.6807122,28.1062315 64.2979228,28.572997 C64.9151335,29.0397626 65.1755193,29.8440653 65.2719585,30.6117211 C65.4031157,31.6667656 65.2719585,32.7777448 64.7492582,33.6977745 C64.1513353,34.7412463 63.1136499,35.4336795 62.2418398,36.2707715 C61.6102313,36.8750457 61.0609494,37.5598647 60.6081602,38.3075668 C60.4021095,38.6972765 60.1523286,39.0622413 59.8636499,39.3954006 C59.5667847,39.731519 59.128061,39.9068653 58.6813056,39.8679525 C58.3090504,39.8081602 58.0062315,39.5497033 57.7169139,39.302819 C57.360089,38.9903561 56.3995549,38.4329377 56.3667656,37.9372404 C56.3436202,37.5360534 57.0939169,36.6256677 57.2771513,36.2495549 C57.8472172,35.037314 58.2874989,33.7681906 58.5906528,32.4633531 L58.5906528,32.4633531 Z" id="Path" fill="#FBBEBE" fill-rule="nonzero"></path>
                    <path d="M58.5906528,32.4633531 C58.7333828,31.7902077 58.8413947,31.084273 59.2136499,30.5037092 C59.4681356,30.1386909 59.7756205,29.813654 60.1259644,29.5393175 C60.7161721,29.0397626 61.3468843,28.5594955 62.0817507,28.3164688 C62.8166172,28.0734421 63.6807122,28.1062315 64.2979228,28.572997 C64.9151335,29.0397626 65.1755193,29.8440653 65.2719585,30.6117211 C65.4031157,31.6667656 65.2719585,32.7777448 64.7492582,33.6977745 C64.1513353,34.7412463 63.1136499,35.4336795 62.2418398,36.2707715 C61.6102313,36.8750457 61.0609494,37.5598647 60.6081602,38.3075668 C60.4021095,38.6972765 60.1523286,39.0622413 59.8636499,39.3954006 C59.5667847,39.731519 59.128061,39.9068653 58.6813056,39.8679525 C58.3090504,39.8081602 58.0062315,39.5497033 57.7169139,39.302819 C57.360089,38.9903561 56.3995549,38.4329377 56.3667656,37.9372404 C56.3436202,37.5360534 57.0939169,36.6256677 57.2771513,36.2495549 C57.8472172,35.037314 58.2874989,33.7681906 58.5906528,32.4633531 L58.5906528,32.4633531 Z" id="Path" fill="#000000" fill-rule="nonzero" opacity="0.1"></path>
                    <path d="M38.3384273,51.741543 C39.8837752,51.3306153 41.4786262,51.1358838 43.0774481,51.162908 C45.7449555,51.2014837 48.491543,51.8476261 51.0317507,51.029822 C51.6875123,50.8023752 52.3251778,50.5257741 52.9393175,50.2023739 C53.4504451,49.9477745 53.9712166,49.6854599 54.3627596,49.2688427 C55.6261128,47.9302671 56.1700297,45.9146884 56.5654303,44.1151335 C56.9608309,42.3155786 57.0630564,40.4678042 57.1652819,38.6296736 C57.822997,38.9363501 58.5154303,39.2391691 59.2445104,39.1774481 C59.9735905,39.115727 60.7007418,38.5602374 60.6968843,37.8272997 C60.5888724,39.5304154 60.5040059,41.2547478 60.7913947,42.9366469 C60.9032641,43.6040059 61.0768546,44.2617211 61.1366469,44.9367953 C61.3526706,47.3747774 60.0738872,49.8108309 60.5310089,52.2160237 C60.6857426,52.9558011 60.3522446,53.7119885 59.701632,54.0965875 C59.0458457,54.4495549 58.2743323,54.4939169 57.5529674,54.6752226 C56.1391691,55.035905 54.9047478,55.9347181 53.4851632,56.2703264 C52.8235905,56.4265579 52.1350148,56.4632047 51.4830861,56.6310089 C50.5456973,56.8778932 49.6951039,57.414095 48.7403561,57.5838279 C48.0247774,57.7111276 47.2879822,57.6243323 46.5646884,57.6860534 C45.935905,57.7381306 45.3186944,57.9040059 44.6879822,57.9194362 C43.1449555,57.9580119 41.6848665,57.084273 40.6587537,55.9250742 C39.6326409,54.7658754 38.9826409,53.1456973 38.3384273,51.741543 Z" id="Path" fill="#FABEBA" fill-rule="nonzero"></path>
                    <path d="M38.3384273,51.741543 C39.8837752,51.3306153 41.4786262,51.1358838 43.0774481,51.162908 C45.7449555,51.2014837 48.491543,51.8476261 51.0317507,51.029822 C51.6875123,50.8023752 52.3251778,50.5257741 52.9393175,50.2023739 C53.4504451,49.9477745 53.9712166,49.6854599 54.3627596,49.2688427 C55.6261128,47.9302671 56.1700297,45.9146884 56.5654303,44.1151335 C56.9608309,42.3155786 57.0630564,40.4678042 57.1652819,38.6296736 C57.822997,38.9363501 58.5154303,39.2391691 59.2445104,39.1774481 C59.9735905,39.115727 60.7007418,38.5602374 60.6968843,37.8272997 C60.5888724,39.5304154 60.5040059,41.2547478 60.7913947,42.9366469 C60.9032641,43.6040059 61.0768546,44.2617211 61.1366469,44.9367953 C61.3526706,47.3747774 60.0738872,49.8108309 60.5310089,52.2160237 C60.6857426,52.9558011 60.3522446,53.7119885 59.701632,54.0965875 C59.0458457,54.4495549 58.2743323,54.4939169 57.5529674,54.6752226 C56.1391691,55.035905 54.9047478,55.9347181 53.4851632,56.2703264 C52.8235905,56.4265579 52.1350148,56.4632047 51.4830861,56.6310089 C50.5456973,56.8778932 49.6951039,57.414095 48.7403561,57.5838279 C48.0247774,57.7111276 47.2879822,57.6243323 46.5646884,57.6860534 C45.935905,57.7381306 45.3186944,57.9040059 44.6879822,57.9194362 C43.1449555,57.9580119 41.6848665,57.084273 40.6587537,55.9250742 C39.6326409,54.7658754 38.9826409,53.1456973 38.3384273,51.741543 Z" id="Path" fill="#F98B55" fill-rule="nonzero" opacity="0.517508371"></path>
                    <path d="M107.703264,54.1120178 C113.073786,54.1120179 117.915456,57.3472453 119.970485,62.3090352 C122.025515,67.2708252 120.889174,72.9819713 117.091365,76.779228 C113.293557,80.5764846 107.582246,81.711996 102.620755,79.6562456 C97.6592631,77.6004952 94.4247391,72.7583558 94.4255193,67.3878338 C94.4265844,60.0554911 100.370921,54.1120177 107.703264,54.1120178 L107.703264,54.1120178 Z M107.703264,50.8330861 C101.006538,50.8330861 94.969251,54.8671996 92.4067051,61.0542424 C89.8441592,67.2412852 91.2610317,74.3627582 95.9966079,79.0977828 C100.732184,83.8328074 107.853822,85.2488502 114.040566,82.6855836 C120.227311,80.1223169 124.260721,74.0845599 124.259941,67.3878338 C124.24931,58.2485532 116.842546,50.842652 107.703264,50.8330861 L107.703264,50.8330861 Z" id="Shape" fill="#3F3D56" fill-rule="nonzero"></path>
                    <rect id="Rectangle" fill="#3F3D56" fill-rule="nonzero" x="105.25178" y="46.960089" width="3.88071217" height="4.0851632"></rect>
                    <polygon id="Rectangle" fill="#3F3D56" fill-rule="nonzero" transform="translate(116.665524, 51.367364) rotate(31.000000) translate(-116.665524, -51.367364) " points="114.725168 49.3247828 118.60588 49.3247828 118.60588 53.409946 114.725168 53.409946"></polygon>
                    <polygon id="Rectangle" fill="#3F3D56" fill-rule="nonzero" transform="translate(123.475307, 57.994086) rotate(61.000000) translate(-123.475307, -57.994086) " points="121.534951 55.9515041 125.415663 55.9515041 125.415663 60.0366673 121.534951 60.0366673"></polygon>
                    <polygon id="Rectangle" fill="#3F3D56" fill-rule="nonzero" transform="translate(123.566197, 76.629700) rotate(122.000000) translate(-123.566197, -76.629700) " points="121.625841 74.5871179 125.506553 74.5871179 125.506553 78.6722811 121.625841 78.6722811"></polygon>
                    <polygon id="Rectangle" fill="#3F3D56" fill-rule="nonzero" transform="translate(91.932416, 57.992796) rotate(119.000000) translate(-91.932416, -57.992796) " points="89.9920604 55.9502146 93.8727725 55.9502146 93.8727725 60.0353778 89.9920604 60.0353778"></polygon>
                    <polygon id="Rectangle" fill="#3F3D56" fill-rule="nonzero" transform="translate(91.842034, 76.628199) rotate(58.000000) translate(-91.842034, -76.628199) " points="89.9016781 74.5856173 93.7823903 74.5856173 93.7823903 78.6707805 89.9016781 78.6707805"></polygon>
                    <polygon id="Rectangle" fill="#3F3D56" fill-rule="nonzero" transform="translate(98.740146, 51.367083) rotate(149.000000) translate(-98.740146, -51.367083) " points="96.7997901 49.3245016 100.680502 49.3245016 100.680502 53.4096648 96.7997901 53.4096648"></polygon>
                    <rect id="Rectangle" fill="#3F3D56" fill-rule="nonzero" x="105.25178" y="83.7304154" width="3.88071217" height="4.0851632"></rect>
                    <polygon id="Rectangle" fill="#3F3D56" fill-rule="nonzero" transform="translate(116.666074, 83.409272) rotate(-31.000000) translate(-116.666074, -83.409272) " points="114.725718 81.3666905 118.60643 81.3666905 118.60643 85.4518537 114.725718 85.4518537"></polygon>
                    <polygon id="Rectangle" fill="#3F3D56" fill-rule="nonzero" transform="translate(98.740696, 83.409544) rotate(-149.000000) translate(-98.740696, -83.409544) " points="96.8003401 81.3669628 100.681052 81.3669628 100.681052 85.452126 96.8003401 85.452126"></polygon>
                    <rect id="Rectangle" fill="#3F3D56" fill-rule="nonzero" x="86.868546" y="65.7541543" width="4.69851632" height="3.47181009"></rect>
                    <rect id="Rectangle" fill="#3F3D56" fill-rule="nonzero" transform="translate(126.188724, 67.490059) rotate(-180.000000) translate(-126.188724, -67.490059) " x="123.839466" y="65.7541543" width="4.69851632" height="3.47181009"></rect>
                    <path d="M138.548368,30.2124629 C143.91889,30.212463 148.760559,33.4476904 150.815589,38.4094803 C152.870619,43.3712703 151.734278,49.0824164 147.936469,52.8796731 C144.138661,56.6769297 138.42735,57.8124411 133.465858,55.7566907 C128.504367,53.7009404 125.269843,48.8588009 125.270623,43.4882789 C125.271688,36.1559362 131.216025,30.2124628 138.548368,30.2124629 L138.548368,30.2124629 Z M138.548368,26.9335312 C131.851642,26.9335312 125.814355,30.9676447 123.251809,37.1546875 C120.689263,43.3417303 122.106136,50.4632034 126.841712,55.1982279 C131.577288,59.9332525 138.698926,61.3492953 144.88567,58.7860287 C151.072415,56.222762 155.105825,50.185005 155.105045,43.4882789 C155.094414,34.3489983 147.68765,26.9430971 138.548368,26.9335312 Z" id="Shape" fill="#3F3D56" fill-rule="nonzero"></path>
                    <rect id="Rectangle" fill="#3F3D56" fill-rule="nonzero" x="136.096884" y="23.0624629" width="3.88071217" height="4.0851632"></rect>
                    <polygon id="Rectangle" fill="#3F3D56" fill-rule="nonzero" transform="translate(147.511894, 27.466515) rotate(31.000000) translate(-147.511894, -27.466515) " points="145.571538 25.4239334 149.45225 25.4239334 149.45225 29.5090967 145.571538 29.5090967"></polygon>
                    <polygon id="Rectangle" fill="#3F3D56" fill-rule="nonzero" transform="translate(154.321353, 34.093841) rotate(61.000000) translate(-154.321353, -34.093841) " points="152.380997 32.0512594 156.261709 32.0512594 156.261709 36.1364226 152.380997 36.1364226"></polygon>
                    <polygon id="Rectangle" fill="#3F3D56" fill-rule="nonzero" transform="translate(154.410712, 52.730559) rotate(122.000000) translate(-154.410712, -52.730559) " points="152.470356 50.6879772 156.351069 50.6879772 156.351069 54.7731404 152.470356 54.7731404"></polygon>
                    <polygon id="Rectangle" fill="#3F3D56" fill-rule="nonzero" transform="translate(122.776242, 34.095545) rotate(119.000000) translate(-122.776242, -34.095545) " points="120.835886 32.0529634 124.716598 32.0529634 124.716598 36.1381266 120.835886 36.1381266"></polygon>
                    <polygon id="Rectangle" fill="#3F3D56" fill-rule="nonzero" transform="translate(122.686430, 52.730101) rotate(58.000000) translate(-122.686430, -52.730101) " points="120.746074 50.6875197 124.626786 50.6875197 124.626786 54.7726829 120.746074 54.7726829"></polygon>
                    <polygon id="Rectangle" fill="#3F3D56" fill-rule="nonzero" transform="translate(129.585283, 27.466851) rotate(149.000000) translate(-129.585283, -27.466851) " points="127.644927 25.4242695 131.52564 25.4242695 131.52564 29.5094328 127.644927 29.5094328"></polygon>
                    <rect id="Rectangle" fill="#3F3D56" fill-rule="nonzero" x="136.096884" y="59.8308605" width="3.88071217" height="4.0851632"></rect>
                    <polygon id="Rectangle" fill="#3F3D56" fill-rule="nonzero" transform="translate(147.511145, 59.510394) rotate(-31.000000) translate(-147.511145, -59.510394) " points="145.570789 57.4678127 149.451501 57.4678127 149.451501 61.5529759 145.570789 61.5529759"></polygon>
                    <polygon id="Rectangle" fill="#3F3D56" fill-rule="nonzero" transform="translate(129.584534, 59.509355) rotate(-149.000000) translate(-129.584534, -59.509355) " points="127.644178 57.4667736 131.52489 57.4667736 131.52489 61.5519368 127.644178 61.5519368"></polygon>
                    <rect id="Rectangle" fill="#3F3D56" fill-rule="nonzero" x="117.711721" y="41.8545994" width="4.69851632" height="3.47181009"></rect>
                    <rect id="Rectangle" fill="#3F3D56" fill-rule="nonzero" transform="translate(157.035757, 43.590504) rotate(-180.000000) translate(-157.035757, -43.590504) " x="154.686499" y="41.8545994" width="4.69851632" height="3.47181009"></rect>
                    <path d="M76.8504451,29.1902077 C77.0066766,29.1902077 77.162908,29.1902077 77.3191395,29.1902077 C84.5595546,29.4371388 90.2655447,35.4423601 90.1423975,42.6859381 C90.0192504,49.929516 84.1124288,55.7373094 76.8678042,55.7379822 C76.7115727,55.7379822 76.5553412,55.7379822 76.397181,55.7379822 C69.1563912,55.4910377 63.4502609,49.4852314 63.5739405,42.2412876 C63.6976202,34.9973439 69.6054456,29.1898287 76.8504451,29.1902077 L76.8504451,29.1902077 Z M76.8504451,25.911276 L76.8504451,25.911276 C67.8162014,25.9101604 60.4488855,33.1514617 60.2941527,42.1843802 C60.13942,51.2172988 67.2544012,58.70668 76.2833828,59.0149852 C76.4762611,59.0149852 76.6691395,59.0246291 76.8620178,59.0246291 C85.8958848,59.0246902 93.262194,51.7831113 93.4163942,42.7505604 C93.5705943,33.7180096 86.4557563,26.2292142 77.4271513,25.9209199 C77.234273,25.9209199 77.0413947,25.911276 76.8485163,25.911276 L76.8504451,25.911276 Z" id="Shape" fill="#3F3D56" fill-rule="nonzero"></path>
                    <polygon id="Rectangle" fill="#3F3D56" fill-rule="nonzero" transform="translate(76.983586, 24.079300) rotate(1.990000) translate(-76.983586, -24.079300) " points="75.0432299 22.0367188 78.9239421 22.0367188 78.9239421 26.121882 75.0432299 26.121882"></polygon>
                    <polygon id="Rectangle" fill="#3F3D56" fill-rule="nonzero" transform="translate(86.367715, 26.768603) rotate(32.990000) translate(-86.367715, -26.768603) " points="84.427359 24.7260215 88.3080712 24.7260215 88.3080712 28.8111847 84.427359 28.8111847"></polygon>
                    <polygon id="Rectangle" fill="#3F3D56" fill-rule="nonzero" transform="translate(92.944506, 33.627541) rotate(62.990000) translate(-92.944506, -33.627541) " points="91.0041499 31.5849593 94.884862 31.5849593 94.884862 35.6701225 91.0041499 35.6701225"></polygon>
                    <polygon id="Rectangle" fill="#3F3D56" fill-rule="nonzero" transform="translate(92.390825, 52.249755) rotate(123.990000) translate(-92.390825, -52.249755) " points="90.4504692 50.2071735 94.3311814 50.2071735 94.3311814 54.2923367 90.4504692 54.2923367"></polygon>
                    <polygon id="Rectangle" fill="#3F3D56" fill-rule="nonzero" transform="translate(61.420067, 32.529510) rotate(120.990000) translate(-61.420067, -32.529510) " points="59.4797108 30.4869285 63.360423 30.4869285 63.360423 34.5720917 59.4797108 34.5720917"></polygon>
                    <polygon id="Rectangle" fill="#3F3D56" fill-rule="nonzero" transform="translate(60.403960, 51.462487) rotate(60.113473) translate(-60.403960, -51.462487) " points="58.4569211 49.4128703 62.3509987 49.4128703 62.3509987 53.512103 58.4569211 53.512103"></polygon>
                    <polygon id="Rectangle" fill="#3F3D56" fill-rule="nonzero" transform="translate(68.458455, 26.141254) rotate(150.990000) translate(-68.458455, -26.141254) " points="66.5180986 24.0986722 70.3988108 24.0986722 70.3988108 28.1838354 66.5180986 28.1838354"></polygon>
                    <polygon id="Rectangle" fill="#3F3D56" fill-rule="nonzero" transform="translate(75.708373, 60.823698) rotate(1.990000) translate(-75.708373, -60.823698) " points="73.7680174 58.7811168 77.6487295 58.7811168 77.6487295 62.86628 73.7680174 62.86628"></polygon>
                    <polygon id="Rectangle" fill="#3F3D56" fill-rule="nonzero" transform="translate(85.260606, 58.793474) rotate(-29.010000) translate(-85.260606, -58.793474) " points="83.3202502 56.7508921 87.2009624 56.7508921 87.2009624 60.8360554 83.3202502 60.8360554"></polygon>
                    <polygon id="Rectangle" fill="#3F3D56" fill-rule="nonzero" transform="translate(67.348459, 58.166861) rotate(-147.010000) translate(-67.348459, -58.166861) " points="65.4081034 56.1242793 69.2888155 56.1242793 69.2888155 60.2094426 65.4081034 60.2094426"></polygon>
                    <polygon id="Rectangle" fill="#3F3D56" fill-rule="nonzero" transform="translate(58.379384, 41.929150) rotate(1.990000) translate(-58.379384, -41.929150) " points="56.0301261 40.1932446 60.7286424 40.1932446 60.7286424 43.6650547 56.0301261 43.6650547"></polygon>
                    <polygon id="Rectangle" fill="#3F3D56" fill-rule="nonzero" transform="translate(95.332395, 43.207682) rotate(-178.010000) translate(-95.332395, -43.207682) " points="92.9831371 41.4717773 97.6816534 41.4717773 97.6816534 44.9435874 92.9831371 44.9435874"></polygon>
                    <path d="M34.0951039,127.128042 C33.617263,127.186362 33.1539434,127.330782 32.7275964,127.554303 C32.1489614,127.90727 31.7921365,128.530267 31.5375371,129.15905 C30.8991098,130.736795 30.7660237,132.468843 30.7390208,134.173887 C30.7158754,135.547181 30.7621662,136.953264 31.2540059,138.233976 C31.388909,138.639404 31.6229461,139.004714 31.9348665,139.296736 C32.2092549,139.512546 32.5270432,139.666505 32.8664688,139.748071 C33.5994065,139.94095 34.45,139.94095 35.0498516,139.478042 C35.7172107,138.955341 35.8850148,138.035312 36.025816,137.200148 C36.2186944,136.073739 36.4867953,134.885608 37.3238872,134.100593 C37.9449555,133.521958 38.8341246,133.232641 39.2854599,132.515134 C39.8235905,131.662611 39.5400593,130.549703 39.1967359,129.600742 C38.8977745,128.77908 38.4599407,127.110682 37.5997033,126.690208 C36.7394659,126.269733 34.9900593,126.966024 34.0951039,127.128042 Z" id="Path" fill="#FBBEBE" fill-rule="nonzero"></path>
                    <path d="M65.8178042,131.168843 C65.5577635,132.088628 65.0966013,132.939143 64.4676558,133.658902 C64.0818991,134.098665 63.6093472,134.632938 63.8118694,135.178783 C63.8942379,135.363567 64.0168004,135.527642 64.1706231,135.65905 C66.9982196,138.426855 70.9541543,139.773145 74.8792285,140.263056 C74.9423803,140.280186 75.008955,140.280186 75.0721068,140.263056 C75.1878338,140.210979 75.2148368,140.070178 75.2302671,139.94095 C75.2929435,139.531863 75.2929435,139.115615 75.2302671,138.706528 C75.0373887,137.742136 74.198368,137.072849 73.3767062,136.544362 C72.5550445,136.015875 71.6562315,135.502819 71.197181,134.640653 C70.618546,133.568249 70.8673591,132.17181 70.1864985,131.168843 C69.6348665,130.352967 68.6106825,130.011573 67.6385757,129.851484 C67.3010386,129.799407 66.5835312,129.42908 66.2884273,129.600742 C65.9875371,129.774332 65.9200297,130.833234 65.8178042,131.168843 Z" id="Path" fill="#FBBEBE" fill-rule="nonzero"></path>
                    <path d="M33.7093472,127.027745 C33.7106528,126.830884 33.563512,126.664623 33.3679525,126.641988 C33.1791308,126.622604 32.9883822,126.647025 32.8105341,126.713353 C32.3682281,126.833469 31.9165771,126.916057 31.4603858,126.960237 C30.9183976,127.012315 30.3648368,127.010386 29.8382789,127.153116 C29.3117211,127.295846 28.7967359,127.610237 28.5826409,128.117507 C28.4785048,128.407278 28.4313495,128.714443 28.4437685,129.022107 C28.4328688,130.206058 28.5741847,131.3865 28.8642433,132.534421 C28.8745791,132.627593 28.9272204,132.710823 29.0069733,132.760089 C29.0744807,132.787092 29.1554896,132.760089 29.222997,132.79095 C29.2822872,132.826173 29.3268215,132.881669 29.348368,132.947181 C29.6743323,133.680119 29.7495549,134.490208 29.8363501,135.292582 C29.9649357,136.474283 30.1275964,137.652127 30.3243323,138.826113 C30.4400593,139.510831 30.5827893,140.230267 31.0341246,140.754896 C31.5278932,141.333531 32.3109792,141.582344 33.0651335,141.68457 C34.6583086,141.896736 36.2669139,141.576558 37.8408012,141.248665 C38.140884,141.218698 38.4231299,141.092127 38.6451039,140.887982 C38.7888922,140.707784 38.8579433,140.479225 38.8379822,140.249555 C38.8013353,139.462611 38.0780415,138.899407 37.4222552,138.467359 L36.5195846,137.859792 C36.4566073,137.824987 36.4024893,137.776149 36.3614243,137.717062 C36.3186406,137.627043 36.3032159,137.526447 36.3170623,137.427745 L36.3749258,136.270475 C35.1532236,136.289856 34.041318,136.979979 33.4817507,138.066172 C33.3563798,138.314985 33.238724,138.606231 32.9783383,138.702671 C32.6562315,138.824184 32.2974777,138.552226 32.1894659,138.226261 C32.1143431,137.889664 32.1242866,137.539652 32.2183976,137.207864 C32.7468843,134.376409 32.6234421,131.465875 32.945549,128.603561 C32.9654586,128.282371 33.0641611,127.971028 33.2329377,127.697033 C33.3891691,127.481009 33.6804154,127.291988 33.7093472,127.027745 Z" id="Path" fill="#3F3D56" fill-rule="nonzero"></path>
                    <path d="M73.102819,138.00638 C73.235905,138.226261 73.4422849,138.392136 73.565727,138.619733 C73.6891691,138.847329 73.6872404,139.17908 73.4654303,139.308309 C73.3344983,139.365999 73.1886874,139.38085 73.0488131,139.350742 C70.2168839,138.999256 67.5582669,137.796724 65.4243323,135.902077 C65.0700269,135.602642 64.7562126,135.258354 64.4908012,134.877893 C64.2419881,134.492136 64.0317507,134.038872 63.6074184,133.880712 C63.3538042,134.980166 63.2244085,136.104615 63.2216617,137.232938 C63.2216617,137.975519 63.3238872,138.824184 63.931454,139.254303 C64.1749908,139.405524 64.442368,139.514431 64.7222552,139.576409 L66.0473294,139.950593 C66.2810062,140.03889 66.5339463,140.063518 66.7802671,140.021958 C66.9364985,139.979525 67.0753709,139.881157 67.2354599,139.852226 C67.4098862,139.833689 67.586231,139.856145 67.7504451,139.917804 L68.8942136,140.251484 C69.2811978,140.35 69.6597784,140.478988 70.0264095,140.63724 C70.3523739,140.791543 70.6551929,140.994065 70.9734421,141.165727 C71.5071244,141.433399 72.0611237,141.658481 72.6302671,141.838872 L74.6439169,142.537092 C75.1942923,142.754444 75.7696689,142.902176 76.3566766,142.976855 C76.7617211,143.011573 77.1725519,142.976855 77.5737389,143.046291 C77.8784866,143.098368 78.1735905,143.208309 78.4821958,143.239169 C78.9906933,143.253098 79.4904782,143.105189 79.9094955,142.816766 C80.0727968,142.72548 80.2142952,142.599777 80.324184,142.448368 C80.6135015,141.998961 80.3646884,141.406825 80.0811573,140.953561 C79.558457,140.116469 78.9045994,139.331454 78.0405045,138.853116 C77.6894659,138.660237 77.3114243,138.517507 76.9507418,138.341988 C75.9246291,137.844362 75.1473294,137.013056 74.1771513,136.444065 C73.2609792,135.911721 72.6707715,137.298516 73.102819,138.00638 Z" id="Path" fill="#3F3D56" fill-rule="nonzero"></path>
                    <path d="M44.8210682,56.9376855 C43.7573306,57.6685207 42.5385269,58.1425732 41.2605341,58.3225519 C40.5920393,58.4057831 39.9185168,58.4418761 39.2449555,58.4305638 C36.43633,58.4271893 33.6327313,58.1930185 30.8624629,57.7304154 C31.965727,56.5152819 33.0805638,55.222997 33.497181,53.629822 C33.7036262,52.7894479 33.7461926,51.9171644 33.6225519,51.0606825 C33.4554869,49.9618887 33.1934772,48.879647 32.8394659,47.8261128 C34.0210655,47.889476 35.2058275,47.8591636 36.3826409,47.7354599 C37.0538576,47.6679525 38.697181,47.0565282 39.275816,47.5194362 C39.8178042,47.9495549 39.4089021,49.471365 39.3992582,50.1734421 C39.3992582,50.1985163 39.3992582,50.2235905 39.3992582,50.2486647 C39.4296002,51.3144126 39.6592243,52.3650571 40.0762611,53.3462908 C40.9249258,55.2442136 42.739911,56.8026706 44.8210682,56.9376855 Z" id="Path" fill="#FBBEBE" fill-rule="nonzero"></path>
                    <path d="M39.4069733,50.1637982 C37.6967438,51.2810787 35.5870432,51.6045661 33.6206231,51.0510386 C33.4535581,49.9522448 33.1915484,48.8700031 32.8375371,47.8164688 C34.0191367,47.8798321 35.2038987,47.8495197 36.3807122,47.725816 C37.0519288,47.6583086 38.6952522,47.0468843 39.2738872,47.5097923 C39.8255193,47.939911 39.4166172,49.4617211 39.4069733,50.1637982 Z" id="Path" fill="#000000" fill-rule="nonzero" opacity="0.1"></path>
                    <circle id="Oval" fill="#FBBEBE" fill-rule="nonzero" cx="35.5416914" cy="43.9261128" r="7.05934718"></circle>
                    <path d="M65.4937685,79.647181 C65.5015796,80.8065441 64.8965601,81.8838455 63.9025223,82.4805638 C63.3567932,82.7670727 62.7719031,82.9717842 62.1666172,83.0881306 C58.9378338,83.8596439 55.6299703,84.4942136 52.3143917,84.3051929 C51.5968843,84.2646884 50.8678042,84.179822 50.2235905,83.8654303 C49.5793769,83.5510386 49.0296736,82.9627596 48.9332344,82.2529674 C48.9289142,82.0773427 48.894332,81.9037794 48.8310089,81.739911 C48.7032264,81.5590228 48.5356166,81.4098897 48.3410979,81.3040059 C47.7326448,80.8366504 47.4437103,80.0634137 47.5965875,79.3115727 C47.1934718,79.4909496 46.772997,79.085905 46.5839763,78.6866469 C46.3949555,78.2873887 46.2464392,77.8051929 45.8413947,77.6373887 C45.5655786,77.5197329 45.2473294,77.5891691 44.9560831,77.5139466 C44.4912463,77.394362 44.2077151,76.9353116 43.879822,76.5919881 C43.2105341,75.8764095 42.2615727,75.5060831 41.385905,75.0663205 C38.7878338,73.7566766 36.6700297,71.6813056 34.5965875,69.6406528 C33.5531157,68.6126113 32.5019288,67.5768546 31.6744807,66.3617211 C31.4410979,66.0203264 31.2308605,65.6692878 31.0321958,65.3086053 C30.404894,64.1058652 29.8609818,62.8614405 29.4043027,61.5841246 C29.1419881,60.9013353 28.875816,60.1799703 28.9838279,59.4624629 C28.9934718,59.3968843 29.0069733,59.3313056 29.0224036,59.2695846 C29.1568103,58.8033835 29.3736916,58.3650481 29.6627596,57.9753709 C30.3802671,56.9203264 31.3215134,55.9212166 32.5559347,55.597181 C33.7903561,55.2731454 35.0228487,55.6646884 36.2765579,55.9308605 C36.6928576,56.0234978 37.1149341,56.087937 37.539911,56.1237389 C38.8688427,56.2182493 40.184273,55.8614243 41.4688427,55.5065282 L42.8691395,55.1207715 C43.5712166,54.9278932 43.9222552,54.0792285 44.6320475,53.9307122 C44.949144,53.8850833 45.2720836,53.9014595 45.5829377,53.9789318 C47.0237389,54.252819 48.4761128,54.6057864 49.7433234,55.338724 C50.0254467,55.5024956 50.2955198,55.6861968 50.5514837,55.8884273 C51.4541543,56.6020772 52.1678042,57.5529674 52.4301187,58.6639466 C52.7194362,59.8848665 52.4474777,61.188724 52.7406528,62.4096439 C52.979822,63.4183976 53.5854599,64.2979228 54.1795252,65.1485163 L57.6262611,70.0707715 C58.3955751,71.2291267 59.2429912,72.3336676 60.1626113,73.3767062 C62.0103858,75.3884273 65.4474777,76.9102374 65.4937685,79.647181 Z" id="Path" fill="#F98B55" fill-rule="nonzero"></path>
                    <path d="M56.2896142,32.4633531 C56.4323442,31.7902077 56.5384273,31.084273 56.9106825,30.5037092 C57.1651682,30.1386909 57.4726532,29.813654 57.822997,29.5393175 C58.4151335,29.0397626 59.0439169,28.5594955 59.7787834,28.3164688 C60.5136499,28.0734421 61.3777448,28.1062315 61.9949555,28.572997 C62.6121662,29.0397626 62.8725519,29.8440653 62.9689911,30.6117211 C63.1001484,31.6667656 62.9689911,32.7777448 62.4462908,33.6977745 C61.848368,34.7412463 60.8106825,35.4336795 59.9388724,36.2707715 C59.3078883,36.8756175 58.7586757,37.56035 58.3051929,38.3075668 C58.0991422,38.6972765 57.8493613,39.0622413 57.5606825,39.3954006 C57.2638173,39.731519 56.8250936,39.9068653 56.3783383,39.8679525 C56.0080119,39.8081602 55.7032641,39.5497033 55.4139466,39.302819 C55.0571217,38.9903561 54.0946588,38.4329377 54.0637982,37.9372404 C54.0406528,37.5360534 54.7909496,36.6256677 54.974184,36.2495549 C55.5440218,35.0370277 55.9849176,33.7679976 56.2896142,32.4633531 Z" id="Path" fill="#FBBEBE" fill-rule="nonzero"></path>
                    <path d="M81.0995549,114.236053 C80.2123145,115.873591 79.2402077,117.468694 78.4494065,119.154451 C77.9884273,120.140059 77.5891691,121.154599 77.0761128,122.113205 C76.5167656,123.158605 75.8281899,124.130712 75.2437685,125.16454 C73.7721068,127.770326 72.9523739,130.709792 72.194362,133.604896 C70.0740493,133.287337 68.0340388,132.567179 66.184273,131.483234 C66.0589021,131.409941 65.9393175,131.332789 65.8235905,131.249852 C65.3289589,130.895398 64.9154018,130.439762 64.6103858,129.913205 C65.3105341,127.264985 66.0299703,124.572404 67.4553412,122.232789 C67.920178,121.461276 68.4525223,120.75727 68.9308605,120.005045 C70.3176558,117.825519 70.6031157,115.075074 72.1866469,113.034421 C72.497266,112.612201 72.497266,112.037057 72.1866469,111.614837 C72.0034125,111.377596 71.7121662,111.151929 71.7661721,110.858754 C71.8066766,110.644659 72.0304154,110.45178 71.9436202,110.251187 C71.9031157,110.154748 71.8047478,110.102671 71.7275964,110.033234 C71.4575668,109.784421 71.4922849,109.360089 71.4691395,108.995549 C71.4093472,108.071662 70.8557864,107.259644 70.3118694,106.50549 C70.2033705,106.326701 70.0596595,106.171835 69.8894659,106.050297 C69.7467359,105.963501 69.577003,105.924926 69.434273,105.836202 C68.9289318,105.519881 68.9655786,104.783086 68.7225519,104.23724 C68.4062315,103.517804 67.6096439,103.151335 67.0869436,102.566914 C66.4215134,101.824332 66.2517804,100.788576 65.5439169,100.138576 C65.4725287,100.068425 65.3957886,100.003938 65.3143917,99.9456973 C65.6654303,101.03546 65.7001484,102.198516 65.7252226,103.346142 C65.79273,107.278932 64.8090504,111.350593 65.2700297,115.258309 C65.6326409,118.357864 63.727003,121.451632 61.0170623,123.000445 C59.9755193,123.59451 58.8375371,123.99184 57.70727,124.394955 C56.0118694,124.994807 54.3222552,125.613947 52.6596439,126.308309 C51.4843719,126.794362 50.3271019,127.318348 49.1878338,127.880267 C47.7794784,128.56382 46.4087239,129.322275 45.081454,130.152374 C43.4497033,131.190059 41.8179525,132.245104 40.6587537,133.793917 C39.5381306,133.763056 38.5120178,133.089911 37.8022255,132.221958 C37.0924332,131.354006 36.6449555,130.293175 36.2379822,129.259347 C35.8772997,128.362463 35.5224036,127.436647 35.4954006,126.470326 C35.5052567,126.258437 35.635735,126.070969 35.8310089,125.988131 L43.5789318,121.881751 L45.0274481,121.110237 C48.2002967,119.426409 51.4869436,117.869881 54.6597923,116.187982 C54.8738872,116.251632 55.045549,116.008605 55.1091988,115.802226 C55.1728487,115.595846 55.2172107,115.329674 55.4178042,115.237092 C55.5181009,115.188872 55.6492582,115.190801 55.7244807,115.105935 C55.7734974,115.030009 55.792731,114.93865 55.7784866,114.849407 C55.6762611,113.30638 54.5691395,111.904154 54.7909496,110.382344 C54.8854599,109.734273 55.2191395,109.095846 55.0744807,108.453561 C54.9722552,108.011869 54.6559347,107.655045 54.484273,107.236499 C54.0985163,106.301039 54.484273,105.174629 54.0676558,104.258457 C53.7908099,103.656043 53.6024163,103.016804 53.5083086,102.360534 C53.3087817,101.053508 52.9093516,99.784959 52.3240356,98.5994065 C52.0423366,97.9999551 51.6752693,97.4444815 51.234273,96.9502967 C51.0008902,96.6995549 50.7385757,96.475816 50.5167656,96.2154303 C49.8436202,95.4169139 49.5948071,94.3522255 49.4038576,93.3222552 C49.0566766,91.4571217 48.8252226,89.5225519 49.2495549,87.6747774 C49.3961424,87.0440653 49.6198813,86.4191395 49.6102374,85.772997 C49.6005935,84.918546 49.2244807,83.921365 49.818546,83.3041543 C50.0646022,83.0832772 50.3636008,82.9297912 50.6864985,82.8586053 C52.0520772,82.451632 53.4735905,82.2664688 54.8873887,82.087092 L61.358457,81.2403561 C62.0991098,81.1419881 62.8571217,81.0474777 63.5109792,80.6790801 C64.3885757,80.1949555 64.9710682,79.2980712 65.3278932,78.3645401 C66.4639466,79.1939169 66.8882789,80.7388724 67.7948071,81.8093472 C68.2364985,82.3320475 68.7823442,82.754451 69.2664688,83.2347181 C69.85841,83.858195 70.4007608,84.5269439 70.8885757,85.2348665 C72.238724,87.0884273 73.5888724,88.9554896 74.5532641,91.0347181 C75.0566766,92.1148368 75.4462908,93.2412463 75.8474777,94.3618694 C77.4271513,98.772997 80.0020772,102.960386 81.0706231,107.52003 C81.3329377,108.634866 82.0137982,109.641691 82.1198813,110.781602 C82.2394659,111.99095 81.6801187,113.159792 81.0995549,114.236053 Z" id="Path" fill="#3F3D56" fill-rule="nonzero"></path>
                    <path d="M47.2108309,77.6007418 C47.0522864,77.8938918 46.9700393,78.222217 46.9716617,78.5554896 C47.1163205,77.8418398 48.0980712,77.4464392 48.1617211,76.7405045 C48.1906528,76.4145401 48.1308605,76.4299703 47.9302671,76.601632 C47.6255193,76.8658754 47.4924332,77.3210682 47.2108309,77.6007418 Z" id="Path" fill="#000000" fill-rule="nonzero" opacity="0.1"></path>
                    <path d="M50.2023739,79.7686944 C49.9950812,79.9437528 49.8402183,80.1727097 49.7548961,80.4302671 C49.5879649,80.7929551 49.5558228,81.2032799 49.6642433,81.5875371 C49.8089021,81.5200297 49.8571217,81.3425816 49.9014837,81.1882789 C49.9725215,80.9479204 50.0756783,80.7182504 50.2081602,80.5054896 C50.3238872,80.3126113 50.8581602,79.8824926 50.8562315,79.6799703 C50.8504451,79.3694362 50.3451039,79.6587537 50.2023739,79.7686944 Z" id="Path" fill="#000000" fill-rule="nonzero" opacity="0.1"></path>
                    <path d="M50.5476261,55.8749258 C50.0939338,56.2653535 49.5938181,56.5983321 49.0586053,56.8663205 C47.6602374,57.574184 46.1114243,57.948368 44.7034125,58.6350148 C44.0087927,58.990972 43.3340113,59.3843799 42.6820475,59.8135015 L38.4965875,62.4655786 C38.1603319,62.6581827 37.8504352,62.8935226 37.5746291,63.165727 C37.0712166,63.7019288 37.0731454,64.6451039 36.6102374,65.2198813 C36.1473294,65.7946588 35.3488131,66.1186944 34.5792285,66.15727 C33.80833,66.1618378 33.0425946,66.0312776 32.3167656,65.7715134 C31.877182,65.6400131 31.4456809,65.4828694 31.0244807,65.3008902 C30.5839831,65.1139231 30.1670608,64.8756818 29.7823442,64.5910979 C29.035905,64.0278932 28.4321958,63.2081602 28.3203264,62.2765579 C28.2700375,61.6372828 28.3548113,60.9945793 28.5691395,60.3902077 C28.6850044,59.9970244 28.8340565,59.6143929 29.0146884,59.2464392 C29.1175684,59.0371431 29.2362088,58.8359701 29.3695846,58.6446588 C30.3339763,57.2829377 32.0255193,56.6445104 33.6630564,56.3301187 C34.5232938,56.1623145 35.3989614,56.060089 36.2688427,55.9135015 C36.6851424,56.0061388 37.107219,56.0705779 37.5321958,56.1063798 C38.8611276,56.2008902 40.1765579,55.8440653 41.4611276,55.4891691 L42.8614243,55.1034125 C43.5635015,54.9105341 43.9145401,54.0618694 44.6243323,53.9133531 C44.9414289,53.8677242 45.2643685,53.8841005 45.5752226,53.9615727 C47.0160237,54.2354599 48.4683976,54.5884273 49.7356083,55.321365 C50.0191762,55.4862201 50.290546,55.6712157 50.5476261,55.8749258 L50.5476261,55.8749258 Z" id="Path" fill="#000000" fill-rule="nonzero" opacity="0.1"></path>
                    <path d="M53.9615727,37.138724 C53.7821958,38.8456973 52.3413947,40.0994065 51.4541543,41.5749258 C51.0278932,42.2905045 50.7289318,43.0755193 50.3451039,43.8161721 C49.9052505,44.6237027 49.4156836,45.4031448 48.8792285,46.15 L47.3111276,48.4259644 C46.3891691,49.7645401 45.4575668,51.1146884 44.2790801,52.2353116 C42.2249258,52.5844214 40.5025223,54.110089 38.554451,54.8507418 C36.9959941,55.4428783 35.2967359,55.5238872 33.6611276,55.8421365 C32.0255193,56.1603858 30.3301187,56.8065282 29.3695846,58.1566766 C29.0119111,58.6891832 28.7410797,59.2751164 28.5672107,59.8925816 C28.3516352,60.4959674 28.2674617,61.1384479 28.3203264,61.777003 C28.4379822,62.7066766 29.0339763,63.5244807 29.7804154,64.091543 C30.5268546,64.6586053 31.4198813,64.9942136 32.3148368,65.2719585 C33.0409069,65.5308018 33.806479,65.6613341 34.5772997,65.6577151 C35.3488131,65.6191395 36.1318991,65.3221068 36.6102374,64.7203264 C37.0885757,64.118546 37.0654303,63.2023739 37.5746291,62.6661721 C37.8511308,62.3939486 38.1616671,62.1586152 38.4985163,61.9660237 L42.6839763,59.3139466 C43.3354899,58.8875151 44.0096227,58.4966854 44.7034125,58.1431751 C46.1114243,57.4545994 47.6602374,57.0823442 49.0586053,56.3744807 C50.4569733,55.6666172 51.7589021,54.4977745 52.0385757,52.9547478 C52.8910979,48.2137982 56.1719585,44.2173591 58.9821958,40.3019288 C58.8896142,40.2826409 58.918546,40.0724036 58.8838279,39.9836795 C58.5250742,39.0540059 57.7265579,38.3538576 56.8277448,37.9121662 C55.9289318,37.4704748 54.9259644,37.3470326 53.9615727,37.138724 Z" id="Path" fill="#F98B55" fill-rule="nonzero"></path>
                    <path d="M39.1639466,37.1734421 C39.2161256,36.6592274 39.1147782,36.1410807 38.8727003,35.6844214 C38.4078635,34.912908 37.4338279,34.6409496 36.5581602,34.4596439 C35.7107814,34.2860534 34.859545,34.1368942 34.004451,34.0121662 C33.3023739,33.9099407 32.5829377,33.8192878 31.8924332,33.9774481 C30.9280415,34.1876855 30.1430267,34.8261128 29.25,35.2234421 C28.1949555,35.6940653 27.0261128,35.8175074 25.8997033,36.0778932 C24.7732938,36.3382789 23.6198813,36.7799703 22.9139466,37.6942136 C22.3777448,38.3885757 22.1636499,39.275816 22.0035608,40.139911 C20.6669139,47.351632 22.1057864,54.7485163 22.3796736,62.0778932 C22.4857567,64.9305638 22.3565282,67.9799703 20.7267062,70.3234421 L25.4734421,70.1980712 C26.6885757,70.1672107 27.994362,70.1035608 28.9452522,69.3532641 C29.7862018,68.6936202 30.1835312,67.6308605 30.5442136,66.6240356 C30.8277448,65.8313056 31.1132047,65.0231454 31.1498516,64.1821958 C31.2250742,62.4597923 30.247181,60.7682493 30.5712166,59.0728487 C30.808457,57.8075668 31.7284866,56.7853116 32.714095,55.9540059 C33.6997033,55.1227003 34.7952522,54.4109792 35.5918398,53.3925816 C37.0152819,51.5930267 37.2872404,49.1338279 37.1097923,46.8482196 C37.0037092,45.4884273 36.7606825,44.128635 36.8783383,42.7688427 C36.9670623,41.7523739 37.2891691,40.7031157 37.9545994,39.9103858 C38.7029674,39.0115727 39.098368,38.448368 39.1639466,37.1734421 Z" id="Path" fill="#3F3D56" fill-rule="nonzero"></path>
                    <path d="M38.8727003,35.6844214 C38.4155786,34.9244807 37.4666172,34.6505935 36.5967359,34.4692878 C37.0591625,34.6338347 37.4548562,34.9455112 37.7231454,35.3565282 C37.9661095,35.8128733 38.06751,36.3312914 38.0143917,36.845549 C37.9488131,38.118546 37.5534125,38.6817507 36.7973294,39.5824926 C36.1318991,40.3752226 35.8097923,41.4225519 35.7210682,42.4409496 C35.6034125,43.8007418 35.8464392,45.1605341 35.9525223,46.5203264 C36.1299703,48.8059347 35.8580119,51.2651335 34.4364985,53.0646884 C33.6379822,54.0753709 32.5424332,54.8005935 31.5587537,55.6261128 C30.5750742,56.451632 29.6511869,57.4796736 29.4139466,58.7449555 C29.0956973,60.4403561 30.0735905,62.1318991 29.9925816,63.8543027 C29.9559347,64.6952522 29.668546,65.5034125 29.3850148,66.2961424 C29.0262611,67.3029674 28.627003,68.3637982 27.7860534,69.0234421 C26.8216617,69.7737389 25.5235905,69.8393175 24.3142433,69.870178 L20.9523739,69.9589021 C20.8771513,70.0823442 20.8,70.2057864 20.7170623,70.3234421 L25.4637982,70.1980712 C26.6789318,70.1672107 27.9847181,70.1035608 28.9356083,69.3532641 C29.7765579,68.6936202 30.1738872,67.6308605 30.5345697,66.6240356 C30.8181009,65.8313056 31.1035608,65.0231454 31.1402077,64.1821958 C31.2154303,62.4597923 30.2375371,60.7682493 30.5615727,59.0728487 C30.7988131,57.8075668 31.7188427,56.7853116 32.704451,55.9540059 C33.6900593,55.1227003 34.7856083,54.4109792 35.5821958,53.3925816 C37.005638,51.5930267 37.2775964,49.1338279 37.1001484,46.8482196 C36.9940653,45.4884273 36.7510386,44.128635 36.8686944,42.7688427 C36.9574184,41.7523739 37.2795252,40.7031157 37.9449555,39.9103858 C38.7010386,39.0115727 39.1022255,38.448368 39.1620178,37.1734421 C39.2147871,36.6594197 39.1141131,36.1412841 38.8727003,35.6844214 Z" id="Path" fill="#000000" fill-rule="nonzero" opacity="0.1"></path>
                    <path d="M74.535905,110.013947 L65.8235905,131.259496 C65.3289589,130.905042 64.9154018,130.449406 64.6103858,129.922849 C65.3105341,127.274629 66.0299703,124.582047 67.4553412,122.242433 C67.920178,121.47092 68.4525223,120.766914 68.9308605,120.014688 C70.3176558,117.835163 70.6031157,115.084718 72.1866469,113.044065 C72.497266,112.621845 72.497266,112.046701 72.1866469,111.624481 C72.0034125,111.38724 71.7121662,111.161573 71.7661721,110.868398 C71.8066766,110.654303 72.0304154,110.461424 71.9436202,110.260831 C71.9031157,110.164392 71.8047478,110.112315 71.7275964,110.042878 C71.4575668,109.794065 71.4922849,109.369733 71.4691395,109.005193 C71.4093472,108.081306 70.8557864,107.269288 70.3118694,106.515134 C70.2033705,106.336345 70.0596595,106.181478 69.8894659,106.059941 C69.7467359,105.973145 69.577003,105.93457 69.434273,105.845846 C68.9289318,105.529525 68.9655786,104.79273 68.7225519,104.246884 C68.4062315,103.527448 67.6096439,103.160979 67.0869436,102.576558 C66.4215134,101.833976 66.2517804,100.79822 65.5439169,100.14822 L65.4841246,99.9977745 L66.1630564,95.8991098 L74.535905,110.013947 Z" id="Path" fill="#000000" fill-rule="nonzero" opacity="0.1"></path>
                </g>
            </g>
        </g>
    </g>
</svg>