<?xml version="1.0" encoding="UTF-8"?>
<svg width="278px" height="163px" viewBox="0 0 278 163" version="1.1" xmlns="http://www.w3.org/2000/svg" xmlns:xlink="http://www.w3.org/1999/xlink">
    <!-- Generator: Sketch 54.1 (76490) - https://sketchapp.com -->
    <title>undraw_accept_request_vdsd 2</title>
    <desc>Created with Sketch.</desc>
    <defs>
        <linearGradient x1="50.0000256%" y1="100.000014%" x2="50.0000256%" y2="5.31044307e-06%" id="linearGradient-1">
            <stop stop-color="#808080" stop-opacity="0.25" offset="0%"></stop>
            <stop stop-color="#808080" stop-opacity="0.12" offset="53.514%"></stop>
            <stop stop-color="#808080" stop-opacity="0.1" offset="100%"></stop>
        </linearGradient>
    </defs>
    <g id="Website" stroke="none" stroke-width="1" fill="none" fill-rule="evenodd">
        <g id="how-it-works---v2" transform="translate(-581.000000, -583.000000)">
            <g id="Group-16" transform="translate(581.000000, 404.000000)">
                <g id="Group-7">
                    <g id="undraw_accept_request_vdsd-2" transform="translate(0.000000, 179.000000)">
                        <g id="undraw_accept_request_vdsd">
                            <ellipse id="Oval" stroke="#3F3D56" cx="165.52439" cy="21.4078341" rx="7.13143631" ry="7.1359447"></ellipse>
                            <path d="M179.899053,7.99930288 L178.192565,6.28199552 C178.023636,6.10910087 177.792726,6.010909 177.551144,6.00923826 C177.309562,6.00756752 177.077319,6.1025563 176.90602,6.27309798 L166.193762,16.9075868 L161.664052,12.3371657 C161.495844,12.166324 161.266717,12.0693964 161.027104,12.0677171 C160.787491,12.0660378 160.557031,12.1597446 160.38645,12.328212 L158.662131,14.0365656 C158.306744,14.3907429 158.302753,14.9654286 158.653187,15.324518 L165.532645,22.2650936 C165.886437,22.6208667 166.460493,22.6248606 166.81919,22.2740445 L179.890118,9.2872553 C180.062817,9.11814054 180.160902,8.88698417 180.16258,8.64514244 C180.164258,8.40330072 180.06939,8.17080275 179.899053,7.99930288 Z" id="Path" fill="#FABEBA" fill-rule="nonzero"></path>
                            <rect id="Rectangle" fill="#F2F2F2" fill-rule="nonzero" x="4.54747351e-13" y="18.0276498" width="126.864499" height="15.0230415" rx="7.51152074"></rect>
                            <rect id="Rectangle" fill="#F2F2F2" fill-rule="nonzero" x="4.54747351e-13" y="42.8156682" width="126.864499" height="15.0230415" rx="7.51152074"></rect>
                            <rect id="Rectangle" fill="#F2F2F2" fill-rule="nonzero" x="0.750677507" y="68.3548387" width="126.864499" height="15.0230415" rx="7.51152074"></rect>
                            <rect id="Rectangle" fill="#F2F2F2" fill-rule="nonzero" x="0.750677507" y="93.8940092" width="126.864499" height="15.0230415" rx="7.51152074"></rect>
                            <rect id="Rectangle" stroke="#3F3D56" x="4.50406504" y="14.2718894" width="126.864499" height="15.0230415" rx="7.51152074"></rect>
                            <rect id="Rectangle" stroke="#3F3D56" x="4.50406504" y="39.0599078" width="126.864499" height="15.0230415" rx="7.51152074"></rect>
                            <rect id="Rectangle" stroke="#3F3D56" x="5.25474255" y="65.3502304" width="126.864499" height="15.0230415" rx="7.51152074"></rect>
                            <rect id="Rectangle" stroke="#3F3D56" x="5.25474255" y="90.1382488" width="126.864499" height="15.0230415" rx="7.51152074"></rect>
                            <ellipse id="Oval" stroke="#3F3D56" cx="165.52439" cy="46.9470046" rx="7.13143631" ry="7.1359447"></ellipse>
                            <ellipse id="Oval" stroke="#3F3D56" cx="165.52439" cy="72.4861751" rx="7.13143631" ry="7.1359447"></ellipse>
                            <ellipse id="Oval" stroke="#3F3D56" cx="165.52439" cy="98.0253456" rx="7.13143631" ry="7.1359447"></ellipse>
                            <path d="M179.899053,34.2896244 L178.192565,32.5723169 C178.023635,32.399423 177.792726,32.3012316 177.551144,32.2995608 C177.309562,32.2978901 177.07732,32.3928784 176.90602,32.5634194 L166.193762,43.197909 L161.664052,38.6274876 C161.495844,38.4566459 161.266717,38.3597182 161.027104,38.3580389 C160.787491,38.3563597 160.557031,38.4500665 160.38645,38.6185339 L158.662131,40.3268876 C158.306744,40.6810649 158.302753,41.2557506 158.653187,41.6148401 L165.532645,48.5554161 C165.886437,48.9111893 166.460493,48.9151832 166.81919,48.564367 L179.890118,35.5775769 C180.062817,35.4084622 180.160902,35.1773058 180.16258,34.935464 C180.164258,34.6936223 180.06939,34.4611243 179.899053,34.2896244 Z" id="Path" fill="#FABEBA" fill-rule="nonzero"></path>
                            <path d="M179.89906,85.3679671 L178.192572,83.6506582 C178.023642,83.4777641 177.792732,83.3795726 177.55115,83.3779019 C177.309569,83.3762311 177.077326,83.4712195 176.906026,83.6417606 L166.193765,94.2762591 L161.664053,89.7058339 C161.495845,89.534992 161.266718,89.4380643 161.027105,89.436385 C160.787492,89.4347057 160.557032,89.5284126 160.386451,89.6968801 L158.662131,91.4052353 C158.306744,91.7594129 158.302753,92.3340991 158.653187,92.6931889 L165.532647,99.6337566 C165.886439,99.9895293 166.460495,99.9935245 166.819193,99.6427104 L179.890125,86.6559066 C180.06282,86.4867923 180.160902,86.2556387 180.16258,86.0138002 C180.164258,85.7719617 180.069392,85.5394666 179.89906,85.3679671 Z" id="Path" fill="#FABEBA" fill-rule="nonzero"></path>
                            <ellipse id="Oval" fill="#F2F2F2" fill-rule="nonzero" cx="227.079946" cy="156.239631" rx="43.1639566" ry="6.76036866"></ellipse>
                            <ellipse id="Oval" stroke="#3F3D56" cx="233.836043" cy="153.235023" rx="43.1639566" ry="6.76036866"></ellipse>
                            <path d="M254.785614,30.7625985 C254.660401,30.6207115 254.531607,30.4826735 254.399231,30.3484846 C255.415442,29.2018369 256.467238,28.0259913 256.45788,26.5523309 C256.446495,24.7614463 254.848943,23.3874392 254.252236,21.6944747 C253.440131,19.3903884 254.567071,16.9220509 255.030586,14.5272879 C255.760722,10.5879026 254.686182,6.52991322 252.099803,3.45921222 C251.630399,2.90756709 251.085417,2.3740125 250.386972,2.1550557 C249.324189,1.82186057 248.193845,2.2847834 247.08658,2.42077181 C243.431484,2.86968925 240.106064,-0.262616542 236.433471,0.0177993565 C236.190078,0.0265928491 235.950403,0.0799546457 235.726471,0.175207454 C235.251231,0.401242548 234.993587,0.899999254 234.699821,1.32993577 C233.559196,2.99933855 231.643388,3.82904762 229.737442,4.68652667 C229.497954,4.75652087 229.269881,4.86053311 229.060278,4.99534536 C228.487861,5.26040908 227.924323,5.53674824 227.392522,5.84980046 C223.793997,7.96814588 224.315979,10.9320061 226.437734,12.7627538 C226.023143,14.8179237 223.910642,16.6276912 224.274586,18.7406439 C224.559901,20.3970773 226.294235,21.524408 226.628315,23.1720663 C226.822354,24.1290307 226.51673,25.0409578 226.092401,25.9461509 C222.065567,26.8729794 217.516554,28.5798568 217.161534,31.59205 C216.543901,36.8324225 214.684905,51.3053465 214.684905,51.3053465 C214.684905,51.3053465 212.531315,62.9014021 220.714958,57.419617 L220.609895,57.7282033 C219.135019,62.1685372 218.128392,66.7493673 217.606251,71.3967942 C217.523269,72.0880509 217.356704,72.6328529 217.053853,72.8107455 C216.944058,72.8752426 217.161244,72.9774579 217.633933,73.1053012 C217.580444,73.3003492 217.522874,73.4942771 217.471651,73.6899327 C216.572395,77.0790476 215.997693,80.545208 215.755233,84.0420421 C215.524828,87.1394786 215.095388,90.2190794 214.469547,93.2619712 C212.531315,102.960492 214.469547,115.399898 214.469547,115.399898 L218.6992,135.205968 L219.422804,138.592017 C219.900735,139.117701 220.484943,139.537027 221.137158,139.822527 C221.42029,141.035936 221.616723,142.267753 221.724983,143.508746 C221.736458,143.646876 221.745701,143.786821 221.754665,143.926922 C221.241887,143.991804 220.783319,144.276567 220.499591,144.706302 C218.992076,146.814671 220.714958,148.501367 214.900255,152.718122 C213.398036,153.807519 212.673477,154.798007 212.489703,155.63949 L212.489703,155.63949 L212.489703,155.639515 C212.291906,156.545265 212.721559,157.277841 213.488473,157.773924 L213.490064,157.774929 C213.62066,157.85893 213.756541,157.934511 213.896868,158.001208 L213.903467,158.004288 C213.974524,158.038074 214.047379,158.070237 214.122032,158.100777 L214.123045,158.101189 C214.197914,158.131686 214.274489,158.16048 214.35277,158.187573 L214.366334,158.192128 C214.439879,158.217363 214.51476,158.241076 214.590974,158.263267 L214.607353,158.268144 C214.686507,158.290908 214.766946,158.312001 214.848671,158.331424 C214.855611,158.333084 214.862657,158.334562 214.869622,158.336183 C214.944641,158.353696 215.020621,158.369765 215.097562,158.38439 C215.107525,158.386294 215.117384,158.388341 215.127373,158.390181 C215.209631,158.405414 215.292814,158.419017 215.376922,158.430987 C215.38603,158.432272 215.395244,158.433328 215.40438,158.434588 C215.479686,158.444909 215.55563,158.45384 215.632212,158.461381 C215.646764,158.462823 215.661209,158.464419 215.675812,158.465768 C215.759741,158.47353 215.844265,158.479711 215.929385,158.484313 C215.940266,158.484873 215.951228,158.485136 215.962126,158.485665 C216.03747,158.489241 216.113191,158.491476 216.189289,158.492368 C216.207141,158.4926 216.224925,158.492928 216.242813,158.493012 C216.327819,158.493384 216.413099,158.492407 216.498736,158.489487 C216.50996,158.489114 216.521227,158.488367 216.532466,158.48793 C216.608164,158.484957 216.684021,158.480624 216.760037,158.474933 C216.780171,158.473451 216.800269,158.472037 216.820421,158.470363 C216.905768,158.463285 216.99118,158.454896 217.076609,158.444461 C217.086769,158.443223 217.096918,158.441616 217.107078,158.440328 C217.183576,158.430601 217.260015,158.41944 217.336395,158.406846 C217.357664,158.403371 217.378919,158.399922 217.400172,158.396229 C217.485085,158.381495 217.56987,158.36551 217.654336,158.347316 C217.662472,158.345552 217.670554,158.343494 217.67869,158.341716 C217.755916,158.324754 217.832797,158.306031 217.909443,158.286123 C217.93112,158.280501 217.952713,158.27485 217.974312,158.268982 C218.057925,158.246302 218.141256,158.222413 218.223884,158.196135 L218.237619,158.191515 C218.31621,158.166316 218.394119,158.13901 218.471606,158.110521 C218.492494,158.102838 218.513327,158.095044 218.534105,158.087138 C218.615629,158.056059 218.696703,158.023859 218.776687,157.989056 C222.65315,156.30236 230.621434,151.874771 230.621434,151.874771 L230.62133,151.834466 L230.621212,151.807494 L230.620986,151.768426 L230.62075,151.733359 L230.620252,151.671937 L230.619725,151.617015 C230.619503,151.595125 230.619278,151.5733 230.61899,151.548915 L230.618163,151.484275 C230.61778,151.454845 230.6174,151.425904 230.616927,151.393618 C230.616597,151.371753 230.616178,151.347698 230.615801,151.32459 C230.615238,151.290711 230.614737,151.258139 230.614078,151.22167 C230.613014,151.163361 230.6118,151.101978 230.610438,151.037519 L230.610438,151.037519 C230.570833,149.195087 230.388072,144.962831 229.544631,145.127973 C229.257292,145.184235 229.061967,145.585848 228.860434,146.048278 C228.827811,145.987126 228.794698,145.924662 228.760721,145.859574 C227.93986,144.285227 226.75264,141.583116 226.636877,138.942192 C227.299071,138.464928 227.912355,137.923912 228.467836,137.32699 C228.467836,137.32699 228.034962,135.513782 227.666708,133.601482 C227.347965,131.944304 227.076611,130.211228 227.175682,129.526005 C227.391049,128.050146 224.591373,116.664925 224.591373,116.664925 C224.591373,116.664925 224.879959,114.160177 225.459276,110.679248 C226.5856,103.913469 228.803797,93.4580523 232.113862,90.5021076 C232.191388,90.4346286 232.266772,90.3692775 232.344299,90.3102516 C232.344299,90.3102516 234.713247,90.7319254 236.651478,104.014682 L237.213563,109.930777 C237.374532,111.569243 237.653783,113.194071 238.049156,114.792688 C238.62724,117.341962 238.809536,119.964229 238.58971,122.568373 C238.344197,126.055618 238.238673,130.16063 238.193443,133.042773 C238.158993,135.214396 238.158993,136.69448 238.158993,136.69448 C238.559887,137.031254 238.992623,137.328635 239.451146,137.582459 L239.451146,139.517082 C239.446541,139.927627 239.284372,140.320905 238.99782,140.616449 L238.990275,140.624494 C238.68478,140.966335 238.462316,141.373399 238.340045,141.814289 C237.964099,142.487323 237.64595,143.580503 237.512923,145.338813 C237.082206,151.031424 236.866845,150.398899 236.866845,150.398899 C236.619558,151.014511 236.455354,151.659989 236.378517,152.318492 L236.378517,152.318492 L236.378517,152.318696 C236.366293,152.441771 236.358577,152.565748 236.35633,152.689954 C236.355975,152.70945 236.356065,152.728918 236.355987,152.748403 C236.355778,152.805321 236.35681,152.862045 236.359083,152.918576 C236.360239,152.946389 236.361741,152.974125 236.363588,153.001783 C236.366362,153.043799 236.369919,153.085587 236.37426,153.127148 C236.37823,153.165007 236.382874,153.202656 236.388193,153.240096 C236.392044,153.26681 236.395988,153.293435 236.400603,153.319894 C236.409383,153.370389 236.419605,153.420322 236.431269,153.469692 C236.4365,153.491762 236.442322,153.513548 236.448161,153.53536 C236.461925,153.586913 236.476803,153.637961 236.494103,153.687854 C236.499556,153.703534 236.505854,153.718763 236.511676,153.734269 C236.528712,153.779798 236.547386,153.824469 236.567699,153.86828 C236.573851,153.881535 236.579439,153.895087 236.585905,153.908174 C236.611012,153.959094 236.639207,154.008278 236.669189,154.056418 C236.677483,154.069737 236.685762,154.083018 236.694453,154.096119 C236.726289,154.144198 236.76073,154.19052 236.797624,154.234879 C236.806258,154.245239 236.815422,154.255249 236.824369,154.265429 C236.864904,154.312139 236.908244,154.356365 236.954152,154.397867 C236.958938,154.402165 236.964312,154.406066 236.969174,154.41031 C237.016477,154.45136 237.06619,154.489578 237.11805,154.524764 C237.126119,154.530272 237.133703,154.536113 237.141946,154.541505 C237.198949,154.578501 237.258106,154.612103 237.319107,154.642136 C237.331213,154.648159 237.343293,154.654176 237.355674,154.659986 C237.421521,154.690948 237.489053,154.718233 237.557956,154.741714 C237.56976,154.745729 237.582088,154.749332 237.594104,154.753193 C237.672751,154.778784 237.752713,154.800194 237.833648,154.817332 L237.842271,154.818864 C237.926118,154.836095 238.015252,154.849218 238.108031,154.859399 C238.120846,154.860813 238.133163,154.862616 238.146164,154.863879 C238.238082,154.872839 238.335022,154.877752 238.435882,154.879488 C238.454625,154.87981 238.473474,154.880048 238.492533,154.880107 C238.594783,154.88044 238.701143,154.877391 238.812692,154.870027 C238.830017,154.868882 238.848026,154.867118 238.865574,154.865791 C238.984163,154.856758 239.106526,154.844584 239.235827,154.826505 C243.758365,154.193994 245.911958,153.77232 245.696597,151.242277 C245.566797,149.717336 245.202286,147.503052 244.933154,145.984391 C244.796666,145.212655 244.545584,144.465386 244.188139,143.767087 C244.199389,143.648555 244.209756,143.526605 244.219239,143.401236 C244.296763,142.355476 244.292453,141.111544 243.973727,140.278721 L244.072967,138.432787 C245.194919,138.149451 246.208685,137.545075 246.988753,136.694485 C246.988753,136.694485 247.021061,135.326145 247.11582,133.512945 C247.25795,130.71092 247.542226,126.844156 248.065548,125.309267 C248.926984,122.779224 248.065548,113.924048 248.065548,113.924048 C248.065548,113.924048 244.83516,98.7437534 247.850181,92.207795 C250.510165,86.442377 250.4867,80.6750269 247.928535,75.0538095 C247.979064,75.0140857 248.025013,74.9689176 248.065542,74.9191315 C248.065542,74.9191315 247.419464,74.4974577 247.634823,69.6482086 C247.799183,65.9472535 246.709835,62.126239 246.18437,60.5228256 C247.007918,60.873628 247.851846,61.1750752 248.711623,61.4255492 C253.664881,62.9014077 254.095601,57.4196478 254.095601,57.4196478 L255.172429,49.1969689 L256.449558,36.9404617 L256.44944,36.9399858 C256.799646,35.9783622 257.268898,33.5766777 254.785614,30.7625985 Z M232.892428,22.6384753 C232.886395,22.7741613 232.877116,22.909755 232.863367,23.0446822 C232.823333,23.4808758 232.730637,23.9106886 232.58728,24.3248403 C232.734554,23.7652761 232.824062,23.1922319 232.854414,22.6146029 C232.866987,22.6227199 232.87983,22.6304394 232.892434,22.6384837 L232.892428,22.6384753 Z M245.911983,52.5703596 C245.988522,52.7095175 246.061093,52.8450747 246.131061,52.978252 L245.587154,52.70212 C245.788598,51.7079214 246.114789,50.7428207 246.55807,49.829474 C247.093238,48.7665857 247.533699,47.6590879 247.874398,46.5196956 C247.859096,47.8364068 247.922939,49.1528505 248.065585,50.4619848 C248.49629,53.835381 245.911983,52.5703596 245.911983,52.5703596 Z" id="Shape" fill="url(#linearGradient-1)" fill-rule="nonzero"></path>
                            <path d="M227.83927,6.73249353 C227.10393,7.20413789 226.335375,7.74932917 226.073678,8.54949515 C225.65161,9.84000404 226.710919,11.1357144 226.815688,12.4823076 C227.006204,14.9309478 224.062284,16.9545754 224.49631,19.3755905 C224.793802,21.0350135 226.602175,22.1643685 226.950517,23.8150064 C227.458545,26.2223151 224.684463,28.345231 224.902769,30.7909041 C225.019055,32.0936345 225.982242,33.1999693 227.075307,34.0074127 C228.609584,35.1367264 230.445707,35.8454204 232.381086,36.0552995 C232.25237,33.9611288 230.601055,32.0557934 230.884456,29.975131 C231.078787,28.5484092 232.145911,27.3817701 232.763302,26.0658169 C233.847292,23.755347 233.500501,21.0810598 232.850204,18.630799 C232.199907,16.1805382 231.26128,13.7583436 231.214041,11.233314 C231.185604,9.71346421 231.94374,7.47936677 231.387615,6.03717356 C230.711549,4.28393259 229.099117,5.92443632 227.83927,6.73249353 Z" id="Path" fill="#3F3D56" fill-rule="nonzero"></path>
                            <path d="M227.83927,6.73248763 C227.10393,7.20413487 226.335375,7.74932338 226.073678,8.54948944 C225.65161,9.83999847 226.710919,11.1357118 226.815688,12.4823052 C227.006204,14.9309456 224.062284,16.9545734 224.49631,19.3755888 C224.793802,21.0350119 226.602175,22.1643671 226.950517,23.8150023 C227.458545,26.2223113 224.684463,28.3452273 224.902769,30.7909007 C225.019055,32.0936313 225.982242,33.1999661 227.075307,34.0074125 C228.609584,35.1367252 230.445708,35.8454191 232.381086,36.0552995 C232.25237,33.9611285 230.601055,32.0557901 230.884456,29.9751304 C231.078787,28.5484084 232.145911,27.3817692 232.763302,26.0658158 C233.847292,23.7553457 233.500501,21.0810583 232.850204,18.6307972 C232.199907,16.1805361 231.261256,13.7583356 231.214017,11.2333001 C231.18558,9.71345013 231.943716,7.47935529 231.387591,6.0371591 C230.711549,4.28394057 229.099117,5.92444165 227.83927,6.73248763 Z" id="Path" fill="#000000" fill-rule="nonzero" opacity="0.1"></path>
                            <path d="M230.457995,147.027177 L228.527674,148.942912 C228.527674,148.942912 221.664342,152.561507 222.522259,147.665763 C222.756947,146.21038 222.806667,144.73152 222.670251,143.263848 C222.492981,141.215338 222.083601,139.193188 221.449864,137.235697 L227.884235,135.958525 C226.813989,139.296145 228.576999,143.497969 229.67727,145.637193 C230.121261,146.499279 230.457995,147.027177 230.457995,147.027177 Z" id="Path" fill="#BA8569" fill-rule="nonzero"></path>
                            <path d="M243.178956,143.81274 C243.13188,144.462331 243.052133,145.109107 242.940022,145.750582 C242.940022,145.750582 237.700289,149.335275 237.28111,145.328854 C237.008646,142.718354 237.624839,141.539618 238.090122,141.035664 L238.097464,141.027622 C238.377077,140.730205 238.534666,140.337478 238.538661,139.928114 L238.538661,135.207373 L243.149613,136.683411 L242.940025,140.689829 C243.25021,141.522757 243.254406,142.766848 243.178956,143.81274 Z" id="Path" fill="#BA8569" fill-rule="nonzero"></path>
                            <path d="M228.95664,147.130957 L227.14758,148.984625 C227.14758,148.984625 220.715393,152.485983 221.519417,147.748854 C221.739362,146.340624 221.785958,144.909676 221.658112,143.489555 C223.067163,143.277411 224.735509,144.865382 224.735509,144.865382 C227.091292,148.271993 227.726473,146.982667 228.224968,145.786026 C228.641059,146.620163 228.95664,147.130957 228.95664,147.130957 Z" id="Path" fill="#000000" fill-rule="nonzero" opacity="0.05"></path>
                            <path d="M225.140634,144.869067 C225.140634,144.869067 222.277441,142.18692 220.845844,144.250111 C219.414248,146.313301 221.050357,147.963851 215.528484,152.09023 C210.00661,156.216608 215.528484,158.898755 219.209733,157.248202 C222.890981,155.59765 230.457995,151.264953 230.457995,151.264953 C230.457995,151.264953 230.457995,144.456428 229.435426,144.662749 C228.412858,144.869069 228.61737,149.820721 225.140634,144.869067 Z" id="Path" fill="#3F3D56" fill-rule="nonzero"></path>
                            <path d="M243.97019,143.292188 C243.922794,143.897891 243.842505,144.500968 243.729631,145.099102 C243.729631,145.099102 238.454272,148.441599 238.032243,144.705867 C237.757926,142.271744 238.378309,141.172648 238.846756,140.702743 C239.220094,140.439989 239.718912,140.391536 240.142386,140.576891 C240.986444,140.226906 241.914913,140.810865 242.682995,141.565869 C243.203504,142.077178 243.637532,142.659273 243.97019,143.292188 L243.97019,143.292188 Z" id="Path" fill="#000000" fill-rule="nonzero" opacity="0.05"></path>
                            <path d="M239.523414,141.337904 C239.523414,141.337904 237.242755,140.056525 236.828089,145.822724 C236.413423,151.588923 236.206092,150.948236 236.206092,150.948236 C236.206092,150.948236 234.132767,156.073747 238.486751,155.433056 C242.840735,154.792365 244.91406,154.365242 244.706731,151.802488 C244.581764,150.257839 244.230838,148.014936 243.971736,146.476639 C243.724842,144.952943 243.045956,143.538499 242.020499,142.411283 C241.263984,141.591014 240.352745,140.958236 239.523414,141.337904 Z" id="Path" fill="#3F3D56" fill-rule="nonzero"></path>
                            <path d="M247.527345,114.267788 C247.527345,114.267788 248.348183,123.08567 247.527345,125.605064 C247.028686,127.133492 246.757806,130.983971 246.622374,133.774203 C246.532081,135.579777 246.501293,136.942348 246.501293,136.942348 C242.602306,141.14134 238.087687,136.942348 238.087687,136.942348 C238.087687,136.942348 238.087687,135.468499 238.120515,133.30602 C238.163613,130.436012 238.264164,126.348288 238.498108,122.875728 C238.707622,120.282934 238.533979,117.672642 237.983029,115.1328 C237.606181,113.540246 237.340113,111.922372 237.186824,110.291335 L236.651229,104.400151 C234.804332,91.1733292 232.547031,90.7534298 232.547031,90.7534298 C232.473158,90.8122082 232.401326,90.8772925 232.327453,90.944477 C229.173378,93.8879759 227.059717,104.299367 225.986475,111.036653 C225.434458,114.502924 225.159471,116.997125 225.159471,116.997125 C225.159471,116.997125 227.827201,128.3344 227.621992,129.804047 C227.527592,130.486378 227.786157,132.212165 228.089877,133.862363 C228.440777,135.766607 228.853258,137.572182 228.853258,137.572182 C223.723007,143.24082 220.23444,138.83188 220.23444,138.83188 L219.544938,135.46009 L215.51461,115.737427 C215.51461,115.737427 213.667713,103.350404 215.51461,93.6927229 C216.111074,90.661722 216.520251,87.5952776 216.73971,84.5116197 C216.970521,81.030906 217.518068,77.5797944 218.375238,74.2031011 C218.625587,73.2037355 218.903304,72.2120751 219.208389,71.2281198 C219.208389,71.2281198 226.914021,69.8571429 234.17024,69.8571429 C239.612413,69.8571429 244.800136,70.6276655 246.296101,73.3276141 C246.64085,73.9490594 246.954138,74.5719076 247.235966,75.1961587 C249.833917,80.9088909 249.911898,86.7769848 247.32215,92.6429786 C244.449195,99.1514209 247.527345,114.267788 247.527345,114.267788 Z" id="Path" fill="#3F3D56" fill-rule="nonzero"></path>
                            <path d="M229.056525,36.8064516 C229.056525,36.8064516 217.47405,25.8361161 226.21554,26.6487339 C228.197675,26.8336003 229.539498,26.5044916 230.428944,25.8869064 C231.442947,25.1839869 231.869097,24.107273 231.987102,22.9838222 C232.227501,20.7430362 231.241896,18.3194077 231.241896,18.3194077 C231.241896,18.3194077 243.04291,9.58376992 240.639,20.5541055 C240.375034,21.6689328 240.221418,22.8038853 240.180077,23.9447522 C240.140728,26.272891 240.964616,27.1647412 242.120688,27.5304179 C244.070035,28.1500489 246.967842,27.2825873 248.287802,29.2897406 C250.691712,32.9465182 229.056525,36.8064516 229.056525,36.8064516 Z" id="Path" fill="#FFB9B9" fill-rule="nonzero"></path>
                            <path d="M229.056525,36.8064516 C229.056525,36.8064516 217.47405,25.8361161 226.21554,26.6487339 C228.197675,26.8336003 229.539498,26.5044916 230.428944,25.8869064 C231.442947,25.1839869 231.869097,24.107273 231.987102,22.9838222 C232.227501,20.7430362 231.241896,18.3194077 231.241896,18.3194077 C231.241896,18.3194077 243.04291,9.58376992 240.639,20.5541055 C240.375034,21.6689328 240.221418,22.8038853 240.180077,23.9447522 C240.140728,26.272891 240.964616,27.1647412 242.120688,27.5304179 C244.070035,28.1500489 246.967842,27.2825873 248.287802,29.2897406 C250.691712,32.9465182 229.056525,36.8064516 229.056525,36.8064516 Z" id="Path" fill="#BA8569" fill-rule="nonzero" opacity="0.839029948"></path>
                            <path d="M246.9729,15.4010494 C246.97024,20.1712587 243.105987,24.0368664 238.340108,24.0368664 C233.57423,24.0368664 229.709977,20.1712587 229.707317,15.4010494 C229.707317,15.2402959 229.711336,15.079529 229.721372,14.9207883 C229.980997,10.2495425 233.908065,6.63369626 238.580478,6.76377042 C243.252891,6.89384459 246.973087,10.7225812 246.9729,15.4010494 L246.9729,15.4010494 Z" id="Path" fill="#BA8569" fill-rule="nonzero"></path>
                            <path d="M229.056525,38.3087558 C229.056525,38.3087558 217.47405,26.9890669 226.21554,27.8275628 C228.197675,28.0183163 229.539498,27.678727 230.428944,27.0414747 C228.737455,29.7330377 226.834003,34.5732567 235.394105,34.1162791 C243.228661,33.6991281 243.095354,30.7035972 242.120688,28.7373242 C244.070035,29.3766875 246.967842,28.4816014 248.287802,30.552673 C250.691712,34.3259017 229.056525,38.3087558 229.056525,38.3087558 Z" id="Path" fill="#000000" fill-rule="nonzero" opacity="0.05"></path>
                            <path d="M247.723577,75.7501148 C245.84821,78.1108882 221.942358,75.0157407 218.447154,73.9880146 C218.698571,73.0381088 218.977472,72.0955268 219.283858,71.1602686 C219.283858,71.1602686 227.022345,69.8571429 234.309503,69.8571429 C239.77488,69.8571429 244.984724,70.5895315 246.487067,73.1558565 C246.833286,73.7465458 247.14791,74.3385685 247.430939,74.9319247 C247.562824,75.6463342 247.723577,75.7501148 247.723577,75.7501148 Z" id="Path" fill="#000000" fill-rule="nonzero" opacity="0.1"></path>
                            <path d="M232.179208,26.2903226 C232.179208,26.2903226 217.991438,27.4372082 217.360869,32.8588498 C216.758068,38.0417466 214.943695,52.3559026 214.943695,52.3559026 C214.943695,52.3559026 212.841802,63.8247588 220.82899,58.40312 L220.726445,58.7083225 C219.286242,63.1033354 218.303933,67.6332304 217.794918,72.2269862 C217.713921,72.9106537 217.551354,73.4494716 217.255776,73.6254196 C216.204828,74.2509953 245.421126,78.4214882 247.523019,75.7106674 C247.523019,75.7106674 246.89245,75.2936178 247.10264,70.497552 C247.312831,65.7014861 245.421126,60.6968912 245.421126,60.6968912 C245.421126,60.6968912 243.739611,55.692302 246.051692,50.8962333 C248.363773,46.1001646 247.523019,44.6404953 247.523019,44.6404953 L255.510208,38.5932807 C255.510208,38.5932807 257.235135,35.6596761 254.081739,32.0385085 C252.169582,29.8751027 249.468732,28.5548768 246.574509,28.3688353 L241.065276,27.9800554 C241.065276,27.9800554 247.102652,34.4227878 235.752423,35.0483608 C224.402193,35.6739337 232.179208,26.2903226 232.179208,26.2903226 Z" id="Path" fill="#F98B55" fill-rule="nonzero"></path>
                            <path d="M222.887444,37.5576037 C222.887444,37.5576037 223.142545,40.8006727 222.632345,41.8141312 C222.122145,42.8275897 221.994592,47.4895039 222.632345,50.3271889" id="Path" fill="#000000" fill-rule="nonzero" opacity="0.05"></path>
                            <path d="M232.710027,90.709412 C229.468116,93.817001 227.295593,104.808792 226.192463,111.921659 C224.656925,102.0204 231.037398,85.6313364 231.037398,85.6313364 L232.710027,90.709412 Z" id="Path" fill="#000000" fill-rule="nonzero" opacity="0.1"></path>
                            <path d="M228.95664,137.503262 C223.578104,143.306932 219.920703,138.792967 219.920703,138.792967 L219.197832,135.340858 C221.230912,136.396259 224.666722,137.215221 228.15632,133.705069 C228.524202,135.654677 228.95664,137.503262 228.95664,137.503262 Z" id="Path" fill="#000000" fill-rule="nonzero" opacity="0.1"></path>
                            <path d="M247.723577,132.714058 C247.628276,134.685888 247.59578,136.173923 247.59578,136.173923 C243.480505,140.759554 238.715447,136.173923 238.715447,136.173923 C238.715447,136.173923 238.715447,134.564363 238.750095,132.202765 C240.536992,133.404198 243.749078,134.727156 247.723577,132.714058 Z" id="Path" fill="#000000" fill-rule="nonzero" opacity="0.1"></path>
                            <rect id="Rectangle" fill="#CDD0DB" fill-rule="nonzero" x="224.452575" y="44.3179724" width="14.2628726" height="6.00921659" rx="3.00460829"></rect>
                            <rect id="Rectangle" fill="#000000" fill-rule="nonzero" opacity="0.05" x="224.452575" y="44.3179724" width="14.2628726" height="6.00921659" rx="3.00460829"></rect>
                            <rect id="Rectangle" fill="#3F3D56" fill-rule="nonzero" x="224.452575" y="44.3179724" width="14.2628726" height="6.00921659" rx="3.00460829"></rect>
                            <ellipse id="Oval" fill="#9DA7C0" fill-rule="nonzero" cx="235.337398" cy="47.6981567" rx="1" ry="1"></ellipse>
                            <path d="M218.614023,53.2365299 C218.98206,52.0599197 219.81556,51.1177442 220.89149,50.6621143 C221.742564,50.323378 222.441647,49.6498965 222.846869,48.7783448 C223.641985,46.8901002 225.053151,44.9433335 228.681865,46.2411789 C232.310579,47.5390243 227.673889,48.4042517 227.673889,48.4042517 C227.673889,48.4042517 235.939293,47.1064063 232.71377,49.7020971 C229.488246,52.2977879 225.456342,53.8119366 225.456342,53.8119366 L223.471039,56.0674326 C222.895555,56.7339887 222.082065,57.1049592 221.235417,57.0869297 C220.388768,57.0689002 219.589638,56.6635886 219.039256,55.9730571 C218.448535,55.2096233 218.286102,54.1643082 218.614023,53.2365299 Z" id="Path" fill="#000000" fill-rule="nonzero" opacity="0.05"></path>
                            <path d="M218.614023,53.2365299 C218.98206,52.0599191 219.815559,51.1177432 220.89149,50.6621143 C221.742564,50.3233787 222.441646,49.6498968 222.846866,48.7783448 C223.641982,46.8901002 225.053151,44.9433335 228.681865,46.2411789 C232.310579,47.5390243 227.673887,48.4042517 227.673887,48.4042517 C227.673887,48.4042517 235.939293,47.1064092 232.71377,49.7020971 C229.488247,52.297785 225.456339,53.8119395 225.456339,53.8119395 L223.471036,56.0674326 C222.895552,56.7339887 222.082063,57.1049592 221.235414,57.0869297 C220.388766,57.0689002 219.589635,56.6635886 219.039253,55.9730571 C218.448534,55.2096222 218.286102,54.1643078 218.614023,53.2365299 Z" id="Path" fill="#BA8569" fill-rule="nonzero"></path>
                            <path d="M247.723577,58.1221924 L246.269603,61.59447 L244.408501,60.2484478 L239.207399,56.4881814 L235.676298,54.241414 C230.691212,50.564886 235.676298,49.9521323 235.676298,49.9521323 C233.806883,49.1351254 235.676298,48.3181186 235.676298,48.3181186 C242.323078,46.888358 241.076806,52.1988997 241.076806,52.1988997 L245.287132,54.3455837 L246.685027,55.0584209 L247.723577,58.1221924 Z" id="Path" fill="#000000" fill-rule="nonzero" opacity="0.05"></path>
                            <path d="M247.723577,57.371043 L246.269593,60.843318 L244.408494,59.4972957 L239.207397,55.7370294 L235.676295,53.490262 C230.691217,49.8137339 235.676295,49.2009802 235.676295,49.2009802 C233.806882,48.3839734 235.676295,47.5669665 235.676295,47.5669665 C242.32307,46.1372059 241.076799,51.4477476 241.076799,51.4477476 L245.287121,53.5944316 L246.685014,54.3072688 L247.723577,57.371043 Z" id="Path" fill="#BA8569" fill-rule="nonzero"></path>
                            <path d="M247.723577,57.6050469 L246.406599,60.843318 L244.720867,59.588007 C246.246685,59.6432546 248.049053,58.8965384 245.516706,54.0829493 L246.782878,54.7477469 L247.723577,57.6050469 Z" id="Path" fill="#000000" fill-rule="nonzero" opacity="0.05"></path>
                            <path d="M255.57675,36.0552995 L255.98103,37.7074214 L254.73897,49.9148038 L253.691747,58.1045117 C253.691747,58.1045117 253.272857,63.5643141 248.45563,62.0943672 C243.638402,60.6244203 243.219512,59.1544733 243.219512,59.1544733 C243.219512,59.1544733 250.131186,61.4643907 245.732848,53.2746829 C245.732848,53.2746829 248.246183,54.5346386 247.827296,51.1747595 C247.40841,47.8148805 247.827296,41.93509 247.827296,41.93509 L255.57675,36.0552995 Z" id="Path" fill="#F98B55" fill-rule="nonzero"></path>
                            <path d="M246.972892,15.5064398 C246.972859,19.5916815 244.17947,23.1328837 240.243877,24.0368664 C239.954542,23.1907342 239.749595,22.3486847 239.960559,21.4923824 C240.368451,19.8306394 242.263176,18.6183955 242.052221,16.9200438 C242.034498,16.7288427 241.96879,16.5454005 241.861337,16.3871352 C241.437387,15.8217034 240.573407,16.1023875 239.886231,16.2427322 C238.034437,16.553411 236.24013,15.4333753 235.68286,13.6189189 C234.109452,15.1857034 231.801051,15.7270765 229.707317,15.020321 C229.967153,10.2921 233.897421,6.63215123 238.57364,6.76381191 C243.24986,6.89547259 246.973087,10.7709083 246.9729,15.5064398 L246.972892,15.5064398 Z" id="Path" fill="#000000" fill-rule="nonzero" opacity="0.05"></path>
                            <path d="M235.452084,13.3373634 C236.031242,15.2063937 237.898636,16.3601349 239.825543,16.0394388 C240.541486,15.8962582 241.440445,15.6068804 241.881782,16.1895616 C241.994388,16.3514972 242.062789,16.5401104 242.080203,16.7366989 C242.301414,18.4875739 240.328955,19.735734 239.904114,21.4484807 C239.466628,23.2121877 240.749141,24.9156773 241.022153,26.7123188 C241.171497,27.6951572 241.013583,28.6963612 241.024841,29.6904574 C241.0361,30.6845537 241.258893,31.7525047 241.994443,32.4197991 C242.729994,33.0870935 244.089562,33.0938252 244.582339,32.2309222 C246.935747,33.4768572 245.99602,37.3387448 247.783056,39.3151745 C248.768686,40.4052735 250.390069,40.6674384 251.851519,40.5277821 C252.193955,40.5226272 252.527018,40.4149337 252.807859,40.2185573 C253.049994,39.9797033 253.213239,39.6722308 253.275601,39.3375666 C253.644471,37.9388005 253.580963,36.4608094 253.093474,35.0989802 C252.858776,34.448045 252.522642,33.7899151 252.609634,33.1033292 C252.716188,32.5708127 252.967187,32.0780276 253.335054,31.6791186 C254.458664,30.2835098 255.992108,28.934049 255.980969,27.1410302 C255.969912,25.361093 254.418437,23.9955004 253.838931,22.3128849 C253.05024,20.0229119 254.144691,17.5696727 254.594839,15.189553 C255.30588,11.2818608 254.264898,7.25864522 251.748565,4.18920059 C251.292695,3.64093253 250.763433,3.11064273 250.085132,2.8930152 C249.052993,2.56186116 247.95524,3.02195804 246.879901,3.15711906 C243.330203,3.60327837 240.100675,0.490144253 236.533986,0.768842297 C236.297376,0.777640449 236.064498,0.830705008 235.847364,0.925298301 C235.385828,1.14993811 235.135617,1.64564917 234.850329,2.07296596 C233.275911,4.43115644 230.180553,5.10314532 227.753751,6.56514484 C220.666516,10.83478 230.031898,18.5637942 235.452084,13.3373634 Z" id="Path" fill="#3F3D56" fill-rule="nonzero"></path>
                            <path d="M219.208828,156.519867 C216.818656,157.512758 213.653778,156.813129 213.237939,155.15418 C212.736888,157.34447 216.478403,158.418768 219.208828,157.284523 C222.890373,155.755194 230.457995,151.740701 230.457995,151.740701 C230.457995,151.740701 230.45797,151.443766 230.44756,150.981567 C230.227175,151.098395 222.835322,155.013406 219.208828,156.519867 Z" id="Path" fill="#FFFFFF" fill-rule="nonzero" opacity="0.3"></path>
                            <path d="M244.695984,150.981567 C244.456886,153.25492 242.387879,153.732777 238.486043,154.412082 C236.501756,154.757541 235.854098,153.685518 235.734942,152.416893 C235.605229,154.041745 235.983886,155.858511 238.486043,155.422884 C242.840524,154.664782 244.914082,154.159379 244.70673,151.126966 C244.7035,151.079785 244.699502,151.029838 244.695984,150.981567 Z" id="Path" fill="#FFFFFF" fill-rule="nonzero" opacity="0.3"></path>
                            <g id="Group" opacity="0.1" transform="translate(225.953930, 0.751152)" fill="#000000" fill-rule="nonzero">
                                <path d="M27.2701726,38.9202258 C25.8208223,39.0597551 24.2128709,38.797818 23.2353996,37.7086687 C21.4631642,35.7339448 22.3951093,31.8754204 20.0611843,30.6305734 C19.5724931,31.492724 18.2241691,31.4860038 17.4947291,30.8192778 C16.7652892,30.1525519 16.5443247,29.0855342 16.5331563,28.0923128 C16.5219879,27.0990913 16.678606,26.0987403 16.5304982,25.1167528 C16.259758,23.3216609 14.987871,21.6196596 15.4217175,19.8574875 C15.8430459,18.1462203 17.7991661,16.8991333 17.5797847,15.1497933 C17.5625197,14.9533775 17.4946875,14.7649292 17.383015,14.6031369 C16.94533,14.0209675 16.0538058,14.3100967 15.3437973,14.4531446 C13.4328467,14.7735572 11.5809194,13.6208165 11.0065594,11.7534108 C6.20170879,16.4211342 -1.72757866,10.746505 1.66306551,6.44264345 C-3.62782936,10.782977 5.05240703,17.569103 10.1768904,12.5908729 C10.7512504,14.4582786 12.6031777,15.6110193 14.5141283,15.2906067 C15.2241368,15.1475476 16.1156609,14.8584184 16.553346,15.440599 C16.6650177,15.602393 16.7328507,15.7908417 16.7501185,15.9872582 C16.9694971,17.7366038 15.0133796,18.9836852 14.5920512,20.6949496 C14.158188,22.4571273 15.4300861,24.1591258 15.700832,25.9542149 C15.8489397,26.9362024 15.6923383,27.9365422 15.7034928,28.9297749 C15.7146473,29.9230075 15.935609,30.9900252 16.6650656,31.6567371 C17.3945223,32.323449 18.7428324,32.3301861 19.2315236,31.4680355 C21.5654458,32.7128797 20.6335007,36.5714209 22.4057361,38.5461308 C23.3832074,39.6352801 24.9911588,39.8972172 26.4405091,39.7576851 C26.7801114,39.7525315 27.110419,39.6449319 27.3889388,39.4487288 C27.568973,39.2829965 27.701267,39.0712153 27.7718181,38.8358011 C27.6073668,38.8786785 27.4395097,38.9069281 27.2701726,38.9202258 Z" id="Path"></path>
                                <path d="M10.4097704,0.498787723 C10.481019,0.391269825 10.550104,0.279431587 10.6208443,0.168653107 C10.6036793,0.176063011 10.5857283,0.181328163 10.5688771,0.189584753 C10.1111634,0.41404063 9.86302099,0.909315448 9.58010138,1.33625542 C9.48278495,1.48310777 9.37976444,1.6236053 9.27103986,1.75774801 C9.70818932,1.39509424 10.0916557,0.971140625 10.4097704,0.498787723 L10.4097704,0.498787723 Z" id="Path"></path>
                            </g>
                            <path d="M223.734292,60.0921659 C223.734292,60.0921659 223.139574,62.0791434 227.046493,62.9622324 C230.953411,63.8453214 223.734292,60.0921659 223.734292,60.0921659 Z" id="Path" fill="#000000" fill-rule="nonzero" opacity="0.1"></path>
                            <path d="M221.896845,65.3502304 C221.896845,65.3502304 219.721586,66.7867379 224.968435,69.2817257 C230.215285,71.7767135 221.896845,65.3502304 221.896845,65.3502304 Z" id="Path" fill="#000000" fill-rule="nonzero" opacity="0.1"></path>
                            <path d="M218.447154,87.8847926 C218.447154,87.8847926 223.683244,86.2959285 224.398834,83.9126355 C225.114423,81.5293425 218.447154,87.8847926 218.447154,87.8847926 Z" id="Path" fill="#000000" fill-rule="nonzero" opacity="0.1"></path>
                            <path d="M218.447154,114.175115 C218.447154,114.175115 221.028875,115.029764 222.663074,114.915806 C224.297273,114.801848 218.447154,114.175115 218.447154,114.175115 Z" id="Path" fill="#000000" fill-rule="nonzero" opacity="0.1"></path>
                            <path d="M219.197832,117.179724 C219.197832,117.179724 220.117969,117.830668 221.80721,117.923663 C223.496451,118.016657 219.197832,117.179724 219.197832,117.179724 Z" id="Path" fill="#000000" fill-rule="nonzero" opacity="0.1"></path>
                            <path d="M255.193873,125.922109 C256.991291,126.576027 259.005378,126.022457 260.216916,124.541531 C261.428453,123.060605 261.573138,120.975394 260.577753,119.341108 C259.582368,117.706823 257.664062,116.87999 255.793584,117.279025 L255.906299,119.598603 L254.809687,117.610704 C253.733423,118.116789 252.901963,119.029789 252.498021,120.14907 C252.354567,120.541141 252.267358,120.951577 252.238994,121.368138 C252.096762,123.376284 253.302925,125.235187 255.193873,125.922109 L255.193873,125.922109 Z" id="Path" fill="#57B894" fill-rule="nonzero"></path>
                            <path d="M261.269825,150.981567 C260.911749,149.106777 262.463364,147.444715 263.996004,146.364382 C265.528644,145.284049 267.319445,144.222576 267.842384,142.389193 C268.593939,139.7543 266.355285,137.341233 264.612878,135.260306 C263.320177,133.716022 262.21005,132.019644 261.30573,130.20667 C260.912574,129.494544 260.644789,128.71664 260.514704,127.908778 C260.377321,126.740831 260.742259,125.578613 261.109922,124.464545 C262.334724,120.753258 263.64425,117.073064 265.038499,113.423963" id="Path" stroke="#3F3D56"></path>
                            <path d="M255.193871,125.170955 C256.991289,125.824876 259.005377,125.271307 260.216915,123.790381 C261.428453,122.309454 261.573138,120.224241 260.577753,118.589955 C259.582367,116.955668 257.66406,116.128837 255.793582,116.527874 L255.906297,118.84745 L254.809686,116.859553 C253.733422,117.365636 252.901962,118.278636 252.498021,119.397917 C252.354568,119.789987 252.267359,120.200424 252.238994,120.616985 C252.096761,122.62513 253.302924,124.484034 255.193871,125.170955 L255.193871,125.170955 Z" id="Path" stroke="#3F3D56"></path>
                            <path d="M260.004802,111.135198 C260.52766,109.691442 261.749756,108.613936 263.246806,108.276766 L263.617673,110.482438 L264.305256,108.165899 C266.264111,108.194974 267.979504,109.487955 268.548251,111.364066 C269.116999,113.240176 268.408631,115.269036 266.796114,116.382416 C265.183597,117.495797 263.036844,117.438289 261.486156,116.24017 C259.935467,115.042051 259.336572,112.978172 260.004799,111.135198 L260.004802,111.135198 Z" id="Path" fill="#57B894" fill-rule="nonzero"></path>
                            <path d="M260.004787,111.135207 C260.527647,109.691443 261.74975,108.613933 263.246809,108.276766 L263.617673,110.482438 L264.305256,108.165899 C266.264111,108.194974 267.979504,109.487955 268.548251,111.364066 C269.116999,113.240176 268.408631,115.269036 266.796114,116.382416 C265.183597,117.495797 263.036844,117.438289 261.486156,116.24017 C259.935467,115.042051 259.336572,112.978172 260.004799,111.135198 L260.004787,111.135207 Z" id="Path" stroke="#3F3D56"></path>
                            <path d="M263.453966,135.687697 C265.606133,136.46883 268.001524,135.509925 269.021282,133.459032 C270.041041,131.408139 269.360558,128.918094 267.43972,127.671722 L266.911459,129.451318 L266.536874,127.220374 C266.533171,127.218627 266.529338,127.217172 266.525409,127.216021 C264.18735,126.367388 261.604414,127.575881 260.756262,129.915267 C259.90811,132.254654 261.115918,134.839054 263.453978,135.687688 L263.453966,135.687697 Z" id="Path" fill="#57B894" fill-rule="nonzero"></path>
                            <path d="M263.453209,134.185358 C265.605646,134.966591 268.001337,134.007564 269.021223,131.956406 C270.041109,129.905249 269.360542,127.414883 267.439462,126.168351 L266.911138,127.948175 L266.536503,125.716944 C266.532801,125.715197 266.528969,125.713741 266.52504,125.712591 C265.012391,125.16355 263.321903,125.463665 262.090367,126.499885 C260.85883,127.536105 260.273345,129.151004 260.554458,130.736264 C260.835571,132.321525 261.940574,133.636308 263.453223,134.185349 L263.453209,134.185358 Z" id="Path" stroke="#3F3D56"></path>
                            <path d="M259.052951,141.99681 C259.421508,144.095597 261.20854,145.6492 263.336613,145.720921 C265.464686,145.792642 267.352108,144.362879 267.860916,142.293661 C268.369724,140.224443 267.360841,138.081376 265.44254,137.156554 C263.524239,136.231733 261.220873,136.777951 259.921186,138.465882 L261.928592,141.489657 L259.185722,139.884732 C258.973051,140.56795 258.927516,141.292304 259.052951,141.99681 L259.052951,141.99681 Z" id="Path" fill="#57B894" fill-rule="nonzero"></path>
                            <path d="M259.052952,141.245661 C259.42151,143.344448 261.208542,144.898049 263.336615,144.969769 C265.464688,145.041489 267.352108,143.611725 267.860916,141.542508 C268.369724,139.47329 267.36084,137.330224 265.44254,136.405402 C263.52424,135.480581 261.220875,136.026798 259.921186,137.714728 L261.928594,140.738505 L259.185723,139.133582 C258.973051,139.8168 258.927516,140.541156 259.052952,141.245661 Z" id="Path" stroke="#3F3D56"></path>
                            <path d="M255.230352,153.317392 C255.230352,153.317392 259.063439,151.975365 260.218629,151.240456 C261.37382,150.505547 266.114872,149.628027 266.401449,150.806657 C266.688026,151.985288 272.161848,156.668636 267.834329,156.699822 C263.50681,156.731008 257.779074,157.334159 256.626102,156.706705 C255.473129,156.079251 255.230352,153.317392 255.230352,153.317392 Z" id="Path" fill="#656380" fill-rule="nonzero"></path>
                            <path d="M267.91244,156.882613 C263.584608,156.920838 257.856487,157.659948 256.703434,156.891053 C255.825312,156.305498 255.475404,154.204399 255.358325,153.235023 C255.27724,153.238839 255.230352,153.240483 255.230352,153.240483 C255.230352,153.240483 255.473146,156.624923 256.626199,157.393818 C257.779252,158.162713 263.507381,157.423606 267.835208,157.385381 C269.084479,157.374357 269.516001,156.887779 269.492306,156.167126 C269.31876,156.602528 268.842298,156.874403 267.91244,156.882613 Z" id="Path" fill="#000000" fill-rule="nonzero" opacity="0.2"></path>
                        </g>
                    </g>
                </g>
            </g>
        </g>
    </g>
</svg>