<?xml version="1.0" encoding="UTF-8"?>
<svg width="246px" height="143px" viewBox="0 0 246 143" version="1.1" xmlns="http://www.w3.org/2000/svg" xmlns:xlink="http://www.w3.org/1999/xlink">
    <!-- Generator: Sketch 54.1 (76490) - https://sketchapp.com -->
    <title>Group 19</title>
    <desc>Created with Sketch.</desc>
    <defs>
        <linearGradient x1="50%" y1="100%" x2="50%" y2="0%" id="linearGradient-1">
            <stop stop-color="#808080" stop-opacity="0.25" offset="0%"></stop>
            <stop stop-color="#808080" stop-opacity="0.12" offset="54%"></stop>
            <stop stop-color="#808080" stop-opacity="0.1" offset="100%"></stop>
        </linearGradient>
        <linearGradient x1="49.9974704%" y1="99.9998003%" x2="49.9974704%" y2="-0.00102386172%" id="linearGradient-2">
            <stop stop-color="#808080" stop-opacity="0.25" offset="0%"></stop>
            <stop stop-color="#808080" stop-opacity="0.12" offset="54%"></stop>
            <stop stop-color="#808080" stop-opacity="0.1" offset="100%"></stop>
        </linearGradient>
    </defs>
    <g id="Website" stroke="none" stroke-width="1" fill="none" fill-rule="evenodd">
        <g id="how-it-works---v2" transform="translate(-175.000000, -420.000000)" fill-rule="nonzero">
            <g id="Group-17" transform="translate(175.000000, 420.000000)">
                <g id="Group-14">
                    <g id="Group-19">
                        <g id="undraw_profile_pic_ic5t">
                            <g id="Group" opacity="0.5" fill="url(#linearGradient-1)">
                                <ellipse id="Oval" cx="51.4326797" cy="51.885943" rx="51.4326797" ry="51.885943"></ellipse>
                            </g>
                            <ellipse id="Oval" fill="#F5F5F5" cx="52" cy="51.5" rx="50" ry="50.5"></ellipse>
                            <path d="M52.1270994,102.999926 C62.0354955,103.015918 71.7294057,100.135306 80,94.7173021 C78.1313179,84.5777204 71.0202328,84 71.0202328,84 L31.8061089,84 C31.8061089,84 25.0957738,84.546771 23,93.874302 C31.5269484,99.8299065 41.7019321,103.017765 52.1270994,102.999926 L52.1270994,102.999926 Z" id="Path" fill="#FABEBA"></path>
                            <circle id="Oval" fill="#333333" cx="51.5" cy="50.5" r="24.5"></circle>
                            <path d="M43,70 L60,70 L60,82.3078043 C60.0000003,86.5549497 56.1963815,89.9983921 51.5032179,90 L51.5032179,90 C46.8087975,90 43.0032179,86.5560867 43.0032179,82.3078043 L43.0032179,70 L43,70 Z" id="Path" fill="#000000" opacity="0.1"></path>
                            <path d="M43.5356737,70 L59.4611089,70 C59.7587301,70 59.9999998,70.2183659 59.9999998,70.4877338 L59.9999998,82.306908 C60.0004268,84.3476134 59.1048099,86.3048266 57.5103102,87.7476867 C55.9158105,89.1905468 53.7531409,90.000772 51.4983913,89.9999994 L51.4983913,89.9999994 C46.8048594,89.9999994 43,86.5563369 43,82.3083639 L43,70.4877338 C42.9999947,70.2194989 43.2393096,70.0016014 43.5356737,70 L43.5356737,70 Z" id="Path" fill="#FDB797"></path>
                            <path d="M43,76.2770322 C48.4789413,78.556311 54.5099049,78.5747424 60,76.3289865 L60,74 L43,74 L43,76.2770322 Z" id="Path" fill="#000000" opacity="0.1"></path>
                            <circle id="Oval" fill="#FDB797" cx="50.5" cy="55.5" r="22.5"></circle>
                            <path d="M34,35.5859111 C34,35.5859111 43.6839019,54.5909173 71,43.5540489 L64.6401509,33.9121914 L53.3662867,30 L34,35.5859111 Z" id="Path" fill="#000000" opacity="0.1"></path>
                            <path d="M34,35.5883293 C34,35.5883293 43.6839019,54.5915822 71,43.5527985 L64.6401509,33.9118305 L53.3662867,30 L34,35.5883293 Z" id="Path" fill="#333333"></path>
                            <path d="M36.4542063,33.357077 C37.0724922,31.3993766 38.1410832,29.6220392 39.570209,28.1743758 C43.8498641,23.8468864 50.8662573,22.9343665 54.4649602,18 C55.326925,19.3695145 54.6603389,21.4752164 53.1720131,22.0629909 C56.6198722,22.0394799 60.6150789,21.7308983 62.5645559,18.8302314 C63.5479544,21.1718805 63.1245738,23.8834825 61.4770437,25.7953587 C64.5327088,25.9423023 67.7981186,28.0582903 67.9906241,31.1808421 C68.122792,33.2615636 66.8413377,35.230608 65.1763091,36.4237902 C63.5112805,37.6169723 61.4827901,38.165072 59.4930881,38.61325 C53.6834455,39.9254565 32.6629979,45.4167393 36.4542063,33.357077 Z" id="Path" fill="#333333"></path>
                            <ellipse id="Oval" fill="#FDB797" cx="30" cy="54" rx="2" ry="4"></ellipse>
                            <ellipse id="Oval" fill="#FDB797" cx="74" cy="54" rx="2" ry="4"></ellipse>
                        </g>
                        <rect id="Rectangle" fill="#F5F5F5" transform="translate(52.000000, 124.500000) rotate(-180.000000) translate(-52.000000, -124.500000) " x="19" y="121" width="66" height="7"></rect>
                        <rect id="Rectangle" fill="#F5F5F5" transform="translate(51.500000, 139.500000) rotate(-180.000000) translate(-51.500000, -139.500000) " x="4" y="136" width="95" height="7"></rect>
                        <g id="Group-26" transform="translate(135.000000, 30.000000)">
                            <g id="Group" opacity="0.5" fill="url(#linearGradient-2)">
                                <path d="M0.205756098,55.3592195 C0.208902417,29.0313386 18.7956008,6.3660027 44.6131117,1.20717967 C70.4306226,-3.95164336 96.3002096,9.83049267 106.420751,34.1354708 C116.541293,58.440449 108.098702,86.510103 86.2497073,101.199512 L86.2172195,101.443171 C84.4129707,103.17266 82.2836564,104.527176 79.9524878,105.428341 L79.8820976,105.184683 C77.2993171,107.404683 66.4104878,110.956683 53.8918537,110.924195 L53.621122,110.924195 C45.6940976,110.924195 37.0956585,109.52722 29.5314146,105.433756 C29.5314146,105.433756 29.466439,105.287561 29.363561,105.016829 C27.4465149,104.115554 25.6875832,102.910631 24.1546829,101.448585 C24.1258049,101.23922 24.0969268,101.029854 24.0680488,100.820488 C9.11758256,90.5167449 0.194227066,73.5164061 0.205756098,55.3592195 Z" id="Path"></path>
                            </g>
                            <circle id="Oval" fill="#F5F5F5" cx="55.5" cy="55.5" r="53.5"></circle>
                            <path d="M34.0843635,76 C34.0843635,76 21.1583757,77.0388312 24.5749605,100.156863 C26.3470879,101.824424 28.4384442,103.130646 30.7281036,104 L38,79.8431373 L34.0843635,76 Z" id="Path" fill="#BE7C5E"></path>
                            <path d="M75.9156365,76 C75.9156365,76 88.8416243,77.0388312 85.4250395,100.156863 C83.6529121,101.824424 81.5615558,103.130646 79.2718964,104 L72,79.8431373 L75.9156365,76 Z" id="Path" fill="#BE7C5E"></path>
                            <path d="M35.4459392,38 C35.4459392,38 34.4735005,40.8719576 33.0927449,44.1953782 C30.0787221,51.4677405 33.5171795,79.3931766 40.7325675,82.3684812 C48.8236877,85.7082197 59.4721605,87.84587 70.5289501,83.7663848 C80.1405132,80.2199523 83.1008101,48.4108463 76.3098567,40.6924602 C75.5147134,39.7840949 74.6980798,38.8811688 73.8116025,38.0054393 L35.4459392,38 Z" id="Path" fill="#333333"></path>
                            <circle id="Oval" fill="#333333" cx="55.5" cy="36.5" r="23.5"></circle>
                            <path d="M75.7681247,76 L34.6917651,76 L30.8579715,92.326119 C30.8579715,92.326119 28.6081683,99.8862858 31.3949174,103.210198 C34.1816665,106.534111 60.3631475,114.094278 79.5911793,103.743732 C81.2638523,99.3893107 81.4524815,94.6098369 80.1281252,90.1386324 C77.937386,82.5197769 79.5911793,89.6050991 79.5911793,89.6050991 L75.7681247,76 Z" id="Path" fill="#000000" opacity="0.1"></path>
                            <path d="M75.7681247,76 L34.6917651,76 L30.8579715,92.326119 C30.8579715,92.326119 28.6081683,99.8862858 31.3949174,103.210198 C34.1816665,106.534111 60.3631475,114.094278 79.5911793,103.743732 C81.2638523,99.3893107 81.4524815,94.6098369 80.1281252,90.1386324 C77.937386,82.5197769 79.5911793,89.6050991 79.5911793,89.6050991 L75.7681247,76 Z" id="Path" fill="#000000" opacity="0.1"></path>
                            <path d="M75.7681247,76 L34.6917651,76 L30.8579715,92.326119 C30.8579715,92.326119 28.6081683,99.8862858 31.3949174,103.210198 C34.1816665,106.534111 60.3631475,114.094278 79.5911793,103.743732 C81.2638523,99.3893107 81.4524815,94.6098369 80.1281252,90.1386324 C77.937386,82.5197769 79.5911793,89.6050991 79.5911793,89.6050991 L75.7681247,76 Z" id="Path" fill="#F98B55"></path>
                            <path d="M47,62 L64,62 L64,75.5320755 C64,77.7779087 63.1044669,79.9317584 61.5104076,81.5198023 C59.9163484,83.1078462 57.7543402,84 55.5,84 L55.5,84 C50.8055796,84 47,80.2087811 47,75.5320755 L47,62 L47,62 Z" id="Path" fill="#000000" opacity="0.1"></path>
                            <path d="M47,61 L64,61 L64,74.5384615 C64,76.7826011 63.1044669,78.9348265 61.5104076,80.5216728 C59.9163484,82.108519 57.7543402,83 55.5,83 L55.5,83 C50.8055796,83 47,79.2116402 47,74.5384615 L47,61 L47,61 Z" id="Path" fill="#BE7C5E"></path>
                            <path d="M47,64.2765415 C52.4788412,66.5573341 58.5105239,66.5748934 64,64.3260315 L64,62 L47,62 L47,64.2765415 Z" id="Path" fill="#000000" opacity="0.1"></path>
                            <circle id="Oval" fill="#BE7C5E" cx="55.5" cy="41.5" r="23.5"></circle>
                            <path d="M33,32 L78,32 C78,32 74.1585366,13.9004516 57.1463415,15.0527771 C40.1341463,16.2051025 33,32 33,32 Z" id="Path" fill="#333333"></path>
                            <ellipse id="Oval" fill="#BE7C5E" cx="32" cy="40" rx="2" ry="4"></ellipse>
                            <ellipse id="Oval" fill="#BE7C5E" cx="79" cy="40" rx="2" ry="4"></ellipse>
                            <path d="M33,33 L78,33 C78,33 74.1585366,14.9004516 57.1463415,16.0527771 C40.1341463,17.2051025 33,33 33,33 Z" id="Path" fill="#000000" opacity="0.1"></path>
                        </g>
                    </g>
                </g>
            </g>
        </g>
    </g>
</svg>