<?xml version="1.0" encoding="UTF-8"?>
<svg width="195px" height="138px" viewBox="0 0 195 138" version="1.1" xmlns="http://www.w3.org/2000/svg" xmlns:xlink="http://www.w3.org/1999/xlink">
    <!-- Generator: Sketch 54.1 (76490) - https://sketchapp.com -->
    <title>undraw_visual_data_b1wx</title>
    <desc>Created with Sketch.</desc>
    <defs>
        <linearGradient x1="99.982811%" y1="50.0000413%" x2="0.0187255522%" y2="50.0000413%" id="linearGradient-1">
            <stop stop-color="#808080" stop-opacity="0.25" offset="0%"></stop>
            <stop stop-color="#808080" stop-opacity="0.12" offset="54%"></stop>
            <stop stop-color="#808080" stop-opacity="0.1" offset="100%"></stop>
        </linearGradient>
    </defs>
    <g id="Website" stroke="none" stroke-width="1" fill="none" fill-rule="evenodd">
        <g id="about" transform="translate(-192.000000, -813.000000)">
            <g id="Group-6" transform="translate(192.000000, 794.000000)">
                <g id="undraw_visual_data_b1wx" transform="translate(0.000000, 19.000000)">
                    <ellipse id="Oval" fill="#FABEBA" fill-rule="nonzero" opacity="0.1" cx="169" cy="135" rx="11" ry="3"></ellipse>
                    <path d="M187.831385,121.82371 C183.559089,125.363246 177.479621,126.828123 171.60017,127.753308 L170.610611,127.904002 C164.469734,128.818674 158.26043,129.305798 152.030072,129.601927 C148.696453,129.763134 145.362834,129.87703 142.029215,129.97866 L139.416711,130.055759 C136.024607,130.156221 132.62607,130.254931 129.2211,130.351888 C125.887481,130.44651 122.553862,130.53529 119.220243,130.61823 C114.950872,130.722196 110.6815,130.80864 106.412129,130.877562 C103.07851,130.930129 99.7448907,130.966342 96.4112717,130.986201 C92.1407304,131.010733 87.8713588,131.002555 83.6031569,130.96167 C80.2671985,130.927793 76.9335796,130.869385 73.6023,130.786445 C69.330589,130.676638 65.0612174,130.516015 60.7941851,130.304578 C57.8980306,130.16323 55.0036305,129.993262 52.1109851,129.794674 L50.7933283,129.701805 C38.376475,128.80816 25.7367956,127.204856 14.8709524,122.137362 L14.5779448,121.998935 C14.4323183,121.930597 14.2866918,121.86226 14.1410653,121.790418 C12.1460136,120.837818 10.2349813,119.718839 8.42829513,118.445381 C5.21573919,116.156949 2.56288033,113.36387 1.16100583,110.050374 C-1.0356736,104.853215 0.125829425,99.0112289 2.63481631,93.9297175 C5.1438032,88.8482062 8.91079261,84.260828 12.1689665,79.4754461 C13.1234342,78.0736498 14.028775,76.6192862 14.8709524,75.1281255 C20.1345612,65.7763923 22.7453112,54.9545254 17.2272946,45.9427278 C16.4989482,44.7937429 15.7124822,43.6825483 14.8709524,42.6134617 C13.525223,40.8612164 12.1566847,39.1089711 11.2320441,37.1692356 C9.07571902,32.6554517 9.5389166,27.5791971 10.3249489,22.757018 C11.3776706,16.3455525 13.3076605,9.43995378 19.3397563,5.43432103 C25.5981872,1.27449069 34.4814044,1.48476013 42.2487366,2.98117761 C54.3252098,5.29238916 65.4717789,10.1303384 76.7236201,14.4934292 C87.9754613,18.85652 99.7624361,22.8463825 112.133671,23.2756826 C114.791206,23.3665072 117.451845,23.2698937 120.095757,22.9865622 L120.095757,22.9865622 C123.620424,22.6248321 127.097181,21.8936226 130.468576,20.8050168 C135.337414,19.2034646 139.767618,16.7941273 143.05211,13.4455865 C150.096573,6.28766449 163.334549,5.74622069 172.879227,10.0690098 C181.987025,14.1937953 187.877003,22.9234813 187.441878,31.6426539 C186.947099,41.3483406 179.669282,49.3280657 173.00029,57.5128035 C172.191448,58.5045743 171.393134,59.4998497 170.615875,60.502134 C170.18192,61.0616843 169.756152,61.6224028 169.338572,62.1842895 L169.338572,62.1842895 C168.606931,63.1760603 167.899853,64.1730879 167.233129,65.1823812 C163.825819,70.3567615 161.416841,76.5719756 163.762656,82.1581336 C165.078558,85.2858915 167.5893,87.6724496 170.615875,89.7558692 C177.397158,94.4220984 186.757609,97.562122 190.968496,104.094492 C194.596877,109.724457 193.252902,117.323944 187.831385,121.82371 Z" id="Path" fill="#FABEBA" fill-rule="nonzero" opacity="0.1"></path>
                    <g id="Group" opacity="0.1" transform="translate(80.000000, 0.000000)" fill-rule="nonzero">
                        <path d="M17.0913242,96.3597649 C17.0982648,96.5246474 17.110411,96.6860217 17.1277626,96.8438879 C18.4777169,96.3001266 19.8028006,95.715437 21.1030137,95.0898192 C21.7968915,94.9967488 22.4419199,94.6778009 22.9405479,94.1812116 C23.3205479,93.988264 23.6988128,93.7865461 24.0736073,93.5848282 C23.9887958,93.4033906 23.8925871,93.2276247 23.7855708,93.0586076 C23.0550685,91.8921519 21.9445662,91.1624593 20.7212785,91.2028029 C19.4979909,91.2431465 18.4395434,92.0447559 17.7853881,93.2533092 C17.2834966,94.2074578 17.0438228,95.2801776 17.0913242,96.3597649 L17.0913242,96.3597649 Z" id="Path" fill="#3F3D56"></path>
                        <path d="M16.8917808,90.2257866 C16.917945,91.3006468 17.2263496,92.3491471 17.7853881,93.2638336 C18.5176256,94.4267812 19.6281279,95.1564738 20.8514155,95.1161302 C20.9364384,95.1161302 21.0249315,95.1038517 21.1030137,95.0968354 C21.7968915,95.003765 22.4419199,94.6848172 22.9405479,94.1882278 C23.27896,93.8626876 23.5641748,93.4849667 23.7855708,93.069132 C24.7810993,91.1273882 24.7061756,88.8020308 23.5877626,86.9298915 C22.8555251,85.7634358 21.7450228,85.0337432 20.5217352,85.0740868 C19.2984475,85.1144304 18.2417352,85.9160398 17.5875799,87.1245931 C17.0860762,88.0770469 16.8458339,89.1478125 16.8917808,90.2257866 L16.8917808,90.2257866 Z" id="Path" fill="#3F3D56"></path>
                        <ellipse id="Oval" fill="#3F3D56" transform="translate(20.488268, 83.963366) rotate(-1.880000) translate(-20.488268, -83.963366) " cx="20.4882678" cy="83.9633662" rx="3.79483945" ry="5.02184066"></ellipse>
                        <ellipse id="Oval" fill="#3F3D56" transform="translate(20.289311, 77.830537) rotate(-1.880000) translate(-20.289311, -77.830537) " cx="20.2893114" cy="77.8305369" rx="3.79483945" ry="5.02184066"></ellipse>
                        <ellipse id="Oval" fill="#3F3D56" transform="translate(20.090354, 71.695896) rotate(-1.880000) translate(-20.090354, -71.695896) " cx="20.090354" cy="71.695896" rx="3.79483945" ry="5.02184066"></ellipse>
                        <path d="M32.9315982,29.252604 C33.4281071,28.56877 33.8768656,27.8507857 34.2746119,27.1038698 L24.2557991,25.781302 L35.0346119,25.5041591 C36.9749844,20.840308 36.9297976,15.5745095 34.9096804,10.9453888 L20.6969863,19.0053345 L33.7106849,8.65632911 C30.0998292,2.84925825 23.5899582,-0.4411884 16.8278629,0.122822796 C10.0657675,0.686833991 4.17742657,5.01138767 1.5569285,11.3382018 C-1.06356956,17.6650159 0.0201230206,24.9405918 4.36739726,30.2068174 C3.59411157,31.27148 2.93618294,32.4170252 2.40493151,33.6237432 L15.5591781,39.9875045 L1.61543379,35.7672152 C-0.160782531,41.7114952 1.15166252,48.1605037 5.10484018,52.9132369 C-0.505654683,60.6369608 0.698418477,71.4226797 7.87060665,77.6881266 C15.0427948,83.9535735 25.7740861,83.5942949 32.5204757,76.8628606 C39.2668653,70.1314263 39.7623594,59.2888067 33.6586301,51.9572694 C38.626523,45.1257033 38.3261437,35.7450804 32.9315982,29.252604 Z" id="Path" fill="#FABEBA"></path>
                        <path d="M0.848493151,41.6819349 C0.975232883,45.801919 2.47510209,49.7577974 5.10484018,52.9079747 C-0.507125457,60.6306513 0.694955759,71.4166466 7.86602628,77.6834557 C15.0370968,83.9502649 25.7685012,83.5929602 32.5161116,76.8627253 C39.263722,70.1324904 39.761117,59.2899105 33.6586301,51.9572694 C35.9924201,48.75434 0.782557078,39.6209042 0.848493151,41.6819349 Z" id="Path" fill="#000000"></path>
                    </g>
                    <g id="Group" opacity="0.1" transform="translate(42.000000, 60.000000)" fill-rule="nonzero">
                        <path d="M14.9157692,68.5726904 C14.9157692,68.6882741 14.9036538,68.8038579 14.8898077,68.9229442 C13.9321154,68.537665 12.9911538,68.1249492 12.0669231,67.684797 C11.574481,67.6196569 11.1163908,67.3940464 10.7619231,67.0420812 C10.4919231,66.9031472 10.2236538,66.7618782 9.95711538,66.6182741 C10.0172634,66.4902195 10.0854808,66.3662077 10.1613462,66.2470051 C10.6805769,65.4169036 11.4663462,64.8985279 12.3351923,64.9265482 C13.2040385,64.9545685 13.9551923,65.5219797 14.4121154,66.3801015 C14.7698614,67.0525838 14.94373,67.8094972 14.9157692,68.5726904 L14.9157692,68.5726904 Z" id="Path" fill="#3F3D56"></path>
                        <path d="M15.0507692,64.2137817 C15.0337269,64.9773468 14.8162956,65.7225889 14.4207692,66.3730964 C13.9015385,67.1996954 13.1140385,67.7198223 12.2469231,67.691802 L12.0738462,67.6777919 C11.5814041,67.6126519 11.1233139,67.3870413 10.7688462,67.0350761 C10.528091,66.8040992 10.3253445,66.5356925 10.1682692,66.24 C9.46240987,64.8618307 9.51351195,63.2118361 10.3032692,61.8810914 C10.8225,61.0509898 11.61,60.5326142 12.4771154,60.5606345 C13.3442308,60.5886548 14.0971154,61.156066 14.5626923,62.0141878 C14.9162414,62.6902591 15.0847504,63.4496707 15.0507692,64.2137817 L15.0507692,64.2137817 Z" id="Path" fill="#3F3D56"></path>
                        <ellipse id="Oval" fill="#3F3D56" transform="translate(12.498859, 59.776852) rotate(-88.190000) translate(-12.498859, -59.776852) " cx="12.498859" cy="59.7768517" rx="3.56729351" ry="2.69310907"></ellipse>
                        <ellipse id="Oval" fill="#3F3D56" transform="translate(12.633349, 55.418684) rotate(-88.190000) translate(-12.633349, -55.418684) " cx="12.6333493" cy="55.4186844" rx="3.56729351" ry="2.69310907"></ellipse>
                        <ellipse id="Oval" fill="#3F3D56" transform="translate(12.769625, 51.058767) rotate(-88.190000) translate(-12.769625, -51.058767) " cx="12.769625" cy="51.0587668" rx="3.56729351" ry="2.69310907"></ellipse>
                        <path d="M3.61903846,20.9066497 C3.2661371,20.42078 2.9463583,19.9111483 2.66192308,19.3812944 L9.77192308,18.4251015 L2.12019231,18.2499746 C0.738085482,14.9373417 0.765631065,11.1949134 2.19634615,7.90347716 L12.2919231,13.617868 L3.04615385,6.27129442 C5.59641305,2.12593685 10.2198792,-0.232686114 15.0301783,0.157743551 C19.8404774,0.548173217 24.0332498,3.62236936 25.8978445,8.12606014 C27.7624393,12.6297509 26.987066,17.8098464 23.8880769,21.552868 C24.4386971,22.3086889 24.906992,23.1224986 25.2848077,23.9801269 L15.9525,28.5124112 L25.8473077,25.5002284 C27.1124756,29.72308 26.1869435,34.3067658 23.3861538,37.6890609 C27.3769395,43.1708866 26.5336499,50.8356582 21.4490991,55.295209 C16.3645484,59.7547598 8.74650377,59.5112436 3.95028407,54.735847 C-0.845935632,49.9604503 -1.20940603,42.2571037 3.11538462,37.0410914 C-0.416208769,32.1902804 -0.208091178,25.5240023 3.61903846,20.908401 L3.61903846,20.9066497 Z" id="Path" fill="#FABEBA"></path>
                        <path d="M26.3959615,29.7085279 C26.3092022,32.6356962 25.2487162,35.4475846 23.3861538,37.6890609 C27.3769395,43.1708866 26.5336499,50.8356582 21.4490991,55.295209 C16.3645484,59.7547598 8.74650377,59.5112436 3.95028407,54.735847 C-0.845935632,49.9604503 -1.20940603,42.2571037 3.11538462,37.0410914 C1.45557692,34.7644416 26.4444231,28.2427157 26.3959615,29.7085279 Z" id="Path" fill="#000000"></path>
                    </g>
                    <g id="Group" opacity="0.1" transform="translate(133.000000, 37.000000)" fill-rule="nonzero">
                        <path d="M14.8759615,68.563934 C14.8759615,68.681269 14.8638462,68.7951015 14.8517308,68.9141878 C13.8928846,68.5289086 12.9519231,68.1161929 12.0288462,67.6760406 C11.5359733,67.6106493 11.0774071,67.3851034 10.7221154,67.0333249 C10.4538462,66.8949746 10.1838462,66.7531218 9.91730769,66.6095178 C9.97812719,66.4818144 10.046322,66.3578438 10.1215385,66.2382487 C10.6407692,65.4081472 11.4265385,64.8897716 12.2953846,64.9177919 C13.1642308,64.9458122 13.9153846,65.5132234 14.3723077,66.3713452 C14.7300537,67.0438274 14.9039223,67.8007409 14.8759615,68.563934 L14.8759615,68.563934 Z" id="Path" fill="#3F3D56"></path>
                        <path d="M15.0213462,64.2050254 C15.0037821,64.9687529 14.78575,65.7140066 14.3896154,66.3643401 C13.8703846,67.1909391 13.0846154,67.711066 12.2157692,67.6830457 L12.0426923,67.6690355 C11.5498194,67.6036442 11.0912532,67.3780984 10.7359615,67.0263198 C10.4959016,66.7947113 10.2932446,66.5264231 10.1353846,66.2312437 C9.42952526,64.8530743 9.48062733,63.2030797 10.2703846,61.872335 C10.7896154,61.0439848 11.5771154,60.5238579 12.4442308,60.5518782 C13.3113462,60.5798985 14.0659615,61.1473096 14.5298077,62.0054315 C14.8845565,62.6811656 15.0542647,63.4405958 15.0213462,64.2050254 L15.0213462,64.2050254 Z" id="Path" fill="#3F3D56"></path>
                        <ellipse id="Oval" fill="#3F3D56" transform="translate(12.464852, 59.766725) rotate(-88.190000) translate(-12.464852, -59.766725) " cx="12.4648518" cy="59.766725" rx="3.56729351" ry="2.69310907"></ellipse>
                        <ellipse id="Oval" fill="#3F3D56" transform="translate(12.601128, 55.408559) rotate(-88.190000) translate(-12.601128, -55.408559) " cx="12.6011276" cy="55.4085587" rx="3.56729351" ry="2.69310907"></ellipse>
                        <ellipse id="Oval" fill="#3F3D56" transform="translate(12.737348, 51.050447) rotate(-88.190000) translate(-12.737348, -51.050447) " cx="12.7373477" cy="51.0504467" rx="3.56729351" ry="2.69310907"></ellipse>
                        <path d="M3.57923077,20.8978934 C3.22590168,20.412678 2.90665616,19.9029746 2.62384615,19.3725381 L9.73384615,18.4251015 L2.08211538,18.2377157 C0.700689901,14.9250757 0.72760575,11.1831615 2.15653846,7.89121827 L12.2521154,13.6056091 L3.00634615,6.26253807 C5.55230225,2.10677523 10.1797354,-0.261238702 14.9967197,0.126658638 C19.8137041,0.514555978 24.0127315,3.59333836 25.8770297,8.1042458 C27.741328,12.6151532 26.9583704,17.8019875 23.8482692,21.5441117 C24.398333,22.2999832 24.8660489,23.113795 25.2432692,23.9713706 L15.9109615,28.5036548 L25.8057692,25.4914721 C27.0729175,29.7136703 26.1471618,34.297805 23.3446154,37.6785533 C27.3359637,43.1594679 26.4934305,50.8239936 21.409367,55.283509 C16.3253036,59.7430244 8.70758601,59.4994562 3.91192675,54.7240476 C-0.883732513,49.9486389 -1.24634028,42.2455802 3.07903846,37.0305838 C-0.452554923,32.1797728 -0.244437332,25.5134946 3.58269231,20.8978934 L3.57923077,20.8978934 Z" id="Path" fill="#FABEBA"></path>
                        <path d="M26.3578846,29.6997716 C26.2711953,32.626737 25.2099994,35.4382734 23.3463462,37.6785533 C27.336909,43.159603 26.4939026,50.823578 21.4099625,55.2826837 C16.3260225,59.7417895 8.70879259,59.4982577 3.9132055,54.7232919 C-0.882381596,49.9483262 -1.24553701,42.2457887 3.07903846,37.0305838 C1.4175,34.7556853 26.4028846,28.2322081 26.3578846,29.6997716 Z" id="Path" fill="#000000"></path>
                    </g>
                    <ellipse id="Oval" fill="#FABEBA" fill-rule="nonzero" cx="34" cy="132" rx="10" ry="2"></ellipse>
                    <ellipse id="Oval" fill="#3F3D56" fill-rule="nonzero" cx="34" cy="131.5" rx="1" ry="1.5"></ellipse>
                    <ellipse id="Oval" fill="#3F3D56" fill-rule="nonzero" cx="34" cy="129.5" rx="1" ry="1.5"></ellipse>
                    <ellipse id="Oval" fill="#3F3D56" fill-rule="nonzero" cx="34" cy="127.5" rx="1" ry="1.5"></ellipse>
                    <ellipse id="Oval" fill="#3F3D56" fill-rule="nonzero" cx="34" cy="125.5" rx="1" ry="1.5"></ellipse>
                    <ellipse id="Oval" fill="#3F3D56" fill-rule="nonzero" cx="34" cy="123.5" rx="1" ry="1.5"></ellipse>
                    <ellipse id="Oval" fill="#3F3D56" fill-rule="nonzero" cx="34" cy="121.5" rx="1" ry="1.5"></ellipse>
                    <ellipse id="Oval" fill="#3F3D56" fill-rule="nonzero" cx="34" cy="119.5" rx="1" ry="1.5"></ellipse>
                    <path d="M37.8221023,107.048548 C37.9786326,106.845368 38.1213613,106.631585 38.2492968,106.408683 L35.2329918,105.904174 L38.4948905,105.930542 C39.1271151,104.531316 39.1652669,102.929384 38.600392,101.500706 L34.2229447,103.808791 L38.259674,100.78701 C37.2280563,98.9778607 35.2892681,97.9051682 33.2343674,98.0066088 C31.1794668,98.1080494 29.3520832,99.3666598 28.4978197,101.268906 C27.6435561,103.171152 27.9052663,105.398932 29.1761682,107.043275 C28.9322469,107.35943 28.7223522,107.701235 28.5500774,108.06284 L32.4657394,110.130097 L28.2906475,108.706221 C27.6948043,110.495615 28.0278539,112.469797 29.1761682,113.955226 C27.4035442,116.247076 27.6613977,119.538699 29.7684972,121.516585 C31.8755966,123.494472 35.1244034,123.494472 37.2315028,121.516585 C39.3386023,119.538699 39.5964558,116.247076 37.8238318,113.955226 C39.3919581,111.92688 39.3919581,109.07162 37.8238318,107.043275 L37.8221023,107.048548 Z" id="Path" fill="#FABEBA" fill-rule="nonzero"></path>
                    <path d="M28.000086,111.078584 C27.9980611,112.274207 28.4124553,113.435491 29.1761682,114.374396 C27.4035442,116.560033 27.6613977,119.699109 29.7684972,121.585332 C31.8755966,123.471556 35.1244034,123.471556 37.2315028,121.585332 C39.3386023,119.699109 39.5964558,116.560033 37.8238318,114.374396 C38.5588832,113.467461 28.000086,110.480107 28.000086,111.078584 Z" id="Path" fill="#000000" fill-rule="nonzero" opacity="0.1"></path>
                    <path d="M61,91.5399881 L61,131 C58.1040936,130.859155 55.2099415,130.689791 52.3175439,130.491909 L51,130.39937 L51,91.5399881 C51,91.1315578 51.1630258,90.7398559 51.4532137,90.4510521 C51.7434016,90.1622483 52.1369808,90 52.5473684,90 L59.4526316,90 C59.8630192,90 60.2565984,90.1622483 60.5467863,90.4510521 C60.8369742,90.7398559 61,91.1315578 61,91.5399881 L61,91.5399881 Z" id="Path" fill="#3F3D56" fill-rule="nonzero"></path>
                    <path d="M74,131.824675 L74,64.5619835 C74,63.6993238 74.6927804,63 75.5473684,63 L82.4526316,63 C82.8630192,63 83.2565984,63.1645656 83.5467863,63.4574944 C83.8369742,63.7504231 84,64.1477197 84,64.5619835 L84,132 L74,131.824675 Z" id="Path" fill="#3F3D56" fill-rule="nonzero"></path>
                    <path d="M96,131 L96,77.5607104 C96,76.6987538 96.6927804,76 97.5473684,76 L104.452632,76 C105.30722,76 106,76.6987538 106,77.5607104 L106,130.884982 L96,131 Z" id="Path" fill="#3F3D56" fill-rule="nonzero"></path>
                    <path d="M129,38.5564024 L129,130.731776 C125.666667,130.827066 122.333333,130.916474 119,131 L119,38.5564024 C119,37.6968251 119.69278,37 120.547368,37 L127.452632,37 C128.30722,37 129,37.6968251 129,38.5564024 L129,38.5564024 Z" id="Path" fill="#3F3D56" fill-rule="nonzero"></path>
                    <path d="M152,57.5394485 L152,129.624738 C148.666667,129.785315 145.333333,129.898766 142,130 L142,57.5394485 C142,56.6892346 142.69278,56 143.547368,56 L150.452632,56 C151.30722,56 152,56.6892346 152,57.5394485 Z" id="Path" fill="#3F3D56" fill-rule="nonzero"></path>
                    <polyline id="Path" stroke="#1C1686" stroke-width="7" stroke-linecap="round" points="56 68 78.75 42.527027 101.5 55.3513514 124.25 16 147 34.7972973"></polyline>
                    <circle id="Oval" fill="#FABEBA" fill-rule="nonzero" cx="56" cy="68" r="5"></circle>
                    <circle id="Oval" fill="#FABEBA" fill-rule="nonzero" cx="79" cy="42" r="5"></circle>
                    <circle id="Oval" fill="#FABEBA" fill-rule="nonzero" cx="101" cy="55" r="5"></circle>
                    <circle id="Oval" fill="#FABEBA" fill-rule="nonzero" cx="124" cy="16" r="5"></circle>
                    <circle id="Oval" fill="#FABEBA" fill-rule="nonzero" cx="168" cy="58" r="5"></circle>
                    <ellipse id="Oval" fill="#FABEBA" fill-rule="nonzero" opacity="0.1" cx="40.5" cy="127.5" rx="3.5" ry="1"></ellipse>
                    <path d="M39,124.857845 C39,124.857845 40.8804007,124.808663 41.4471694,124.467376 C42.013938,124.126089 44.3410443,123.722208 44.482295,124.266181 C44.6235458,124.810154 47.3073102,126.984555 45.1885488,126.999458 C43.0697875,127.014362 40.2536005,126.719275 39.6885974,126.428659 C39.1235944,126.138044 39,124.857845 39,124.857845 Z" id="Path" fill="#A8A8A8" fill-rule="nonzero"></path>
                    <path d="M45.2241261,126.822782 C43.1046734,126.836696 40.2893337,126.562583 39.7223801,126.291253 C39.2914247,126.083929 39.1201023,125.342293 39.0618174,125 L39,125 C39,125 39.1183361,126.195244 39.6852897,126.466574 C40.2522433,126.737904 43.0622843,127.013408 45.1870357,126.999494 C45.7999108,126.999494 46.011856,126.824173 45.9994925,126.56954 C45.9147144,126.72399 45.6815746,126.819999 45.2241261,126.822782 Z" id="Path" fill="#000000" fill-rule="nonzero" opacity="0.2"></path>
                    <ellipse id="Oval" fill="#FABEBA" fill-rule="nonzero" opacity="0.1" cx="186" cy="132" rx="6" ry="1"></ellipse>
                    <path d="M182,127.001055 C182,127.001055 185.493652,126.88747 186.546924,126.092378 C187.600197,125.297285 191.920399,124.348853 192.18104,125.622895 C192.44168,126.896936 197.433121,131.964704 193.487812,131.99878 C189.542503,132.032855 184.322555,131.347561 183.271068,130.673625 C182.219581,129.99969 182,127.001055 182,127.001055 Z" id="Path" fill="#A8A8A8" fill-rule="nonzero"></path>
                    <path d="M193.560178,131.549126 C189.614542,131.583244 184.394162,130.897084 183.342587,130.222297 C182.542748,129.704834 182.223169,127.847275 182.116048,127 L182,127 C182,127 182.221384,129.992946 183.271173,130.671524 C184.320962,131.350102 189.544913,132.038157 193.488764,131.998352 C194.627821,131.998352 195.020599,131.558603 194.999175,130.921726 C194.840278,131.300819 194.406436,131.541544 193.560178,131.549126 Z" id="Path" fill="#000000" fill-rule="nonzero" opacity="0.2"></path>
                    <path d="M149.027469,60.0830837 C149.059463,60.3909426 149.179353,60.6824649 149.372283,60.9215278 C149.622273,61.2097979 149.996396,61.3416287 150.332589,61.5138877 C151.202639,61.9679071 151.867199,62.7468266 152.187688,63.6882175 C152.761803,65.3967451 152.835938,67.2037064 153.566943,68.8524706 C154.297948,70.5012349 155.156535,72.0849626 155.787544,73.774155 C156.14615,74.7321257 156.432346,75.7287668 156.958187,76.600608 C157.212759,77.0293874 157.537569,77.4104819 157.918494,77.7273222 C157.87884,78.3460483 157.863323,78.9577433 157.866772,79.5764693 C158.103565,79.5717107 158.326188,79.6911692 158.456403,79.8928633 C158.583987,80.0932617 158.671844,80.3171937 158.715014,80.5520175 C158.951211,81.5486586 158.659843,82.6103362 158.871904,83.6122505 C159.454505,86.3992003 159.275599,89.2957244 158.354683,91.986145 C158.118486,92.6681498 157.821946,94.9250936 158.07366,95.6018252 C159.011553,95.5051493 159.842555,96.0922359 160.720106,96.4806974 C160.79106,97.0109786 160.748715,97.5506315 160.595973,98.0626674 C160.280468,98.9889987 160.282192,99.9961863 160.287365,100.97525 L160.330466,108.227703 C160.330466,109.147004 160.342535,110.078608 160.568388,110.969785 C160.825274,111.973457 161.364908,112.996464 161.347667,114.033533 C161.301117,116.265869 162.335559,118.392739 162.252804,120.607497 C162.237287,121.032872 162.180393,121.45473 162.140739,121.876589 C162.038922,123.000393 162.066696,124.132492 162.223494,125.2497 C162.537275,127.475005 163.366552,129.663397 163.159664,131.901005 C163.145871,132.052171 163.095873,132.252554 162.956224,132.31056 C163.128631,132.509185 163.311382,132.706052 163.497581,132.894131 C163.459904,132.958182 163.408656,133.012834 163.347587,133.054086 C163.143864,133.162556 162.918716,133.222646 162.688993,133.22986 C162.41947,133.237069 162.157773,133.323767 161.935575,133.47946 C161.77406,133.63745 161.664454,133.842525 161.621794,134.066546 C161.497669,134.514499 161.573349,134.995451 161.828682,135.381339 C161.982622,135.578907 162.183919,135.732677 162.413142,135.827806 C163.209662,136.179355 164.123419,135.924482 164.95442,135.667852 L168.209463,134.662422 C168.408005,134.620376 168.591223,134.523023 168.738752,134.381183 C168.80625,134.299888 168.850928,134.201497 168.868057,134.096428 C169.586994,134.272203 170.376618,134.056 171.109347,133.832766 L174.36439,132.825579 C174.563211,132.784333 174.746633,132.686871 174.893679,132.54434 C175.012293,132.397257 175.060905,132.204159 175.026432,132.017016 C175.050569,132.00647 175.074706,131.999439 175.098843,131.987135 C175.347109,131.872881 175.616064,131.649648 175.555721,131.380713 C175.51262,131.204938 175.340213,131.102989 175.266078,130.941277 C175.195115,130.727292 175.241078,130.490978 175.386763,130.320793 C175.514344,130.145019 175.686751,129.999126 175.803987,129.814563 C176.179834,129.227476 175.924672,128.455826 175.783298,127.768548 C175.478138,126.300832 175.760886,124.768078 175.56779,123.281027 C175.502275,122.780069 175.383314,122.287901 175.288491,121.790459 C175.087558,120.614717 174.954575,119.427951 174.890231,118.2363 C174.766098,116.534804 174.302323,114.857915 174.56783,113.170481 C174.696761,112.18011 174.751515,111.181165 174.731616,110.182315 C174.750375,109.546018 174.723291,108.909175 174.650585,108.27692 C174.583346,107.805845 174.464386,107.343558 174.412663,106.870725 C174.370701,106.339241 174.361487,105.805596 174.385078,105.272935 C174.408851,104.085535 174.301279,102.899187 174.064401,101.736353 C173.719588,100.138564 173.071338,98.6093259 172.795487,97.0080208 C172.888586,97.0291137 172.981686,97.0502066 173.071338,97.0748151 C173.081682,95.844394 172.024828,93.169107 171.633464,92.0019647 C171.576176,91.8590001 171.541269,91.7077486 171.53002,91.5537398 C171.553682,91.3506313 171.58996,91.149258 171.638636,90.9508335 C171.688634,90.5254593 171.466229,90.1211781 171.405887,89.695804 C171.382379,89.3965842 171.403891,89.0954588 171.469677,88.8028698 C171.747253,87.2296886 172.092066,85.6688115 172.43688,84.1096922 C172.58722,83.5450061 172.639156,82.9577952 172.590322,82.3747985 C172.509248,81.7496634 172.697915,81.1193889 173.107543,80.6469357 C173.259029,80.504437 173.388119,80.3390334 173.490286,80.156525 C173.547623,79.9999085 173.573423,79.8331199 173.566145,79.6661143 C173.559298,78.9430833 173.454874,78.2244536 173.255813,77.5304548 C173.559249,76.9697344 173.671314,76.2806986 173.759241,75.6303331 C173.952337,74.1942559 174.145433,72.7511478 174.138536,71.3010086 C174.153898,70.5274025 174.04916,69.756187 173.828204,69.0159409 C173.666804,68.5587694 173.469625,68.1155628 173.238572,67.6906016 C172.331712,65.9100065 171.464505,64.0362509 170.319723,62.4050641 C169.974909,61.9093802 170.192142,61.2256176 170.216279,60.6139225 C170.24214,59.8756699 169.955945,59.1672989 169.674921,58.4888095 C169.531551,58.0712315 169.311555,57.6852808 169.026671,57.3515489 C168.831948,57.1330474 168.557589,57.0059031 168.268081,57 C167.939639,57.0409133 167.644701,57.2249229 167.459492,57.5044726 C167.038352,58.0893338 166.86393,58.8215321 166.975029,59.5381829 C167.089565,60.2484035 167.393108,60.9129482 167.85258,61.4593976 C168.07452,61.7343603 168.328707,61.9805254 168.609447,62.192377 C168.894493,63.1157788 169.181838,64.0385946 169.471481,64.9608245 C169.926635,66.4285411 170.38179,67.9032886 171.023143,69.2919067 C171.211067,69.6944302 171.417955,70.1039847 171.440368,70.548694 C171.464505,71.0285582 171.267961,71.4855718 171.111071,71.9373121 C170.780547,72.8788485 170.593329,73.8664187 170.555921,74.8657143 C170.505518,74.8884989 170.457075,74.9155455 170.411099,74.9465705 C169.868017,75.3086659 169.697334,76.0978931 169.13184,76.4213181 C168.802542,76.6093968 168.402558,76.5970926 168.033607,76.683222 C168.00085,76.683222 167.968093,76.7007995 167.933611,76.7113459 C167.919819,76.6410362 167.906026,76.5724841 167.897406,76.5004166 C167.892113,76.4554626 167.892113,76.4100243 167.897406,76.3650703 C168.776494,75.8722993 169.514949,75.1551565 170.040424,74.2839009 C170.151147,74.1225489 170.236643,73.9446584 170.293862,73.7565776 C170.340396,73.5311999 170.34914,73.2994131 170.319723,73.0710572 C170.290925,72.3088795 170.184026,71.5518619 170.00077,70.8123557 C169.816835,70.0692749 169.414363,69.4013336 168.847368,68.898172 C168.564621,68.6661497 168.238772,68.492133 167.957748,68.258353 C167.409494,67.8066127 167.033647,67.1386698 166.406086,66.8029406 C165.581073,66.393293 164.586382,66.6555781 164.059628,67.4216667 C163.976148,67.5931587 163.858746,67.7451716 163.714814,67.8681338 C163.605038,67.9210833 163.498004,67.9797522 163.394137,68.0439082 C163.20449,68.1985897 163.194145,68.4956485 163.256212,68.7364595 C163.373856,69.231269 163.439739,69.7373959 163.452756,70.246362 C162.303604,71.6212677 162.299227,73.6420867 163.442411,75.0221536 C163.442411,75.349094 163.442411,75.6760345 163.430343,76.0029749 C163.430343,76.064496 163.430343,76.1277748 163.418274,76.1892958 C163.219447,76.1186636 163.041475,75.9976984 162.901054,75.837747 C162.707958,75.5916627 162.673476,75.2295674 162.437279,75.0274268 C162.267426,74.9132549 162.073802,74.8410332 161.871784,74.8164975 C161.369692,74.7002023 160.898823,74.4727708 160.492529,74.1503123 C160.173576,73.8989549 159.842555,73.5772876 159.470156,73.5034624 C158.82757,72.2745788 158.077426,71.1073819 157.228866,70.0160974 C157.013661,69.7577661 156.817719,69.4833777 156.642682,69.1952308 C156.272008,68.5360766 156.161667,67.7609113 155.927194,67.0384784 C155.272047,65.0135568 153.63763,63.389401 153.23937,61.2941696 C153.094548,60.534824 152.622153,59.8739121 152.298028,59.1743298 C152.079071,58.7014966 151.837702,58.2022972 151.399788,57.9316045 C150.836017,57.5800557 150.056738,57.7417681 149.587791,58.2146014 C149.12778,58.7156475 148.920926,59.4054368 149.027469,60.0830837 L149.027469,60.0830837 Z M169.497342,131.217243 C169.293618,131.325713 169.068471,131.385803 168.838748,131.393017 C168.722885,131.405308 168.607774,131.424086 168.493934,131.449265 C168.450832,131.080139 168.426695,130.705739 168.39911,130.341886 C168.307734,129.148378 168.124983,127.963658 167.943956,126.780696 C167.754308,125.550275 167.664657,124.203842 167.254328,123.022638 C166.59401,121.099666 165.925071,119.118688 166.00955,117.081462 C166.028515,116.619175 166.085409,116.160404 166.109546,115.699875 C166.164716,114.559099 166.007826,113.393714 166.281953,112.284578 C166.404362,111.780105 166.612974,111.298483 166.692282,110.785222 C166.742866,110.321705 166.748641,109.854241 166.709522,109.389572 C166.634172,107.776559 166.765739,106.160419 167.100886,104.582141 C167.421563,105.009273 167.526731,105.561205 167.618107,106.090286 L168.264633,109.665538 C168.6491,111.787136 168.988742,114.037049 170.007667,115.924866 C169.864569,116.605113 169.723195,117.331062 169.959393,117.981427 C170.061113,118.262666 170.228348,118.508751 170.331792,118.793505 C170.504199,119.266338 170.480062,119.786631 170.531784,120.287588 C170.643848,121.342235 171.071417,122.379304 170.757637,123.397038 C170.43488,124.446463 170.225033,125.528565 170.1318,126.624257 C170.114656,126.928965 170.080116,127.232397 170.028356,127.53301 C169.973185,127.803703 169.883534,128.060334 169.833536,128.338057 C169.764599,128.727799 169.781679,129.128302 169.883534,129.510473 C169.960943,129.722285 170.00854,129.944206 170.024907,130.169627 C170.024907,130.394618 169.754229,130.556331 169.536996,130.591486 C169.600786,130.675857 169.669749,130.756714 169.740436,130.835812 C169.698936,130.985016 169.614206,131.117964 169.497342,131.217243 L169.497342,131.217243 Z" id="Shape" fill="url(#linearGradient-1)" fill-rule="nonzero"></path>
                    <path d="M163.076685,134.004836 C162.818835,134.012677 162.568472,134.10697 162.355896,134.276303 C162.200827,134.446097 162.095801,134.668155 162.055705,134.911 C161.937262,135.394483 162.009744,135.913945 162.253634,136.32951 C162.401005,136.543811 162.593597,136.710405 162.812781,136.813179 C163.574805,137.195527 164.448988,136.916413 165.244,136.639211 L168.358071,135.553344 C168.547896,135.50835 168.723203,135.403115 168.864437,135.249378 C169.04021,134.974973 169.045518,134.601235 168.877632,134.320273 C168.710339,134.050476 168.482033,133.839443 168.217871,133.710429 C167.249672,133.163672 166.157768,133.039409 165.093904,133.016468 C164.698047,133.016468 164.307139,132.905587 164.038287,133.259259 C163.896438,133.450432 163.922828,133.654988 163.708406,133.817486 C163.512415,133.933432 163.296636,133.997425 163.076685,134.004836 L163.076685,134.004836 Z" id="Path" fill="#3F3D56" fill-rule="nonzero"></path>
                    <path d="M169.076623,132.004231 C168.818889,132.012934 168.56872,132.107152 168.355801,132.275703 C168.201081,132.445819 168.096117,132.66774 168.055596,132.910414 C167.93733,133.394542 168.009785,133.914503 168.253533,134.330865 C168.401475,134.544037 168.593952,134.709869 168.812706,134.812634 C169.576415,135.194989 170.448989,134.917781 171.244037,134.640574 L174.358252,133.552771 C174.548086,133.507776 174.723401,133.402539 174.864642,133.248799 C175.040141,132.974987 175.04545,132.601957 174.877838,132.321586 C174.710349,132.051989 174.482088,131.841003 174.218046,131.711728 C173.248153,131.16496 172.156199,131.038782 171.092285,131.015841 C170.69641,131.015841 170.307133,130.90687 170.036619,131.260549 C169.894764,131.451726 169.921156,131.654375 169.706723,131.816876 C169.511832,131.934406 169.296261,131.998504 169.076623,132.004231 Z" id="Path" fill="#3F3D56" fill-rule="nonzero"></path>
                    <path d="M165.838794,95.6354243 C167.790829,95.4375442 169.754467,95.3819404 171.714431,95.4690458 C171.843762,95.4677098 171.972417,95.4880461 172.095145,95.5292252 C172.526739,95.7062236 172.593408,96.2761585 172.63376,96.7416642 C172.809205,98.6320071 173.626776,100.393141 174.037316,102.244544 C174.278406,103.408292 174.387882,104.595871 174.363643,105.784512 C174.339929,106.315577 174.349304,106.84762 174.391714,107.377498 C174.444348,107.850084 174.567159,108.31382 174.633828,108.784635 C174.707846,109.417141 174.735408,110.054302 174.716287,110.690908 C174.736358,111.689062 174.680638,112.687301 174.549614,113.676871 C174.27943,115.363666 174.751376,117.039841 174.877696,118.746105 C174.940649,119.939478 175.073635,121.12804 175.275955,122.305543 C175.372449,122.802908 175.493506,123.294964 175.560175,123.795869 C175.756673,125.284426 175.468944,126.817232 175.77948,128.286319 C175.923345,128.973073 176.183003,129.744786 175.800534,130.33242 C175.681232,130.509419 175.505787,130.659867 175.375958,130.838636 C175.227649,131.00857 175.180799,131.24557 175.253147,131.4599 C175.328588,131.620969 175.504033,131.727168 175.547894,131.898856 C175.616317,132.169664 175.335606,132.390912 175.082966,132.505961 C173.179393,133.373253 170.724924,132.762608 169.44067,131.100593 C169.66173,131.065194 169.931914,130.904125 169.937178,130.677567 C169.920312,130.452332 169.871875,130.230648 169.793313,130.019133 C169.689984,129.637267 169.6726,129.236923 169.742434,128.847404 C169.793313,128.574826 169.884544,128.316409 169.940687,128.042061 C169.993357,127.741138 170.028506,127.43736 170.045953,127.132289 C170.140849,126.03592 170.354409,124.953324 170.682817,123.903838 C171.002126,122.886098 170.567024,121.855967 170.452985,120.793977 C170.400351,120.291301 170.423159,119.772696 170.249469,119.29834 C170.144202,119.018683 169.974021,118.767345 169.870509,118.487687 C169.63015,117.834563 169.774014,117.10887 169.919633,116.429196 C168.882756,114.540623 168.537131,112.289204 168.145889,110.166993 L167.487972,106.591625 C167.389723,106.06063 167.282702,105.510165 166.961639,105.081829 C166.620602,106.660316 166.486702,108.27718 166.56338,109.890875 C166.603168,110.355827 166.597291,110.823608 166.545835,111.287393 C166.465131,111.800688 166.252843,112.283894 166.128277,112.786569 C165.856338,113.896349 166.015993,115.060998 165.952833,116.202638 C165.92827,116.664604 165.870374,117.12303 165.851075,117.584996 C165.765107,119.624017 166.445832,121.606399 167.117784,123.530372 C167.530079,124.710951 167.62131,126.052599 167.819562,127.288048 C167.995007,128.472167 168.18975,129.656286 168.282736,130.851026 C168.368704,131.948416 168.407302,133.136075 169.084517,133.998057 C168.465198,134.403383 167.82658,134.81579 167.101994,134.955618 C166.257593,135.088897 165.393584,134.919824 164.659807,134.477723 C163.930184,134.037595 163.278026,133.478352 162.729917,132.822788 C162.872027,132.773228 162.922906,132.56437 162.936941,132.413921 C163.147475,130.173122 162.303587,127.988962 161.984278,125.758782 C161.824661,124.641518 161.796394,123.509145 161.900064,122.385192 C161.940416,121.962166 161.998313,121.53914 162.014103,121.114344 C162.098317,118.900094 161.040386,116.767263 161.078984,114.551243 C161.096528,113.512262 160.55265,112.489212 160.285975,111.485631 C160.056142,110.600639 160.049124,109.662547 160.043861,108.742156 L160,101.485221 C160,100.50465 160,99.4992993 160.314046,98.5735977 C160.700024,97.4585078 160.257903,96.1788093 160.191235,95 C162.014335,95.5829177 163.933192,95.7988141 165.838794,95.6354243 L165.838794,95.6354243 Z" id="Path" fill="#696791" fill-rule="nonzero"></path>
                    <path d="M159.882021,74.8569295 C159.156138,73.308404 158.269489,71.8477425 157.238016,70.5012089 C157.022497,70.238222 156.82622,69.9587074 156.650843,69.6650259 C156.279542,68.9928357 156.169016,68.2035078 155.934147,67.4682434 C155.277895,65.4066198 153.640718,63.7504728 153.241786,61.6185666 C153.09672,60.8436556 152.623528,60.1768717 152.298856,59.4560243 C152.079529,58.9748587 151.837752,58.4666612 151.3991,58.1945413 C150.834378,57.8341176 150.053783,57.9999125 149.584045,58.4828803 C149.126021,58.9922562 148.920576,59.6946619 149.027957,60.3841154 C149.060295,60.6980417 149.180413,60.9951065 149.373353,61.2383196 C149.623765,61.5320649 149.99852,61.6654217 150.335281,61.8420293 C151.205457,62.3022965 151.871317,63.0959278 152.19351,64.056833 C152.768594,65.7958774 152.842854,67.6376425 153.575093,69.317217 C154.307332,70.9967915 155.167368,72.6078855 155.799442,74.3253045 C156.158654,75.3002506 156.445332,76.3076349 156.972061,77.2086942 C157.49879,78.1097534 158.320832,78.8648411 159.313845,79 C159.307117,78.3467673 159.402189,77.6967366 159.595342,77.0753374 C159.811214,76.3653027 160.194604,75.5291197 159.882021,74.8569295 Z" id="Path" fill="#A0616A" fill-rule="nonzero"></path>
                    <path d="M170.509271,76.5151261 C170.466181,75.2707787 170.651172,74.0293238 171.054197,72.8582083 C171.208453,72.4094528 171.389535,71.9536579 171.374445,71.4767452 C171.352648,71.0332691 171.151445,70.6267494 170.968685,70.2255091 C170.338249,68.8440459 169.895602,67.3798709 169.459661,65.9192156 L168.621314,63.1650884 C168.347982,62.9547144 168.100717,62.7093781 167.885246,62.4347607 C167.438358,61.8924528 167.143001,61.2310371 167.031809,60.52359 C166.923738,59.8110692 167.093558,59.082887 167.50296,58.5033101 C167.68373,58.2244384 167.970349,58.0409899 168.289329,58 C168.570748,58.0065287 168.837346,58.1337179 169.027074,58.3519651 C169.30365,58.6831466 169.517606,59.0665791 169.657511,59.4817732 C169.930812,60.1575463 170.209143,60.8614766 170.183993,61.5935641 C170.160519,62.2024638 169.944226,62.8817565 170.284594,63.3762675 C171.397919,64.9988268 172.241296,66.8624822 173.123237,68.6346267 C173.348205,69.0569028 173.539984,69.497734 173.696666,69.9527361 C173.912051,70.6901218 174.013934,71.4588608 173.998471,72.2299506 C173.998471,73.6712478 173.817388,75.1072656 173.629598,76.536244 C173.510553,77.4319953 173.35462,78.4069387 172.709093,79 C172.038416,78.0989692 171.364385,77.2190564 170.509271,76.5151261 Z" id="Path" fill="#A0616A" fill-rule="nonzero"></path>
                    <circle id="Oval" fill="#A0616A" fill-rule="nonzero" cx="165.5" cy="73.5" r="3.5"></circle>
                    <path d="M167.410073,77.5329617 C167.494019,78.2491335 167.83148,78.8908234 168.160546,79.5095958 C168.358657,79.8915541 168.612172,80.2983397 169,80.3403551 C167.990643,80.9429176 166.930343,81.4279216 165.835257,81.787977 C165.463055,81.9302276 165.072813,82.0018464 164.680168,81.9999638 C164.34744,81.9717271 164.021738,81.8766794 163.718153,81.7192245 C162.372838,81.0527997 161.370862,79.7208421 161,78.1058991 C161.433737,78.1190427 161.86751,78.0812838 162.294439,77.9932214 C162.538236,77.9719224 162.76548,77.8447266 162.929066,77.6380002 C163.026351,77.444401 163.071863,77.2227185 163.060021,77.0001299 C163.07681,76.3393421 163.078489,75.6766444 163.060021,75.0158566 C163.916038,74.9537937 164.774711,75.0742692 165.591815,75.3710778 C165.927597,75.4952143 166.263379,75.644178 166.599161,75.7415773 C166.810703,75.8026907 167.393284,75.7415773 167.549423,75.8809921 C167.806296,76.0777006 167.351312,77.0459649 167.410073,77.5329617 Z" id="Path" fill="#A0616A" fill-rule="nonzero"></path>
                    <path d="M166.620176,80.1275765 C166.702074,79.1606422 167.405207,78.3539204 168.365204,78.125465 C168.740895,78.0426903 169.148185,78.0530372 169.483497,77.8702432 C170.059321,77.5546649 170.233122,76.7855505 170.786124,76.4320339 C171.339126,76.0785172 172.123862,76.2751069 172.604885,76.7217451 C173.085909,77.1683832 173.329932,77.8047132 173.526555,78.4272475 C173.820095,79.2689958 173.979392,80.1502617 173.998801,81.0398219 C174.006123,81.2025365 173.979848,81.3650238 173.921556,81.5175006 C173.817456,81.6954873 173.685995,81.8566128 173.531822,81.9951792 C173.114972,82.4547043 172.922677,83.0698536 173.005153,83.6799879 C173.055043,84.2479585 173.002144,84.8201199 172.848908,85.3699701 C172.497796,86.890954 172.146684,88.4102135 171.864038,89.9449932 C171.797718,90.2274648 171.775812,90.5182451 171.799083,90.807229 C171.853505,91.2228267 172.086995,91.6160062 172.036083,92.0316038 C171.986365,92.2250751 171.949422,92.4214989 171.925483,92.6196486 C171.936954,92.7696251 171.972505,92.9168752 172.030817,93.05594 C172.429329,94.1923667 173.505488,96.7963188 173.494955,98 C171.625282,97.5292193 168.869051,97.4240265 166.937933,97.4154041 C166.40687,97.4099449 165.875901,97.4329721 165.347394,97.484383 C164.078123,97.6188918 162.779008,97.9827553 161.548359,97.6464833 C160.405489,97.334354 159.394285,96.4393532 158.212793,96.5514439 C157.956481,95.8926957 158.258437,93.6939944 158.498949,93.0283484 C159.436596,90.4073139 159.618856,87.5827753 159.025617,84.8664244 C158.809683,83.8903735 159.106373,82.8539661 158.865861,81.884813 C158.821903,81.655507 158.732424,81.4369431 158.602527,81.2415851 C158.469521,81.0443659 158.242905,80.9278572 158.002125,80.9329047 C157.980245,79.3739916 158.127371,77.8172196 158.441016,76.2889027 C158.556883,75.7456942 158.792128,75.1041907 159.359174,75.0110693 C159.861265,74.9265702 160.282599,75.3438923 160.686379,75.6491238 C161.100388,75.9639225 161.579893,76.1852988 162.090828,76.2975251 C162.296536,76.3215964 162.493697,76.392451 162.666652,76.5044617 C162.907164,76.7010514 162.942275,77.0545681 163.138898,77.2942697 C163.49001,77.7236631 164.274746,77.6874492 164.524036,78.1823725 C164.578538,78.3297949 164.622534,78.4807632 164.655703,78.6341841 C164.773626,78.9282717 164.974624,79.1831472 165.235038,79.368809 C165.626084,79.7299335 166.10189,79.9905766 166.620176,80.1275765 Z" id="Path" fill="#F98B55" fill-rule="nonzero"></path>
                    <path d="M163.033465,70.080771 C162.972368,69.8431551 162.982551,69.5604442 163.169236,69.4008773 C163.262578,69.3262972 163.384772,69.2985464 163.484903,69.2274351 C163.62602,69.1062304 163.741509,68.9569274 163.82433,68.7886262 C164.347274,68.0407481 165.322056,67.78785 166.130736,68.1902504 C166.743402,68.5180562 167.113377,69.173668 167.658157,69.6159457 C167.93479,69.8448895 168.255549,70.0148629 168.533879,70.2438067 C169.09131,70.7358995 169.4876,71.390917 169.669262,72.1204519 C169.849642,72.8448518 169.954879,73.5866497 169.983232,74.3335752 C170.012197,74.5577438 170.003589,74.7853169 169.957775,75.0065311 C169.901373,75.1920854 169.817218,75.367604 169.708296,75.5268579 C169.148242,76.3940692 168.409988,77.181497 167.48505,77.6289781 C166.560111,78.0764591 165.434911,78.1493048 164.521852,77.6810107 C164.429993,77.6430799 164.350959,77.5785836 164.294436,77.4954275 C164.242537,77.3687968 164.230092,77.2288952 164.258796,77.0947759 C164.308289,76.5646718 164.205679,76.0313094 163.963495,75.5598119 C163.793781,75.2129274 163.539211,74.9146067 163.40344,74.5555812 C163.27719,74.1537102 163.223142,73.7318072 163.24391,73.3102658 C163.228635,72.219314 163.301612,71.1318311 163.033465,70.080771 Z" id="Path" fill="#2D293D" fill-rule="nonzero"></path>
                </g>
            </g>
        </g>
    </g>
</svg>