<?xml version="1.0" encoding="UTF-8"?>
<svg width="169px" height="149px" viewBox="0 0 169 149" version="1.1" xmlns="http://www.w3.org/2000/svg" xmlns:xlink="http://www.w3.org/1999/xlink">
    <!-- Generator: Sketch 54.1 (76490) - https://sketchapp.com -->
    <title>undraw_fingerprint_swrc</title>
    <desc>Created with Sketch.</desc>
    <g id="Website" stroke="none" stroke-width="1" fill="none" fill-rule="evenodd">
        <g id="about" transform="translate(-737.000000, -1072.000000)">
            <g id="Group-2" transform="translate(711.000000, 1063.000000)">
                <g id="undraw_fingerprint_swrc">
                    <path d="M169.332989,64.0766014 C161.331701,32.6890199 133.68473,10.0315777 101.233171,9.12280755 C84.0770043,8.64236981 66.0239262,14.3186858 52.8799565,34.1821932 C29.3836904,69.6903548 54.3238572,94.2275845 71.7114824,105.887186 C80.1118135,111.531546 87.68098,118.318403 94.1997456,126.05118 C105.944516,139.954884 128.538789,157.23219 155.447535,130.161316 C174.951041,110.540301 174.662636,84.9838232 169.332989,64.0766014 Z" id="Path" fill="#FEF8F8" fill-rule="nonzero"></path>
                    <ellipse id="Oval" fill="#3F3D56" fill-rule="nonzero" cx="110.960821" cy="143.885261" rx="84.0391791" ry="4.18376866"></ellipse>
                    <ellipse id="Oval" fill="#3F3D56" fill-rule="nonzero" cx="162.07556" cy="151.161381" rx="32.9244403" ry="1.63712687"></ellipse>
                    <ellipse id="Oval" fill="#3F3D56" fill-rule="nonzero" cx="99.8647388" cy="155.527052" rx="32.9244403" ry="1.63712687"></ellipse>
                    <g id="Group"></g>
                    <g id="Group-21" transform="translate(111.000000, 38.000000)" fill-rule="nonzero">
                        <path d="M10.6762744,97 C10.6762744,97 8.25639945,97.7277855 7.04646199,99.1833546 C7.04646199,99.1833546 4.86857296,100.153733 3.53764256,99.9111381 C2.20671215,99.668543 -0.213164769,102.094491 1.72273637,102.822276 C3.6586375,103.550062 15.5160242,105.490819 15.7580121,104.884332 C16,104.277845 16,98.0916773 16,98.0916773 L10.6762744,97 Z" id="Path" fill="#575A89"></path>
                        <path d="M29.6652493,95 C29.6652493,95 27.4147332,96.2084493 26.4746727,97.9615051 C26.4746727,97.9615051 24.5027064,99.3809943 23.1558678,99.3691083 C21.8090292,99.3572224 19.8465847,102.352741 21.8692256,102.764579 C23.8918664,103.176417 35.8535784,103.050234 35.9880915,102.367738 C36.1226045,101.685242 35.0731941,95.1751958 35.0731941,95.1751958 L29.6652493,95 Z" id="Path" fill="#575A89"></path>
                        <circle id="Oval" fill="#FFB9B9" cx="14.5" cy="7.5" r="5.5"></circle>
                        <path d="M19.4063515,8 C19.4063515,8 19.9859726,12.3870986 21.0292877,12.9032286 C21.7551756,13.3009481 22.4202338,13.823484 23,14.4516164 L20.1018961,16 L14.4216195,15.6129014 C14.4216195,15.6129014 14.8853152,12.7741907 14.0738452,11.3548364 C13.2623752,9.93548215 19.4063515,8 19.4063515,8 Z" id="Path" fill="#FFB9B9"></path>
                        <path d="M30.7787612,28 C30.7787612,28 33.5265485,35.1318682 30.7787612,42.0219777 C28.0309739,48.9120872 26.8362816,50 26.8362816,50 L26,40.9340669 L26.9616094,40.05138 C26.9616094,40.05138 27.5439109,37.3009101 27.070628,35.6724327 C26.5973452,34.0439554 27.3141585,28.9670325 27.3141585,28.9670325 L30.7787612,28 Z" id="Path" fill="#FFB9B9"></path>
                        <path d="M9.17585245,43.5023206 C9.17585245,43.5023206 5.66296737,51.5334877 6.02636879,55.4273867 C6.38977021,59.3212857 9.17585245,75.7486723 9.17585245,75.7486723 C9.17585245,75.7486723 8.81245103,96.9217548 9.9026613,96.9217548 C10.9928716,96.9217548 16.2016266,98.8687033 16.2016266,97.5301764 C16.2016266,96.1916496 17.2918329,64.0669814 17.2918329,64.0669814 C17.2918329,64.0669814 23.4696651,78.182365 24.0753348,79.2775228 C24.6810045,80.3726805 28.557291,97.5301744 29.8897635,97.5301744 C31.2222361,97.5301744 35.3407929,96.3133311 34.9773915,95.4615404 C34.61399,94.6097497 30.4954292,75.6269888 28.1938836,70.7596156 C25.8923379,65.8922423 26.3768745,47.5179072 26.3768745,47.5179072 L22.500596,39 L9.17585245,43.5023206 Z" id="Path" fill="#2F2E41"></path>
                        <path d="M13.0955157,5.61452233 C13.0955157,5.61452233 9.77596463,5.37485947 9.53884517,4.53604044 C9.30172571,3.69722141 8.82751225,2.9782348 9.06462387,2.9782348 C9.3017355,2.9782348 9.42029034,2.37907863 9.42029034,2.37907863 C9.42029034,2.37907863 9.65740196,2.25924819 9.7759568,2.37907863 C9.89451163,2.49890907 10.0130684,1.54026158 10.0130684,1.54026158 C10.0130684,1.54026158 10.1316233,1.18076828 10.2501801,1.42043114 C10.3687368,1.660094 10.3687349,1.54026158 10.4872917,1.18076828 C10.6058485,0.821274971 11.1986285,0.581610128 11.1986285,0.581610128 C11.1986285,0.581610128 13.4511861,0.701440569 13.8068525,0.222116824 C14.162519,-0.257206922 18.1934108,0.102284402 19.0233005,0.701440569 C19.8531902,1.30059674 23.5284136,3.45756052 22.9356355,5.25502902 C22.3428574,7.05249753 20.2088567,11.0069278 20.2088567,11.606084 C20.2088567,12.2052402 19.3789689,12.0854097 19.1418553,11.4862536 C18.9047417,10.8870974 17.0078546,10.1681088 17.0078546,9.80861946 C17.0078546,9.44913011 15.9408532,6.09385201 15.3480791,6.3335129 C14.7553049,6.57317378 14.0439681,8.49047668 13.8068564,8.13098338 C13.5697448,7.77149007 13.0955157,5.61452233 13.0955157,5.61452233 Z" id="Path" fill="#3F3D56"></path>
                        <path d="M30,21.0963455 C30,21.0963455 24.9639129,13.7209289 23.4899362,13.3521585 C22.0159594,12.9833882 18.6995123,12 18.6995123,12 C18.6995123,12 15.3830651,12.4916931 14.4004227,12.9833882 C13.4177803,13.4750833 9.73283135,14.3355467 9.60999877,15.8106301 C9.48716619,17.2857134 10.5926513,31.4219268 9.97849245,32.7740854 C9.36433361,34.1262439 7.27620411,47.0332236 8.25885663,46.787376 C9.24150915,46.5415285 8.50451976,43.3455224 12.8036174,43.2225915 C17.1027151,43.0996606 19.4365118,40.5182724 21.0333191,43.5913618 C22.6301264,46.6644512 27.1748872,49 27.1748872,49 C27.2891169,48.008987 27.4530996,47.0243533 27.6662135,46.0498333 C28.0347071,44.3289065 26.683563,40.149502 26.683563,40.149502 C26.683563,40.149502 26.8063935,30.4385386 27.2977198,29.3322256 C27.789046,28.2259126 30,21.0963455 30,21.0963455 Z" id="Path" fill="#575A89"></path>
                        <path d="M27.9678514,22 L29.7041888,22.2465758 C29.7041888,22.2465758 29.5884318,24.7123293 30.0514559,25.4520545 C30.51448,26.1917798 31.3247712,30.013699 30.8617452,30.1369879 C30.3987192,30.2602768 26.231512,31 26.231512,31 L26,25.3287656 L27.9678514,22 Z" id="Path" fill="#575A89"></path>
                        <path d="M8.68917378,26 C8.68917378,26 7.47555343,33.8255787 6.86874326,34.7887264 C6.26193308,35.7518742 3.2278802,49.2359505 3.2278802,49.2359505 C3.2278802,49.2359505 -1.76134517,56.1188315 0.665895526,55.9984388 C3.09313622,55.8780461 5.65512291,49.7175254 5.65512291,49.7175254 C5.65512291,49.7175254 13.1795695,36.1130563 13.1795695,34.6683357 C13.1795695,33.223615 15,26 15,26 L8.68917378,26 Z" id="Path" fill="#FFB9B9"></path>
                        <path d="M11.3985804,15 L9.24189952,15.8533318 C9.24189952,15.8533318 6.48614299,25.8495231 7.08522058,26.7028569 C7.68429818,27.5561907 14.8732293,26.337143 14.993046,25.9714271 C15.1128627,25.6057112 13.6750741,15 11.3985804,15 Z" id="Path" fill="#575A89"></path>
                    </g>
                    <path d="M32.7952804,68.7576215 C31.8691118,68.7611952 31.0115472,68.2739567 30.5462975,67.4798273 C30.0810479,66.685698 30.0789719,65.7056257 30.5408531,64.9095653 C33.8300994,59.4123422 43.8271907,46.5671642 65.6692645,46.5671642 C75.1304674,46.5671642 83.4274988,49.0592387 90.3201329,53.9700913 C95.9931589,58.0013883 99.1715317,62.5640834 100.686802,64.7629727 C101.074896,65.323247 101.220997,66.0141253 101.092581,66.6818041 C100.964164,67.349483 100.571888,67.9385415 100.003083,68.3178436 C98.8114823,69.1097126 97.1996879,68.8079948 96.381216,67.6398528 C93.6278581,63.6818521 85.27539,51.6612576 65.6692645,51.6612576 C46.5251119,51.6612576 37.8769811,62.7290001 35.0497076,67.4749361 C34.5907356,68.2785615 33.7265521,68.7702498 32.7952804,68.7576215 L32.7952804,68.7576215 Z" id="Path" fill="#1C1686" fill-rule="nonzero"></path>
                    <path d="M76.5647435,119.328143 C76.3473897,119.330958 76.1305573,119.306182 75.9194435,119.254407 C60.1188132,115.291118 54.2189278,99.3273578 53.979245,98.6637373 L53.9423707,98.5162661 C53.8133107,98.0554185 50.6421224,87.10568 55.5095278,80.6906818 C57.7404219,77.7596912 61.1328559,76.266545 65.6130813,76.266545 C69.7798754,76.266545 72.7851294,77.5753521 74.8500893,80.2851359 C76.5463063,82.4972043 77.2284806,85.2254219 77.8922177,87.8614701 C79.2750033,93.3363393 80.2706089,96.2120282 86.0229971,96.5069706 C88.5488855,96.636008 90.2082282,95.1428618 91.1485225,93.8709225 C93.692848,90.4053487 94.1353394,84.7461404 92.2178767,79.7689866 C89.7472997,73.3171205 81.0080946,61.1691784 65.5946442,61.1691784 C59.0125847,61.1691784 52.9652022,63.3075111 48.116234,67.326102 C44.0969371,70.6626385 40.9073116,75.3632838 39.3770288,80.1929664 C36.537709,89.1887111 40.2620116,103.327515 40.2988859,103.456552 C40.4739308,104.116728 40.3775369,104.819483 40.0311912,105.408168 C39.6848455,105.996852 39.1173382,106.42253 38.4551718,106.590316 C37.0718562,106.955351 35.6515839,106.142736 35.2655463,104.765359 C35.099612,104.120173 31.1171894,89.0412399 34.3990006,78.6445185 C37.9758061,67.3813945 49.0012168,56.0261194 65.5946442,56.0261194 C73.2644951,56.0261194 80.5102918,58.6621675 86.5576742,63.6393214 C91.2407082,67.510441 95.0756336,72.7088017 97.0668449,77.9071624 C99.6111705,84.5433675 98.9289962,91.9906644 95.3337536,96.8572148 C92.9369252,100.101582 89.526054,101.797501 85.74644,101.613162 C75.9010064,101.115446 74.1310408,94.1658649 72.8404409,89.0965416 C71.5129667,83.8981809 70.6648581,81.3911701 65.5946442,81.3911701 C62.8106358,81.3911701 60.8562988,82.165394 59.6394475,83.7691436 C57.9801047,85.9627781 57.8510447,89.391484 58.0354162,91.880061 C58.0372599,91.9060528 58.0391405,91.9319942 58.0410579,91.9578852 C58.2849824,95.1239223 59.2438041,98.1934373 60.8453969,100.93553 C63.4048631,105.347895 68.5965409,112.114824 77.2100434,114.277251 C77.8743758,114.438086 78.4468446,114.857753 78.8000447,115.442854 C79.1532449,116.027956 79.2578687,116.729941 79.0906319,117.392581 C78.7826998,118.534211 77.7473669,119.327575 76.5647435,119.328141 L76.5647435,119.328143 Z" id="Path" fill="#1C1686" fill-rule="nonzero"></path>
                    <path d="M56.3498068,118.23694 C55.6292181,118.237323 54.9398539,117.943431 54.4419515,117.423576 C48.0886083,110.694834 44.4951721,103.171214 43.1430028,93.7620668 L43.1430028,93.7066101 C42.3835653,87.4769785 43.4949373,78.6593693 48.9406601,72.5961077 C52.9601222,68.1226037 58.6095965,65.8488806 65.7038545,65.8488806 C74.0947131,65.8488806 80.6888536,69.7863035 84.8009301,77.2174962 C86.6592978,80.6350758 87.877062,84.3624475 88.3943662,88.2164006 C88.5213718,89.6387146 87.4800352,90.8990691 86.0567619,91.0456591 C84.6334886,91.1922491 83.3561782,90.1707034 83.1894407,88.7524817 C82.7388354,85.530075 81.703133,82.4166983 80.1331676,79.5651615 C76.9472346,73.8900965 72.0942435,71.0063501 65.6853316,71.0063501 C60.1469945,71.0063501 55.8126437,72.6885355 52.8304621,76.0159352 C48.5331571,80.8036936 47.6996281,88.1794295 48.2923598,93.0596157 C49.4778233,101.378115 52.6452335,107.995943 58.2391392,113.91132 C58.7108641,114.408938 58.9627738,115.074655 58.9383992,115.759243 C58.9140247,116.443831 58.6154047,117.090026 58.1094791,117.552974 C57.6281235,117.990717 57.0010286,118.234462 56.3498068,118.23694 L56.3498068,118.23694 Z" id="Path" fill="#1C1686" fill-rule="nonzero"></path>
                    <circle id="Oval" fill="#1C1686" fill-rule="nonzero" cx="65.8488806" cy="90.9514925" r="3.27425373"></circle>
                </g>
            </g>
        </g>
    </g>
</svg>