<?xml version="1.0" encoding="UTF-8"?>
<svg width="67px" height="20px" viewBox="0 0 67 20" version="1.1" xmlns="http://www.w3.org/2000/svg" xmlns:xlink="http://www.w3.org/1999/xlink">
    <!-- Generator: Sketch 54.1 (76490) - https://sketchapp.com -->
    <title>peach.</title>
    <desc>Created with Sketch.</desc>
    <g id="Page-1" stroke="none" stroke-width="1" fill="none" fill-rule="evenodd">
        <g id="logo" transform="translate(-22.000000, -9.000000)" fill="#EAB2A9" fill-rule="nonzero">
            <path d="M28.4038232,23.9145729 C29.7446237,23.9145729 30.4050179,22.1055276 30.4050179,19.7738693 C30.4050179,17.040201 29.4444444,16.0351759 28.103644,16.0351759 C27.7834528,16.0351759 27.5032855,16.0753769 27.1830944,16.2160804 L27.1830944,21.9045226 C27.1830944,23.0904523 27.4232378,23.9145729 28.4038232,23.9145729 Z M23.0606332,27.4321608 L23.0606332,16.1356784 L22,15.4522613 L22,14.8291457 L26.4626643,13.6231156 L27.2631422,13.6231156 L27.1830944,15.6130653 C27.703405,14.7286432 28.8040621,13.6231156 30.5451016,13.6231156 C32.8664875,13.6231156 34.6075269,15.2110553 34.6075269,18.5879397 C34.6075269,22.8090452 32.0660096,24.9396985 28.8040621,24.9396985 C28.083632,24.9396985 27.4832736,24.8190955 27.1830944,24.5979899 L27.1830944,27.3316583 C27.1830944,28.0351759 27.5433094,28.0552764 28.6639785,28.1557789 L28.6639785,29 L22,29 L22,28.1557789 C22.7404421,28.0954774 23.0606332,28.0351759 23.0606332,27.4321608 Z M41.6517324,13.6231156 C44.6535245,13.6231156 46.1744325,15.4924623 46.1744325,18.1256281 L46.1744325,18.6281407 L39.8306452,18.6281407 C39.8306452,20.839196 41.0713859,22.2462312 42.8324373,22.2462312 C44.09319,22.2462312 45.0537634,21.8241206 45.8142174,20.839196 L46.2344683,21.1005025 C45.6741338,23.4321608 44.09319,24.9396985 41.4716249,24.9396985 C38.4898447,24.9396985 36.1084229,23.0301508 36.1084229,19.5125628 C36.1084229,15.8743719 38.6899642,13.6231156 41.6517324,13.6231156 Z M41.3915771,14.5075377 C40.3909797,14.5075377 39.9307049,15.7537688 39.8506571,17.6432161 L42.6723417,17.6432161 C42.6723417,15.6532663 42.3521505,14.5075377 41.3915771,14.5075377 Z M52.6583035,22.7688442 C52.8784349,22.7688442 53.0385305,22.7286432 53.2386499,22.6683417 L53.2386499,18.9497487 L52.438172,19.2512563 C51.7977897,19.4924623 51.3575269,19.8140704 51.3575269,21 C51.3575269,22.0050251 51.69773,22.7688442 52.6583035,22.7688442 Z M57.2810633,17.201005 L57.2810633,22.5276382 C57.2810633,22.9296482 57.3210872,23.3517588 57.781362,23.3517588 C58.0415173,23.3517588 58.3016726,23.2914573 58.4017324,23.2512563 L58.541816,23.8542714 C57.8413978,24.4974874 56.9608722,24.9396985 55.7601553,24.9396985 C54.5394265,24.9396985 53.6589008,24.3366834 53.2986858,23.2713568 C52.7383513,24.1356784 51.8178017,24.8592965 50.3369176,24.8592965 C48.6158901,24.8592965 47.3951613,23.9145729 47.3951613,22.1256281 C47.3951613,20.3567839 48.5958781,19.6331658 49.9967145,19.1507538 L53.2386499,18.0251256 L53.2386499,15.8140704 C53.2386499,15.0100503 53.0385305,14.4673367 52.3781362,14.4673367 C51.677718,14.4673367 51.4175627,15.0904523 51.4175627,16.0150754 C51.4175627,16.4974874 51.4976105,17 51.6176822,17.5025126 L49.1362007,17.8241206 C48.5358423,17.6231156 48.0955795,17.120603 48.0955795,16.3567839 C48.0955795,14.4472362 50.0567503,13.6231156 52.5582437,13.6231156 C55.4799881,13.6231156 57.2810633,14.4874372 57.2810633,17.201005 Z M62.9644564,18.1055276 C62.9644564,20.638191 64.0851254,22.1859296 66.0663082,22.1859296 C67.2069892,22.1859296 68.047491,21.8241206 68.6678614,20.9396985 L69.1481481,21.241206 C68.4877539,23.8341709 66.7867384,24.9396985 64.4653524,24.9396985 C61.6236559,24.9396985 59.4023297,22.9497487 59.4023297,19.6130653 C59.4023297,16.1758794 61.6436679,13.6231156 65.0456989,13.6231156 C67.0869176,13.6231156 68.8479689,14.3869347 68.8479689,16.2562814 C68.8479689,17.080402 68.3676822,17.5829146 67.9074074,17.7839196 L65.8461768,17.7839196 C65.9062127,17.3015075 65.9262246,16.919598 65.9262246,16.5778894 C65.9262246,15.3718593 65.6060335,14.5879397 64.7255078,14.5879397 C63.6048387,14.5879397 62.9644564,16.0954774 62.9644564,18.1055276 Z M71.2694146,23.1708543 L71.2694146,11.1306533 L70.2087814,10.5879397 L70.2087814,9.90452261 L74.6914576,9 L75.3918757,9 L75.3918757,15.6532663 C76.1123059,14.7085427 77.2529869,13.6231156 79.1341099,13.6231156 C81.0752688,13.6231156 82.2359618,14.7085427 82.2359618,16.919598 L82.2359618,23.1708543 C82.2359618,23.7738693 82.5561529,23.8341709 83.296595,23.8944724 L83.296595,24.7386935 L77.1129032,24.7386935 L77.1129032,23.8944724 C77.8533453,23.8341709 78.1135006,23.7738693 78.1135006,23.1708543 L78.1135006,17.281407 C78.1135006,16.5376884 77.8733572,16.0351759 76.8727599,16.0351759 C76.3124253,16.0351759 75.8521505,16.1356784 75.3918757,16.2964824 L75.3918757,23.1708543 C75.3918757,23.7738693 75.6520311,23.8341709 76.3924731,23.8944724 L76.3924731,24.7386935 L70.2087814,24.7386935 L70.2087814,23.8944724 C70.9492234,23.8341709 71.2694146,23.7738693 71.2694146,23.1708543 Z M84.5573477,22.7085427 C84.5573477,21.3819095 85.5379331,20.4572864 86.7786738,20.4572864 C88.0194146,20.4572864 89,21.3819095 89,22.7085427 C89,24.0351759 88.0194146,24.9396985 86.7786738,24.9396985 C85.5379331,24.9396985 84.5573477,24.0351759 84.5573477,22.7085427 Z" id="peach."></path>
        </g>
    </g>
</svg>