<?xml version="1.0" encoding="UTF-8"?>
<svg width="348px" height="216px" viewBox="0 0 348 216" version="1.1" xmlns="http://www.w3.org/2000/svg" xmlns:xlink="http://www.w3.org/1999/xlink">
    <!-- Generator: Sketch 54.1 (76490) - https://sketchapp.com -->
    <title>undraw_motherhood_7htu</title>
    <desc>Created with Sketch.</desc>
    <defs>
        <linearGradient x1="49.996622%" y1="100.003161%" x2="49.996622%" y2="-0.0102048503%" id="linearGradient-1">
            <stop stop-color="#808080" stop-opacity="0.25" offset="0%"></stop>
            <stop stop-color="#808080" stop-opacity="0.12" offset="54%"></stop>
            <stop stop-color="#808080" stop-opacity="0.1" offset="100%"></stop>
        </linearGradient>
    </defs>
    <g id="Website" stroke="none" stroke-width="1" fill="none" fill-rule="evenodd">
        <g id="how-it-works" transform="translate(-161.000000, -3791.000000)">
            <g id="undraw_motherhood_7htu" transform="translate(335.000000, 3899.000000) scale(-1, 1) translate(-335.000000, -3899.000000) translate(161.000000, 3791.000000)">
                <path d="M345.190015,149.94313 C339.096813,168.500127 323.485851,182.472024 306.711948,192.560465 C284.132517,206.144932 258.275428,213.820323 231.983765,215.598842 C229.14986,215.802217 226.311874,215.92526 223.469808,215.967968 C223.142348,215.967968 222.814888,215.986272 222.484368,215.986272 C222.392557,215.986272 222.306866,215.986272 222.218115,215.986272 C220.853189,216.004576 219.489283,216.004576 218.126397,215.986272 C209.999408,215.899279 201.888281,215.249966 193.85152,214.043019 L192.673276,213.863032 L191.164513,213.618981 L191.164513,213.618981 C185.943517,212.750568 180.772507,211.644205 175.651483,210.299893 C173.9846,209.860602 172.322817,209.396906 170.666136,208.908805 C170.054061,208.734919 169.46953,208.551881 168.872757,208.368843 C165.033009,207.189265 161.242228,205.867324 157.500412,204.403021 C157.228039,204.296249 156.952605,204.189476 156.683292,204.079654 C149.743368,201.343699 143.005136,198.124453 136.518496,194.445756 L135.878878,194.07968 L135.496331,193.860035 L134.844472,193.481756 C134.388476,193.219402 133.92636,192.950946 133.479546,192.676389 C132.812384,192.282858 132.145223,191.877124 131.487243,191.456136 L130.902712,191.093111 C129.947876,190.482985 128.993039,189.891162 128.032082,189.308491 C127.618932,189.055289 127.202721,188.808187 126.78651,188.561086 L126.752846,188.561086 C124.743224,187.336057 122.615914,186.314111 120.402573,185.510454 C119.588855,185.230203 118.761509,184.990935 117.923671,184.793555 C117.660479,184.735593 117.391166,184.67458 117.127974,184.62272 L117.127974,184.62272 L116.457752,184.503745 C116.323096,184.476289 116.185379,184.451884 116.047662,184.436631 L115.971153,184.436631 C108.130478,183.237733 99.8429883,185.522656 92.4583088,188.744124 C86.3742877,191.398174 80.5228549,194.692858 74.4541356,197.30725 C71.7520409,198.492775 68.9693679,199.486701 66.1268612,200.281616 C59.7665909,201.981103 53.1143863,202.299442 46.620045,201.21511 C46.4364227,201.187654 46.2497399,201.157148 46.0661175,201.123591 C45.1357642,200.969025 44.2094914,200.782937 43.287299,200.565325 L42.7272508,200.434148 C41.8397427,200.230772 40.9603956,199.992823 40.0892095,199.7203 L39.5199801,199.549464 C38.6222708,199.27084 37.7337425,198.965777 36.8543954,198.634275 C36.5483581,198.521401 36.2423209,198.399376 35.9362836,198.277351 C30.9563264,196.325218 26.3033369,193.629128 22.1370626,190.281643 C22.0177081,190.190124 21.9044743,190.095554 21.7943009,190.004035 C21.2097697,189.525086 20.6405403,189.036985 20.0774317,188.533631 C19.8723868,188.347542 19.6642814,188.161453 19.4653572,187.972314 C18.7981959,187.362188 18.1493969,186.726639 17.5189601,186.065669 L17.2435265,185.778909 C14.6566518,183.071778 12.4082463,180.062276 10.5474309,176.816151 C10.4892838,176.718531 10.4311367,176.61481 10.3821707,176.511088 C9.79763952,175.479974 9.2590139,174.427506 8.76323351,173.341481 C8.55818853,172.893038 8.35314356,172.426291 8.16952119,171.974798 C8.10831373,171.84057 8.05016665,171.703291 7.99814031,171.566013 C5.27440852,164.927837 4.09616499,157.768002 3.12296644,150.644775 C3.00973265,149.808902 2.89955923,148.97913 2.79244618,148.146307 C1.2714409,136.599663 -0.136330585,124.836425 0.010567309,113.228768 C0.010567309,113.149452 0.010567309,113.067085 0.010567309,112.990819 C0.0569093026,109.079112 0.314352703,105.172724 0.781781254,101.288593 C1.27321171,97.2165148 2.0597431,93.1852443 3.13520794,89.2263918 C5.80691339,79.4643679 10.3852311,70.3124705 15.6827364,61.6944338 C28.9922977,39.9800318 47.7187189,20.730541 71.4182458,11.267479 C96.9509361,1.07226534 127.1966,3.4365055 150.825739,17.4755161 C158.026796,21.7464016 164.701469,27.0728059 172.554386,30.0410713 C179.382077,32.624957 187.054432,33.039843 193.511819,29.4065397 C198.846048,26.4016667 202.368537,24.797034 208.749415,24.2784265 C221.965921,23.2408942 235.263806,24.1890421 248.19762,27.0911097 C248.721964,27.2049999 249.243247,27.3239746 249.761471,27.4480337 C283.526564,35.3491718 314.433269,55.9348397 333.025033,85.2453164 C333.514693,86.0201771 333.996192,86.8031727 334.469529,87.5943034 C345.713339,106.346541 351.977922,129.262892 345.190015,149.94313 Z" id="Path" fill="#FABEBA" fill-rule="nonzero" opacity="0.1"></path>
                <path d="M216,208 C216,208 227.264571,188.125261 244.226971,182.386032 C251.357581,180.032331 257.529717,175.438984 261.817383,169.295122 C263.824959,166.36009 265.55968,163.248835 267,160" id="Path" stroke="#535461" stroke-width="2"></path>
                <path d="M278.446062,156.243507 C276.422977,158.088749 267,160 267,160 C267,160 269.310273,151.199845 271.333357,149.354603 C272.64439,148.159928 274.533672,147.713656 276.289528,148.183893 C278.045384,148.65413 279.401058,149.969435 279.84588,151.634346 C280.290703,153.299257 279.757095,155.060834 278.446062,156.255509 L278.446062,156.243507 Z" id="Path" fill="#FABEBA" fill-rule="nonzero"></path>
                <path d="M273.202806,172.941282 C270.574351,173.481762 262,170.113186 262,170.113186 C262,170.113186 268.67737,163.614852 271.314932,163.074371 C273.912313,162.609101 276.393943,164.373977 276.906463,167.050934 C277.418982,169.727892 275.775227,172.339353 273.202806,172.934997 L273.202806,172.941282 Z" id="Path" fill="#FABEBA" fill-rule="nonzero"></path>
                <path d="M254.877707,189.72211 C252.47087,188.811479 247,181.432233 247,181.432233 C247,181.432233 255.488784,179.318943 257.895621,180.226433 C260.302615,181.134304 261.578286,183.995958 260.744912,186.618116 C259.911538,189.240275 257.284701,190.62998 254.877707,189.72211 Z" id="Path" fill="#FABEBA" fill-rule="nonzero"></path>
                <path d="M236.369737,200.91878 C233.767695,200.468121 227,194.221485 227,194.221485 C227,194.221485 235.322355,190.588046 237.921413,191.038705 C239.628036,191.302397 241.066312,192.511104 241.683692,194.200473 C242.301073,195.889843 242.001534,197.797116 240.90015,199.18957 C239.798765,200.582024 238.066841,201.243081 236.369737,200.91878 L236.369737,200.91878 Z" id="Path" fill="#FABEBA" fill-rule="nonzero"></path>
                <path d="M254,163.067988 C254,165.871556 259,174 259,174 C259,174 264,165.874727 264,163.074331 C264,160.271855 261.761424,158 259,158 C256.238576,158 254,160.271855 254,163.074331 L254,163.067988 Z" id="Path" fill="#FABEBA" fill-rule="nonzero"></path>
                <path d="M234.229325,174.95303 C235.058329,177.366262 242.258737,183 242.258737,183 C242.258737,183 244.648406,174.629548 243.828822,172.216316 C243.292566,170.653067 241.882218,169.469372 240.129043,169.111119 C238.375867,168.752866 236.546213,169.27448 235.329294,170.479476 C234.112375,171.684472 233.693069,173.389781 234.229325,174.95303 Z" id="Path" fill="#FABEBA" fill-rule="nonzero"></path>
                <path d="M217.057387,189.482629 C217.426455,192.088009 223.453525,199 223.453525,199 C223.453525,199 227.344379,190.815061 226.975311,188.20968 C226.766564,186.500744 225.604049,185.032021 223.934851,184.36836 C222.265653,183.7047 220.349727,183.949456 218.923907,185.008501 C217.498087,186.067546 216.784426,187.775947 217.057387,189.47668 L217.057387,189.482629 Z" id="Path" fill="#FABEBA" fill-rule="nonzero"></path>
                <path d="M278.446062,156.243507 C276.422977,158.088749 267,160 267,160 C267,160 269.310273,151.199845 271.333357,149.354603 C272.64439,148.159928 274.533672,147.713656 276.289528,148.183893 C278.045384,148.65413 279.401058,149.969435 279.84588,151.634346 C280.290703,153.299257 279.757095,155.060834 278.446062,156.255509 L278.446062,156.243507 Z" id="Path" fill="#000000" fill-rule="nonzero" opacity="0.25"></path>
                <path d="M273.202806,172.941282 C270.574351,173.481762 262,170.113186 262,170.113186 C262,170.113186 268.67737,163.614852 271.314932,163.074371 C273.912313,162.609101 276.393943,164.373977 276.906463,167.050934 C277.418982,169.727892 275.775227,172.339353 273.202806,172.934997 L273.202806,172.941282 Z" id="Path" fill="#000000" fill-rule="nonzero" opacity="0.25"></path>
                <path d="M254.877707,189.72211 C252.47087,188.811479 247,181.432233 247,181.432233 C247,181.432233 255.488784,179.318943 257.895621,180.226433 C260.302615,181.134304 261.578286,183.995958 260.744912,186.618116 C259.911538,189.240275 257.284701,190.62998 254.877707,189.72211 Z" id="Path" fill="#000000" fill-rule="nonzero" opacity="0.25"></path>
                <path d="M236.369737,200.91878 C233.767695,200.468121 227,194.221485 227,194.221485 C227,194.221485 235.322355,190.588046 237.921413,191.038705 C239.628036,191.302397 241.066312,192.511104 241.683692,194.200473 C242.301073,195.889843 242.001534,197.797116 240.90015,199.18957 C239.798765,200.582024 238.066841,201.243081 236.369737,200.91878 L236.369737,200.91878 Z" id="Path" fill="#000000" fill-rule="nonzero" opacity="0.25"></path>
                <path d="M254,163.067988 C254,165.871556 259,174 259,174 C259,174 264,165.874727 264,163.074331 C264,160.271855 261.761424,158 259,158 C256.238576,158 254,160.271855 254,163.074331 L254,163.067988 Z" id="Path" fill="#000000" fill-rule="nonzero" opacity="0.25"></path>
                <path d="M234.229325,174.95303 C235.058329,177.366262 242.258737,183 242.258737,183 C242.258737,183 244.648406,174.629548 243.828822,172.216316 C243.292566,170.653067 241.882218,169.469372 240.129043,169.111119 C238.375867,168.752866 236.546213,169.27448 235.329294,170.479476 C234.112375,171.684472 233.693069,173.389781 234.229325,174.95303 Z" id="Path" fill="#000000" fill-rule="nonzero" opacity="0.25"></path>
                <path d="M217.057387,189.482629 C217.426455,192.088009 223.453525,199 223.453525,199 C223.453525,199 227.344379,190.815061 226.975311,188.20968 C226.766564,186.500744 225.604049,185.032021 223.934851,184.36836 C222.265653,183.7047 220.349727,183.949456 218.923907,185.008501 C217.498087,186.067546 216.784426,187.775947 217.057387,189.47668 L217.057387,189.482629 Z" id="Path" fill="#000000" fill-rule="nonzero" opacity="0.25"></path>
                <path d="M217,208 C217,208 219.205438,185.095384 232.334778,172.912859 C237.874659,167.838014 241.632045,161.089163 243.042998,153.679228 C243.686093,150.156575 244.00641,146.58178 244,143" id="Path" stroke="#535461" stroke-width="2"></path>
                <path d="M252.649699,135.417094 C251.61532,137.805709 243.960914,143 243.960914,143 C243.960914,143 242.312177,134.323406 243.334018,131.917291 C244.005923,130.371535 245.513075,129.276726 247.287745,129.045269 C249.062414,128.813812 250.834985,129.480871 251.937749,130.795171 C253.040512,132.10947 253.305932,133.871337 252.634026,135.417094 L252.649699,135.417094 Z" id="Path" fill="#FABEBA" fill-rule="nonzero"></path>
                <path d="M253.839916,151.930574 C251.550465,153.490319 242,154 242,154 C242,154 245.720755,145.455175 248.016539,143.89543 C249.496868,142.885152 251.420618,142.717362 253.063131,143.455264 C254.705645,144.193167 255.817385,145.724657 255.97957,147.472837 C256.141754,149.221017 255.329744,150.920297 253.849416,151.930574 L253.839916,151.930574 Z" id="Path" fill="#FABEBA" fill-rule="nonzero"></path>
                <path d="M244.705176,175.984332 C242.061885,176.216224 234,171.910551 234,171.910551 C234,171.910551 241.257797,166.24173 243.901087,166.009838 C246.50667,165.840503 248.76418,167.876966 248.982872,170.594031 C249.201563,173.311096 247.301257,175.712621 244.705176,176 L244.705176,175.984332 Z" id="Path" fill="#FABEBA" fill-rule="nonzero"></path>
                <path d="M232.358275,192.890095 C229.75654,193.58548 221,190.753597 221,190.753597 C221,190.753597 227.315894,183.856388 229.917629,183.161004 C232.519489,182.46589 235.17303,184.085955 235.844478,186.779521 C236.515926,189.473087 234.951017,192.220154 232.349156,192.915268 L232.358275,192.890095 Z" id="Path" fill="#FABEBA" fill-rule="nonzero"></path>
                <path d="M233.450719,151.662821 C234.564729,154.034197 242.344129,159 242.344129,159 C242.344129,159 243.666627,150.224734 242.555729,147.847488 C241.849916,146.292829 240.31226,145.216221 238.530173,145.028948 C236.748085,144.841675 234.996887,145.572668 233.945567,146.942677 C232.894248,148.312685 232.705229,150.11005 233.450719,151.648146 L233.450719,151.662821 Z" id="Path" fill="#FABEBA" fill-rule="nonzero"></path>
                <path d="M219.354053,169.301314 C221.139607,171.333427 230,174 230,174 C230,174 228.502339,164.863155 226.716785,162.827977 C225.586615,161.423749 223.777609,160.753432 222.006158,161.082482 C220.234707,161.411531 218.78656,162.686868 218.235204,164.403442 C217.683848,166.120016 218.11822,168.000929 219.366304,169.301314 L219.354053,169.301314 Z" id="Path" fill="#FABEBA" fill-rule="nonzero"></path>
                <path d="M209.625006,190.458063 C210.992975,192.803814 218.999444,197 218.999444,197 C218.999444,197 219.067546,187.592071 217.696616,185.246319 C216.29068,182.996944 213.441056,182.328635 211.260168,183.736808 C209.079281,185.144982 208.355341,188.120699 209.625006,190.458063 Z" id="Path" fill="#FABEBA" fill-rule="nonzero"></path>
                <path d="M229.418721,154.406108 C229.418721,154.406108 226.770859,172.216096 227.716743,175.705973 C228.662627,179.195851 226.017825,206.341718 226.017825,206.341718 C226.017825,206.341718 226.795348,212.102155 223.991368,215.967913 C223.663829,215.967913 223.33629,215.986248 223.00569,215.986248 C222.913856,215.986248 222.828145,215.986248 222.739373,215.986248 C221.374116,216.004584 220.00988,216.004584 218.646665,215.986248 C210.517709,215.899103 202.404621,215.248663 194.365916,214.039618 L193.187387,213.859318 L191.678259,213.614843 L191.678259,213.614843 C186.456,212.74492 181.283739,211.636635 176.161477,210.289986 C174.49419,209.849931 172.832006,209.385429 171.174923,208.89648 C170.562701,208.722292 169.978028,208.538935 169.381111,208.355579 C165.540435,207.173951 161.748736,205.849713 158.006015,204.382864 C157.733576,204.275907 157.458076,204.168949 157.188698,204.058935 C150.247095,201.318226 143.507233,198.093384 137.019024,194.408293 L136.379251,194.041581 L135.996612,193.821554 L135.344595,193.442618 C134.888489,193.179808 134.426261,192.910885 133.979339,192.635851 C133.312016,192.241636 132.644694,191.835196 131.986554,191.413477 L131.401882,191.049821 C130.446814,190.438634 129.491747,189.845783 128.530558,189.262099 C128.117307,189.008457 127.700996,188.760926 127.284685,188.513395 L127.251012,188.513395 C125.240904,187.286237 123.11308,186.262514 120.899203,185.457461 C120.085288,185.176723 119.257742,184.937038 118.419701,184.739316 C118.156445,184.681253 117.887068,184.620135 117.623812,184.568184 L117.623812,184.568184 L116.953428,184.449002 C116.818739,184.421499 116.680989,184.397051 116.543239,184.381772 L120.290041,175.305646 L120.366569,175.12229 L120.250247,175.12229 C115.331038,174.752521 110.515907,173.514868 105.734449,172.283326 C105.734449,172.283326 105.719143,172.283326 105.713021,172.283326 L105.804854,172.093858 C105.829343,172.041907 105.856893,171.983845 105.884443,171.931894 L105.734449,171.895223 L105.713021,171.895223 C106.143617,170.992703 106.573194,170.090184 107.00175,169.187664 L107.170111,169.230447 L107.307861,168.924854 C107.463978,168.591757 107.613972,168.261716 107.760906,167.931675 C109.860829,163.329438 111.682191,158.604963 112.279108,153.620733 C112.44423,152.25113 112.497465,150.870387 112.438286,149.492165 C112.345281,146.77749 111.760344,144.1021 110.711819,141.59563 C110.672024,141.49784 110.63223,141.406162 110.589374,141.311428 C109.610004,139.082587 108.146108,137.099232 106.303816,135.505152 C105.094676,134.475302 103.717175,133.61964 102.710069,132.397267 C101.418279,130.832628 100.858096,128.815711 100.331584,126.862969 C99.6795671,124.451836 99.0306111,121.958194 99,119.482887 L99,119.388153 C99,119.296475 99,119.207852 99,119.11923 C99,119.030608 99,118.908371 99,118.813637 C99.0022377,118.095945 99.0698608,117.379944 99.2020335,116.674483 L99.2204001,116.980076 C99.2204001,116.90979 99.244889,116.836447 99.2601946,116.763105 C100.233629,112.270881 103.934514,108.878793 107.730294,106.226242 C110.537335,104.255164 113.546409,102.470498 116.068766,100.181603 L116.111622,100.151044 C116.981526,99.3626606 117.780478,98.4996163 118.49929,97.5718348 C121.511425,93.6266231 122.595059,88.5262681 122.665465,83.5817658 C122.665465,83.477864 122.665465,83.3800741 122.665465,83.2761723 C122.666979,83.3026355 122.666979,83.3291634 122.665465,83.3556266 C122.665465,83.2975639 122.665465,83.242557 122.665465,83.1814383 C122.689954,81.7237575 122.631793,80.2385732 122.864437,78.8053399 L122.864437,79.217891 C122.933073,78.7637585 123.035391,78.3153406 123.170549,77.8763357 C123.832983,75.6582167 125.37604,73.8074713 127.440801,72.7545892 C127.538757,72.7026383 127.633651,72.6567992 127.746913,72.6109602 C131.386576,70.8354622 136.299663,71.0188182 140.227071,71.0004826 C147.377831,70.9729792 154.378596,72.1311785 161.578334,71.8561444 C168.19646,71.6086136 174.881931,71.1135522 181.392919,72.3145346 C187.903906,73.5155169 194.359794,76.6600737 197.922929,82.1760358 C199.091567,83.8945594 199.818055,85.8740656 200.038158,87.9395287 C200.038158,87.9761999 200.038158,88.0128711 200.038158,88.0495423 C200.038158,88.0128711 200.038158,87.9731439 200.053464,87.9364727 C200.053464,88.1534441 200.053464,88.3704154 200.053464,88.5904427 C200.126931,92.227005 198.47393,95.9521894 199.661642,99.3931719 C201.568715,104.921358 209.549037,106.348479 211.817321,111.74526 C212.044693,112.281583 212.204084,112.844153 212.291794,113.419912 C212.291794,113.377129 212.316283,113.33129 212.325466,113.285451 C212.370941,113.651348 212.390376,114.020003 212.383627,114.388643 C212.447911,116.726433 211.492843,119.122286 209.97147,121.038357 C210.715321,121.230881 211.664266,121.505915 212.744839,121.900131 L212.515255,121.958194 C219.849682,124.662696 232.90839,132.608126 229.418721,154.406108 Z" id="Path" fill="url(#linearGradient-1)" fill-rule="nonzero"></path>
                <path d="M122.881914,77.8584516 C122.302397,79.6864313 122.4061,81.6362762 122.378649,83.5495616 C122.305447,88.4790135 121.237916,93.5668903 118.261028,97.5031398 C115.494597,101.159099 111.370876,103.48368 107.625366,106.131204 C103.879856,108.778728 100.225849,112.163537 99.2620206,116.645134 C98.5452496,119.99643 99.4328256,123.439125 100.317352,126.741675 C100.838917,128.688473 101.394033,130.702297 102.668971,132.262173 C103.6633,133.480826 105.02364,134.333884 106.213175,135.363646 C111.215321,139.674631 112.892871,146.886011 112.115098,153.439318 C111.337325,159.992625 108.45499,166.085891 105.633658,172.045104 C110.876762,173.413043 116.168667,174.787074 121.585626,174.979012 C127.002585,175.17095 132.62085,174.065022 137.006879,170.893477 C145.22687,164.93731 147.166727,153.52767 153.608516,145.673451 C156.030287,142.727357 159.055976,140.33575 162.194518,138.169594 C165.223257,136.082651 168.428901,134.166319 171.954804,133.127417 C175.480708,132.088515 179.168266,131.963603 182.785672,131.412163 C187.665815,130.668784 192.366003,129.157655 197.02349,127.564266 C200.729349,126.296866 204.52671,124.907602 207.393794,122.232658 C210.260879,119.557715 211.935378,115.249776 210.443884,111.636469 C208.205118,106.256116 200.323687,104.836385 198.438732,99.318933 C197.197345,95.6843001 199.106701,91.7236774 198.798642,87.89406 C198.579712,85.8376806 197.862605,83.8655183 196.709331,82.1481106 C193.186477,76.6458917 186.80874,73.5048133 180.379152,72.3105333 C173.949563,71.1162532 167.349169,71.6067611 160.812827,71.856585 C153.703069,72.1277353 146.782415,70.9730615 139.727558,71.0004812 C133.63653,71.0248542 125.196932,70.5648127 122.881914,77.8584516 Z" id="Path" fill="#965D7B" fill-rule="nonzero"></path>
                <g id="Group" opacity="0.1" transform="translate(98.000000, 79.000000)" fill="#000000" fill-rule="nonzero">
                    <path d="M99.8595393,14.9485714 C100.125962,13.031619 100.551626,11.0872381 100.472005,9.17333333 C100.20252,11.1177143 99.7707317,13.0742857 99.8595393,14.9485714 Z" id="Path"></path>
                    <path d="M23.9229268,1.45066667 C23.9229268,0.99047619 23.9229268,0.536380952 23.9229268,0.064 C23.693252,1.49333333 23.748374,2.97447619 23.7269377,4.4312381 C23.7269377,4.48914286 23.7269377,4.54704762 23.7269377,4.60495238 C23.8494309,3.55352381 23.9106775,2.49904762 23.9229268,1.45066667 Z" id="Path"></path>
                    <path d="M109.276206,40.1462857 C106.406802,42.8220952 102.594201,44.2118095 98.8642818,45.479619 C94.1850407,47.0704762 89.4659892,48.5851429 84.5785095,49.3409524 C80.9465854,49.8925714 77.228916,50.0205714 73.7011111,51.0567619 C70.1733062,52.0929524 66.9425474,54.0129524 63.9016531,56.1005714 C60.7505149,58.2674286 57.7126829,60.672 55.2811924,63.6068571 C48.8135501,71.4514286 46.8659079,82.8769524 38.6129268,88.8350476 C34.2092954,92.007619 28.5654201,93.0986667 23.1389702,92.9219048 C18.0769377,92.7451429 13.1190244,91.5413333 8.21317073,90.2704762 C7.79056911,91.1847619 7.36184282,92.0746667 6.93617886,92.9706667 C12.1972629,94.3390476 17.5134688,95.7135238 22.9491057,95.9055238 C28.3847425,96.0975238 34.0316802,94.9912381 38.4353117,91.815619 C46.6882927,85.8605714 48.635935,74.4441905 55.1035772,66.5904762 C57.5350678,63.6434286 60.5698374,61.248 63.7240379,59.0841905 C66.7649322,56.9965714 69.9803794,55.0765714 73.5234959,54.0373333 C77.0666125,52.9980952 80.7689702,52.8761905 84.4008943,52.3215238 C89.3006233,51.5779048 94.0196748,50.0662857 98.6958537,48.472381 C102.413523,47.207619 106.229187,45.8179048 109.107778,43.1420952 C111.478022,40.9325714 113.042873,37.6045714 112.666206,34.4777143 C112.109485,36.6531886 110.932141,38.6218787 109.276206,40.1462857 Z" id="Path"></path>
                    <path d="M13.6120596,71.4209524 L13.6120596,71.3630476 C14.3898916,64.807619 12.6933604,57.5939048 7.68644986,53.2815238 C6.49214092,52.2514286 5.12327913,51.3980952 4.12495935,50.1790476 C2.84490515,48.615619 2.28756098,46.6041905 1.76696477,44.6567619 C1.1698103,42.4289524 0.569593496,40.1340952 0.462411924,37.848381 C-0.150054201,41.0940952 0.719647696,44.4373333 1.5801626,47.640381 C2.10382114,49.5878095 2.65810298,51.6022857 3.93815718,53.1626667 C4.93647696,54.3817143 6.30533875,55.2350476 7.4996477,56.2620952 C11.7899729,59.943619 13.6457453,65.7310476 13.6120596,71.4209524 Z" id="Path"></path>
                </g>
                <path d="M227.417689,154.596446 L193.558117,188 L148.537096,188 L140.506636,169.924113 L138,150.970875 L142.51502,130.030603 C142.51502,130.030603 164.837917,132.274422 156.183104,119.560468 C147.528291,106.846513 172.360899,97 172.360899,97 C172.360899,97 179.105748,112.147306 183.872969,114.262732 C188.64019,116.378158 205.974421,120.816884 205.974421,120.816884 C205.974421,120.816884 206.217396,120.853568 206.651059,120.945277 C207.942446,121.222385 209.21191,121.59223 210.449458,122.051901 C217.704861,124.708412 230.930054,132.629031 227.417689,154.596446 Z" id="Path" fill="#FFC1C7" fill-rule="nonzero"></path>
                <path d="M199,154 C199,154 200.904826,157.115553 205.801997,158.735641 C210.699169,160.355729 199,154 199,154 Z" id="Path" fill="#000000" fill-rule="nonzero" opacity="0.1"></path>
                <path d="M170,156 C170,156 164.010478,167.046214 165.142356,176 L170,156 Z" id="Path" fill="#000000" fill-rule="nonzero" opacity="0.1"></path>
                <path d="M210,122.131863 C206.855014,122.823384 202.763289,124.950666 200.921689,131.124745 C198.978071,137.704495 198.042132,144.519003 198.143078,151.355628 L199.332985,165 L196.012917,165 L196.012917,144.387695 C195.750294,141.984425 199.579396,129.465713 199.579396,129.465713 C200.146791,127.205088 203.894836,123.133484 205.979605,121 C207.346697,121.283407 208.690386,121.661696 210,122.131863 Z" id="Path" fill="#000000" fill-rule="nonzero" opacity="0.1"></path>
                <path d="M211,122.131863 C207.855082,122.823384 203.763446,124.950666 201.921886,131.124745 C199.980256,137.704816 199.045446,144.519202 199.146576,151.355628 L200.336458,165 L197.01322,165 L197.01322,144.387695 C196.747361,141.984425 200.579622,129.465713 200.579622,129.465713 C201.147004,127.205088 204.891726,123.133484 206.979692,121 C208.346645,121.283821 209.690272,121.662101 211,122.131863 L211,122.131863 Z" id="Path" fill="#000000" fill-rule="nonzero" opacity="0.1"></path>
                <path d="M211,122.131863 C207.854353,122.823384 203.76177,124.950666 201.919783,131.124745 C199.975774,137.704436 199.04071,144.519093 199.143831,151.355628 L200.333988,165 L197.013223,165 L197.013223,144.387695 C196.747302,141.984425 200.580451,129.465713 200.580451,129.465713 C201.147964,127.205088 204.893554,123.133484 206.978761,121 C208.34614,121.283407 209.690111,121.661696 211,122.131863 L211,122.131863 Z" id="Path" fill="#DBE5F2" fill-rule="nonzero"></path>
                <path d="M147.552441,151.134401 C147.552441,151.134401 151.6159,173.616032 173,177.098242 L172.005112,188 L149.263529,188 L139,151 L147.552441,151.134401 Z" id="Path" fill="#DBE5F2" fill-rule="nonzero"></path>
                <path d="M157,199.155676 L156.553302,204 C149.754883,201.25545 143.154043,198.026089 136.799665,194.335834 L136.173089,193.968608 L135.798342,193.748272 L135.159774,193.368806 C134.713076,193.105627 134.260383,192.836328 133.822679,192.560908 C133.169121,192.16614 132.515563,191.759131 131.870999,191.336821 L131.298386,190.972655 C130.363019,190.360612 129.427652,189.76693 128.486289,189.182428 C128.081562,188.92843 127.673838,188.680553 127.266114,188.432675 L127.248126,188.383712 L124.615907,178.869497 L124.534962,178.581836 L123.63557,175.289042 L123.521647,174.891214 L123,173 L128.81007,173.085686 L129.502601,173.085686 L129.715457,173.085686 L131.547218,173.14383 C131.547218,173.14383 131.571202,173.28154 131.628163,173.538598 L131.712107,173.911945 C132.065887,175.389917 132.511487,176.843399 133.046204,178.263574 C133.169121,178.587957 133.298034,178.91846 133.43594,179.261204 C133.987379,180.613932 134.610889,181.934858 135.303677,183.218065 C135.896308,184.310237 136.54373,185.37048 137.243365,186.394571 C137.794992,187.208588 138.397584,188.022606 139.042148,188.821323 C139.283984,189.115104 139.532816,189.405824 139.788643,189.693485 C140.022485,189.959724 140.265321,190.222902 140.511154,190.486081 C140.999824,191.006318 141.518473,191.514314 142.061106,192.01619 L142.228992,192.1692 C142.450842,192.371175 142.678688,192.570089 142.909532,192.781244 C143.071422,192.918954 143.236311,193.056663 143.407195,193.194373 C147.351843,196.356549 152.037589,198.411544 157,199.155676 Z" id="Path" fill="#DBE5F2" fill-rule="nonzero"></path>
                <path d="M193.035163,214 L193.814224,205.677969 L194,203.681644 C191.561079,203.298692 189.178153,202.617142 186.904556,201.652247 L186.904556,201.652247 C186.251344,201.375647 185.622103,201.074996 185.016833,200.750292 C184.288711,200.371472 183.587556,199.971605 182.919362,199.547687 C181.639886,198.743084 180.426488,197.837249 179.290738,196.838817 C176.570248,194.40491 174.275232,191.531016 172.500925,188.336396 C172.378073,188.11692 172.255222,187.900451 172.141359,187.683982 C171.79178,187.028562 171.471167,186.389177 171.179519,185.765826 C171.023707,185.438116 170.87988,185.113412 170.742046,184.800735 C169.783891,182.65581 169.04985,180.417027 168.551688,178.120261 L162.091478,178.027059 L160.32361,178 L160,178 L160.386534,179.382996 L162.912488,188.339402 L164.908081,195.40471 L165.057901,195.936863 L165.48938,197.458159 L165.48938,197.458159 L166.24447,200.142976 L166.400282,200.690162 L166.505156,201.06297 L167.02353,202.911976 L168.572662,208.404877 C169.17194,208.585268 169.741253,208.765659 170.328545,208.93703 C171.948591,209.422081 173.575629,209.879071 175.209659,210.308001 C180.21762,211.630867 185.280515,212.721229 190.398343,213.579088 L190.398343,213.579088 L191.875562,213.819609 L193.035163,214 Z" id="Path" fill="#DBE5F2" fill-rule="nonzero"></path>
                <path d="M194.068161,214.064653 C202.11689,215.261055 210.240094,215.904694 218.379185,215.990928 C219.746144,216.003024 221.112081,216.003024 222.476996,215.990928 C222.565879,215.990928 222.651697,215.990928 222.743645,215.990928 C225.37642,212.162569 224.628577,206.61659 224.628577,206.61659 C224.628577,206.61659 227.249092,179.736431 226.314289,176.283046 C225.379485,172.829661 228,155.199857 228,155.199857 L224.628577,149.650854 C210.50538,131.528141 204.479728,156.185675 204.479728,156.185675 L204.439884,157.310595 L204.396975,158.477852 L204.136456,165.529773 L203.639937,179.05906 L202.8829,199.715867 C202.8829,199.715867 194.199953,200.266232 185.863344,200.747045 C183.684179,200.871028 181.532598,200.995011 179.561848,201.094802 L177.557384,201.212738 L176.4111,201.270193 C174.976713,201.342769 173.735417,201.394176 172.785288,201.42744 L172.785288,201.42744 L171.884199,201.454656 C170.225468,201.451569 168.569494,201.321144 166.931272,201.064563 L166.318286,200.976867 C160.801413,200.136201 154.751241,198.49418 154.751241,198.49418 C154.751241,198.49418 150.009794,194.245488 143.411,193.495541 C140.911286,193.200609 138.376315,193.473682 136,194.293871 L136.64057,194.656749 C143.136869,198.303306 149.885135,201.494427 156.835393,204.206478 C157.105107,204.315341 157.380951,204.42118 157.65373,204.52702 C161.399074,205.970466 165.1955,207.280858 169.043009,208.458194 C169.655995,208.639633 170.238332,208.821071 170.839058,208.993438 C172.496163,209.481307 174.16042,209.940952 175.831829,210.372373 C180.954348,211.702924 186.133058,212.799621 191.367958,213.662463 L191.367958,213.662463 L192.878969,213.904382 L194.068161,214.064653 Z" id="Path" fill="#FFC1C7" fill-rule="nonzero"></path>
                <path d="M146,156.103876 L142.551866,162.033729 L142.243446,162.560414 L142.243446,162.560414 L141.968952,163.025136 L141.950447,163.056117 L140.809294,165.023441 L137.592475,170.556731 L137.592475,170.556731 L137.151434,171.312679 L132.833556,178.714152 L130.983037,181.936225 L130.076283,183.485298 L130.076283,183.485298 L126.881053,188.96592 L126.865632,189 C124.840364,187.755891 122.696492,186.718027 120.46592,185.901853 C119.645867,185.617237 118.812079,185.374242 117.967719,185.173789 C117.702478,185.114924 117.431068,185.052961 117.165827,185.000292 L117.165827,185.000292 L116.490388,184.879465 C116.354683,184.851581 116.215894,184.826796 116.077105,184.811305 L116,184.811305 L119.734965,175.616005 L119.812069,175.427018 L119.895343,175.22254 L121.107433,172.245221 L126.461602,159.059508 L126.751516,158.356228 L135.831397,136 L140.281896,144.77705 L143.42161,150.973344 L146,156.103876 Z" id="Path" fill="#FFC1C7" fill-rule="nonzero"></path>
                <path d="M185.300599,200.541452 C183.609697,200.066394 179.957601,200.617099 176.330648,201.409872 C171.399375,202.484049 166.480674,204 166.480674,204 C166.480674,204 163.149158,182.23808 166.480674,185.294189 C166.759857,185.552235 167.068833,185.778633 167.401555,185.968954 C170.657641,187.835904 174.809465,185.294189 174.809465,185.294189 C174.809465,185.294189 189.304705,201.673121 185.300599,200.541452 Z" id="Path" fill="#FFD5D7" fill-rule="nonzero"></path>
                <path d="M215,182.998152 C215.000115,194.730295 205.795199,204.398571 194.07815,204.973172 C182.361102,205.547773 172.254524,196.826527 171.106915,185.150658 C169.959306,173.474788 178.174448,162.952409 189.779108,161.234347 C190.845689,161.076581 191.922515,160.99826 193.000698,161.000029 C198.834992,160.999212 204.430609,163.316503 208.556367,167.44204 C212.682125,171.567577 215,177.163353 215,182.998152 L215,182.998152 Z" id="Path" fill="#FFD5D7" fill-rule="nonzero"></path>
                <path d="M135.187002,177.368535 L135,175.935062 C135,175.935062 140.438381,170.388963 142.406499,171.055622 C144.374617,171.722281 149.717964,175.55009 150,178.996058 C150,178.996058 146.437768,175.168248 144.656652,178.711242 C142.875536,182.254235 135.187002,177.368535 135.187002,177.368535 Z" id="Path"></path>
                <path d="M165.477523,165.452367 C165.477523,165.452367 160.704346,164.434541 161.014484,165.452367 C161.224457,166.285958 161.352124,167.139569 161.395512,168 C161.395512,168 164.301951,167.693426 165.477523,167.429772 C166.653096,167.166118 165.477523,165.452367 165.477523,165.452367 Z" id="Path" fill="#FFD5D7" fill-rule="nonzero"></path>
                <path d="M165.477496,169.452367 C165.477496,169.452367 160.707024,168.434541 161.014225,169.452367 C161.224208,170.285958 161.351882,171.139569 161.395272,172 C161.395272,172 164.301863,171.693426 165.477496,171.429772 C166.65313,171.166118 165.477496,169.452367 165.477496,169.452367 Z" id="Path" fill="#FFD5D7" fill-rule="nonzero"></path>
                <path d="M124.573406,144.033548 C126.657081,148.386046 125.709395,153.485477 125.462441,158.302119 C125.345138,160.635131 125.771133,163.527575 127.969024,164.335984 C128.5648,164.554224 129.311836,164.643364 129.602007,165.208943 C129.723577,165.512569 129.75152,165.845383 129.682267,166.164894 C129.373575,168.519423 128.194369,170.668008 127.595506,172.967209 C125.888436,179.529768 129.595833,187.060573 135.853031,189.737851 C136.288287,189.922279 136.779108,190.091338 137.229799,189.943795 C137.607903,189.778551 137.925059,189.50034 138.137355,189.147682 C141.715102,184.229605 141.783014,177.565611 144.761897,172.272531 C147.141916,168.042985 151.262961,164.916932 153.263289,160.496811 C154.853055,156.980386 154.936402,152.999817 155.714307,149.22212 C156.949077,143.228213 159.961916,137.541687 159.989698,131.440198 C160.04309,130.596187 159.888364,129.751982 159.539007,128.98116 C159.057447,128.05902 158.152978,127.471925 157.285552,126.912494 L145.654018,119.403205 C144.753169,118.785592 143.800994,118.245716 142.807873,117.789461 C139.38756,116.338628 135.346775,117.021012 132.0592,118.75156 C129.345793,120.177802 127.058381,122.246468 124.909881,124.401201 C123.171942,126.14097 120.79501,127.582582 119.211417,129.396122 C115.081111,134.123624 122.684208,140.065275 124.573406,144.033548 Z" id="Path" fill="#965D7B" fill-rule="nonzero"></path>
                <g id="Group" opacity="0.1" transform="translate(118.000000, 129.000000)" fill="#000000" fill-rule="nonzero">
                    <path d="M6.74759124,11.0418367 C5.45386861,8.32653061 1.46233577,4.66836735 0.453722628,1.11428571 C-1.03620438,5.50102041 5.08291971,10.5459184 6.74759124,14.0387755 C7.52427686,15.751229 7.95555145,17.5996778 8.01678832,19.4785714 C8.14248175,16.5459184 7.99532847,13.6591837 6.74759124,11.0418367 Z" id="Path"></path>
                    <path d="M11.4564964,34.7908163 C11.6186279,34.2358177 11.7415575,33.6701427 11.8243796,33.0979592 C11.8949503,32.7745427 11.8661005,32.4373861 11.7416058,32.1306122 C11.4534307,31.5673469 10.7115328,31.4816327 10.1167883,31.2612245 C8.55021898,30.6826531 7.89109489,29.0387755 7.68875912,27.2816327 C7.66729927,27.5877551 7.64583942,27.9183673 7.63051095,28.2367347 C7.5140146,30.5602041 7.93708029,33.4408163 10.1167883,34.2459184 C10.5643796,34.4234694 11.1008759,34.5122449 11.4564964,34.7908163 Z" id="Path"></path>
                    <path d="M37.6773723,16.2214286 C36.9048175,19.9836735 36.8220438,23.9479592 35.2432117,27.45 C33.2566423,31.8520408 29.1639416,34.9683673 26.800292,39.177551 C23.8418978,44.4489796 23.7775182,51.0918367 20.2213139,55.9897959 C20.0255639,56.3961796 19.6603097,56.6956895 19.2230341,56.8083894 C18.7857585,56.9210892 18.3209644,56.8355092 17.9527007,56.5744898 C13.2284672,54.5479592 9.98189781,49.7265306 9.42394161,44.6571429 C8.74335766,50.7214286 12.299562,57.1469388 17.9527007,59.5714286 C18.3849635,59.755102 18.8724088,59.9234694 19.32,59.7765306 C19.6955033,59.6119622 20.0104779,59.334889 20.2213139,58.9836735 C23.7744526,54.0857143 23.8418978,47.4489796 26.800292,42.177551 C29.1639416,37.9653061 33.2566423,34.8520408 35.2432117,30.45 C36.8220438,26.9479592 36.9048175,22.9836735 37.6773723,19.2214286 C38.9036496,13.2520408 41.8957664,7.58877551 41.9233577,1.5122449 C41.9311225,1.07806493 41.9034397,0.643975169 41.8405839,0.214285714 C41.350073,5.66326531 38.7994161,10.8122449 37.6773723,16.2214286 Z" id="Path"></path>
                </g>
                <path d="M214,182.999204 C213.999172,191.875822 208.732892,199.882503 200.646352,203.301659 C192.559813,206.720815 183.237106,204.882658 177.006867,198.640664 C176.997711,198.580381 176.997711,198.519034 177.006867,198.458751 C177.03426,198.107257 177.33863,197.842096 177.615607,197.635516 C181.572417,194.385743 182.531183,187.994112 179.724891,183.692942 C179.158763,182.823458 178.452624,182.018723 178.163473,181.019741 C177.439072,178.509954 179.557488,176.123499 180.035348,173.55513 C180.339718,171.856245 179.971431,169.95078 180.902803,168.50164 C182.080715,166.667091 184.740909,166.509844 186.284065,164.977456 C187.5959,163.670146 188.26247,162.319672 189.114706,161.234358 C190.167739,161.076585 191.230886,160.99826 192.295373,161.000029 C204.284477,161.006838 214.000002,170.85421 214,182.999204 L214,182.999204 Z" id="Path" fill="#CE8EA0" fill-rule="nonzero" opacity="0.5"></path>
                <path d="M145,179.771506 L144.495511,182.159984 L142.213152,193 C142.213152,193 141.340933,192.339821 140.104022,191.371351 C137.794311,189.571429 134.211221,186.700272 132.64001,185.096536 C130.223932,182.605294 135.426858,177 135.426858,177 C135.426858,177 135.818901,177.249124 136.435837,177.563643 C137.347565,178.024523 138.742508,178.616193 140.082748,178.712729 C141.29502,178.829777 142.495602,179.050608 143.671917,179.372908 C144.446885,179.594005 145,179.771506 145,179.771506 Z" id="Path" fill="#FFD5D7" fill-rule="nonzero"></path>
                <polygon id="Path" fill="#FFD5D7" fill-rule="nonzero" points="149 172.57689 146.832333 178.99055 146.075968 181.221649 143.47071 182.29811 141.004554 183.311426 139.34113 184 135 179.525773 135 178.695876 135.782447 177.862973 143.163527 170"></polygon>
                <circle id="Oval" fill="#000000" fill-rule="nonzero" opacity="0.1" cx="153" cy="105" r="24"></circle>
                <circle id="Oval" fill="#FFC1C7" fill-rule="nonzero" cx="153" cy="104" r="24"></circle>
                <path d="M176,201.409872 C171.21263,202.484049 166.437465,204 166.437465,204 C166.437465,204 163.203168,182.23808 166.437465,185.294189 C166.708502,185.552235 167.008461,185.778633 167.331474,185.968954 C168.997442,189.5092 172.78401,195.488281 172.78401,195.488281 C172.1341,196.293158 174.810023,199.887868 176,201.409872 Z" id="Path" fill="#000000" fill-rule="nonzero" opacity="0.1"></path>
                <path d="M148,178.142178 L147.205616,180.386776 L144.466361,181.469749 L142.180604,192 C142.180604,192 141.307086,191.358686 140.068334,190.417891 C139.718318,188.333621 140.77141,185.124028 141.894504,182.492221 C142.551926,180.928263 143.230652,179.566984 143.647628,178.765341 C143.900248,178.281331 144.055472,178 144.055472,178 C144.055472,178 144.932034,179.134399 148,178.142178 Z" id="Path" fill="#000000" fill-rule="nonzero" opacity="0.1"></path>
                <path d="M176,201.578996 L175.431742,211 C173.794116,210.548845 172.1615,210.072625 170.533896,209.571341 C169.932565,209.392759 169.358293,209.204777 168.771995,209.016796 C164.999642,207.80536 161.275396,206.447716 157.599255,204.943864 C157.331663,204.834208 157.061064,204.724552 156.796478,204.611763 C149.978363,201.801916 143.358398,198.495724 136.985611,194.717673 L136.35722,194.34171 L135.981387,194.116132 L135.340969,193.727637 C134.892977,193.458197 134.438972,193.182491 134,192.900519 C136.213872,192.340249 138.476279,192.01381 140.752953,191.926148 L140.909299,191.926148 C140.797887,191.550119 140.735194,191.160263 140.722886,190.766929 C140.62066,188.517418 141.67299,185.346797 142.72532,182.796515 C143.025986,182.079053 143.311619,181.414851 143.579211,180.828976 C143.819744,180.308894 144.03923,179.848339 144.219629,179.484909 C144.339895,179.2374 144.442122,179.03062 144.520295,178.873969 C144.637555,178.642125 144.706708,178.510538 144.706708,178.510538 C144.893389,178.711165 145.129549,178.854264 145.389219,178.924097 C145.468623,178.953411 145.550033,178.976452 145.632758,178.993024 C145.774346,179.026483 145.918018,179.049515 146.06271,179.06195 C146.384362,179.086573 146.707532,179.07923 147.027847,179.040019 C147.287712,179.006455 147.545655,178.958346 147.800558,178.8959 C148.026058,178.842639 148.26659,178.773712 148.525163,178.692253 C148.711576,178.629593 148.910015,178.557533 149.126494,178.479208 C149.342974,178.400882 149.466247,178.347621 149.640633,178.269295 C150.779905,177.760862 151.877899,177.157358 152.923903,176.464673 C157.566182,173.472635 159.667836,175.737811 160.497673,177.319989 C160.698144,177.696748 160.856526,178.096203 160.969719,178.510538 C160.969719,178.510538 166.285489,180.678591 166.162216,182.517676 C166.14117,182.881107 166.369676,183.58917 166.763548,184.488348 C167.20252,185.512847 167.845945,186.787988 168.534469,188.091326 C170.263297,191.337139 172.310831,194.733338 172.310831,194.733338 C171.652373,195.576121 174.313265,199.335751 175.479848,200.902263 L175.521941,200.958657 L175.921827,201.485005 C175.969933,201.544533 176,201.578996 176,201.578996 Z" id="Path" fill="#575988" fill-rule="nonzero"></path>
                <path d="M142,162 L141.692308,162.507812 L141.692308,162.507812 L141.418462,162.955882 L141.4,162.985754 L140.261538,164.882583 L137.052308,170.217601 L137.052308,170.217601 L136.612308,170.946461 L132.304615,178.082721 L130.458462,181.189338 L129.553846,182.682904 L129.553846,182.682904 L126.366154,187.967142 L126.350769,188 C124.330279,186.800471 122.191465,185.799796 119.966154,185.012868 C119.148035,184.738451 118.316215,184.504162 117.473846,184.310892 C117.209231,184.254136 116.938462,184.194393 116.673846,184.143612 L116.673846,184.143612 L116,184.027114 C116.859765,183.6581 117.796483,183.489317 118.735385,183.534237 C118.735385,183.534237 121.224615,180.830882 123.584615,178.384421 C125.009231,176.908778 126.384615,175.525735 127.138462,174.886489 C127.203077,174.832721 127.264615,174.775965 127.326154,174.71921 C127.477524,174.578131 127.621304,174.429573 127.756923,174.274127 L127.756923,174.274127 L127.775385,174.25023 C128.104403,173.869466 128.401748,173.463932 128.664615,173.037454 C128.72,172.94784 128.772308,172.8642 128.821538,172.777574 C129.214812,172.104702 129.643057,171.451669 130.104615,170.821002 C131.832848,168.419095 134.047128,166.384284 136.612308,164.840763 C137.606154,164.243336 138.729231,163.616039 139.996923,162.973805 C140.507692,162.716912 141.036923,162.457031 141.590769,162.191176 L142,162 Z" id="Path" fill="#000000" fill-rule="nonzero" opacity="0.1"></path>
                <path d="M163.998746,171.169055 C164.012698,172.080536 163.91021,172.990061 163.693777,173.875496 C163.439579,174.918877 163.00839,175.910787 162.419007,176.807984 C162.278638,177.022812 162.122684,177.227008 161.952405,177.418919 C161.573664,177.863079 161.12815,178.245425 160.63189,178.552203 C160.497806,178.639625 160.359375,178.720169 160.217132,178.793522 C157.368723,180.296422 153.202849,179.807674 149.323646,178.726319 C149.08272,178.659116 148.847894,178.591913 148.610019,178.518601 C148.250156,178.414742 147.890292,178.298665 147.536528,178.182587 C147.051628,178.023744 146.572827,177.861846 146.109274,177.690785 C145.426144,177.442338 144.776561,177.192873 144.160524,176.942389 L143.31881,176.591102 L142.556388,176.245924 C140.442954,175.329521 139.055345,174.559744 139.055345,174.559744 C139.055345,174.559744 138.378315,176.004604 137.307874,178.200915 C137.124893,178.573585 136.935812,178.967638 136.731483,179.380019 C136.557651,179.734362 136.374669,180.103977 136.188638,180.488866 C135.755583,181.353339 135.29508,182.278905 134.810179,183.238073 C134.541807,183.775696 134.264285,184.316373 133.980664,184.869269 C133.758037,185.303033 133.53236,185.742906 133.303633,186.182779 L132.888876,186.973939 L132.888876,186.973939 C132.178298,188.336324 131.449423,189.698709 130.726647,191 C129.775144,190.389065 128.823641,189.796458 127.866039,189.213016 C127.454331,188.959478 127.039574,188.712049 126.624816,188.46462 L126.59127,188.46462 C124.588663,187.237969 122.46878,186.214668 120.263166,185.409946 C119.452289,185.129324 118.627832,184.889739 117.792919,184.692098 C117.530646,184.634059 117.262273,184.572966 117,184.521036 C117.660765,184.321243 118.350862,184.236519 119.040241,184.270553 C119.040241,184.270553 121.565383,181.444979 123.919743,178.918764 C125.298202,177.443356 126.624816,176.068753 127.359791,175.427271 C127.563453,175.247667 127.754036,175.05371 127.930083,174.846883 L127.972778,174.804117 L128.018524,174.746079 C128.134412,174.611673 128.244201,174.468103 128.35094,174.324534 C128.599459,173.985109 128.827573,173.631158 129.03407,173.264562 L129.095064,173.160703 C129.565671,172.338128 130.085048,171.544528 130.650405,170.784166 C132.311053,168.529002 134.385172,166.611141 136.76198,165.133019 C137.759228,164.522084 138.896762,163.865329 140.162382,163.19941 C140.67778,162.930599 141.217574,162.655678 141.787866,162.380758 L141.787866,162.380758 L141.876307,162.337992 C142.596033,161.985686 143.355406,161.635417 144.154424,161.287184 C144.245915,161.241364 144.343505,161.201653 144.438045,161.161942 C145.326521,160.775017 146.260742,160.388092 147.240709,160.001166 C148.164634,159.635647 149.123024,159.364443 150.101316,159.191678 C150.960415,159.037437 151.833559,158.975992 152.70575,159.008397 C153.166703,159.024404 153.626136,159.070321 154.081159,159.145858 L154.081159,159.145858 C157.951214,159.756792 160.933809,162.368539 162.571492,165.585111 C163.004626,166.429252 163.34415,167.318372 163.583988,168.236568 C163.632783,168.435122 163.684628,168.633676 163.724274,168.847503 C163.889633,169.610788 163.981544,170.388196 163.998746,171.169055 L163.998746,171.169055 Z" id="Path" fill="#FFC1C7" fill-rule="nonzero"></path>
                <path d="M176,201.85555 L175.413,211 C173.721364,210.562088 172.034903,210.099848 170.35362,209.613279 C169.732456,209.439939 169.139244,209.257476 168.533609,209.075013 C164.636841,207.899138 160.789766,206.581348 156.992383,205.121642 C156.715965,205.015205 156.436442,204.908768 156.163129,204.79929 C149.120147,202.071927 142.281851,198.862788 135.698883,195.195641 L135.049767,194.830715 L134.66154,194.611759 L134,194.234668 C135.994604,193.430469 138.129123,193.011229 140.286179,193 C140.57502,193 140.854544,193 141.134068,193 L141.339052,193 C148.581824,193.43183 153.861717,198.157628 153.861717,198.157628 C153.861717,198.157628 160.054722,199.821085 165.663832,200.663457 L166.120387,200.73036 C167.806789,200.996358 169.512004,201.131599 171.220143,201.13482 C172.151889,201.116574 173.61473,201.13482 175.462693,201.201723 L175.506175,201.256462 L175.919249,201.767359 C175.968942,201.822098 176,201.85555 176,201.85555 Z" id="Path" fill="#000000" fill-rule="nonzero" opacity="0.1"></path>
                <path d="" id="Path" fill="#000000" fill-rule="nonzero" opacity="0.1"></path>
                <path d="M204.984877,202.026006 C204.974065,202.015467 204.967529,202.001301 204.966529,201.986232 C204.966529,201.958697 205.012399,201.986232 205.027689,201.986232 C205.042979,201.986232 205.027689,202.022946 204.984877,202.026006 Z" id="Path" fill="#FFC1C6" fill-rule="nonzero"></path>
                <path d="M193.519794,214.063433 C201.580916,215.26059 209.716628,215.904634 217.868252,215.990922 C219.237316,216.003026 220.605356,216.003026 221.972373,215.990922 L222,215.954612 L207.465211,204.625694 C205.525192,203.112751 205.930386,204.259562 204.567462,202.23827 L204.567462,202.23827 C202.65814,202.35628 194.898066,201.990148 187.242361,201.633093 L187.242361,201.633093 C184.479677,201.506006 181.716992,201.378919 179.261273,201.28209 L176.983593,201.203417 L175.755734,201.161055 C174.920789,201.130796 174.153377,201.112641 173.478054,201.094486 L173.478054,201.094486 C172.584786,201.079356 171.845,201.07633 171.304742,201.094486 C169.60773,201.085465 167.914115,200.943813 166.239821,200.670861 L165.696493,200.592188 C160.192612,199.750992 154.160751,198.117014 154.160751,198.117014 C154.160751,198.117014 149.163362,193.638702 142.296556,193.063784 C139.819791,192.846804 137.325323,193.185071 135,194.053249 L135.383706,194.271113 L136.025263,194.634219 C142.531565,198.283075 149.290222,201.476207 156.251182,204.189967 C156.521311,204.298899 156.79758,204.404805 157.070778,204.510711 C160.82189,205.955067 164.624162,207.266284 168.477595,208.444363 C169.091525,208.625916 169.674758,208.807469 170.27641,208.979944 C171.936067,209.468121 173.602886,209.928055 175.276868,210.359748 C180.407275,211.691138 185.593959,212.788526 190.83692,213.651912 L190.83692,213.651912 L192.350258,213.893983 L193.519794,214.063433 Z" id="Path" fill="#FFC1C6" fill-rule="nonzero"></path>
                <path d="M155,193 C155,193 164.465773,193.736196 166,196 L155,193 Z" id="Path" fill="#000000" fill-rule="nonzero" opacity="0.1"></path>
                <path d="M130.679903,103.053255 C131.801114,102.085858 133.495118,102.365261 134.984988,102.452387 C138.381761,102.605338 141.695564,101.389592 144.164904,99.084521 C145.487202,97.8377194 146.565758,96.2754621 148.19578,95.4582813 C150.499138,94.30161 153.32654,94.935526 155.645131,96.0591495 C157.963723,97.1827731 160.053806,98.7780782 162.488175,99.631311 C162.99231,99.8429419 163.542759,99.924618 164.087729,99.868654 C165.958445,99.5682199 166.171719,97.0625994 166.384993,95.2059167 C166.994347,89.9573329 171.418256,94.4578358 176.744009,94.1033235 C177.307661,92.7363483 176.920722,82.1340288 175.778183,81.184657 C174.635645,80.2352852 173.148821,79.7996558 171.707699,79.4030828 C165.053555,77.5764434 158.330351,76.0171904 151.538086,74.7253238 C148.838648,74.2145858 146.053901,73.7429042 143.351417,74.1605076 C141.017591,74.5180242 138.836105,75.5154654 136.709459,76.5309327 C133.440276,78.0961944 130.128438,79.7966514 127.706256,82.4675106 C122.831425,87.8422768 122.718695,95.5754506 123.172663,102.368266 C123.312815,104.456283 122.813144,109.927188 125.713669,109.999292 C129.086443,110.071396 128.864028,104.615513 130.679903,103.053255 Z" id="Path" fill="#000000" fill-rule="nonzero" opacity="0.1"></path>
                <path d="M130.679903,103.056529 C131.801114,102.089177 133.495118,102.368568 134.984988,102.45569 C138.381539,102.607237 141.694806,101.391745 144.164904,99.0879833 C145.487202,97.841241 146.565758,96.2790579 148.19578,95.4589117 C150.499138,94.3022954 153.32654,94.9361812 155.645131,96.0597514 C157.963723,97.1833216 160.053806,98.7785509 162.488175,99.6317432 C162.99231,99.843364 163.542759,99.9250363 164.087729,99.8690749 C165.958445,99.5686551 166.171719,97.0631536 166.384993,95.2035549 C166.994347,89.9582246 171.418256,94.4585137 176.744009,94.1040183 C177.307661,92.7341038 176.920722,82.1352921 175.778183,81.1859654 C174.635645,80.2366387 173.148821,79.80103 171.707699,79.4044758 C165.053555,77.5759204 158.330351,76.0167415 151.538086,74.726939 C148.838648,74.2132211 146.053901,73.7445661 143.351417,74.1591455 C141.017591,74.5196493 138.836105,75.5140389 136.709459,76.5324622 C133.440276,78.0976495 130.128438,79.7950216 127.706256,82.4657539 C122.831425,87.8432689 122.718695,95.5730713 123.172663,102.368568 C123.312815,104.453482 122.813144,109.924127 125.713669,109.999232 C129.086443,110.074337 128.864028,104.621717 130.679903,103.056529 Z" id="Path" fill="#965D7B" fill-rule="nonzero"></path>
                <path d="M163.587015,97.9259622 C163.029722,97.9794726 162.467131,97.8995456 161.951196,97.6935623 C159.458519,96.8580994 157.321048,95.2989609 154.953005,94.192855 C152.584962,93.0867492 149.69034,92.4689773 147.33476,93.6045009 C145.667783,94.4076043 144.564773,95.9373251 143.212496,97.15816 C140.685429,99.4125846 137.297726,100.602578 133.82445,100.455885 C132.300802,100.382341 130.568391,100.105814 129.418644,101.044239 C127.564715,102.585727 127.78594,107.913274 124.358509,107.842672 C123.841102,107.837196 123.349239,107.629502 123,107.269026 C123.283542,108.754621 123.909827,109.96663 125.308842,109.99899 C128.736273,110.084301 128.518164,104.742045 130.372093,103.212324 C131.52184,102.262132 133.254251,102.538659 134.777899,102.62397 C138.251792,102.770898 141.639966,101.579677 144.165945,99.3233034 C145.518222,98.1054103 146.621232,96.5727476 148.288209,95.772586 C150.643789,94.6400042 153.532179,95.2607178 155.903338,96.3609401 C158.274497,97.4611624 160.411968,99.0261845 162.904645,99.8616474 C163.42078,100.066875 163.983428,100.145798 164.540464,100.091106 C166.450478,99.7969285 166.668587,97.3434916 166.886697,95.5254772 C167.503634,90.38032 165.487682,97.6170763 163.587015,97.9259622 Z" id="Path" fill="#000000" fill-rule="nonzero" opacity="0.1"></path>
                <path d="M207,203 C207,203 208.90584,206.115553 213.80228,207.735641 C218.698719,209.355729 207,203 207,203 Z" id="Path" fill="#000000" fill-rule="nonzero" opacity="0.1"></path>
                <path d="M192,214 L190.790679,213.71864 L190.790679,213.71864 L189,211 C189,211 191.018806,211.545135 192,214 Z" id="Path" fill="#000000" fill-rule="nonzero" opacity="0.1"></path>
                <polygon id="Path" fill="#000000" fill-rule="nonzero" opacity="0.1" points="170 185.443694 171 186 170.878472 185"></polygon>
                <path d="M244.75219,93.0173896 C244.75219,93.0173896 231.574695,92.2103904 233.127138,101.59137 C233.127138,101.59137 232.822737,103.248656 234.299079,104 C234.299079,104 234.320387,103.307403 235.650617,103.542391 C236.123126,103.62301 236.603442,103.645847 237.081299,103.610414 C237.727895,103.567001 238.342683,103.30961 238.831602,102.877622 L238.831602,102.877622 C238.831602,102.877622 242.536155,101.331646 243.975969,95.1724796 C243.975969,95.1724796 245.041371,93.8336647 244.998755,93.4873662 L242.776632,94.452055 C242.776632,94.452055 243.534589,96.0815132 242.937964,97.4357878 C242.937964,97.4357878 242.864908,94.510802 242.438747,94.5819169 C242.350471,94.5819169 241.282025,95.144652 241.282025,95.144652 C241.282025,95.144652 242.590947,97.9830631 241.60469,100.045395 C241.60469,100.045395 241.979102,96.5483978 240.874129,95.3518127 L239.30951,96.2793981 C239.30951,96.2793981 240.831513,99.2105677 239.802639,101.603738 C239.802639,101.603738 240.067468,97.9335919 238.980758,96.5051105 L237.562252,97.6274888 C237.562252,97.6274888 238.995978,100.518463 238.122349,102.503496 C238.122349,102.503496 238.006677,98.2304192 237.254808,97.9088563 C237.254808,97.9088563 236.012854,99.0188668 235.824125,99.4764755 C235.824125,99.4764755 236.807339,101.572818 236.198538,102.679737 C236.198538,102.679737 235.824125,99.8351418 235.516681,99.822774 C235.516681,99.822774 234.280815,101.708864 234.152967,102.998208 C234.152967,102.998208 234.204715,101.078106 235.218369,99.6403489 C234.505476,99.7784854 233.847588,100.124428 233.324998,100.635957 C233.324998,100.635957 233.51677,99.3033263 235.522769,99.1889241 C235.522769,99.1889241 236.54251,97.7573507 236.816471,97.6707761 C236.816471,97.6707761 234.822648,97.5007188 233.611134,98.0449022 C233.611134,98.0449022 234.676536,96.78957 237.181751,97.358489 L238.585037,96.1990073 C238.585037,96.1990073 235.958062,95.8341571 234.843956,96.2361108 C234.843956,96.2361108 236.125482,95.1261003 238.95945,95.9269156 L240.481452,94.9993303 C240.481452,94.9993303 238.244109,94.510802 236.907791,94.6901352 C236.907791,94.6901352 238.317165,93.9171474 240.928921,94.7550662 L242.018674,94.257262 C242.018674,94.257262 240.377956,93.9295152 239.887871,93.8769521 C239.397787,93.8243889 239.382567,93.691435 239.382567,93.691435 C240.422416,93.5144713 241.490245,93.6354636 242.466143,94.0408255 C242.466143,94.0408255 244.791762,93.1503435 244.75219,93.0173896 Z" id="Path" fill="#FABEBA" fill-rule="nonzero" opacity="0.1"></path>
                <path d="M333.75219,5.01738964 C333.75219,5.01738964 320.574695,4.2103904 322.127138,13.5913701 C322.127138,13.5913701 321.822737,15.2486559 323.299079,16 C323.299079,16 323.320387,15.304311 324.650617,15.5423912 C325.123295,15.6214003 325.603423,15.6442283 326.081299,15.6104142 C326.727588,15.5656623 327.341972,15.3084402 327.831602,14.8776217 L327.831602,14.8776217 C327.831602,14.8776217 331.536155,13.3316462 332.975969,7.17247957 C332.975969,7.17247957 334.041371,5.83057278 333.998755,5.48736621 L331.776632,6.45205496 C331.776632,6.45205496 332.534589,8.0815132 331.937964,9.43578778 C331.937964,9.43578778 331.867952,6.51080203 331.438747,6.57882495 C331.353515,6.57882495 330.282025,7.14465201 330.282025,7.14465201 C330.282025,7.14465201 331.590947,9.98306313 330.60469,12.0453945 C330.60469,12.0453945 330.979102,8.54839781 329.874129,7.34872078 L328.30951,8.27630612 C328.30951,8.27630612 329.831513,11.2105677 328.802639,13.6006459 C328.802639,13.6006459 329.067468,9.93359191 327.980758,8.5051105 L326.562252,9.62748875 C326.562252,9.62748875 327.999022,12.518463 327.122349,14.5004037 C327.122349,14.5004037 327.009721,10.2304192 326.254808,9.90576435 C326.254808,9.90576435 325.012854,11.0188668 324.824125,11.4764755 C324.824125,11.4764755 325.807339,13.5728184 325.198538,14.6797369 C325.198538,14.6797369 324.824125,11.8351418 324.516681,11.822774 C324.516681,11.822774 323.280815,13.7057723 323.152967,14.9982078 C323.152967,14.9982078 323.204715,13.0750142 324.218369,11.6403489 C323.50495,11.7769378 322.846648,12.1230985 322.324998,12.6359572 C322.324998,12.6359572 322.51677,11.3033263 324.522769,11.1858321 C324.522769,11.1858321 325.545554,9.7573507 325.819515,9.67077607 C325.819515,9.67077607 323.822648,9.50071876 322.614178,10.0449022 C322.614178,10.0449022 323.676536,8.78647805 326.184795,9.35848901 L327.585037,8.19900734 C327.585037,8.19900734 324.958062,7.83106516 323.843956,8.23611075 C323.843956,8.23611075 325.125482,7.12300835 327.962494,7.92691564 L329.484496,6.99933031 C329.484496,6.99933031 327.244109,6.50771008 325.910835,6.69013519 C325.910835,6.69013519 327.317165,5.92023937 329.928921,6.75506617 L331.021718,6.26035399 C331.021718,6.26035399 329.377956,5.93260717 328.890915,5.880044 C328.403875,5.82748083 328.382567,5.69452694 328.382567,5.69452694 C329.422157,5.51740838 330.489755,5.63730407 331.466143,6.04082546 C331.466143,6.04082546 333.791762,5.16580329 333.75219,5.01738964 Z" id="Path" fill="#FABEBA" fill-rule="nonzero"></path>
                <path d="M56.7491565,68.0173994 C56.7491565,68.0173994 43.5721891,67.2104009 45.1276131,76.5882803 C45.1276131,76.5882803 44.8232248,78.2486565 46.296464,79 C46.296464,79 46.320815,78.3043116 47.6479478,78.5392997 C48.1213611,78.6207566 48.6026424,78.6446298 49.0816164,78.6104145 C49.7277264,78.565 50.3418877,78.3078614 50.8318489,77.8776227 L50.8318489,77.8776227 C50.8318489,77.8776227 54.53321,76.3316486 55.9760103,70.1724874 C55.9760103,70.1724874 57.0413692,68.8305818 56.9987548,68.4873756 L54.7736767,69.4520635 C54.7736767,69.4520635 55.5346473,71.0815202 54.9380464,72.4357936 C54.9380464,72.4357936 54.8649932,69.5108105 54.4388496,69.5788333 C54.3505771,69.5942931 53.2821743,70.1446599 53.2821743,70.1446599 C53.2821743,70.1446599 54.5910438,72.9830685 53.601782,75.045398 C53.601782,75.045398 53.9761795,71.5484044 52.874294,70.3487285 L51.3097384,71.276313 C51.3097384,71.276313 52.8316797,74.210572 51.7998035,76.6006481 C51.7998035,76.6006481 52.0676652,72.9335973 50.9779552,71.5051172 L49.5625499,72.6244025 C49.5625499,72.6244025 50.9962185,75.5122822 50.1226243,77.4973131 C50.1226243,77.4973131 50.0069567,73.2273324 49.2551177,72.9026778 C49.2551177,72.9026778 48.0132137,74.0157792 47.824493,74.4733876 C47.824493,74.4733876 48.807667,76.5697286 48.1958466,77.6766461 C48.1958466,77.6766461 47.8214491,74.8320536 47.5170608,74.8196858 C47.5170608,74.8196858 46.2812445,76.7026824 46.1503576,77.9951168 C46.1503576,77.9951168 46.2051475,76.0719249 47.2157165,74.6372609 C46.5025609,74.7745405 45.8444708,75.1206036 45.3224216,75.6328682 C45.3224216,75.6328682 45.51723,74.3002385 47.5231486,74.1827444 C47.5231486,74.1827444 48.5428492,72.7542643 48.8167987,72.6645978 C48.8167987,72.6645978 46.8230556,72.4976326 45.6115904,73.0418155 C45.6115904,73.0418155 46.6769493,71.7833925 49.1820646,72.355403 L50.5822505,71.1959223 C50.5822505,71.1959223 47.9553799,70.8279805 46.8413189,71.2330257 C46.8413189,71.2330257 48.1258373,70.1199243 50.9596919,70.9238309 L52.4816332,69.9962464 C52.4816332,69.9962464 50.2413357,69.5046266 48.9081151,69.6870515 C48.9081151,69.6870515 50.3143889,68.9171564 52.9290839,69.7519824 L54.0187939,69.2541788 C54.0187939,69.2541788 52.3781412,68.9264322 51.8880761,68.8769611 C51.398011,68.8274899 51.3827916,68.6914442 51.3827916,68.6914442 C52.4213353,68.5142546 53.4879329,68.634161 54.4632007,69.0377424 C54.4632007,69.0377424 56.7887269,68.1658129 56.7491565,68.0173994 Z" id="Path" fill="#FABEBA" fill-rule="nonzero" opacity="0.1"></path>
                <path d="M275.75219,54.0173994 C275.75219,54.0173994 262.574695,53.2104009 264.127138,62.5882803 C264.127138,62.5882803 263.822737,64.2455646 265.299079,65 C265.299079,65 265.320387,64.3043116 266.650617,64.5392997 C267.123017,64.6208332 267.603319,64.6447075 268.081299,64.6104145 C268.727847,64.56435 269.342138,64.3060819 269.831602,63.8745308 L269.831602,63.8745308 C269.831602,63.8745308 273.536155,62.3285566 274.975969,56.1724874 C274.975969,56.1724874 276.041371,54.8305818 275.998755,54.4842836 L273.776632,55.4489715 C273.776632,55.4489715 274.534589,57.0784283 273.937964,58.4327017 C273.937964,58.4327017 273.864908,55.5108105 273.438747,55.5788333 C273.353515,55.5788333 272.282025,56.1415679 272.282025,56.1415679 C272.282025,56.1415679 273.590947,58.9830685 272.60469,61.045398 C272.60469,61.045398 272.979102,57.5484044 271.874129,56.3487285 L270.30951,57.276313 C270.30951,57.276313 271.831513,60.20748 270.802639,62.6006481 C270.802639,62.6006481 271.067468,58.9305054 269.980758,57.5020252 L268.562252,58.6274944 C268.562252,58.6274944 269.995978,61.5153742 269.122349,63.500405 C269.122349,63.500405 269.006677,59.2273324 268.254808,58.9057698 C268.254808,58.9057698 267.012854,60.0157792 266.824125,60.4733876 C266.824125,60.4733876 267.807339,62.5728205 267.198538,63.679738 C267.198538,63.679738 266.824125,60.8320536 266.516681,60.8196858 C266.516681,60.8196858 265.280815,62.7057743 265.152967,63.9982087 C265.152967,63.9982087 265.204715,62.0750168 266.218369,60.6403528 C265.502782,60.7757987 264.842219,61.122035 264.31891,61.6359602 C264.31891,61.6359602 264.510682,60.3002385 266.516681,60.1858364 C266.516681,60.1858364 267.539466,58.7542643 267.810383,58.6676898 C267.810383,58.6676898 265.81656,58.4976326 264.60809,59.0449075 C264.60809,59.0449075 265.670448,57.7864845 268.178707,58.3584949 L269.578949,57.1959223 C269.578949,57.1959223 266.951974,56.8310724 265.837868,57.2330257 C265.837868,57.2330257 267.119394,56.1230162 269.956406,56.9238309 L271.478408,55.9962464 C271.478408,55.9962464 269.241065,55.5077185 267.904747,55.6870515 C267.904747,55.6870515 269.314121,54.9171564 271.925877,55.7519824 L273.01563,55.2541788 C273.01563,55.2541788 271.374912,54.9264322 270.884827,54.8769611 C270.394743,54.8274899 270.376479,54.6883522 270.376479,54.6883522 C271.416376,54.5131924 272.483719,54.6341296 273.460055,55.0377424 C273.460055,55.0377424 275.791762,54.162721 275.75219,54.0173994 Z" id="Path" fill="#FABEBA" fill-rule="nonzero" opacity="0.1"></path>
                <path d="M338.749213,39.0173994 C338.749213,39.0173994 325.575056,38.2104009 327.127105,47.5882803 C327.127105,47.5882803 326.822782,49.2455646 328.29875,50 C328.29875,50 328.323096,49.3043116 329.649946,49.5392997 C330.122242,49.6206863 330.602405,49.6445598 331.080265,49.6104145 C331.726492,49.566107 332.340855,49.3088292 332.830125,48.8776227 L332.830125,48.8776227 C332.830125,48.8776227 336.53374,47.3316486 337.973189,41.1724874 C337.973189,41.1724874 339.041364,39.8305818 338.998759,39.4873756 L336.774155,40.4520635 C336.774155,40.4520635 337.534963,42.0815202 336.935446,43.4357936 C336.935446,43.4357936 336.865452,40.5108105 336.436356,40.5788333 C336.351146,40.5788333 335.282971,41.1446599 335.282971,41.1446599 C335.282971,41.1446599 336.588518,43.9830685 335.587294,46.045398 C335.587294,46.045398 335.961612,42.5484044 334.859961,41.3487285 L333.292696,42.276313 C333.292696,42.276313 334.814313,45.210572 333.7857,47.6006481 C333.7857,47.6006481 334.050461,43.9335973 332.964027,42.5020252 L331.54588,43.6274944 C331.54588,43.6274944 332.982286,46.5153742 332.105835,48.500405 C332.105835,48.500405 331.993235,44.2304244 331.238514,43.9057698 C331.238514,43.9057698 329.999918,45.0188712 329.808194,45.4764795 C329.808194,45.4764795 330.791158,47.5728205 330.182512,48.679738 C330.182512,48.679738 329.808194,45.8351456 329.500827,45.8196858 C329.500827,45.8196858 328.265275,47.7057743 328.137459,48.9982087 C328.137459,48.9982087 328.192237,47.0750168 329.20259,45.6403528 C328.489352,45.7769415 327.831217,46.1231019 327.309699,46.6359602 C327.309699,46.6359602 327.501423,45.3033304 329.506914,45.1858364 C329.506914,45.1858364 330.52944,43.7573563 330.803331,43.6676898 C330.803331,43.6676898 328.80697,43.5007245 327.598806,44.0449075 C327.598806,44.0449075 328.663938,42.7864845 331.168519,43.3584949 L332.568407,42.1959223 C332.568407,42.1959223 329.942096,41.8310724 328.828273,42.2361177 C328.828273,42.2361177 330.109474,41.1230162 332.945767,41.9269228 L334.467384,40.9993383 C334.467384,40.9993383 332.227564,40.5077185 330.894628,40.6901435 C330.894628,40.6901435 332.300602,39.9202483 334.914739,40.7550744 L336.004217,40.2572707 C336.004217,40.2572707 334.363914,39.9295242 333.873954,39.880053 C333.383993,39.8305818 333.368777,39.6945361 333.368777,39.6945361 C334.407099,39.5173466 335.473469,39.637253 336.448529,40.0408343 C336.448529,40.0408343 338.788775,39.1658129 338.749213,39.0173994 Z" id="Path" fill="#FABEBA" fill-rule="nonzero"></path>
                <path d="M227.085721,53 C227.085721,53 218.385584,63.321414 226.3766,68.173058 C226.3766,68.173058 227.428364,69.5091113 228.903216,68.7847451 C228.903216,68.7847451 228.396701,68.3114925 229.388874,67.3714261 C229.739746,67.0344602 230.052753,66.6541082 230.321457,66.2381953 C230.686171,65.6731479 230.870287,64.994942 230.845849,64.306552 L230.845849,64.306552 C230.845849,64.306552 231.954223,60.2404429 228.226869,55.0378837 C228.226869,55.0378837 227.875288,53.2833077 227.592236,53.1062404 L226.948664,55.5658662 C226.948664,55.5658662 228.63804,56.0069247 229.287571,57.3816109 C229.287571,57.3816109 227.049967,55.5304527 226.838423,55.9264396 C226.79373,56.0069247 226.540473,57.2463958 226.540473,57.2463958 C226.540473,57.2463958 229.4723,58.025492 230.413822,60.185713 C230.413822,60.185713 228.030222,57.5940916 226.442149,57.7196484 L226.176974,59.6126589 C226.176974,59.6126589 229.314387,60.272637 230.473412,62.6871911 C230.473412,62.6871911 227.884227,60.0730338 226.1442,60.0311816 L226.129302,61.9370696 C226.129302,61.9370696 229.17733,62.6453388 230.12779,64.6606866 C230.12779,64.6606866 226.850341,61.9628249 226.150159,62.3749088 C226.150159,62.3749088 226.221667,64.1198265 226.448108,64.5769821 C226.448108,64.5769821 228.623143,65.1371587 229.079006,66.3637521 C229.079006,66.3637521 226.716263,64.8119987 226.516637,65.0566735 C226.516637,65.0566735 227.172127,67.3102573 228.062997,68.2567626 C228.062997,68.2567626 226.653694,66.9690004 226.197831,65.1822303 C225.86266,65.8599445 225.717697,66.6285725 225.780701,67.3939619 C225.780701,67.3939619 224.886851,66.3637521 226.045876,64.6349314 C226.045876,64.6349314 225.598951,62.861039 225.703234,62.5777313 C225.703234,62.5777313 224.350541,64.1101683 224.013858,65.4751962 C224.013858,65.4751962 223.715908,63.7753501 225.694295,62.0883817 L225.694295,60.1760548 C225.694295,60.1760548 223.808272,62.1076981 223.426896,63.2795617 C223.426896,63.2795617 223.379224,61.4960111 225.730049,59.693144 L225.971389,57.8323276 C225.971389,57.8323276 224.228382,59.3551064 223.540117,60.5688223 C223.540117,60.5688223 223.838067,58.9076091 226.057794,57.3011257 L226.355744,56.0777516 C226.355744,56.0777516 225.101375,57.2142018 224.767671,57.5779946 C224.433967,57.9417874 224.317767,57.8709605 224.317767,57.8709605 C224.823515,56.9003055 225.569438,56.1010103 226.471944,55.5626468 C226.471944,55.5626468 227.222778,53.0643881 227.085721,53 Z" id="Path" fill="#FABEBA" fill-rule="nonzero" opacity="0.1"></path>
                <path d="M279.085323,0 C279.085323,0 270.386034,10.321414 278.376271,15.173058 C278.376271,15.173058 279.430911,16.5091113 280.90264,15.7847451 C280.90264,15.7847451 280.396175,15.3114925 281.388251,14.3714261 C281.739783,14.0352113 282.052837,13.6547654 282.320743,13.2381953 C282.685621,12.673251 282.869738,11.9949714 282.845084,11.306552 L282.845084,11.306552 C282.845084,11.306552 283.956329,7.24044292 280.22636,2.03466426 C280.22636,2.03466426 279.874813,0.280088277 279.591788,0.103020975 L278.948279,2.56264676 C278.948279,2.56264676 280.63749,3.00370531 281.286958,4.38161086 C281.286958,4.38161086 279.049572,2.5272333 278.838049,2.92643958 C278.79634,3.00692472 278.540128,4.24639583 278.540128,4.24639583 C278.540128,4.24639583 281.471669,5.02549195 282.413099,7.18571303 C282.413099,7.18571303 280.029732,4.59087221 278.441814,4.71642903 L278.176664,6.61265885 C278.176664,6.61265885 281.313771,7.25653995 282.472683,9.68719108 C282.472683,9.68719108 279.883751,7.06981443 278.143893,7.03118156 L278.11708,8.9338502 C278.11708,8.9338502 281.16481,9.6389 282.115178,11.6574672 C282.115178,11.6574672 278.838049,8.95960545 278.137935,9.36846994 C278.137935,9.36846994 278.209436,11.1166071 278.435855,11.5705433 C278.435855,11.5705433 280.610678,12.1307198 281.066496,13.3573133 C281.066496,13.3573133 278.703984,11.8055599 278.504377,12.0502347 C278.504377,12.0502347 279.159803,14.3038185 280.050586,15.2503237 C280.050586,15.2503237 278.641421,13.9625616 278.185602,12.1790109 C277.850707,12.8556565 277.705755,13.6231809 277.768513,14.3875231 C277.768513,14.3875231 276.87475,13.3573133 278.033662,11.631712 C278.033662,11.631712 277.586781,9.85460017 277.691053,9.57129249 C277.691053,9.57129249 276.338493,11.1037295 276.001842,12.4687574 C276.001842,12.4687574 275.703921,10.7721307 277.682116,9.08194285 L277.682116,7.169616 C277.682116,7.169616 275.796277,9.10125929 275.414938,10.2731229 C275.414938,10.2731229 275.367271,8.49279165 277.717866,6.68670518 L277.959182,4.82588881 C277.959182,4.82588881 276.216345,6.3486676 275.528148,7.56238347 C275.528148,7.56238347 275.826069,5.90117024 278.048558,4.29468691 L278.346479,3.07453223 C278.346479,3.07453223 277.092232,4.21098237 276.758561,4.57155578 C276.42489,4.93212919 276.308701,4.86774108 276.308701,4.86774108 C276.812149,3.89221045 277.556942,3.08736942 278.459689,2.54333033 C278.459689,2.54333033 279.222366,0.0643881096 279.085323,0 Z" id="Path" fill="#FABEBA" fill-rule="nonzero"></path>
                <path d="M91.0879601,60 C91.0879601,60 82.3849313,70.321414 90.375867,75.173058 C90.375867,75.173058 91.430599,76.5091113 92.9024567,75.7847451 C92.9024567,75.7847451 92.3959469,75.308273 93.3881101,74.3714261 C93.7389782,74.0344602 94.0519827,73.6541082 94.3206839,73.2381953 C94.6865947,72.6737708 94.8708296,71.9951185 94.8450704,71.306552 L94.8450704,71.306552 C94.8450704,71.306552 95.9564123,67.2404429 92.2261172,62.0346643 C92.2261172,62.0346643 91.8745399,60.2833077 91.5914903,60.103021 L90.947925,62.5626468 C90.947925,62.5626468 92.6372839,63.0037053 93.2868081,64.3783915 C93.2868081,64.3783915 91.049227,62.5272333 90.8376847,62.9232202 C90.7959721,63.0037053 90.5397378,64.2431764 90.5397378,64.2431764 C90.5397378,64.2431764 93.4715352,65.0222725 94.4130474,67.1824936 C94.4130474,67.1824936 92.0294722,64.6069692 90.4414153,64.7132096 L90.1762426,66.6094394 C90.1762426,66.6094394 93.3166028,67.2694176 94.4726368,69.6839717 C94.4726368,69.6839717 91.8834783,67.066595 90.1434684,67.0279622 L90.1166532,68.9306308 C90.1166532,68.9306308 93.1646499,69.6389 94.1151005,71.6542478 C94.1151005,71.6542478 90.8376847,68.956386 90.1375095,69.3684699 C90.1375095,69.3684699 90.2090167,71.1133877 90.4354564,71.5705433 C90.4354564,71.5705433 92.6134482,72.1307198 93.0693069,73.3573133 C93.0693069,73.3573133 90.7036086,71.8055599 90.5069636,72.0502347 C90.5069636,72.0502347 91.1594673,74.3038185 92.0503285,75.2503237 C92.0503285,75.2503237 90.6410397,73.9625616 90.185181,72.1757915 C89.850052,72.8534565 89.7060697,73.6223885 89.7710348,74.3875231 C89.7710348,74.3875231 88.8771941,73.3573133 90.0332281,71.6284926 C90.0332281,71.6284926 89.5863077,69.8546002 89.6905891,69.5712925 C89.6905891,69.5712925 88.3379102,71.1037295 88.0042097,72.4687574 C88.0042097,72.4687574 87.7062628,70.7689113 89.6816507,69.0787234 L89.6816507,67.169616 C89.6816507,67.169616 87.7926674,69.1012593 87.4112954,70.2731229 C87.4112954,70.2731229 87.3636239,68.4895722 89.7144249,66.6867052 L89.9557619,64.8258888 C89.9557619,64.8258888 88.2127725,66.3486676 87.5245152,67.5623835 C87.5245152,67.5623835 87.8224621,65.8979508 90.0451459,64.2946869 L90.3430928,63.0713128 C90.3430928,63.0713128 89.0887364,64.207763 88.7550359,64.5715558 C88.4213353,64.9353486 88.3051361,64.8645217 88.3051361,64.8645217 C88.8108797,63.8938667 89.5567951,63.0945715 90.4592921,62.5562079 C90.4592921,62.5562079 91.2220362,60.0643881 91.0879601,60 Z" id="Path" fill="#FABEBA" fill-rule="nonzero" opacity="0.1"></path>
                <path d="M45,108.317896 C45,108.317896 46.3824328,121.580357 55.7290896,118.549815 C55.7290896,118.549815 57.4771774,118.592845 58,117.01303 C58,117.01303 57.2847274,117.09909 57.3039724,115.737497 C57.3066275,115.253278 57.2495661,114.770454 57.1339748,114.299066 C56.9797778,113.662214 56.6139577,113.090556 56.0915371,112.670073 L56.0915371,112.670073 C56.0915371,112.670073 53.8783617,109.224599 47.3382679,108.76049 C47.3382679,108.76049 45.7858377,107.912184 45.4394276,108.007465 L46.7994078,110.072905 C46.7994078,110.072905 48.3422156,109.058626 49.8272884,109.439749 C49.8272884,109.439749 46.8443129,109.974551 46.9886504,110.389483 C47.0175179,110.472469 47.7584505,111.449865 47.7584505,111.449865 C47.7584505,111.449865 50.446336,109.697929 52.726869,110.355674 C52.726869,110.355674 49.0799408,110.537014 48.0375031,111.824841 L49.2499383,113.238684 C49.2499383,113.238684 51.9987663,111.253156 54.6225019,111.904754 C54.6225019,111.904754 50.8184061,112.212111 49.5386134,113.530673 L50.9274611,114.760102 C50.9274611,114.760102 53.6442142,112.872929 55.8253146,113.432319 C55.8253146,113.432319 51.4695287,114.222227 51.2642487,115.024429 C51.2642487,115.024429 52.611399,116.084811 53.1117691,116.201607 C53.1117691,116.201607 55.0940044,114.889192 56.3192697,115.322565 C56.3192697,115.322565 53.4678016,116.143209 53.5062916,116.45364 C53.5062916,116.45364 55.6456945,117.375711 56.9896373,117.311166 C56.9896373,117.311166 55.0106094,117.560125 53.3715766,116.779438 C53.631941,117.468807 54.0968313,118.070257 54.7091044,118.509859 C54.7091044,118.509859 53.3106341,118.5283 52.855169,116.545847 C52.855169,116.545847 51.2193437,115.755939 51.0846287,115.497759 C51.0846287,115.497759 51.2450037,117.510948 52.0083888,118.632802 C52.0083888,118.632802 50.5393536,117.769128 50.7061436,115.181181 L49.2852208,113.973267 C49.2852208,113.973267 49.3525783,116.647275 49.952381,117.695363 C49.952381,117.695363 48.5988157,116.59195 48.9516408,113.638248 L47.7456205,112.264362 C47.7456205,112.264362 47.620528,114.572614 48.0246731,115.875808 C48.0246731,115.875808 47.0014804,114.594129 47.4184555,111.85865 L46.7192203,110.850519 C46.7192203,110.850519 46.6582778,112.537909 46.6871453,113.023534 C46.7160128,113.509158 46.5812978,113.558335 46.5812978,113.558335 C46.2257984,112.550911 46.1702634,111.468494 46.4209228,110.432513 C46.4209228,110.432513 45.1443375,108.265645 45,108.317896 Z" id="Path" fill="#FABEBA" fill-rule="nonzero" opacity="0.1"></path>
            </g>
        </g>
    </g>
</svg>