<?xml version="1.0" encoding="UTF-8"?>
<svg width="19px" height="20px" viewBox="0 0 19 20" version="1.1" xmlns="http://www.w3.org/2000/svg" xmlns:xlink="http://www.w3.org/1999/xlink">
    <!-- Generator: Sketch 54.1 (76490) - https://sketchapp.com -->
    <title></title>
    <desc>Created with Sketch.</desc>
    <g id="Page-1" stroke="none" stroke-width="1" fill="none" fill-rule="evenodd">
        <g id="icons/close" transform="translate(-19.000000, -19.000000)" fill="#6A7083" fill-rule="nonzero">
            <path d="M30.36367,28.7500268 L37.6122832,35.9986401 C37.7950449,36.181459 37.7950449,36.4785469 37.6122832,36.6613086 L36.2862594,37.9873324 C36.1034977,38.1700941 35.8064098,38.1700941 35.6235909,37.9873324 L28.3749776,30.7387191 L21.1257922,37.9873324 C20.9429733,38.1700941 20.6458854,38.1700941 20.4630664,37.9873324 L19.1370999,36.6613086 C18.954281,36.4785469 18.954281,36.181459 19.1370999,35.9986401 L26.3862853,28.7500268 L19.1370999,21.5008414 C18.954281,21.3180224 18.954281,21.0209345 19.1370999,20.8381156 L20.4636959,19.5121491 C20.6464576,19.3293301 20.9435455,19.3293301 21.1263644,19.5121491 L28.3749776,26.7613345 L35.6235909,19.5127213 C35.8064098,19.3299596 36.1034977,19.3299596 36.2862594,19.5127213 L37.6122832,20.838745 C37.7950449,21.0215067 37.7950449,21.3185946 37.6122832,21.5014136 L30.36367,28.7500268 Z" id=""></path>
        </g>
    </g>
</svg>