<?xml version="1.0" encoding="UTF-8"?>
<svg width="9px" height="16px" viewBox="0 0 9 16" version="1.1" xmlns="http://www.w3.org/2000/svg" xmlns:xlink="http://www.w3.org/1999/xlink">
    <!-- Generator: Sketch 54.1 (76490) - https://sketchapp.com -->
    <title></title>
    <desc>Created with Sketch.</desc>
    <g id="Website" stroke="none" stroke-width="1" fill="none" fill-rule="evenodd">
        <g id="landing-page" transform="translate(-198.000000, -3642.000000)" fill="#444C65" fill-rule="nonzero">
            <g id="Group-12" transform="translate(0.000000, 3361.000000)">
                <g id="Group-8" transform="translate(0.000000, 1.000000)">
                    <g id="Group-11" transform="translate(161.000000, 280.000000)">
                        <path d="M39.4062443,15.9999952 L39.4062443,8.84376229 L37,8.84376229 L37,6.00001907 L39.4062443,6.00001907 L39.4062443,3.75002444 C39.4062443,2.56252727 39.739577,1.64065447 40.4062419,0.984406032 C41.0729068,0.328157596 41.9583217,3.33786011e-05 43.0624855,3.33786011e-05 C43.9583169,3.33786011e-05 44.6874817,0.041699787 45.2499803,0.125033081 L45.2499803,2.65627705 L43.7499839,2.65627705 C43.1874852,2.65627705 42.8020697,2.78127675 42.5937367,3.03127615 C42.4270706,3.23960915 42.3437373,3.57294137 42.3437373,4.03127377 L42.3437373,6.00001907 L44.9999809,6.00001907 L44.6249818,8.84376229 L42.3437373,8.84376229 L42.3437373,15.9999952 L39.4062443,15.9999952 Z" id=""></path>
                    </g>
                </g>
            </g>
        </g>
    </g>
</svg>