<?xml version="1.0" encoding="UTF-8"?>
<svg width="14px" height="14px" viewBox="0 0 14 14" version="1.1" xmlns="http://www.w3.org/2000/svg" xmlns:xlink="http://www.w3.org/1999/xlink">
    <!-- Generator: Sketch 54.1 (76490) - https://sketchapp.com -->
    <title></title>
    <desc>Created with Sketch.</desc>
    <g id="Website" stroke="none" stroke-width="1" fill="none" fill-rule="evenodd">
        <g id="landing-page" transform="translate(-228.000000, -3643.000000)" fill="#444C65" fill-rule="nonzero">
            <g id="Group-12" transform="translate(0.000000, 3361.000000)">
                <g id="Group-8" transform="translate(0.000000, 1.000000)">
                    <g id="Group-11" transform="translate(161.000000, 280.000000)">
                        <path d="M70.1249925,14.9999976 L67.2187495,14.9999976 L67.2187495,5.65626989 L70.1249925,5.65626989 L70.1249925,14.9999976 Z M68.687496,4.37502295 C68.2291636,4.37502295 67.8333315,4.20835684 67.4999988,3.87502414 C67.1666661,3.54169144 67,3.14585937 67,2.68752697 C67,2.22919457 67.1666661,1.8333625 67.5,1.50003099 C67.8333315,1.1666971 68.2291636,1.00003099 68.687496,1.00003099 C69.1458284,1.00003099 69.5416604,1.1666971 69.8749931,1.5000298 C70.2083258,1.8333625 70.374992,2.22919457 70.374992,2.68752697 C70.374992,3.14585937 70.2083258,3.54169144 69.8749931,3.87502414 C69.5416604,4.20835684 69.1458284,4.37502295 68.687496,4.37502295 Z M80.9999666,14.9999976 L78.0937236,14.9999976 L78.0937236,10.4375085 C78.0937236,9.68751028 78.0312237,9.14584507 77.906224,8.81251237 C77.677058,8.25001371 77.2291421,7.96876438 76.5624772,7.96876438 C75.8958123,7.96876438 75.4270634,8.21876378 75.1562306,8.71876259 C74.9478976,9.0937617 74.8437313,9.64584387 74.8437313,10.3750086 L74.8437313,14.9999976 L71.9687382,14.9999976 L71.9687382,5.65626989 L74.7499815,5.65626989 L74.7499815,6.93751684 L74.7812314,6.93751684 C74.9895644,6.52085132 75.3228967,6.17710214 75.7812291,5.9062693 C76.2812279,5.5729366 76.86456,5.40627049 77.5312249,5.40627049 C78.8853882,5.40627049 79.8333029,5.83335296 80.3749681,6.68751743 C80.7916336,7.3750158 80.9999666,8.43751326 80.9999666,9.87500983 L80.9999666,14.9999976 Z" id=""></path>
                    </g>
                </g>
            </g>
        </g>
    </g>
</svg>