<?xml version="1.0" encoding="UTF-8"?>
<svg width="27px" height="23px" viewBox="0 0 27 23" version="1.1" xmlns="http://www.w3.org/2000/svg" xmlns:xlink="http://www.w3.org/1999/xlink">
    <!-- Generator: Sketch 54.1 (76490) - https://sketchapp.com -->
    <title></title>
    <desc>Created with Sketch.</desc>
    <g id="Website" stroke="none" stroke-width="1" fill="none" fill-rule="evenodd">
        <g id="Artboard" transform="translate(-15.000000, -17.000000)" fill="#6A7083" fill-rule="nonzero">
            <path d="M40.5468141,21.0156703 L15.7031233,21.0156703 C15.3148262,21.0156703 15,20.700844 15,20.3125469 L15,18.4375514 C15,18.0492543 15.3148262,17.7344281 15.7031233,17.7344281 L40.5468141,17.7344281 C40.9351112,17.7344281 41.2499374,18.0492543 41.2499374,18.4375514 L41.2499374,20.3125469 C41.2499374,20.700844 40.9351112,21.0156703 40.5468141,21.0156703 Z M40.5468141,30.3906479 L15.7031233,30.3906479 C15.3148262,30.3906479 15,30.0758217 15,29.6875246 L15,27.8125291 C15,27.4242319 15.3148262,27.1094057 15.7031233,27.1094057 L40.5468141,27.1094057 C40.9351112,27.1094057 41.2499374,27.4242319 41.2499374,27.8125291 L41.2499374,29.6875246 C41.2499374,30.0758217 40.9351112,30.3906479 40.5468141,30.3906479 Z M40.5468141,39.7656256 L15.7031233,39.7656256 C15.3148262,39.7656256 15,39.4507993 15,39.0625022 L15,37.1875067 C15,36.7992096 15.3148262,36.4843834 15.7031233,36.4843834 L40.5468141,36.4843834 C40.9351112,36.4843834 41.2499374,36.7992096 41.2499374,37.1875067 L41.2499374,39.0625022 C41.2499374,39.4507993 40.9351112,39.7656256 40.5468141,39.7656256 Z" id=""></path>
        </g>
    </g>
</svg>