<?xml version="1.0" encoding="UTF-8"?>
<svg width="14px" height="14px" viewBox="0 0 14 14" version="1.1" xmlns="http://www.w3.org/2000/svg" xmlns:xlink="http://www.w3.org/1999/xlink">
    <!-- Generator: Sketch 54.1 (76490) - https://sketchapp.com -->
    <title></title>
    <desc>Created with Sketch.</desc>
    <g id="Website" stroke="none" stroke-width="1" fill="none" fill-rule="evenodd">
        <g id="landing-page" transform="translate(-404.000000, -3476.000000)" fill="#CCCCCC" fill-rule="nonzero">
            <g id="Group-12" transform="translate(0.000000, 3361.000000)">
                <g id="Group-10" transform="translate(161.000000, 76.000000)">
                    <path d="M250.390607,42.1406485 L253.987462,45.7343899 C254.134342,45.8812707 254.134342,46.1187579 253.987462,46.2656387 L250.390607,49.8593801 C250.243727,50.0062609 250.006239,50.0062609 249.859359,49.8593801 L249.643722,49.6437434 C249.496872,49.4968932 249.496872,49.2531193 249.649978,49.1093819 L252.32499,46.531263 L246.374992,46.531263 C246.168755,46.531263 245.999993,46.3625012 245.999993,46.1562639 L245.999993,45.8437647 C245.999993,45.6375274 246.168755,45.4687656 246.374992,45.4687656 L252.321847,45.4687656 L249.646865,42.8906467 C249.496872,42.743766 249.493728,42.5031354 249.640609,42.3562852 L249.856246,42.1406485 C250.006239,41.9937678 250.243727,41.9937678 250.390607,42.1406485 Z M244.5,39.000031 L255.49997,39.000031 C256.328093,39.000031 256.999967,39.6719044 256.999967,40.5000274 L256.999967,51.5000012 C256.999967,52.3281242 256.328093,52.9999976 255.49997,52.9999976 L244.499996,52.9999976 C243.671873,52.9999976 243,52.3281242 243,51.5000012 L243,40.500031 C243,39.6719044 243.671873,39.000031 244.5,39.000031 Z M244.499998,40.0000286 C244.225003,40.0000286 243.999998,40.2250342 243.999998,40.5000286 L243.999998,51.5000012 C243.999998,51.7749944 244.225003,52 244.499996,52 L255.49997,52 C255.774963,52 255.999969,51.7749944 255.999969,51.5000012 L255.999969,40.5000274 C255.999969,40.2250342 255.774963,40.0000286 255.49997,40.0000286 L244.499998,40.0000286 Z" id=""></path>
                </g>
            </g>
        </g>
    </g>
</svg>