<?xml version="1.0" encoding="UTF-8"?>
<svg width="16px" height="14px" viewBox="0 0 16 14" version="1.1" xmlns="http://www.w3.org/2000/svg" xmlns:xlink="http://www.w3.org/1999/xlink">
    <!-- Generator: Sketch 54.1 (76490) - https://sketchapp.com -->
    <title></title>
    <desc>Created with Sketch.</desc>
    <g id="Website" stroke="none" stroke-width="1" fill="none" fill-rule="evenodd">
        <g id="landing-page" transform="translate(-161.000000, -3643.000000)" fill="#444C65" fill-rule="nonzero">
            <g id="Group-12" transform="translate(0.000000, 3361.000000)">
                <g id="Group-8" transform="translate(0.000000, 1.000000)">
                    <g id="Group-11" transform="translate(161.000000, 280.000000)">
                        <path d="M14.3437158,4.75002205 C14.3645492,4.83335535 14.3749657,4.96877153 14.3749657,5.15627109 C14.3749657,6.65626751 14.0103831,8.10418056 13.2812183,9.50001073 C12.5312201,10.9791737 11.4791391,12.1562544 10.1249759,13.0312523 C8.64581288,14.0104165 6.94789994,14.4999988 5.031238,14.4999988 C3.19790888,14.4999988 1.52082987,14.0104165 0,13.0312523 C0.229165961,13.0520858 0.489582325,13.0625022 0.781248137,13.0625022 C2.302078,13.0625022 3.66665777,12.5937534 4.87498838,11.6562556 C4.14582361,11.6562556 3.50520014,11.4427146 2.95311796,11.0156321 C2.40103578,10.5885496 2.02082867,10.0520929 1.81249568,9.40626095 C2.02082867,9.42709439 2.21874471,9.43751088 2.40624426,9.43751088 C2.69791008,9.43751088 2.98957636,9.40626095 3.28124218,9.3437611 C2.53124397,9.17709499 1.90624546,8.79167893 1.40624665,8.18751386 C0.906247839,7.58334879 0.656248435,6.89585043 0.656248435,6.12501878 L0.656248435,6.06251892 C1.11458083,6.33335177 1.60416268,6.47918444 2.12499493,6.50001788 C1.68749598,6.18751863 1.33333031,5.79168608 1.06249747,5.31252071 C0.79166462,4.83335535 0.656248435,4.30731462 0.656248435,3.73439948 C0.656248435,3.16148433 0.812498063,2.61461064 1.12499732,2.09377839 C1.93749538,3.11460945 2.93228452,3.92710751 4.1093652,4.53127258 C5.28644589,5.13543764 6.54165091,5.46877034 7.87498122,5.53127019 C7.83331482,5.28127079 7.81248137,5.03127138 7.81248137,4.78127198 C7.81248137,4.19793988 7.95831452,3.65106618 8.24998033,3.14065089 C8.54164614,2.6302356 8.93747869,2.22919457 9.4374775,1.93752876 C9.93747631,1.64586295 10.4791415,1.5000298 11.0624736,1.5000298 C11.541639,1.5000298 11.9843464,1.59377958 12.3905955,1.78127913 C12.7968445,1.96877868 13.1562186,2.21877809 13.4687179,2.53127734 C14.2187161,2.3854442 14.9166309,2.12502831 15.5624629,1.75002921 C15.3124635,2.52086086 14.8332981,3.12502593 14.1249663,3.56252488 C14.7499648,3.47919159 15.3749633,3.302109 15.9999619,3.03127615 C15.5416295,3.69794107 14.9895478,4.27085669 14.3437158,4.75002205 Z" id=""></path>
                    </g>
                </g>
            </g>
        </g>
    </g>
</svg>